<?xml version="1.0" encoding="UTF-8"?>
<svg version="1.1" xmlns="http://www.w3.org/2000/svg" width="2084" height="2334">
<path d="M0 0 C687.72 0 1375.44 0 2084 0 C2084 770.22 2084 1540.44 2084 2334 C1396.28 2334 708.56 2334 0 2334 C0 1563.78 0 793.56 0 0 Z " fill="#FEFEFE" transform="translate(0,0)"/>
<path d="M0 0 C-0.52372838 12.7873521 -1.93638165 25.33566404 -3.75 38 C-3.8831662 38.94265717 -4.0163324 39.88531433 -4.15353394 40.85653687 C-6.25595858 55.69375556 -8.71423516 70.37347185 -12 85 C-12.2047998 85.92925293 -12.40959961 86.85850586 -12.62060547 87.81591797 C-13.83993915 93.34527732 -15.10154633 98.86343731 -16.39257812 104.37646484 C-16.98164326 106.92071481 -17.54803695 109.46903887 -18.109375 112.01953125 C-21.52241101 127.28156991 -26.14051804 142.14450268 -31 157 C-31.36185394 158.10713348 -31.36185394 158.10713348 -31.73101807 159.2366333 C-38.93481806 181.22384324 -46.68973585 202.80681441 -56 224 C-56.43989258 225.00530762 -56.87978516 226.01061523 -57.33300781 227.04638672 C-80.89236801 280.51073493 -110.59209176 330.85203234 -146.44921875 377.00390625 C-147.91847925 378.89507027 -149.38141949 380.79097612 -150.84375 382.6875 C-156.83251924 390.41863146 -163.09008361 397.88031859 -169.50146484 405.26318359 C-170.96824599 406.96319681 -172.41832416 408.67594935 -173.86328125 410.39453125 C-186.02202 424.82668681 -199.18155126 438.27055419 -212.5 451.625 C-213.06044006 452.1881189 -213.62088013 452.75123779 -214.19830322 453.3314209 C-219.75180238 458.90506872 -225.30865136 464.428504 -231.29638672 469.54150391 C-233.87159715 471.74619109 -236.33191779 474.06441573 -238.8125 476.375 C-243.37950211 480.58953226 -248.06279362 484.60296613 -252.90625 488.5 C-255.25632 490.39904647 -257.58643622 492.31458696 -259.90625 494.25 C-268.73553557 501.60705639 -277.69546312 508.7126594 -286.96533203 515.50683594 C-289.01293649 517.00949359 -291.05134385 518.52408534 -293.08984375 520.0390625 C-424.48564855 617 -424.48564855 617 -479 617 C-477.68972827 610.53296574 -475.92031809 604.49349687 -473.625 598.3125 C-473.10824707 596.91004028 -473.10824707 596.91004028 -472.58105469 595.47924805 C-454.21356106 546.1136064 -432.03249776 498.22944215 -405 453 C-404.41959961 452.02498535 -403.83919922 451.0499707 -403.24121094 450.04541016 C-387.32693812 423.36612253 -369.85247478 397.68950378 -351 373 C-350.11587265 371.8359472 -349.23175773 370.67188495 -348.34765625 369.5078125 C-343.74406252 363.4665283 -339.03549594 357.52161288 -334.19921875 351.6640625 C-332.75594958 349.91573288 -331.32074985 348.1607039 -329.89453125 346.3984375 C-320.27573404 334.51948575 -310.1993948 323.06516028 -299.76000977 311.90356445 C-298.4142427 310.44803029 -297.08109176 308.9808218 -295.75366211 307.50854492 C-288.38609589 299.36609853 -280.71340312 291.55965199 -272.93774414 283.80737305 C-270.80172643 281.67675366 -268.67115882 279.54078777 -266.54101562 277.40429688 C-265.15917493 276.0231165 -263.77702433 274.64224611 -262.39453125 273.26171875 C-261.45828667 272.32243782 -261.45828667 272.32243782 -260.50312805 271.36418152 C-256.72223773 267.60300482 -252.82556358 264.02771986 -248.78491211 260.54679871 C-246.19327943 258.30089872 -243.69691499 255.96244109 -241.1875 253.625 C-236.58955619 249.37638663 -231.85229272 245.36617861 -226.97265625 241.44140625 C-223.45732435 238.55430712 -220.04446479 235.56180946 -216.625 232.5625 C-209.96109718 226.73772395 -203.08728065 221.3011331 -196 216 C-195.14664063 215.35675781 -194.29328125 214.71351563 -193.4140625 214.05078125 C-191.6132136 212.6954055 -189.80736992 211.34666779 -188 210 C-202.28284899 216.5426094 -215.52533773 224.81203916 -228.86181641 233.06152344 C-231.39550437 234.62659909 -233.93488967 236.18096761 -236.48046875 237.7265625 C-259.90537519 252.03178015 -282.38768228 268.09185591 -304 285 C-305.15083467 285.89219415 -306.30188232 286.78411363 -307.453125 287.67578125 C-313.86087895 292.65556188 -320.15068008 297.74551306 -326.31860352 303.01977539 C-329.646228 305.86500327 -333.02019984 308.63716303 -336.4375 311.375 C-342.12284325 315.99641937 -347.43596025 320.97953598 -352.7734375 325.9921875 C-355.23883899 328.30376845 -357.74540233 330.55109164 -360.3125 332.75 C-364.0004299 335.92680955 -367.38370919 339.36854734 -370.80078125 342.83203125 C-372.70624393 344.71041808 -374.64672321 346.46001943 -376.6875 348.1875 C-385.19228985 355.49683746 -393.18558751 363.65634706 -400.4296875 372.2109375 C-402.20465381 374.2331628 -404.08299023 376.11214627 -406 378 C-409.21434731 381.1711603 -412.21750963 384.45582753 -415.16015625 387.87890625 C-417.19508819 390.22491058 -419.28290967 392.5173645 -421.375 394.8125 C-425.26924618 399.12774576 -428.96654724 403.57091755 -432.62109375 408.08984375 C-434.72929309 410.66883965 -436.87274687 413.2090068 -439.03857422 415.73925781 C-444.41739713 422.0286319 -449.56456023 428.46532474 -454.546875 435.07421875 C-456.1819931 437.24118978 -457.8257027 439.40153562 -459.46875 441.5625 C-510.21338516 508.53133929 -551.24667877 582.77951288 -605 741 C-605.33 741 -605.66 741 -606 741 C-606.13986328 740.43941895 -606.27972656 739.87883789 -606.42382812 739.30126953 C-625.27975508 664.22618417 -655.7084432 591.2574059 -695.34619141 524.78125 C-696.88388936 522.19526609 -698.40369808 519.59974889 -699.91796875 517 C-711.83826325 496.66211524 -725.17892632 477.08925671 -739 458 C-739.54575684 457.24315918 -740.09151367 456.48631836 -740.65380859 455.70654297 C-748.31136375 445.11024728 -756.23362828 434.79718787 -764.57177734 424.72802734 C-766.60462269 422.26845822 -768.61297623 419.78911185 -770.625 417.3125 C-778.12433186 408.16797651 -785.75056583 399.17672752 -793.75 390.46484375 C-795.61766703 388.41884046 -797.44369597 386.34982843 -799.25 384.25 C-809.333532 372.72268955 -820.06115503 361.83584206 -830.875 351 C-831.46244995 350.40996185 -832.0498999 349.81992371 -832.65515137 349.21200562 C-838.37852913 343.46876749 -844.08174062 337.76289698 -850.25585938 332.49902344 C-853.1974677 329.97082144 -855.99150595 327.28596941 -858.8125 324.625 C-863.78318955 319.97360822 -868.86221192 315.5484995 -874.1796875 311.29296875 C-876.7964922 309.16545578 -879.344336 306.98024328 -881.88574219 304.7644043 C-888.8976754 298.65898294 -896.15475445 292.95956767 -903.57421875 287.359375 C-907.34982626 284.5077735 -911.07254703 281.5940793 -914.7878418 278.66455078 C-923.61938065 271.71647954 -932.65896699 265.24011632 -942 259 C-943.60190387 257.92295286 -945.20379237 256.84588278 -946.80540466 255.7684021 C-949.17152184 254.17772219 -951.53979093 252.59026991 -953.90872192 251.00378418 C-955.07122689 250.22523075 -956.23341124 249.44619833 -957.39523315 248.66662598 C-965.48117923 243.24642984 -973.6772762 238.04836345 -982 233 C-982.85988525 232.47543213 -983.71977051 231.95086426 -984.60571289 231.41040039 C-993.67098338 225.89028997 -1002.79033429 220.47873167 -1012.0625 215.3125 C-1012.81813232 214.89049316 -1013.57376465 214.46848633 -1014.35229492 214.03369141 C-1017.20586976 212.45855753 -1019.90078248 211.03307251 -1023 210 C-1022.319375 210.49886719 -1021.63875 210.99773437 -1020.9375 211.51171875 C-1008.08083337 221.0345423 -995.76915505 231.23325924 -983.61083984 241.62744141 C-981.96105316 243.03318568 -980.30345255 244.42927109 -978.64453125 245.82421875 C-967.20623007 255.48117177 -956.21255253 265.63459567 -945.71875 276.3125 C-943.87460145 278.12311858 -941.9578305 279.81325372 -940 281.5 C-933.80127526 286.84958436 -928.24342043 292.66177073 -922.9140625 298.8671875 C-920.69548172 301.33932036 -918.36293331 303.66562178 -916 306 C-912.45081843 309.5117655 -909.08031543 313.09008901 -905.8359375 316.8828125 C-903.6479383 319.40599455 -901.38706887 321.85554519 -899.125 324.3125 C-895.03119791 328.80148057 -891.14530333 333.41243476 -887.33203125 338.140625 C-885.29551394 340.6376613 -883.21742023 343.09153948 -881.1159668 345.53393555 C-874.6838202 353.02603553 -868.67724299 360.80808187 -862.73876953 368.69482422 C-860.96742204 371.04319027 -859.18553112 373.38327169 -857.40234375 375.72265625 C-842.62503309 395.1773954 -828.89682903 415.2537912 -816 436 C-815.51192871 436.78181641 -815.02385742 437.56363281 -814.52099609 438.36914062 C-807.02560351 450.39693169 -799.95758739 462.65482712 -793 475 C-792.54705566 475.80002441 -792.09411133 476.60004883 -791.62744141 477.42431641 C-786.18471484 487.04574286 -780.96379716 496.73823201 -776.13085938 506.68066406 C-774.87392032 509.2585831 -773.60032575 511.82801778 -772.328125 514.3984375 C-761.0062727 537.44642586 -751.14517011 561.10057644 -741.9375 585.0625 C-741.5387114 586.09550735 -741.5387114 586.09550735 -741.13186646 587.14938354 C-737.34701197 596.98409715 -734.03764181 606.91000137 -731 617 C-739.08837017 615.52701017 -746.41035658 612.66118971 -754 609.5625 C-755.33844768 609.02063944 -756.67690817 608.47881051 -758.01538086 607.93701172 C-796.71975858 592.20832442 -834.5228873 574.13641041 -870 552 C-870.98887207 551.38366699 -871.97774414 550.76733398 -872.99658203 550.13232422 C-886.00251218 541.99232626 -898.70481329 533.57483499 -911.03466797 524.44335938 C-913.50315105 522.63048087 -916.0034748 520.86561501 -918.5078125 519.1027832 C-937.80669111 505.50215813 -956.12372569 490.24491166 -973.50390625 474.27734375 C-975.72374551 472.2520444 -977.97393516 470.27402229 -980.25 468.3125 C-983.39726587 465.58103145 -986.32683038 462.69416594 -989.24609375 459.72265625 C-990.9588984 458.04036927 -992.73107445 456.48896241 -994.5625 454.9375 C-1003.12113217 447.54899332 -1011.18988802 439.34727504 -1018.49609375 430.72265625 C-1020.09105998 428.89569493 -1021.77017842 427.19940713 -1023.5 425.5 C-1027.21199457 421.83717092 -1030.60846641 417.95893845 -1034 414 C-1034.86367187 413.00226563 -1035.72734375 412.00453125 -1036.6171875 410.9765625 C-1047.83520496 397.99337935 -1058.9027494 384.8815983 -1069 371 C-1069.47228027 370.35514648 -1069.94456055 369.71029297 -1070.43115234 369.04589844 C-1118.53029795 303.34728606 -1155.09987143 232.30479216 -1180.36383057 154.9430542 C-1180.92936679 153.21573524 -1181.50201988 151.49075004 -1182.07568359 149.76611328 C-1197.63357735 102.81649649 -1208.91735059 50.53121063 -1210 1 C-1203.1859578 0.71540397 -1197.03095766 1.7842937 -1190.375 3.1875 C-1189.26890381 3.41598633 -1188.16280762 3.64447266 -1187.02319336 3.87988281 C-1183.67979121 4.57599604 -1180.33959246 5.28585737 -1177 6 C-1176.08911621 6.19223145 -1175.17823242 6.38446289 -1174.23974609 6.58251953 C-1161.94286245 9.19505281 -1149.77979218 12.30101251 -1137.625 15.5 C-1136.91683136 15.68550415 -1136.20866272 15.8710083 -1135.47903442 16.06213379 C-1125.22260647 18.75635786 -1115.09521353 21.75497014 -1105 25 C-1103.88866699 25.35562012 -1102.77733398 25.71124023 -1101.63232422 26.07763672 C-1058.89429259 39.8609302 -1016.74307437 57.32249382 -977.63183594 79.51416016 C-974.88312553 81.06598312 -972.11911006 82.5875223 -969.3515625 84.10546875 C-956.39962357 91.25268767 -943.95980809 99.01116962 -931.66015625 107.22607422 C-929.17659317 108.88223881 -926.68420752 110.52389889 -924.1875 112.16015625 C-903.55415423 125.72186556 -883.6728889 140.39542364 -864.94140625 156.4921875 C-862.1654606 158.85893001 -859.34436807 161.15382031 -856.5 163.4375 C-850.69772774 168.15870844 -845.25632699 173.22993848 -839.80151367 178.34204102 C-838.53402847 179.50852591 -837.2514332 180.6586994 -835.95825195 181.79663086 C-828.169859 188.66285446 -820.85988315 195.98861336 -813.53100586 203.33862305 C-811.31020693 205.56479862 -809.08409034 207.78555632 -806.85742188 210.00585938 C-805.42155416 211.44238771 -803.98599657 212.87922611 -802.55078125 214.31640625 C-801.89644608 214.96871719 -801.2421109 215.62102814 -800.56794739 216.29310608 C-796.72781763 220.15251456 -793.06887731 224.12151874 -789.51527405 228.24661255 C-787.43765934 230.65070807 -785.28096428 232.97868682 -783.125 235.3125 C-778.20375795 240.71476571 -773.5860094 246.31305671 -769 252 C-768.02592134 253.18326549 -767.05059 254.36550053 -766.07421875 255.546875 C-743.93679917 282.4093725 -724.25727396 311.0228794 -706.31005859 340.82519531 C-705.47182547 342.21673103 -704.63122825 343.60684711 -703.78759766 344.99511719 C-668.44084859 403.22539568 -641.86392915 467.76080797 -626 534 C-625.70109863 535.24330078 -625.40219727 536.48660156 -625.09423828 537.76757812 C-623.26151281 545.41568711 -621.48203206 553.07488951 -619.74169922 560.74462891 C-619.12262345 563.46179688 -618.48842321 566.17462186 -617.84765625 568.88671875 C-610.68421375 599.98764916 -608.27920797 632.32348366 -605 664 C-604.96036133 663.34966797 -604.92072266 662.69933594 -604.87988281 662.02929688 C-602.3636788 622.02026284 -596.50833987 582.46999461 -586.87353516 543.55273438 C-586.02141757 540.08710691 -585.20065113 536.61539442 -584.38671875 533.140625 C-572.84376211 484.54053328 -554.50285885 437.9982606 -533 393 C-532.64019043 392.24041992 -532.28038086 391.48083984 -531.90966797 390.69824219 C-527.31709971 381.0384216 -522.14780272 371.6841029 -517 362.3125 C-516.66447113 361.70020538 -516.32894226 361.08791077 -515.98324585 360.45706177 C-511.23469404 351.80740049 -506.23971432 343.36389227 -501 335 C-500.47970215 334.16170654 -499.9594043 333.32341309 -499.42333984 332.4597168 C-483.52281161 306.86013539 -465.96597703 282.41755744 -447 259 C-446.31550781 258.15179687 -445.63101563 257.30359375 -444.92578125 256.4296875 C-435.92521127 245.3446049 -426.63939731 234.54960692 -416.89453125 224.11328125 C-415.09904016 222.19034156 -413.33035785 220.25271819 -411.57421875 218.29296875 C-405.21197814 211.20013592 -398.53976501 204.43159221 -391.8125 197.6875 C-391.33887024 197.21128204 -390.86524048 196.73506409 -390.3772583 196.24441528 C-385.32438798 191.16978138 -380.23147786 186.21108322 -374.79418945 181.54907227 C-372.0185868 179.15266475 -369.36161537 176.63324931 -366.6875 174.125 C-361.87244557 169.64579841 -356.93468156 165.3923023 -351.8046875 161.2734375 C-349.2571011 159.20840229 -346.75747435 157.10066848 -344.26708984 154.96777344 C-337.36477844 149.06088904 -330.26696521 143.45117958 -323 138 C-322.33323242 137.49662109 -321.66646484 136.99324219 -320.97949219 136.47460938 C-302.94010003 122.88137264 -284.34245727 109.93055 -265.01806641 98.22314453 C-262.7923069 96.87411778 -260.57424423 95.51282375 -258.35546875 94.15234375 C-241.77528902 84.04183661 -224.79441407 74.62170056 -207.32324219 66.13720703 C-204.6673361 64.83716389 -202.02588515 63.50952786 -199.3828125 62.18359375 C-161.40306461 43.31209209 -121.11282731 27.55107957 -80 17 C-79.30521545 16.82059875 -78.61043091 16.64119751 -77.89459229 16.45635986 C-71.91317205 14.91222574 -65.92660175 13.38904305 -59.9375 11.875 C-58.68117767 11.55603256 -58.68117767 11.55603256 -57.3994751 11.23062134 C-13.01792291 0 -13.01792291 0 0 0 Z " fill="#CC3834" transform="translate(1644,784)"/>
<path d="M0 0 C1.89233398 0.81567383 1.89233398 0.81567383 3.61889648 3.36645508 C5.08614031 7.3406155 5.3461124 10.82608561 5.26733398 15.00317383 C5.25863281 15.78563477 5.24993164 16.5680957 5.2409668 17.37426758 C5.02332481 26.33683585 3.58965581 35.0306345 1.89233398 43.81567383 C1.76375 44.5153125 1.63516602 45.21495117 1.50268555 45.93579102 C-9.13964894 103.04694478 -37.39685654 159.90989237 -74.10766602 204.81567383 C-74.84887695 205.74637695 -75.59008789 206.67708008 -76.35375977 207.63598633 C-80.96640623 213.3758133 -85.80266451 218.86541647 -90.79125977 224.28051758 C-92.67495924 226.34210436 -94.4940331 228.43287449 -96.29516602 230.56567383 C-104.46393076 239.95975329 -113.55327614 248.84157278 -123.10766602 256.81567383 C-124.49598633 258.02030273 -124.49598633 258.02030273 -125.91235352 259.24926758 C-171.58136979 298.76475913 -225.83637029 324.87529058 -283.10766602 342.81567383 C-284.19192871 343.1558252 -285.27619141 343.49597656 -286.39331055 343.84643555 C-301.21086536 348.41321215 -316.26013741 351.63909289 -331.43139648 354.7590332 C-352.75716559 359.14760908 -374.12799617 363.70754138 -394.93481445 370.16625977 C-397.48425155 370.92822636 -400.04708667 371.62807966 -402.61547852 372.32348633 C-453.53936247 386.11819246 -524.9281506 405.65492689 -555.10766602 452.81567383 C-556.09625284 454.15749121 -557.09279175 455.49362693 -558.10766602 456.81567383 C-551.31904341 405.14108384 -525.20387225 351.68608692 -498.10766602 307.81567383 C-497.52243164 306.86096191 -496.93719727 305.90625 -496.33422852 304.92260742 C-489.24050354 293.39336828 -481.80482035 282.27014476 -473.48510742 271.59008789 C-472.15072368 269.87114053 -470.83529633 268.13944116 -469.52563477 266.40161133 C-460.94641264 255.05095004 -451.70208135 244.31766899 -442.10766602 233.81567383 C-441.21161671 232.82628605 -440.31579325 231.8366937 -439.42016602 230.84692383 C-432.10073109 222.78034714 -424.67240514 214.91401392 -416.39282227 207.81958008 C-414.04313875 205.75908838 -411.75776964 203.64150823 -409.47436523 201.50830078 C-403.22070287 195.67015509 -396.79506432 190.1566161 -390.10766602 184.81567383 C-389.00119949 183.90673083 -387.89578325 182.99650822 -386.79125977 182.08520508 C-353.2338234 154.56709302 -314.52634559 131.3812898 -271.92016602 121.62817383 C-271.19555176 121.46091797 -270.4709375 121.29366211 -269.72436523 121.12133789 C-259.60212217 118.90144737 -249.56917209 118.63373707 -239.23266602 118.62817383 C-237.44795898 118.60980469 -237.44795898 118.60980469 -235.62719727 118.59106445 C-224.7212009 118.57318577 -214.63511332 119.16977913 -205.10766602 124.81567383 C-203.10766602 126.81567383 -203.10766602 126.81567383 -202.60766602 130.37817383 C-202.91179974 139.27808697 -210.74342225 146.09710223 -216.80688477 151.87036133 C-222.4779165 157.05819534 -228.70939154 161.57181581 -234.87280273 166.1496582 C-238.53772109 168.88173193 -242.16608663 171.66126968 -245.79516602 174.44067383 C-246.5007666 174.98046875 -247.20636719 175.52026367 -247.93334961 176.07641602 C-262.78883655 187.45289038 -277.39479839 199.06472025 -291.10766602 211.81567383 C-291.92879883 212.57106445 -292.74993164 213.32645508 -293.59594727 214.10473633 C-301.66215393 221.8071483 -309.8543454 231.37701577 -314.10766602 241.81567383 C-313.9123645 244.11454391 -313.9123645 244.11454391 -313.10766602 245.81567383 C-239.57498119 250.42426828 -149.45421919 199.34474081 -96.48266602 152.81567383 C-94.67670426 151.16188374 -92.88615465 149.49849667 -91.10766602 147.81567383 C-90.48585449 147.22786133 -89.86404297 146.64004883 -89.22338867 146.03442383 C-64.76568158 122.71603296 -49.69768941 96.84849669 -37.66537476 65.54864502 C-23.25426329 28.15038913 -23.25426329 28.15038913 -13.92016602 12.81567383 C-13.54013428 12.18612793 -13.16010254 11.55658203 -12.76855469 10.90795898 C-5.46679581 -0.47809925 -5.46679581 -0.47809925 0 0 Z " fill="#CC3834" transform="translate(1597.107666015625,1299.184326171875)"/>
<path d="M0 0 C15.58084307 6.23233723 24.16084454 35.83390844 30.26171875 49.88671875 C33.19140949 56.76868162 35.84545818 63.7424621 38.48840332 70.73770142 C52.02915424 106.51521284 73.11734307 136.02927789 103.1875 159.875 C103.98929688 160.555625 104.79109375 161.23625 105.6171875 161.9375 C152.88595524 201.99078606 215.09976474 228.22211073 275 242.25 C276.06726318 242.50096436 277.13452637 242.75192871 278.23413086 243.01049805 C287.4507869 245.0943964 296.37311507 246.05392505 305.8125 245.9375 C306.53050781 245.93298828 307.24851562 245.92847656 307.98828125 245.92382812 C309.72139208 245.91227405 311.4544587 245.89435158 313.1875 245.875 C308.77562792 228.52163649 293.65492027 213.96143989 280.1875 202.875 C279.27097656 202.08222656 278.35445312 201.28945312 277.41015625 200.47265625 C268.62879954 192.88218062 259.44623908 185.86886279 250.1875 178.875 C226.71535289 161.10323148 226.71535289 161.10323148 218.1875 153.875 C217.3934375 153.22660156 216.599375 152.57820313 215.78125 151.91015625 C209.60114757 146.70857004 201.92962834 139.44096253 200.8125 131.0625 C201.19599913 127.8027574 201.76815477 126.18238112 204.2265625 123.97265625 C208.7620334 121.43387672 214.13381203 120.83023093 219.1875 119.875 C219.78618896 119.70226563 220.38487793 119.52953125 221.00170898 119.3515625 C252.11523823 112.56795822 288.60524697 124.21431884 316.1875 137.875 C317.57606201 138.54909912 317.57606201 138.54909912 318.99267578 139.23681641 C341.7272556 150.33683584 362.44427117 164.09591919 382.1875 179.875 C383.17492187 180.66132812 384.16234375 181.44765625 385.1796875 182.2578125 C387.87328165 184.43611038 390.53595995 186.64572817 393.1875 188.875 C393.70844238 189.31102539 394.22938477 189.74705078 394.76611328 190.19628906 C408.1709647 201.44058005 420.79502141 213.4027927 433.1875 225.75 C434.07187744 226.62970459 434.95625488 227.50940918 435.86743164 228.41577148 C440.84772202 233.40836238 445.61763544 238.50529967 450.1875 243.875 C451.07633329 244.89625968 451.96562363 245.91712183 452.85546875 246.9375 C460.02930819 255.30141823 466.70073072 263.96961348 473.1875 272.875 C473.67331543 273.53983398 474.15913086 274.20466797 474.65966797 274.88964844 C486.88240036 291.69029029 498.1447217 309.17748808 507.92480469 327.51416016 C509.2603966 330.01129352 510.61882486 332.49531566 511.9765625 334.98046875 C524.92027696 358.94607637 535.53960397 384.05790908 544.1875 409.875 C544.50799316 410.82020508 544.82848633 411.76541016 545.15869141 412.73925781 C548.58852588 422.91121705 551.64365244 433.1316456 554.1875 443.5625 C554.40760742 444.45420898 554.62771484 445.34591797 554.85449219 446.26464844 C555.04688477 447.08868164 555.23927734 447.91271484 555.4375 448.76171875 C555.69273437 449.84779419 555.69273437 449.84779419 555.953125 450.95581055 C556.1875 452.875 556.1875 452.875 555.1875 455.875 C554.83300781 455.23175781 554.47851562 454.58851563 554.11328125 453.92578125 C542.30841341 433.88894745 522.3124487 421.46165489 502.1875 410.875 C501.42501953 410.46459473 500.66253906 410.05418945 499.87695312 409.63134766 C474.62117349 396.09274378 447.44628845 386.50680355 420.1875 377.875 C418.81996582 377.43196533 418.81996582 377.43196533 417.42480469 376.97998047 C390.67960872 368.31611312 363.27139796 361.77451315 335.75 356.125 C334.83188538 355.93649475 333.91377075 355.7479895 332.96783447 355.55377197 C332.05950867 355.36732117 331.15118286 355.18087036 330.21533203 354.98876953 C287.49519599 346.21599653 246.42092198 333.07940573 207.1875 313.875 C206.2706543 313.42688965 205.35380859 312.9787793 204.40917969 312.51708984 C183.1199579 301.99720526 163.10307985 289.20767448 144.1875 274.875 C143.5672998 274.40642578 142.94709961 273.93785156 142.30810547 273.45507812 C138.20506008 270.33716166 134.18029406 267.13252429 130.1875 263.875 C129.65253906 263.44445313 129.11757813 263.01390625 128.56640625 262.5703125 C118.90649104 254.74045317 110.11598831 246.01266751 101.3125 237.25 C100.73045807 236.6732251 100.14841614 236.0964502 99.54873657 235.50219727 C92.27738135 228.28173192 85.5492871 220.91894978 79.1875 212.875 C78.32444411 211.84717079 77.45603939 210.82376107 76.578125 209.80859375 C60.37507993 190.91489703 47.09883497 169.80030618 35.30615234 147.93603516 C34.27968577 146.04484553 33.23241974 144.16741289 32.17578125 142.29296875 C22.61495814 125.01367181 15.11678843 106.71560482 8.90771484 87.99267578 C7.89220616 85.00673601 6.74900895 82.0715345 5.625 79.125 C-1.65710705 58.6966469 -6.00603703 37.06194984 -6.125 15.375 C-6.13063965 14.38878662 -6.1362793 13.40257324 -6.14208984 12.38647461 C-6.06039446 4.46686843 -6.06039446 4.46686843 -3.8125 0.875 C-1.8125 -0.125 -1.8125 -0.125 0 0 Z " fill="#CC3834" transform="translate(481.8125,1299.125)"/>
<path d="M0 0 C1.51423039 1.29605655 3.01448398 2.6086289 4.5 3.9375 C5.73943359 4.99904297 5.73943359 4.99904297 7.00390625 6.08203125 C30.34280697 26.42785157 44.84976656 53.85045489 48.3125 84.6875 C48.40323772 86.43626325 48.46290841 88.18677716 48.5 89.9375 C48.55027344 91.18015625 48.60054687 92.4228125 48.65234375 93.703125 C49.63009899 127.24643793 37.35899161 158.17065767 14.81640625 182.87890625 C-1.20318653 199.77643341 -21.20097804 210.65608536 -43.5 216.9375 C-44.64984375 217.2778125 -45.7996875 217.618125 -46.984375 217.96875 C-75.67812721 225.10913073 -108.96289132 219.48108127 -134.5 204.9375 C-160.86502475 188.78568845 -181.66517462 164.92699376 -190.5 134.9375 C-190.72703613 134.22126465 -190.95407227 133.5050293 -191.18798828 132.76708984 C-200.53089087 102.78009959 -196.81240297 68.77200946 -182.5 40.9375 C-176.90646155 30.51869821 -170.19889432 21.70369793 -161.87255859 13.33349609 C-160.6514101 12.09149554 -159.47273455 10.8080554 -158.30078125 9.51953125 C-118.4181516 -33.40177494 -45.07556048 -35.245999 0 0 Z " fill="#CC3834" transform="translate(1112.5,567.0625)"/>
<path d="M0 0 C8.77379827 4.48438578 16.14369835 10.9828104 23 18 C22.28457031 18.98355469 21.56914063 19.96710938 20.83203125 20.98046875 C-11.46265778 65.79154371 -34.16208209 116.87428118 -41 172 C-41.10296387 172.77166504 -41.20592773 173.54333008 -41.31201172 174.33837891 C-46.05100608 211.13483595 -44.28255308 249.88986102 -36 286 C-35.82774902 286.78294434 -35.65549805 287.56588867 -35.47802734 288.37255859 C-25.49743188 333.46494421 -4.47546033 376.72585504 24 413 C19.80398019 417.44727848 15.17275921 421.11474554 10.3125 424.8125 C9.15524414 425.7087207 9.15524414 425.7087207 7.97460938 426.62304688 C7.23662109 427.18701172 6.49863281 427.75097656 5.73828125 428.33203125 C4.73341675 429.10123901 4.73341675 429.10123901 3.70825195 429.88598633 C2 431 2 431 0 431 C-1.21411133 429.6809082 -1.21411133 429.6809082 -2.58203125 427.80078125 C-3.09499756 427.09767822 -3.60796387 426.3945752 -4.13647461 425.67016602 C-4.96610718 424.50312134 -4.96610718 424.50312134 -5.8125 423.3125 C-6.67983765 422.09614868 -6.67983765 422.09614868 -7.56469727 420.85522461 C-33.60514204 383.89493465 -53.41295459 342.00555378 -64 298 C-64.22671387 297.05866211 -64.45342773 296.11732422 -64.68701172 295.14746094 C-68.18616327 280.2866817 -70.23676194 265.42241661 -71.69042969 250.23291016 C-71.86602304 248.39915059 -72.0481579 246.5659151 -72.25128174 244.73500061 C-72.87790871 238.94762486 -73.1718808 233.2374784 -73.203125 227.41796875 C-73.21013931 226.53401428 -73.21715363 225.65005981 -73.22438049 224.73931885 C-73.24182415 221.88866022 -73.24823696 219.03821012 -73.25 216.1875 C-73.25067474 215.2084671 -73.25134949 214.2294342 -73.25204468 213.22073364 C-73.21384253 178.21721407 -67.9058764 144.5766141 -58 111 C-57.76200684 110.18805176 -57.52401367 109.37610352 -57.27880859 108.53955078 C-45.6632499 69.64975056 -25.64345789 31.50732027 0 0 Z " fill="#CC3935" transform="translate(759,450)"/>
<path d="M0 0 C4.2976635 1.4325545 5.90097053 4.6575022 8.375 8.25 C8.89956787 9.00434326 9.42413574 9.75868652 9.96459961 10.53588867 C34.98828676 46.9282523 53.61448685 86.01529363 64 129 C64.38349254 130.54312347 64.76756695 132.08610251 65.15234375 133.62890625 C67.54486947 143.34434434 69.53765065 153.10131502 71 163 C71.13825195 163.90331055 71.27650391 164.80662109 71.41894531 165.73730469 C76.15336144 197.93774665 75.90592005 231.85437779 71 264 C70.76732139 265.70152219 70.53676258 267.40333595 70.30859375 269.10546875 C62.80749622 322.91674552 40.21874804 375.20039733 8.875 419.3125 C8.34253662 420.06611816 7.81007324 420.81973633 7.26147461 421.59619141 C6.50942749 422.62558838 6.50942749 422.62558838 5.7421875 423.67578125 C5.09032471 424.5716394 5.09032471 424.5716394 4.42529297 425.4855957 C2.78350414 427.23003149 1.18450569 428.05357531 -1 429 C-3.5663824 426.94229435 -6.12737287 424.87798116 -8.6875 422.8125 C-9.40873047 422.23435547 -10.12996094 421.65621094 -10.87304688 421.06054688 C-14.80523472 417.88247724 -18.50781344 414.65749716 -22 411 C-21.47998413 410.29991821 -21.47998413 410.29991821 -20.94946289 409.58569336 C-13.37910322 399.35463198 -6.28420764 389.06729561 0 378 C0.59675537 376.96456055 0.59675537 376.96456055 1.20556641 375.90820312 C43.77630542 301.96168338 55.63089893 213.6827338 34.27441406 130.96728516 C33.27085325 127.28283102 32.15813367 123.63853993 31 120 C30.72849121 119.14438477 30.45698242 118.28876953 30.17724609 117.40722656 C19.45764999 84.15339392 4.07967767 52.33700238 -16.96679688 24.36206055 C-19.03234699 21.57796452 -20.29028597 19.3787086 -21 16 C-18.06382588 13.70663047 -15.12583438 11.41560087 -12.1875 9.125 C-11.35412109 8.47402344 -10.52074219 7.82304687 -9.66210938 7.15234375 C-8.85966797 6.52714844 -8.05722656 5.90195312 -7.23046875 5.2578125 C-6.49207764 4.6817627 -5.75368652 4.10571289 -4.99291992 3.51220703 C-3.37191944 2.28220863 -1.69308202 1.12872135 0 0 Z " fill="#CC3935" transform="translate(1316,451)"/>
<path d="M0 0 C4.48983216 1.51739698 6.49817242 5.10933457 9 8.875 C9.47348877 9.57753906 9.94697754 10.28007812 10.43481445 11.00390625 C37.69449199 51.92690014 55.36182512 96.81952309 60 146 C60.13019531 147.19238281 60.26039062 148.38476562 60.39453125 149.61328125 C63.60739839 184.01237879 60.82780194 221.09880117 50 254 C49.41768872 255.84496372 48.83568763 257.69002536 48.25390625 259.53515625 C44.24206858 272.08103024 39.69922439 284.12876878 34 296 C33.62649414 296.79325684 33.25298828 297.58651367 32.86816406 298.40380859 C24.34412994 316.44906817 13.8300935 332.95609 2 349 C-3.57647685 346.98605113 -7.67798977 343.68012479 -12.3125 340.0625 C-13.14845703 339.42892578 -13.98441406 338.79535156 -14.84570312 338.14257812 C-15.63525391 337.52962891 -16.42480469 336.91667969 -17.23828125 336.28515625 C-17.96055908 335.72707275 -18.68283691 335.16898926 -19.42700195 334.59399414 C-21 333 -21 333 -21 330 C-19.30471006 327.48111175 -17.56374904 325.05611864 -15.75 322.625 C-8.67731034 312.85870718 -2.69180505 302.62062261 3 292 C3.4031543 291.2565332 3.80630859 290.51306641 4.22167969 289.74707031 C23.1013724 254.38587262 31.18689046 213.32306847 31.3125 173.5625 C31.31642761 172.36119446 31.31642761 172.36119446 31.32043457 171.13562012 C31.32597359 155.15871666 29.8150321 139.7474568 27 124 C26.85578613 123.17773926 26.71157227 122.35547852 26.56298828 121.50830078 C25.65733514 116.58044992 24.43656715 111.79849194 23 107 C22.5654248 105.5464209 22.5654248 105.5464209 22.12207031 104.06347656 C13.52665874 75.88444219 1.64508813 47.98332826 -16.61132812 24.61499023 C-20.55923099 19.5347946 -20.55923099 19.5347946 -21 16 C-14.03098109 10.62450675 -7.05783818 5.25878139 0 0 Z " fill="#CC3935" transform="translate(1264,491)"/>
<path d="M0 0 C1.79003655 1.33375272 3.57816527 2.67010686 5.359375 4.015625 C7.36049464 5.51942497 9.37134354 7.00536952 11.390625 8.484375 C12.57321044 9.3641886 13.75550185 10.24439755 14.9375 11.125 C15.51717529 11.54442871 16.09685059 11.96385742 16.6940918 12.39599609 C18.88410773 14.04183806 20.72609825 15.55536616 22.171875 17.90234375 C21.88183706 21.44212493 19.47088939 23.77079168 17.3125 26.4375 C-11.3575946 63.72815175 -28.94487553 115.44229535 -29.203125 162.390625 C-29.21004868 163.24978012 -29.21697235 164.10893524 -29.22410583 164.99412537 C-29.24126695 167.74613074 -29.24769095 170.49794367 -29.25 173.25 C-29.25200912 174.65845688 -29.25200912 174.65845688 -29.25405884 176.09536743 C-29.2497655 189.95529609 -28.68512003 203.36785216 -26 217 C-25.75595645 218.36946221 -25.51370658 219.73924553 -25.2734375 221.109375 C-18.32057059 258.54788911 -2.97500307 298.66650842 21.75024414 328.08227539 C22.16266357 328.71512451 22.57508301 329.34797363 23 330 C21.89188972 333.32433085 21.26841537 333.81862244 18.54296875 335.8125 C17.84236328 336.33070313 17.14175781 336.84890625 16.41992188 337.3828125 C15.68322266 337.91648437 14.94652344 338.45015625 14.1875 339 C13.46240234 339.53367187 12.73730469 340.06734375 11.99023438 340.6171875 C10.63158362 341.61659757 9.27073292 342.61302885 7.90698242 343.60546875 C5.92571202 345.05432505 3.96094233 346.52378193 2 348 C-2.11537096 346.48479524 -4.09308132 343.60491775 -6.5 340.125 C-6.92651855 339.51640137 -7.35303711 338.90780273 -7.79248047 338.28076172 C-17.02997458 324.87192529 -25.09215413 310.73577189 -32 296 C-32.31888184 295.33419922 -32.63776367 294.66839844 -32.96630859 293.98242188 C-51.33821169 255.46804976 -59.26314456 214.71001121 -59.1875 172.25 C-59.18623108 171.50688568 -59.18496216 170.76377136 -59.18365479 169.99813843 C-59.03710937 124.74406495 -47.60371893 79.85101593 -26 40 C-25.6405127 39.33178223 -25.28102539 38.66356445 -24.91064453 37.97509766 C-9.51516168 9.51516168 -9.51516168 9.51516168 0 0 Z " fill="#CC3935" transform="translate(813,491)"/>
<path d="M0 0 C4.49325354 0.70542547 7.44368551 3.45978036 10.875 6.25 C11.47441406 6.72824219 12.07382812 7.20648437 12.69140625 7.69921875 C16.50259186 10.74982068 20.25830366 13.86475597 24 17 C22.71453247 20.54590318 21.19830468 23.30343845 18.9375 26.3125 C6.45788392 43.85630811 -2.91157829 64.09404475 -8 85 C-8.18401367 85.75104004 -8.36802734 86.50208008 -8.55761719 87.27587891 C-16.94103147 122.2945562 -16.72299861 159.99489462 -4 194 C-3.59523438 195.21945312 -3.19046875 196.43890625 -2.7734375 197.6953125 C3.50067593 216.20866449 13.43912836 233.3199989 25 249 C21.41839267 252.72833985 17.68182956 255.94529974 13.5625 259.0625 C13.01529297 259.48337891 12.46808594 259.90425781 11.90429688 260.33789062 C8.35995409 263.04333571 4.73317116 265.56189576 1 268 C-12.02939756 250.34639037 -22.76868249 231.90642506 -30.67578125 211.40234375 C-31.54967292 209.15703506 -32.4853874 206.93470239 -33.484375 204.7421875 C-53.63270632 157.99728117 -47.87017881 98.26632094 -30.06640625 52.0546875 C-27.15886341 44.79061479 -23.73167703 37.87035601 -20 31 C-19.64824707 30.33806641 -19.29649414 29.67613281 -18.93408203 28.99414062 C-7.48465473 7.48465473 -7.48465473 7.48465473 0 0 Z " fill="#CC3935" transform="translate(864,532)"/>
<path d="M0 0 C16.933549 5.27822325 34.50295934 12.68338759 49 23 C49.91458984 23.59941406 49.91458984 23.59941406 50.84765625 24.2109375 C59.00490193 30.0941684 64.01072309 41.38516159 66 51 C67.16012693 67.06329601 62.64162925 81.39735662 52.640625 93.96484375 C44.62280726 102.45504884 34.8809462 108.32291571 23.08984375 109.3359375 C21.70586858 109.35950567 20.32167341 109.37241034 18.9375 109.375 C17.94459961 109.41173828 17.94459961 109.41173828 16.93164062 109.44921875 C3.23966883 109.52592447 -9.68358052 102.77833484 -21.875 97.25 C-23.44883337 96.54471233 -25.02305033 95.84027997 -26.59765625 95.13671875 C-30.40291723 93.43427499 -34.20284992 91.72045372 -38 90 C-37.47382069 85.194905 -36.51253108 81.35209928 -34.47265625 76.9765625 C-33.93632568 75.8102832 -33.39999512 74.64400391 -32.84741211 73.44238281 C-32.55752411 72.82254517 -32.26763611 72.20270752 -31.96896362 71.56408691 C-30.37932454 68.16356619 -28.82064088 64.74884122 -27.2578125 61.3359375 C-26.92118088 60.6027832 -26.58454926 59.86962891 -26.23771667 59.11425781 C-21.85487423 49.544322 -17.65290138 39.8945295 -13.4375 30.25 C-11.93680308 26.81744325 -10.43566867 23.38507898 -8.93359375 19.953125 C-8.58718338 19.16154999 -8.24077301 18.36997498 -7.88386536 17.55441284 C-5.30817 11.67893513 -2.68533188 5.8263066 0 0 Z " fill="#CC3A36" transform="translate(710,1805)"/>
<path d="M0 0 C3.78915553 3.57454849 6.82760772 7.32442044 9.6875 11.6875 C10.11611328 12.34121582 10.54472656 12.99493164 10.98632812 13.66845703 C23.62810182 33.22629597 33.39492198 54.33118692 39 77 C39.33386719 78.17175781 39.66773438 79.34351563 40.01171875 80.55078125 C47.55306845 107.99680859 47.72358483 136.92683008 44 165 C43.855625 166.18335938 43.71125 167.36671875 43.5625 168.5859375 C38.82114707 203.55341533 22.83838839 239.42161224 1 267 C-2.10124035 265.57195849 -4.64617861 263.84943109 -7.328125 261.7421875 C-8.52695313 260.80439453 -8.52695313 260.80439453 -9.75 259.84765625 C-10.575 259.19667969 -11.4 258.54570313 -12.25 257.875 C-13.09046875 257.21628906 -13.9309375 256.55757812 -14.796875 255.87890625 C-16.86704852 254.25570201 -18.93463506 252.62931524 -21 251 C-19.3762662 246.71352392 -17.1887913 243.22830969 -14.5625 239.5 C-2.6807051 222.08985477 6.21351032 202.88830078 11.75 182.5625 C11.93675293 181.88493652 12.12350586 181.20737305 12.31591797 180.50927734 C16.23176641 165.15901074 17.52567992 149.85386908 17.375 134.0625 C17.36802094 132.7499675 17.36802094 132.7499675 17.36090088 131.41091919 C17.28190087 118.72215824 16.88770081 106.40351201 14 94 C13.80664062 93.1121582 13.61328125 92.22431641 13.4140625 91.30957031 C7.94732731 66.56584452 -2.46198869 39.76321713 -19.296875 20.3515625 C-19.85890625 19.57554687 -20.4209375 18.79953125 -21 18 C-19.68311496 14.04934489 -17.78963855 13.11664671 -14.4375 10.6875 C-13.34763871 9.89064899 -12.25779502 9.09377391 -11.16796875 8.296875 C-10.12253906 7.53890625 -9.07710937 6.7809375 -8 6 C-6.41407137 4.8159683 -4.830264 3.62908147 -3.25 2.4375 C-2.16666667 1.625 -1.08333333 0.8125 0 0 Z " fill="#CC3A36" transform="translate(1211,532)"/>
<path d="M0 0 C9.57 0 19.14 0 29 0 C29.70836102 14.66723985 30.2520772 29.31943591 30.5625 44 C30.58367889 44.96215424 30.60485779 45.92430847 30.62667847 46.9156189 C30.9911368 63.61291591 31.12993131 80.29882976 31 97 C22.82195978 98.63560804 14.33999734 98 6 98 C5.01 67.805 5.01 67.805 4 37 C-0.894263 49.13059214 -0.894263 49.13059214 -5.78295898 61.26342773 C-6.39546799 62.77856498 -7.00816645 64.29362567 -7.62109375 65.80859375 C-7.93985474 66.60237427 -8.25861572 67.39615479 -8.58703613 68.21398926 C-10.8859282 73.8859282 -10.8859282 73.8859282 -12 75 C-14.86267567 75.07325168 -17.700719 75.09238205 -20.5625 75.0625 C-21.36880859 75.05798828 -22.17511719 75.05347656 -23.00585938 75.04882812 C-25.00393756 75.03700518 -27.00197783 75.01906914 -29 75 C-30.33635189 72.20974675 -31.66904358 69.41782658 -33 66.625 C-33.36222656 65.86960937 -33.72445313 65.11421875 -34.09765625 64.3359375 C-38.24138263 55.62708884 -42.07783688 46.82486703 -46 38 C-46 58.13 -46 78.26 -46 99 C-53.59 99 -61.18 99 -69 99 C-69.26417764 89.6185322 -69.52554002 80.23699656 -69.78230286 70.85532284 C-69.90170662 66.49635496 -70.02221814 62.13742429 -70.14550781 57.77856445 C-70.68023281 38.84606356 -71.13058132 19.94245335 -71 1 C-61.43 1 -51.86 1 -42 1 C-37.11846988 10.57162769 -32.43475738 20.22217675 -27.89364624 29.95935059 C-27.29729782 31.23770264 -26.69965879 32.5154534 -26.10073853 33.79260254 C-25.2505909 35.60723052 -24.40642455 37.42465703 -23.5625 39.2421875 C-23.06878906 40.3029248 -22.57507812 41.36366211 -22.06640625 42.45654297 C-21 45 -21 45 -21 47 C-20.34 47 -19.68 47 -19 47 C-18.82744186 46.45694717 -18.65488373 45.91389435 -18.47709656 45.35438538 C-16.64642994 39.7144193 -14.53131392 34.26152065 -12.20703125 28.80859375 C-11.85613937 27.97787857 -11.5052475 27.14716339 -11.14372253 26.29127502 C-10.03649293 23.67199149 -8.92458538 21.05472503 -7.8125 18.4375 C-7.0550266 16.64791846 -6.29786228 14.85820607 -5.54101562 13.06835938 C-3.69814552 8.7104661 -1.8489447 4.35533923 0 0 Z " fill="#CC3A36" transform="translate(1075,1883)"/>
<path d="M0 0 C5.74036034 4.40877578 9.90510805 10.03894647 12 17 C12.57509803 23.11454807 12.59111883 29.04899036 11 35 C11.93457031 34.98839844 12.86914062 34.97679687 13.83203125 34.96484375 C24.59031315 34.89093995 35.26352522 35.35233411 46 36 C47.6614338 36.09677625 49.32289213 36.19313242 50.984375 36.2890625 C54.98988117 36.52122436 58.9950173 36.75898312 63 37 C61.26383071 40.69247839 59.10549826 43.2559743 56.3125 46.25 C55.48363281 47.14203125 54.65476562 48.0340625 53.80078125 48.953125 C53.34429199 49.42105469 52.88780273 49.88898438 52.41748047 50.37109375 C50.90993301 52.00916663 50.90993301 52.00916663 49.69580078 54.16015625 C47.97063535 56.75842717 46.63763919 58.30641128 44 60 C38.33643644 60.7147773 32.90210213 60.11201106 27.25 59.5 C25.73733518 59.36319234 24.2243066 59.23034596 22.7109375 59.1015625 C20.50312242 58.9125427 18.29579823 58.72154147 16.08932495 58.51741028 C5.79755742 57.00222096 5.79755742 57.00222096 -3.625 59.8125 C-5.14430327 62.03768937 -5.14430327 62.03768937 -6 65 C-5.45601562 65.22429687 -4.91203125 65.44859375 -4.3515625 65.6796875 C-1.28082375 67.40378998 1.09473081 69.7119334 3.625 72.125 C8.86910176 77.03829745 14.30930581 81.60607905 20 86 C18.35575077 90.06168708 15.46975146 92.93543612 12.5 96.0625 C9.78869481 98.93844517 7.20153517 101.69769724 5 105 C0.74635242 104.51731659 -1.63008638 101.84485048 -4.5625 99 C-8.39104979 95.3820029 -12.25186394 91.91129215 -16.375 88.625 C-21.41336194 84.57398276 -26.1030476 80.22776443 -30.8059082 75.79956055 C-35.11863132 71.76069859 -39.59829641 68.0106011 -44.2109375 64.31640625 C-48.05559356 61.12329554 -51.70062157 57.73428609 -55.34887695 54.3203125 C-59.00882817 50.89646933 -62.74340963 47.59420172 -66.609375 44.40234375 C-68 43 -68 43 -69 40 C-67.55078125 37.7578125 -67.55078125 37.7578125 -65.3125 35.125 C-64.07306641 33.66513672 -64.07306641 33.66513672 -62.80859375 32.17578125 C-58.89034305 27.70794323 -54.84974539 23.35352397 -50.79296875 19.01171875 C-48.5376955 16.59346824 -46.34489735 14.13145939 -44.1875 11.625 C-32.16642821 -2.16729251 -17.4980434 -11.78500701 0 0 Z " fill="#CC3A36" transform="translate(1633,1623)"/>
<path d="M0 0 C3.35013343 1.39971946 4.92845705 2.88067159 6.9609375 5.8671875 C7.50766113 6.66020264 8.05438477 7.45321777 8.61767578 8.27026367 C9.19759277 9.12982666 9.77750977 9.98938965 10.375 10.875 C11.6299836 12.70197731 12.88519842 14.52879581 14.140625 16.35546875 C14.78064453 17.29310059 15.42066406 18.23073242 16.08007812 19.19677734 C19.06182707 23.55034314 22.09369965 27.86836192 25.125 32.1875 C26.29169927 33.85414384 27.45836627 35.52081028 28.625 37.1875 C31.78293311 41.69368309 34.95145797 46.1923005 38.125 50.6875 C38.60445068 51.36796387 39.08390137 52.04842773 39.57788086 52.74951172 C42.16038538 56.41121342 44.75959545 60.05983173 47.37890625 63.6953125 C47.93239746 64.46786377 48.48588867 65.24041504 49.05615234 66.03637695 C50.11784944 67.51770022 51.18434311 68.99560129 52.25634766 70.46948242 C52.73249512 71.13568604 53.20864258 71.80188965 53.69921875 72.48828125 C54.12033936 73.07134033 54.54145996 73.65439941 54.9753418 74.25512695 C56.08899658 76.15155077 56.57038993 77.85253857 57 80 C54.6090325 81.79848876 52.21265138 83.58884084 49.8125 85.375 C49.13896484 85.88289063 48.46542969 86.39078125 47.77148438 86.9140625 C47.11083984 87.40390625 46.45019531 87.89375 45.76953125 88.3984375 C45.16729736 88.84880371 44.56506348 89.29916992 43.94458008 89.76318359 C41.60005269 91.25437955 39.70518638 92.29737051 37 93 C34.22705078 92.11645508 34.22705078 92.11645508 31.1953125 90.51953125 C30.06577148 89.93768066 28.93623047 89.35583008 27.77246094 88.75634766 C26.55660284 88.10846934 25.34078342 87.46051843 24.125 86.8125 C22.23283528 85.82958209 20.33744846 84.85306458 18.4420166 83.87646484 C17.15892396 83.21455003 15.87694495 82.5504722 14.59606934 81.88427734 C8.71187629 78.82688931 2.74692312 75.9545162 -3.25 73.125 C-12.22702641 68.86645743 -21.13646059 64.4896593 -30 60 C-29.29617188 60.99515625 -28.59234375 61.9903125 -27.8671875 63.015625 C-16.14091386 79.60553419 -4.47378453 96.23422505 7 113 C5.46642041 117.62233847 1.71292205 119.6356531 -2.125 122.25 C-2.78371094 122.70890625 -3.44242188 123.1678125 -4.12109375 123.640625 C-5.7420005 124.76821231 -7.37029686 125.88516391 -9 127 C-12.07537761 125.67351872 -13.70888009 124.44310023 -15.59375 121.68359375 C-16.06022949 121.01094482 -16.52670898 120.3382959 -17.00732422 119.64526367 C-17.74619873 118.55242065 -17.74619873 118.55242065 -18.5 117.4375 C-19.57528103 115.88004275 -20.65080852 114.32275562 -21.7265625 112.765625 C-22.2721582 111.96962891 -22.81775391 111.17363281 -23.37988281 110.35351562 C-25.8440489 106.77386506 -28.36081023 103.23209541 -30.875 99.6875 C-36.40184338 91.86461167 -41.89621228 84.01911569 -47.3828125 76.16796875 C-49.89019598 72.58137994 -52.40706945 69.0016702 -54.9296875 65.42578125 C-55.56922363 64.51739502 -56.20875977 63.60900879 -56.86767578 62.6730957 C-58.09566356 60.92922564 -59.32571227 59.18680447 -60.55810547 57.44604492 C-61.11127441 56.6594751 -61.66444336 55.87290527 -62.234375 55.0625 C-62.72131836 54.37285156 -63.20826172 53.68320313 -63.70996094 52.97265625 C-64.97453661 51.0389372 -66.01166307 49.08635942 -67 47 C-66.52167725 46.66266846 -66.04335449 46.32533691 -65.55053711 45.9777832 C-63.34603978 44.42290365 -61.1417687 42.86770364 -58.9375 41.3125 C-58.18533203 40.78205078 -57.43316406 40.25160156 -56.65820312 39.70507812 C-55.91376953 39.17978516 -55.16933594 38.65449219 -54.40234375 38.11328125 C-53.65839355 37.59588379 -52.91444336 37.07848633 -52.14794922 36.54541016 C-50.76201993 35.54825939 -49.40562831 34.50805902 -48.09033203 33.41943359 C-46.31640625 31.98046875 -46.31640625 31.98046875 -43 30 C-36.92233662 31.30239882 -31.23734986 34.70504627 -25.6953125 37.4453125 C-24.61619598 37.97518768 -23.53707947 38.50506287 -22.42526245 39.05099487 C-18.99007985 40.73877439 -15.55751852 42.43181003 -12.125 44.125 C-9.79183776 45.27248337 -7.45850632 46.41962277 -5.125 47.56640625 C0.58530038 50.37362056 6.29345953 53.18515104 12 56 C10.96657583 52.8997275 9.69375982 50.93997055 7.82421875 48.2734375 C7.16615234 47.33121338 6.50808594 46.38898926 5.83007812 45.41821289 C5.12302734 44.41395264 4.41597656 43.40969238 3.6875 42.375 C2.97142578 41.35204834 2.25535156 40.32909668 1.51757812 39.27514648 C-0.6506573 36.18039105 -2.82435321 33.08954857 -5 30 C-5.63728027 29.09427246 -6.27456055 28.18854492 -6.93115234 27.25537109 C-10.27982219 22.49816983 -13.63608541 17.74643251 -17 13 C-13.50164156 9.29394681 -9.99149936 6.47800508 -5.6875 3.6875 C-4.61886719 2.99011719 -3.55023437 2.29273438 -2.44921875 1.57421875 C-1.64097656 1.05472656 -0.83273437 0.53523438 0 0 Z " fill="#CC3A36" transform="translate(1493,1728)"/>
<path d="M0 0 C2.47018526 -0.30618712 3.94963701 -0.38498425 6.26953125 0.5234375 C9.00948123 3.50903816 10.59473132 6.8592076 12.26953125 10.5234375 C12.75679687 11.55082031 13.2440625 12.57820313 13.74609375 13.63671875 C14.95979223 16.25057777 16.1319347 18.87575703 17.26953125 21.5234375 C13.51615803 22.77456191 11.17025774 22.12077383 7.26953125 21.5234375 C-5.23999005 20.74557736 -14.92320644 21.81378854 -24.97265625 29.80859375 C-29.99326694 34.7064784 -32.84735968 40.44989662 -33.04296875 47.4609375 C-32.90388389 59.15951987 -27.86018029 68.75251202 -20.23046875 77.3359375 C-13.31113173 83.3903574 -8.25054456 84.87294359 0.765625 84.8125 C7.91289363 84.22287026 13.5768519 81.79294701 19.26953125 77.5234375 C16.62953125 72.5734375 13.98953125 67.6234375 11.26953125 62.5234375 C6.27078862 64.18968504 2.70690701 65.90812075 -1.6796875 68.59765625 C-3.73046875 69.5234375 -3.73046875 69.5234375 -6.73046875 68.5234375 C-8.5546875 65.6875 -8.5546875 65.6875 -10.41796875 62.1484375 C-11.04058594 60.98570313 -11.66320313 59.82296875 -12.3046875 58.625 C-13.73046875 55.5234375 -13.73046875 55.5234375 -13.73046875 52.5234375 C-9.12383198 50.13605362 -4.5156413 47.75170601 0.09399414 45.37011719 C1.66082787 44.56007111 3.22723924 43.74920753 4.79321289 42.9375 C7.04852632 41.76866179 9.30535911 40.60280447 11.5625 39.4375 C12.25852829 39.07596832 12.95455658 38.71443665 13.67167664 38.34194946 C17.14919971 36.55026916 20.59925336 34.89707241 24.26953125 33.5234375 C39.33279147 62.45607391 39.33279147 62.45607391 46.26953125 76.5234375 C33.9968383 92.09860055 16.99106435 103.97799335 -2.73046875 107.5234375 C-16.91801359 109.0006656 -27.61543699 104.79805755 -38.67578125 96.24609375 C-48.37676858 88.05458671 -56.68390169 72.80195224 -57.96801758 60.19042969 C-58.76358004 45.16346185 -57.18388399 33.66789853 -47.07421875 21.8984375 C-33.40082962 8.04273652 -18.44976574 3.53686496 0 0 Z " fill="#CC3A36" transform="translate(1410.73046875,1787.4765625)"/>
<path d="M0 0 C3.56917061 1.5414201 6.08217769 3.69475459 8.9375 6.3125 C9.77152344 7.07175781 10.60554687 7.83101562 11.46484375 8.61328125 C14.02851915 11.02684931 16.52369666 13.49711737 19 16 C18.28714844 16.7734375 17.57429687 17.546875 16.83984375 18.34375 C6.61344453 29.40700584 6.61344453 29.40700584 -3 41 C-1.60513088 44.18683375 0.01127235 46.20743231 2.5546875 48.56640625 C3.25207031 49.21673828 3.94945312 49.86707031 4.66796875 50.53710938 C5.39628906 51.20548828 6.12460937 51.87386719 6.875 52.5625 C7.59558594 53.23474609 8.31617188 53.90699219 9.05859375 54.59960938 C12.27028672 57.5776709 15.4586471 60.41541128 19 63 C22.13335438 61.63678738 23.95406024 60.18617343 26.125 57.5625 C29.89048215 53.10423434 33.81481771 48.80998075 37.765625 44.515625 C39.99013481 42.09832753 39.99013481 42.09832753 41.671875 39.671875 C42.32929687 38.84429688 42.32929687 38.84429688 43 38 C43.66 38 44.32 38 45 38 C45 38.66 45 39.32 45 40 C45.59329102 40.27183105 46.18658203 40.54366211 46.79785156 40.82373047 C48.95258363 41.97467272 50.46201122 43.15429055 52.234375 44.8203125 C52.80800781 45.35527344 53.38164063 45.89023438 53.97265625 46.44140625 C54.55917969 46.99699219 55.14570312 47.55257813 55.75 48.125 C56.35199219 48.68832031 56.95398438 49.25164062 57.57421875 49.83203125 C59.05334151 51.21724146 60.52719641 52.6080729 62 54 C58.5831159 58.81868271 55.00966309 63.12747805 50.76953125 67.23828125 C48.38325573 69.61402134 46.21338568 72.15001436 44.015625 74.69921875 C41.55519731 77.5077302 39.03025008 80.25461879 36.5 83 C33.46095466 86.30013347 30.43843541 89.6094976 27.5 93 C24.5615588 96.39050908 21.53881537 99.69964934 18.5 103 C14.84693198 106.96874242 11.23757495 110.9680568 7.703125 115.04296875 C4.50037841 118.72318902 1.24589612 122.35785163 -2 126 C-5.44370946 125.41164423 -7.16493074 124.23873007 -9.671875 121.83984375 C-10.33574219 121.21142578 -10.99960937 120.58300781 -11.68359375 119.93554688 C-12.36550781 119.27619141 -13.04742187 118.61683594 -13.75 117.9375 C-14.44738281 117.27427734 -15.14476562 116.61105469 -15.86328125 115.92773438 C-17.58184749 114.29156515 -19.29367649 112.64891745 -21 111 C-19.67143806 108.07356763 -18.20435823 105.9299237 -15.98828125 103.609375 C-15.39837402 102.98595215 -14.8084668 102.3625293 -14.20068359 101.72021484 C-13.57758301 101.07004395 -12.95448242 100.41987305 -12.3125 99.75 C-11.03950129 98.40446206 -9.76735631 97.05811587 -8.49609375 95.7109375 C-7.58512939 94.74752441 -7.58512939 94.74752441 -6.65576172 93.76464844 C-3.67605425 90.58898851 -0.81709273 87.31955664 2 84 C2.825 83.071875 3.65 82.14375 4.5 81.1875 C4.995 80.465625 5.49 79.74375 6 79 C4.9123293 75.7369879 4.24933287 75.12160072 1.6875 73 C-0.96812669 70.76696851 -3.55340302 68.49693901 -6.05859375 66.09765625 C-6.58606201 65.59685547 -7.11353027 65.09605469 -7.65698242 64.58007812 C-8.70717153 63.57962211 -9.75051668 62.57192525 -10.78637695 61.55664062 C-13.8532809 58.66132943 -14.59323941 58 -19 58 C-20.63408282 59.33095019 -20.63408282 59.33095019 -22.0625 61.25 C-25.10316733 64.93803521 -28.25158499 68.4947387 -31.5 72 C-35.27360115 76.08780019 -38.97426332 80.22450203 -42.5625 84.4765625 C-44 86 -44 86 -47 88 C-47.61258667 87.42499756 -47.61258667 87.42499756 -48.23754883 86.83837891 C-50.09379546 85.09836183 -51.95310728 83.36165448 -53.8125 81.625 C-54.45509766 81.02171875 -55.09769531 80.4184375 -55.75976562 79.796875 C-56.38173828 79.21679688 -57.00371094 78.63671875 -57.64453125 78.0390625 C-58.21534424 77.50490723 -58.78615723 76.97075195 -59.37426758 76.42041016 C-61.15315604 74.80420447 -61.15315604 74.80420447 -64 73 C-62.70176525 69.18437605 -61.25033142 66.92909121 -58.3125 64.1875 C-55.01131163 61.01054991 -51.96651304 57.73681607 -48.98046875 54.265625 C-46.53394232 51.46683737 -44.01923279 48.73310183 -41.5 46 C-38.46093308 42.69988699 -35.43843486 39.39050176 -32.5 36 C-29.0932265 32.0691075 -25.56997215 28.24803427 -22.046875 24.421875 C-18.9432451 21.04539852 -15.90539384 17.6218726 -12.90234375 14.15625 C-8.67847937 9.36862548 -4.32676456 4.69450042 0 0 Z " fill="#CC3A36" transform="translate(523,1669)"/>
<path d="M0 0 C8.22849073 8.81624007 9.10879318 18.03479403 8.8984375 29.63671875 C8.50052537 38.49912798 4.00761461 44.88393318 -2.375 50.8125 C-4.92514323 52.74518729 -7.54452007 54.32635623 -10.375 55.8125 C-11.426875 56.369375 -12.47875 56.92625 -13.5625 57.5 C-20.32093358 60.24707693 -28.14326848 60.87754732 -35.375 60.8125 C-35.25382812 61.5331665 -35.13265625 62.25383301 -35.0078125 62.99633789 C-34.4577009 66.28827974 -33.91628141 69.58159521 -33.375 72.875 C-33.18421875 74.00873047 -32.9934375 75.14246094 -32.796875 76.31054688 C-31.88820476 81.8761521 -31.11298914 87.17107867 -31.375 92.8125 C-33.87340454 93.32188345 -36.37323388 93.82013114 -38.875 94.3125 C-39.57109375 94.45558594 -40.2671875 94.59867188 -40.984375 94.74609375 C-45.86491323 95.6950873 -50.40056865 96.03260758 -55.375 95.8125 C-56.97340375 94.21409625 -56.83937857 92.34604747 -57.15942383 90.13867188 C-57.30660355 89.13831909 -57.45378326 88.13796631 -57.60542297 87.1072998 C-57.7627037 86.00970337 -57.91998444 84.91210693 -58.08203125 83.78125 C-58.24869797 82.64337036 -58.41536469 81.50549072 -58.58708191 80.33312988 C-59.12447462 76.66014606 -59.65629837 72.98638388 -60.1875 69.3125 C-60.87919246 64.55174332 -61.57347728 59.79137088 -62.26953125 55.03125 C-62.52795303 53.26079567 -62.52795303 53.26079567 -62.79159546 51.45457458 C-64.13307292 42.32060514 -65.56394023 33.20285783 -67.05586243 24.09228516 C-68.37150913 16.02053274 -69.45458313 7.9388121 -70.375 -0.1875 C-66.23089065 -0.88233219 -62.08659802 -1.57605808 -57.94213867 -2.26879883 C-56.53486232 -2.50417842 -55.1276348 -2.73985019 -53.72045898 -2.97583008 C-51.68746786 -3.31670381 -49.65429826 -3.65649539 -47.62109375 -3.99609375 C-46.40091553 -4.20032959 -45.1807373 -4.40456543 -43.92358398 -4.61499023 C-29.28046907 -6.97743292 -12.76287757 -9.21230261 0 0 Z " fill="#CC3935" transform="translate(1188.375,1880.1875)"/>
<path d="M0 0 C2.60482968 0.11604165 5.20848315 0.24270448 7.8125 0.375 C8.89047852 0.42140625 8.89047852 0.42140625 9.99023438 0.46875 C16.10274274 0.7918782 22.00169794 1.80357317 28 3 C31.43538212 18.1002166 34.68181942 33.21497917 37.66943359 48.41015625 C39.83321971 59.34059311 42.19919586 70.22102609 44.64038086 81.0925293 C46.33406747 88.69868628 47.8155526 96.29751354 49 104 C40.55669408 103.45679974 32.32184212 102.54441394 24 101 C22.01636492 94.76571832 20.99681713 88.45810245 20 82 C9.68916301 80.12757198 -0.61252881 78.39926316 -11 77 C-11.15855469 77.53367187 -11.31710937 78.06734375 -11.48046875 78.6171875 C-13.40185237 84.75287662 -16.02625833 90.31095543 -19 96 C-22.62558736 95.69408272 -26.25033575 95.37915282 -29.875 95.0625 C-30.90753906 94.97548828 -31.94007813 94.88847656 -33.00390625 94.79882812 C-33.99003906 94.71181641 -34.97617187 94.62480469 -35.9921875 94.53515625 C-36.90339355 94.456604 -37.81459961 94.37805176 -38.75341797 94.29711914 C-41 94 -41 94 -43 93 C-42.36397144 88.16299099 -40.3571006 84.27300061 -38.203125 79.96484375 C-37.81795212 79.18201523 -37.43277924 78.39918671 -37.03593445 77.59263611 C-36.20871781 75.91219805 -35.37902088 74.2329791 -34.54708862 72.55487061 C-32.35823175 68.13801771 -30.18892372 63.71159392 -28.01953125 59.28515625 C-27.58657242 58.40251099 -27.15361359 57.51986572 -26.70753479 56.61047363 C-21.44457375 45.85856736 -16.44940587 34.98771507 -11.44335938 24.11425781 C-7.7020657 16.04187248 -3.84847296 8.02172271 0 0 Z " fill="#CC3A36" transform="translate(939,1876)"/>
<path d="M0 0 C1.5078125 1.75878906 1.5078125 1.75878906 3.125 4.265625 C3.73883545 5.20349854 4.3526709 6.14137207 4.98510742 7.10766602 C5.65002197 8.14463623 6.31493652 9.18160645 7 10.25 C8.07857118 11.90037061 9.1571875 13.55071294 10.23783875 15.19972229 C10.996606 16.35815476 11.75415904 17.51738332 12.51057434 18.67735291 C16.27617495 24.44744933 20.13781427 30.15012438 24.01715088 35.84414673 C25.19247087 37.56979843 26.36582137 39.29677275 27.53857422 41.02416992 C31.47066549 46.81506889 35.40935617 52.60142283 39.35414124 58.38368225 C41.30564334 61.24560608 43.25432558 64.10944321 45.20254517 66.97360229 C46.14586474 68.3588822 47.09049269 69.74327212 48.03646851 71.1267395 C49.35305376 73.05237369 50.66526501 74.9809189 51.9765625 76.91015625 C52.37040634 77.48382935 52.76425018 78.05750244 53.17002869 78.64855957 C54.83091624 81.10052417 56.05692906 83.17078717 57 86 C53.39753737 87.00620969 49.79276877 88.00389587 46.1875 89 C45.16333984 89.28617188 44.13917969 89.57234375 43.08398438 89.8671875 C41.60961914 90.27324219 41.60961914 90.27324219 40.10546875 90.6875 C39.19949951 90.93886719 38.29353027 91.19023438 37.36010742 91.44921875 C35 92 35 92 32 92 C30.74145508 90.53125 30.74145508 90.53125 29.51953125 88.5 C29.07802734 87.778125 28.63652344 87.05625 28.18164062 86.3125 C27.72982422 85.549375 27.27800781 84.78625 26.8125 84 C26.11737305 82.8553125 26.11737305 82.8553125 25.40820312 81.6875 C24.26228088 79.79731897 23.12685563 77.90158864 22 76 C14.76493836 77.55921771 7.63365395 79.38936537 0.49023438 81.3203125 C-0.31994141 81.536875 -1.13011719 81.7534375 -1.96484375 81.9765625 C-3.05720337 82.27167725 -3.05720337 82.27167725 -4.17163086 82.57275391 C-6 83 -6 83 -8 83 C-7.98839844 83.76183594 -7.97679687 84.52367187 -7.96484375 85.30859375 C-7.95582031 86.34113281 -7.94679688 87.37367187 -7.9375 88.4375 C-7.92589844 89.44683594 -7.91429687 90.45617188 -7.90234375 91.49609375 C-8.0195921 95.70296466 -8.4800069 99.82657172 -9 104 C-12.45710552 105.00427892 -15.91587697 106.0026944 -19.375 107 C-20.35984375 107.28617188 -21.3446875 107.57234375 -22.359375 107.8671875 C-23.30039063 108.13789062 -24.24140625 108.40859375 -25.2109375 108.6875 C-26.08024902 108.93886719 -26.94956055 109.19023438 -27.84521484 109.44921875 C-30 110 -30 110 -32 110 C-32.19652559 94.08837509 -31.6110697 78.31652703 -30.625 62.4375 C-30.48744671 60.14618449 -30.35032458 57.85484305 -30.21362305 55.56347656 C-29.23999722 39.36920073 -28.19775467 23.17936475 -27 7 C-24.31260128 6.20798823 -21.62508437 5.41638134 -18.9375 4.625 C-18.18533203 4.40328125 -17.43316406 4.1815625 -16.65820312 3.953125 C-15.15913385 3.51184054 -13.65962347 3.0720517 -12.15966797 2.63378906 C-10.76634502 2.22489619 -9.37459785 1.81057604 -7.98486328 1.38964844 C-5.20119499 0.55916176 -2.92541573 0 0 0 Z " fill="#CC3A36" transform="translate(1250,1853)"/>
<path d="M0 0 C3.88397689 1.55002747 6.02979619 4.00476621 8.75 7.125 C9.54921875 8.03507812 10.3484375 8.94515625 11.171875 9.8828125 C11.77515625 10.58148437 12.3784375 11.28015625 13 12 C11.62647072 15.11836333 10.08161027 17.11865428 7.5859375 19.42578125 C6.56693359 20.37420898 6.56693359 20.37420898 5.52734375 21.34179688 C4.81707031 21.99212891 4.10679688 22.64246094 3.375 23.3125 C2.68792969 23.95123047 2.00085937 24.58996094 1.29296875 25.24804688 C-0.79262239 27.17907732 -2.89259492 29.09281302 -5 31 C-5.71510742 31.6501709 -6.43021484 32.3003418 -7.16699219 32.97021484 C-7.86211914 33.59234863 -8.55724609 34.21448242 -9.2734375 34.85546875 C-9.89395996 35.41258545 -10.51448242 35.96970215 -11.15380859 36.54370117 C-13.01844927 38.01455301 -14.84328578 39.01937738 -17 40 C-15.56760415 41.79574993 -14.1288996 43.58646907 -12.6875 45.375 C-11.88699219 46.37273437 -11.08648438 47.37046875 -10.26171875 48.3984375 C-8.08378314 51.13480753 -8.08378314 51.13480753 -5 53 C-4.38125 52.36384766 -4.38125 52.36384766 -3.75 51.71484375 C-0.0526772 47.95975028 3.74549112 44.40565047 7.74609375 40.9765625 C9.4744643 39.4608684 11.16892761 37.90643535 12.84765625 36.3359375 C13.3384668 35.87743408 13.82927734 35.41893066 14.33496094 34.9465332 C15.75512148 33.61624733 17.16872108 32.27896778 18.58203125 30.94140625 C21 29 21 29 24 29 C25.71875 30.609375 25.71875 30.609375 27.5 32.75 C28.0878125 33.44609375 28.675625 34.1421875 29.28125 34.859375 C30.89985026 36.87526805 32.46396189 38.9207289 34 41 C32.62647072 44.11836333 31.08161027 46.11865428 28.5859375 48.42578125 C27.56693359 49.37420898 27.56693359 49.37420898 26.52734375 50.34179688 C25.81707031 50.99212891 25.10679688 51.64246094 24.375 52.3125 C23.34439453 53.2705957 23.34439453 53.2705957 22.29296875 54.24804688 C17.60573714 58.58791329 12.82786969 62.8175198 8 67 C10.45539412 71.57478694 13.64855962 75.07347818 17.1875 78.8125 C17.74630859 79.40998047 18.30511719 80.00746094 18.88085938 80.62304688 C20.24994693 82.08574725 21.62443279 83.54339162 23 85 C27.81062405 81.58883022 32.11543491 78.02293762 36.21875 73.7890625 C39.31721943 70.67700329 42.66471345 67.85323342 46 65 C46.680625 64.41476562 47.36125 63.82953125 48.0625 63.2265625 C49.70601037 61.81499916 51.35266531 60.40709838 53 59 C56.88397689 60.55002747 59.02979619 63.00476621 61.75 66.125 C62.54921875 67.03507812 63.3484375 67.94515625 64.171875 68.8828125 C64.77515625 69.58148437 65.3784375 70.28015625 66 71 C64.42773348 75.04432412 61.54822086 77.50566362 58.375 80.3125 C57.83157959 80.80177979 57.28815918 81.29105957 56.72827148 81.79516602 C53.24831313 84.92005818 49.72626191 87.99603614 46.19140625 91.05859375 C43.25309736 93.66169449 40.37856899 96.33119037 37.5 99 C30.07358206 105.87304784 30.07358206 105.87304784 26.5625 109 C26.00691406 109.495 25.45132812 109.99 24.87890625 110.5 C22.36393861 112.50779122 19.69351244 114.24220848 17 116 C14.64351776 113.50217427 12.29025984 111.00133185 9.9375 108.5 C8.95233398 107.45585938 8.95233398 107.45585938 7.94726562 106.390625 C4.08688436 102.2830272 0.31852571 98.11403089 -3.37670898 93.85742188 C-5.704622 91.19374881 -8.0993324 88.59836964 -10.5 86 C-13.52004872 82.7221859 -16.52204137 79.43416732 -19.4375 76.0625 C-22.54964638 72.47040816 -25.76883339 68.98459145 -29 65.5 C-35.18991098 58.82100963 -41.20436497 52.02501216 -47 45 C-43.9805002 38.2720854 -37.78480853 33.74360192 -32.30078125 29.015625 C-29.49226889 26.55519651 -26.74541506 24.03021422 -24 21.5 C-20.05449649 17.86751501 -16.0754223 14.28296111 -12.0234375 10.76953125 C-7.97315928 7.22749258 -3.99194962 3.60747906 0 0 Z " fill="#CC3A36" transform="translate(1554,1673)"/>
<path d="M0 0 C12.61810703 9.14921163 22.89314889 23.19741123 26.5859375 38.4609375 C26.44310031 41.7597965 25.36335318 42.69615314 23.0390625 45.15234375 C21.97924322 46.11810407 20.91120041 47.07490201 19.8359375 48.0234375 C19.31 48.50490234 18.7840625 48.98636719 18.2421875 49.48242188 C15.20315918 52.21679513 12.18775296 54.47993899 8.5859375 56.4609375 C5.72544701 53.60044701 6.31560939 51.45457251 6.2109375 47.4609375 C5.77843789 38.33595828 3.68097786 30.67142651 -2.73828125 23.93359375 C-8.70318597 18.69170778 -14.38205724 17.79635273 -22.24609375 18.0859375 C-31.95908659 19.23568758 -41.35181024 25.68651937 -47.59765625 33.02734375 C-53.1581876 40.78434279 -55.41771796 46.87474114 -54.4140625 56.4609375 C-52.65361244 64.13783681 -49.0122419 69.19487323 -42.4140625 73.4609375 C-36.65544749 76.46256852 -30.8521843 77.96886022 -24.4453125 78.87109375 C-22.4140625 79.4609375 -22.4140625 79.4609375 -20.4140625 82.4609375 C-22.1415028 84.0461892 -23.87094207 85.62916376 -25.6015625 87.2109375 C-26.56449219 88.09265625 -27.52742188 88.974375 -28.51953125 89.8828125 C-35.89132289 96.44878076 -35.89132289 96.44878076 -39.1015625 96.5234375 C-54.49941386 91.58450405 -66.05822722 80.69537607 -74.2890625 66.9609375 C-79.74577886 56.33072536 -81.30104332 44.90661919 -77.8515625 33.3984375 C-71.31072277 15.91821426 -57.86287529 4.11361689 -41.484375 -3.98828125 C-27.5917062 -9.47222946 -12.47427176 -7.95285287 0 0 Z " fill="#CC3A36" transform="translate(486.4140625,1624.5390625)"/>
<path d="M0 0 C0.99386719 0.3403125 1.98773437 0.680625 3.01171875 1.03125 C10.56870915 3.89535904 16.68867255 7.99317921 23 13 C22.41640925 21.31616812 20.26200586 29.01459326 18 37 C17.01 37 16.02 37 15 37 C13.640625 35.49609375 13.640625 35.49609375 12.25 33.4375 C6.69972877 25.75146263 1.50338336 20.2633406 -8 18 C-15.82755932 16.89414088 -22.18606981 17.40408831 -28.77734375 21.98046875 C-37.08115719 29.52540996 -40.27975225 39.4013862 -41.3125 50.296875 C-41.63782089 58.95854369 -40.1410647 65.84270848 -34.875 72.8125 C-27.61124925 78.33926688 -21.18508426 81.13489509 -12 80 C-6.60843574 79.16355171 -1.95530783 77.20819127 2.921875 74.8046875 C5 74 5 74 9 74 C8.0785169 79.01914199 7.07442945 84.01121726 6 89 C5.81824219 89.89332031 5.63648438 90.78664063 5.44921875 91.70703125 C4.875 93.8125 4.875 93.8125 3 97 C-9.47247627 102.03796137 -26.25084412 100.07612503 -38.50390625 95.484375 C-52.90293215 89.37082211 -59.76929316 81.01028996 -66 67 C-70.31658311 54.05025067 -67.59069593 37.08359412 -62 25 C-61.55398438 23.99839844 -61.10796875 22.99679687 -60.6484375 21.96484375 C-55.94174509 12.40683989 -48.55417531 4.77708765 -39 0 C-38.38382813 -0.31839844 -37.76765625 -0.63679688 -37.1328125 -0.96484375 C-26.00844291 -5.66131885 -11.06049005 -3.83636578 0 0 Z " fill="#CC3A36" transform="translate(883,1864)"/>
<path d="M0 0 C1.484375 2.6171875 1.484375 2.6171875 2.75 5.875 C3.17796875 6.94492188 3.6059375 8.01484375 4.046875 9.1171875 C5 12 5 12 5 15 C3.3767313 15.6708712 1.75132422 16.33657029 0.125 17 C-0.77992187 17.37125 -1.68484375 17.7425 -2.6171875 18.125 C-5 19 -5 19 -7 19 C-3.39178175 28.70992066 0.28565417 38.39268056 4 48.0625 C4.43022461 49.18253418 4.86044922 50.30256836 5.30371094 51.45654297 C8.1386399 58.81591493 11.03879483 66.14403164 14.0390625 73.4375 C15 76 15 76 15 78 C15.84304688 77.71125 16.68609375 77.4225 17.5546875 77.125 C18.65039062 76.75375 19.74609375 76.3825 20.875 76 C21.96554687 75.62875 23.05609375 75.2575 24.1796875 74.875 C27 74 27 74 29 74 C30.98 79.28 32.96 84.56 35 90 C33.90123535 90.43344727 32.8024707 90.86689453 31.67041016 91.31347656 C27.5515011 92.93840125 23.4327154 94.56363845 19.31396484 96.18896484 C17.53925834 96.88924399 15.76451942 97.58944101 13.98974609 98.28955078 C12.26555353 98.96971904 10.54141141 99.6500152 8.81732178 100.33044434 C7.14156946 100.99171579 5.46566782 101.65260898 3.78961182 102.31311035 C-1.25801577 104.30423905 -6.29350031 106.32186088 -11.30712891 108.39746094 C-13 109 -13 109 -15 109 C-15.84161854 106.91999989 -16.67300763 104.83585854 -17.5 102.75 C-17.9640625 101.58984375 -18.428125 100.4296875 -18.90625 99.234375 C-20 96 -20 96 -20 92 C-18.3767313 91.3291288 -16.75132422 90.66342971 -15.125 90 C-14.22007813 89.62875 -13.31515625 89.2575 -12.3828125 88.875 C-10 88 -10 88 -8 88 C-9.41265318 84.29012625 -10.83035566 80.58220398 -12.25 76.875 C-12.90814697 75.15591431 -12.90814697 75.15591431 -13.57958984 73.40209961 C-16.11354518 66.81301862 -18.69104604 60.24459723 -21.3359375 53.69921875 C-21.61083008 53.01788879 -21.88572266 52.33655884 -22.16894531 51.63458252 C-23.51865854 48.29170901 -24.87464615 44.95156491 -26.23925781 41.61474609 C-26.73006836 40.40254395 -27.22087891 39.1903418 -27.7265625 37.94140625 C-28.16564941 36.86576416 -28.60473633 35.79012207 -29.05712891 34.68188477 C-30 32 -30 32 -30 29 C-30.74765625 29.30035156 -31.4953125 29.60070313 -32.265625 29.91015625 C-33.25046875 30.29042969 -34.2353125 30.67070313 -35.25 31.0625 C-36.22453125 31.44535156 -37.1990625 31.82820313 -38.203125 32.22265625 C-42.49375554 33.4151639 -42.49375554 33.4151639 -45 32 C-46.484375 29.12890625 -46.484375 29.12890625 -47.75 25.5625 C-48.17796875 24.38816406 -48.6059375 23.21382812 -49.046875 22.00390625 C-50 19 -50 19 -50 17 C-48.97567871 16.60844727 -48.97567871 16.60844727 -47.93066406 16.20898438 C-44.70317768 14.97421404 -41.47658666 13.73711945 -38.25 12.5 C-36.49115479 11.82747192 -36.49115479 11.82747192 -34.69677734 11.14135742 C-29.0933735 8.9910902 -23.50569732 6.81728419 -17.9609375 4.51953125 C-16.6011377 3.95878906 -16.6011377 3.95878906 -15.21386719 3.38671875 C-13.52041464 2.68404134 -11.83074814 1.97215104 -10.14550781 1.25 C-9.38850586 0.93675781 -8.63150391 0.62351562 -7.8515625 0.30078125 C-6.87437256 -0.11433716 -6.87437256 -0.11433716 -5.87744141 -0.5378418 C-3.53869952 -1.1135555 -2.22592361 -0.8952403 0 0 Z " fill="#CC3A36" transform="translate(1332,1825)"/>
<path d="M0 0 C3.27115144 0.61359713 5.30638015 1.73723383 7.94921875 3.73828125 C8.7071875 4.30579102 9.46515625 4.87330078 10.24609375 5.45800781 C11.05175781 6.06999023 11.85742188 6.68197266 12.6875 7.3125 C14.38824114 8.58608131 16.09008846 9.85818658 17.79296875 11.12890625 C18.65583496 11.77359863 19.51870117 12.41829102 20.40771484 13.08251953 C24.39582839 16.03247656 28.4415642 18.89789895 32.5 21.75 C33.21115967 22.25055908 33.92231934 22.75111816 34.6550293 23.2668457 C37.41927953 25.20758745 40.18946405 27.12630936 43 29 C41.61219205 32.89006773 39.7847773 35.96558708 37.375 39.3125 C36.74335937 40.19550781 36.11171875 41.07851562 35.4609375 41.98828125 C34.97882813 42.65214844 34.49671875 43.31601563 34 44 C31.13132769 42.61735163 28.43975968 41.07851447 25.75 39.375 C24.69039062 38.70597656 24.69039062 38.70597656 23.609375 38.0234375 C23.07828125 37.68570312 22.5471875 37.34796875 22 37 C15.32995243 45.78695984 8.7666863 54.62898 2.46118164 63.68212891 C-0.03959457 67.26317098 -2.58140604 70.79537559 -5.234375 74.265625 C-5.7512085 74.94681396 -6.26804199 75.62800293 -6.80053711 76.32983398 C-7.78547644 77.62140387 -8.78064517 78.90525656 -9.78735352 80.17993164 C-12.27494838 83.36264361 -12.27494838 83.36264361 -13.046875 87.21484375 C-11.68399511 89.53885909 -10.14170168 90.71055755 -7.9375 92.25 C-7.20402344 92.77078125 -6.47054687 93.2915625 -5.71484375 93.828125 C-5.14894531 94.21484375 -4.58304688 94.6015625 -4 95 C-5.54841575 98.34708051 -7.49105864 101.24667512 -9.625 104.25 C-10.25664063 105.14203125 -10.88828125 106.0340625 -11.5390625 106.953125 C-12.02117188 107.62859375 -12.50328125 108.3040625 -13 109 C-17.81843271 107.43676801 -21.30607118 104.68937201 -25.25 101.625 C-31.81920181 96.595707 -38.49948797 91.77093178 -45.32714844 87.09814453 C-45.99649414 86.6339209 -46.66583984 86.16969727 -47.35546875 85.69140625 C-47.93965576 85.29123291 -48.52384277 84.89105957 -49.12573242 84.47875977 C-51.59770104 82.52842579 -53.77351943 80.22648057 -56 78 C-53.03 73.71 -50.06 69.42 -47 65 C-42 67 -42 67 -39.375 69.125 C-37.11188022 71.30982214 -37.11188022 71.30982214 -34 71 C-32.09438024 68.6033993 -30.38528373 66.22654293 -28.6875 63.6875 C-27.61397671 62.12232597 -26.53837425 60.55857641 -25.4609375 58.99609375 C-24.61547363 57.76608643 -24.61547363 57.76608643 -23.75292969 56.51123047 C-20.85667976 52.36209025 -17.83288033 48.30918759 -14.8125 44.25 C-9.3869517 36.93403492 -4.11472439 29.53677641 1 22 C-2.08991672 18.80260791 -5.24245204 16.39116688 -9 14 C-7.45158425 10.65291949 -5.50894136 7.75332488 -3.375 4.75 C-2.74335937 3.85796875 -2.11171875 2.9659375 -1.4609375 2.046875 C-0.73777344 1.03367187 -0.73777344 1.03367187 0 0 Z " fill="#CC3A36" transform="translate(594,1731)"/>
<path d="M0 0 C7.11791847 3.81607036 14.11027102 7.78545863 21 12 C19.46887344 16.13481894 17.48390356 19.92489809 15.3125 23.75 C14.92803711 24.43046387 14.54357422 25.11092773 14.14746094 25.81201172 C9.21236614 34.47597144 4.03360628 42.9961198 -1.11328125 51.53515625 C-6.80588448 60.98564977 -12.40312413 70.49260569 -18 80 C-13.08702891 83.41669452 -8.08755275 86.5726914 -2.87109375 89.5078125 C-1.81728516 90.10207031 -0.76347656 90.69632813 0.32226562 91.30859375 C2.51252299 92.5364053 4.70800862 93.75492943 6.90820312 94.96484375 C7.95041016 95.55652344 8.99261719 96.14820313 10.06640625 96.7578125 C11.4886853 97.54889404 11.4886853 97.54889404 12.93969727 98.35595703 C13.61959717 98.89849121 14.29949707 99.44102539 15 100 C15 104.56663877 13.9977406 106.34006467 11.75 110.25 C11.14671875 111.32765625 10.5434375 112.4053125 9.921875 113.515625 C9.28765625 114.33546875 8.6534375 115.1553125 8 116 C3.40144513 116 0.95089789 114.5624092 -2.875 112.3125 C-3.56263428 111.91675781 -4.25026855 111.52101563 -4.95874023 111.11328125 C-7.31235881 109.75310172 -9.65673268 108.37793154 -12 107 C-12.8770459 106.48614746 -13.7540918 105.97229492 -14.65771484 105.44287109 C-26.1498497 98.70371895 -37.59035414 91.87777718 -49 85 C-48.38270464 82.0731127 -47.46529195 79.80195142 -45.953125 77.2265625 C-45.52700928 76.49550293 -45.10089355 75.76444336 -44.66186523 75.01123047 C-44.19594971 74.22377441 -43.73003418 73.43631836 -43.25 72.625 C-42.764104 71.79500488 -42.27820801 70.96500977 -41.77758789 70.10986328 C-40.19069791 67.4032154 -38.59606211 64.70124814 -37 62 C-35.91013852 60.15105212 -34.82029484 58.30209374 -33.73046875 56.453125 C-31.53446306 52.73116435 -29.33489554 49.01133671 -27.1328125 45.29296875 C-24.35129458 40.59587717 -21.57904048 35.89342554 -18.8125 31.1875 C-18.41587158 30.51340088 -18.01924316 29.83930176 -17.6105957 29.14477539 C-15.50226383 25.56039541 -13.39900347 21.97312053 -11.30078125 18.3828125 C-10.85307373 17.61815674 -10.40536621 16.85350098 -9.9440918 16.06567383 C-9.09379648 14.61326304 -8.24489362 13.16003571 -7.39770508 11.70581055 C-5.05611659 7.70944094 -2.60778785 3.82832782 0 0 Z " fill="#CC3A36" transform="translate(648,1768)"/>
<path d="M0 0 C7.34857068 13.07928627 1.64427674 31.47373753 -2.09765625 45.1640625 C-3.26146326 49.15857448 -4.6071902 53.08036366 -6 57 C-6.27295898 57.7827832 -6.54591797 58.56556641 -6.82714844 59.37207031 C-16.30347116 86.29320372 -29.80811536 111.92445459 -48 134 C-48.46132324 134.56138672 -48.92264648 135.12277344 -49.39794922 135.70117188 C-52.24064882 139.15515297 -55.10904929 142.58621778 -58 146 C-58.33 145.34 -58.66 144.68 -59 144 C-58.26245117 141.92236328 -58.26245117 141.92236328 -57.04296875 139.3203125 C-56.5948584 138.34352539 -56.14674805 137.36673828 -55.68505859 136.36035156 C-55.19086426 135.29268555 -54.69666992 134.22501953 -54.1875 133.125 C-41.91240085 105.87940271 -30.40736115 75.70178169 -26 46 C-20.65159593 13.20544393 -20.65159593 13.20544393 -8 1 C-5.29120665 -0.35439668 -2.99066732 -0.06501451 0 0 Z " fill="#CC3B37" transform="translate(1550,1298)"/>
<path d="M0 0 C5.57156027 1.00288085 8.00279123 5.24434994 11.125 9.625 C18.50348629 21.1574413 20.80677264 33.41545684 22.7265625 46.70703125 C27.49795652 78.91950628 40.14553988 109.54780699 53.17626953 139.19775391 C54.02544139 141.31434644 54.63991841 143.33808203 55.125 145.5625 C50.294051 141.82752749 46.66262364 137.80859208 43 132.9375 C42.43869385 132.19387207 41.8773877 131.45024414 41.29907227 130.68408203 C16.79683787 97.73718641 -5.67916745 54.71253529 -6.25 12.75 C-6.26409912 11.99041992 -6.27819824 11.23083984 -6.29272461 10.44824219 C-6.26404266 7.24312519 -6.07249963 4.92649641 -4.53125 2.0859375 C-2.875 0.5625 -2.875 0.5625 0 0 Z " fill="#CC3B37" transform="translate(530.875,1297.4375)"/>
<path d="M0 0 C10.34749648 3.75531905 19.06022761 7.65735157 24 18 C26.94584199 26.83752596 24.65033656 35.72741064 21 44 C16.70306021 52.07378889 10.92656101 58.70464928 2.01171875 61.5234375 C-7.02719535 63.66469482 -15.91318358 60.04340821 -24 56 C-23.40572116 50.65518817 -21.59973995 46.3576278 -19.39453125 41.5234375 C-19.03284348 40.71693756 -18.6711557 39.91043762 -18.29850769 39.07949829 C-17.53262119 37.37524528 -16.76336757 35.67250193 -15.9909668 33.97119141 C-14.82712298 31.40721478 -13.67337877 28.83889502 -12.52148438 26.26953125 C-8.53693174 17.41217661 -4.45336179 8.63347128 0 0 Z " fill="#FEFCFC" transform="translate(726,1832)"/>
<path d="M0 0 C3.19924794 0.26660399 4.69605348 0.71447448 7.0625 2.9375 C12.85099096 12.08705023 14.00242177 21.11441233 14.1887207 31.71264648 C14.71064193 56.51742085 19.36169157 81.96184514 27.36328125 105.4609375 C28 108 28 108 27 111 C9.0248298 82.57118472 -9.16054442 43.24010226 -3.62109375 8.6328125 C-2.84123515 5.28003459 -1.92095834 2.8814375 0 0 Z " fill="#CD3D39" transform="translate(581,1348)"/>
<path d="M0 0 C2 0.6875 2 0.6875 4 2.6875 C9.13788035 20.65371853 3.50838052 43.46616034 -2 60.6875 C-2.33257813 61.74469238 -2.33257813 61.74469238 -2.671875 62.82324219 C-7.97553158 79.45113063 -15.39775801 95.11407006 -25 109.6875 C-26.3094115 105.7592655 -25.1268583 103.23503999 -23.9375 99.4375 C-17.95724425 79.1726219 -13.41808273 56.92467494 -12.80859375 35.7890625 C-12.77612549 34.73130615 -12.74365723 33.6735498 -12.71020508 32.58374023 C-12.65522829 30.51336808 -12.61855671 28.44239042 -12.60424805 26.37133789 C-12.39315878 16.90868823 -9.92329962 8.19034619 -4 0.6875 C-2 -0.3125 -2 -0.3125 0 0 Z " fill="#CD3C38" transform="translate(1495,1348.3125)"/>
<path d="M0 0 C1.65 0 3.3 0 5 0 C11.57721927 14.41223347 5.00461045 35.55806583 -0.09326172 49.70019531 C-4.103182 60.30007829 -9.3407884 70.19990186 -15 80 C-16.12172795 76.64924663 -15.8575379 74.58201308 -14.890625 71.2109375 C-14.63176514 70.27870361 -14.37290527 69.34646973 -14.10620117 68.38598633 C-13.82365479 67.39236084 -13.5411084 66.39873535 -13.25 65.375 C-9.31887498 50.87394493 -6.74091864 36.94148546 -6.37768555 21.89770508 C-6.13601356 13.59289917 -4.42558136 7.08093018 0 0 Z " fill="#CD3F3B" transform="translate(1462,1395)"/>
<path d="M0 0 C2.25 0.0625 2.25 0.0625 5 1 C8.7266273 5.7686119 10.08665753 10.7419067 10.39453125 16.71484375 C11.49632492 35.89088478 14.26466392 53.63227841 19.51293945 72.08813477 C21.1043584 77.79128321 21.1043584 77.79128321 20 80 C6.36188522 58.85053774 -2.1561671 36.39611879 -2.3125 11.0625 C-2.31805908 10.29897217 -2.32361816 9.53544434 -2.3293457 8.7487793 C-2.27926852 4.97758247 -2.13993326 3.2098999 0 0 Z " fill="#CD3D3A" transform="translate(611,1395)"/>
<path d="M0 0 C3.2136476 2.16734373 4.85117291 3.35172971 6.6875 6.8125 C7.3979535 11.54000366 7.73243619 16.33739768 5.83984375 20.8203125 C2.22870714 25.69228664 -3.10163597 27.303947 -8.828125 28.2109375 C-10.98937067 28.46240319 -13.14182165 28.66678317 -15.3125 28.8125 C-18.31149223 19.81552332 -19.48139232 10.27047001 -19.3125 0.8125 C-12.72967508 -1.42846167 -6.67654612 -2.3934788 0 0 Z " fill="#FDF9F9" transform="translate(1165.3125,1894.1875)"/>
<path d="M0 0 C3.15446553 2.23279041 6.2509744 4.5019488 8 8 C8.88841633 13.31925221 8.30024055 17.19029084 5.375 21.75 C2.63700132 25.4723744 -0.29151441 28.26278444 -4 31 C-10.32463411 25.95630444 -16.44711982 20.89401276 -22 15 C-19.24310167 8.82511036 -14.42735553 3.65060176 -8.875 -0.125 C-5.26830118 -1.22269095 -3.578363 -1.24147288 0 0 Z " fill="#FDFBFA" transform="translate(1616,1643)"/>
<path d="M0 0 C3.87922945 3.46616335 6.33340599 7.47107959 9 11.875 C9.85331639 13.2687501 10.70747122 14.66198725 11.5625 16.0546875 C11.96984375 16.72209961 12.3771875 17.38951172 12.796875 18.07714844 C13.92498882 19.88011606 15.10512875 21.63233676 16.3125 23.3828125 C18 26 18 26 18 28 C15.2092793 28.83661862 12.41751988 29.66942737 9.625 30.5 C8.8309375 30.73847656 8.036875 30.97695312 7.21875 31.22265625 C6.07792969 31.56103516 6.07792969 31.56103516 4.9140625 31.90625 C3.8614624 32.22045898 3.8614624 32.22045898 2.78759766 32.54101562 C1 33 1 33 -1 33 C-1.18115526 21.96965735 -0.614687 11.00948323 0 0 Z " fill="#FDF7F7" transform="translate(1243,1884)"/>
<path d="M0 0 C2.11972614 3.17958921 2.58803829 5.16042313 3.2890625 8.875 C3.50820313 10.02484375 3.72734375 11.1746875 3.953125 12.359375 C4.17484375 13.56078125 4.3965625 14.7621875 4.625 16 C4.85445312 17.20140625 5.08390625 18.4028125 5.3203125 19.640625 C7 28.55896577 7 28.55896577 7 32 C0.20160929 32.31620422 -6.30983984 31.12676382 -13 30 C-11.7023449 25.91635886 -10.1962487 22.05235184 -8.3984375 18.1640625 C-7.66367187 16.56884766 -7.66367187 16.56884766 -6.9140625 14.94140625 C-6.40617188 13.84699219 -5.89828125 12.75257812 -5.375 11.625 C-4.859375 10.50738281 -4.34375 9.38976563 -3.8125 8.23828125 C-2.54446772 5.49087798 -1.2735532 2.7448473 0 0 Z " fill="#FCF6F6" transform="translate(949,1906)"/>
<path d="M0 0 C3.0831351 1.19899698 6.06279492 2.47700477 9 4 C9 4.66 9 5.32 9 6 C4.75177626 5.52797514 2.80010291 3.03344482 0 0 Z " fill="#F6DDDC" transform="translate(619,992)"/>
</svg>
