<?xml version="1.0" encoding="UTF-8"?>
<svg version="1.1" xmlns="http://www.w3.org/2000/svg" width="1813" height="449">
<path d="M0 0 C4.41802334 3.26198395 8.63823056 6.72867548 12.78955078 10.32128906 C13.97871094 11.34416016 13.97871094 11.34416016 15.19189453 12.38769531 C26.71489978 22.52868696 37.37075496 33.26339181 46.51464844 45.60644531 C47.74825618 47.26574458 49.00686053 48.90318511 50.27001953 50.54003906 C84.84494186 96.19622743 97.57925962 157.06288291 90.26806641 213.24291992 C85.39883264 246.49367319 73.63585875 278.44988375 54.78955078 306.32128906 C54.39300293 306.91458008 53.99645508 307.50787109 53.58789062 308.11914062 C40.29951959 327.86403905 23.65427557 345.91787313 4.49267578 360.0625 C2.82920147 361.29198302 1.18427526 362.54345119 -0.46044922 363.79785156 C-35.26496521 389.92195553 -77.98596715 403.84703423 -121.21044922 406.32128906 C-121.896875 406.36125 -122.58330078 406.40121094 -123.29052734 406.44238281 C-134.27289889 406.99648834 -134.27289889 406.99648834 -139.21044922 403.32128906 C-153.20040507 387.87954534 -175.21044922 354.94139647 -175.21044922 333.32128906 C-178.51411246 335.19526356 -181.22644799 337.13211433 -183.96044922 339.75878906 C-199.56359638 353.77343849 -218.26734862 363.99772646 -237.27294922 372.63378906 C-237.90918213 372.93003174 -238.54541504 373.22627441 -239.20092773 373.53149414 C-242.88632258 375.12928402 -245.38532597 375.74605974 -249.21044922 374.32128906 C-259.34682171 354.04854409 -252.14302244 314.43270245 -247.21044922 293.32128906 C-247.80881592 293.40693115 -248.40718262 293.49257324 -249.02368164 293.58081055 C-271.31494955 296.75120983 -292.72560947 298.22029114 -315.21044922 296.44628906 C-316.24339111 296.36789795 -317.27633301 296.28950684 -318.34057617 296.20874023 C-319.30825928 296.12470947 -320.27594238 296.04067871 -321.27294922 295.95410156 C-322.55878906 295.84412842 -322.55878906 295.84412842 -323.87060547 295.73193359 C-326.30588221 295.30454049 -328.07021479 294.53660116 -330.21044922 293.32128906 C-329.33291349 286.75992011 -326.76250097 281.54440784 -323.89794922 275.63378906 C-323.36177979 274.52543701 -322.82561035 273.41708496 -322.27319336 272.27514648 C-314.27522128 256.05382511 -304.47884446 241.4710821 -292.81933594 227.67529297 C-290.25182307 224.67865701 -290.25182307 224.67865701 -288.21044922 221.32128906 C-289.49048828 221.07378906 -290.77052734 220.82628906 -292.08935547 220.57128906 C-297.38063081 219.3892506 -302.18989332 217.48702685 -307.14794922 215.32128906 C-308.05891357 214.92538574 -308.96987793 214.52948242 -309.90844727 214.12158203 C-327.69167272 206.23818501 -344.61300712 196.24333974 -359.21044922 183.32128906 C-358.87618022 180.47248756 -358.67675878 178.79182868 -356.62255859 176.71899414 C-355.5987207 176.0367981 -355.5987207 176.0367981 -354.55419922 175.34082031 C-353.40443604 174.56194458 -353.40443604 174.56194458 -352.23144531 173.76733398 C-351.3995166 173.22826416 -350.56758789 172.68919434 -349.71044922 172.13378906 C-348.85402832 171.56571533 -347.99760742 170.9976416 -347.11523438 170.41235352 C-328.4166457 158.12426605 -309.47520119 148.3474399 -288.21044922 141.32128906 C-289.59911097 138.20711196 -291.22978431 136.08387936 -293.58544922 133.63378906 C-307.06044406 118.69412087 -316.60461377 100.99760474 -325.33544922 83.00878906 C-325.72627686 82.21424316 -326.11710449 81.41969727 -326.51977539 80.60107422 C-330.01451794 73.21736753 -330.01451794 73.21736753 -329.21044922 69.32128906 C-326.01415357 67.19042529 -324.73621661 66.98218919 -321.01123047 66.68847656 C-319.97530762 66.60436523 -318.93938477 66.52025391 -317.87207031 66.43359375 C-316.76686035 66.3552832 -315.66165039 66.27697266 -314.52294922 66.19628906 C-312.81872803 66.07108887 -312.81872803 66.07108887 -311.08007812 65.94335938 C-289.64193939 64.45058007 -268.18270121 65.3515611 -247.21044922 70.32128906 C-247.29609131 69.74797852 -247.3817334 69.17466797 -247.4699707 68.58398438 C-247.86655725 65.91365282 -248.25726336 63.24249006 -248.64794922 60.57128906 C-248.78265625 59.67023438 -248.91736328 58.76917969 -249.05615234 57.84082031 C-250.62477426 47.05176225 -251.40668916 36.34849704 -251.39794922 25.44628906 C-251.39714355 24.38071777 -251.39633789 23.31514648 -251.39550781 22.21728516 C-251.33930268 14.76404311 -250.98386829 7.37115275 -250.33544922 -0.05371094 C-250.25705811 -0.98038574 -250.17866699 -1.90706055 -250.09790039 -2.86181641 C-250.01386963 -3.71662598 -249.92983887 -4.57143555 -249.84326172 -5.45214844 C-249.76994629 -6.19899902 -249.69663086 -6.94584961 -249.62109375 -7.71533203 C-249.21044922 -9.67871094 -249.21044922 -9.67871094 -247.21044922 -12.67871094 C-240.64908027 -11.80117521 -235.433568 -9.23076269 -229.52294922 -6.36621094 C-228.41459717 -5.8300415 -227.30624512 -5.29387207 -226.16430664 -4.74145508 C-209.94298526 3.256517 -195.36024225 13.05289382 -181.56445312 24.71240234 C-178.56781716 27.27991521 -178.56781716 27.27991521 -175.21044922 29.32128906 C-174.96294922 28.04125 -174.71544922 26.76121094 -174.46044922 25.44238281 C-173.27841075 20.15110747 -171.37618701 15.34184496 -169.21044922 10.38378906 C-168.8145459 9.47282471 -168.41864258 8.56186035 -168.01074219 7.62329102 C-161.61332694 -6.80788344 -153.7111463 -20.10649117 -144.47753906 -32.89501953 C-143.5994666 -34.1310884 -142.74711728 -35.38568102 -141.91601562 -36.65380859 C-138.6714812 -41.51999128 -138.6714812 -41.51999128 -136.23120117 -42.36010742 C-90.48749876 -49.57232582 -36.29544445 -26.22217733 0 0 Z " fill="#040504" transform="translate(359.21044921875,42.6787109375)"/>
<path d="M0 0 C4.76229908 2.55787548 8.42458239 6.36810333 12.1875 10.1875 C16.87165713 14.91687101 19.69159852 17.13753038 26.5 17.4375 C30.24647802 17.33665268 31.77217318 17.13483628 35.0625 15.1875 C37.12828012 12.9553862 37.12828012 12.9553862 39 10 C42.26924716 9.41010211 43.6546937 9.77946364 46.46484375 11.57421875 C47.28082031 12.27160156 48.09679687 12.96898437 48.9375 13.6875 C49.80890625 14.41710937 50.6803125 15.14671875 51.578125 15.8984375 C52.96917885 17.10551326 54.3568033 18.31662275 55.734375 19.5390625 C62.67166789 25.6185181 68.9346091 26.39503268 77.8125 26.875 C88.22038444 27.65279214 95.55504712 29.06896376 102.9375 36.875 C108.91021266 44.449805 109.59009735 51.60050817 110 61 C114.89462107 63.45246277 119.94738364 63.6624246 125.3125 64.125 C126.70952148 64.25455078 126.70952148 64.25455078 128.13476562 64.38671875 C130.42264973 64.59790805 132.71093346 64.80211266 135 65 C131.67385835 106.69146518 115.01527583 147.36026101 89 180 C88.20464844 181.0003125 87.40929687 182.000625 86.58984375 183.03125 C75.47740437 196.70727749 62.91219222 209.34463804 48.68408203 219.76464844 C46.99291458 221.00519748 45.32254115 222.27047188 43.65234375 223.5390625 C35.22121151 229.84691551 26.28792233 235.00691034 16.99267578 239.93408203 C15.25038484 240.86606466 13.52763798 241.83439855 11.80859375 242.80859375 C10.94363281 243.28425781 10.07867187 243.75992188 9.1875 244.25 C8.12595703 244.84554687 8.12595703 244.84554687 7.04296875 245.453125 C5 246 5 246 2.42578125 245.484375 C-0.93458274 243.42811362 -1.68820451 241.7076149 -3 238 C-3.43173731 235.0081109 -3.47593018 232.08201443 -3.4375 229.0625 C-3.42992676 228.22493164 -3.42235352 227.38736328 -3.41455078 226.52441406 C-3.11878698 215.17312879 0.34235278 205.27863459 4.70629883 194.8503418 C6.76360823 189.84563509 8.36060928 184.77329981 9.8125 179.5625 C10.12272095 178.46264771 10.12272095 178.46264771 10.43920898 177.34057617 C14.1341856 163.65657146 14.87843585 149.15732259 9 136 C6.96046337 132.68322879 4.64564749 129.84915884 2 127 C1.49984375 126.4328125 0.9996875 125.865625 0.484375 125.28125 C-3.19348712 121.34333703 -7.37059143 118.09839717 -11.625 114.8125 C-42.15288643 91.2029065 -42.15288643 91.2029065 -45 73 C-45.13461872 69.84708796 -45.11635309 66.69824796 -45.09765625 63.54296875 C-45.0962413 62.64000565 -45.09482635 61.73704254 -45.09336853 60.80671692 C-45.08778823 57.93361037 -45.07523934 55.06058284 -45.0625 52.1875 C-45.05748245 50.23502717 -45.05291999 48.28255311 -45.04882812 46.33007812 C-45.03782525 41.55335515 -45.02057418 36.77669096 -45 32 C-43.3746936 31.11489746 -43.3746936 31.11489746 -41.71655273 30.21191406 C-38.91492131 28.60836464 -36.70493687 27.02966315 -34.53515625 24.609375 C-33.96684082 23.98595215 -33.39852539 23.3625293 -32.81298828 22.72021484 C-32.23532715 22.07004395 -31.65766602 21.41987305 -31.0625 20.75 C-29.83280247 19.4029414 -28.60233961 18.05658104 -27.37109375 16.7109375 C-26.78827637 16.06866211 -26.20545898 15.42638672 -25.60498047 14.76464844 C-9.76506776 -2.65106332 -9.76506776 -2.65106332 0 0 Z " fill="#5B710F" transform="translate(312,181)"/>
<path d="M0 0 C8.25869438 4.82422766 15.05554105 10.45781154 22 17 C23.3894001 18.21572509 24.78460769 19.42486947 26.1875 20.625 C33.9741571 27.43041169 40.58632087 34.89738536 47 43 C48.19109375 44.46566406 48.19109375 44.46566406 49.40625 45.9609375 C60.15657268 59.46688087 68.7717681 74.34744471 76 90 C76.3309668 90.70640625 76.66193359 91.4128125 77.00292969 92.140625 C93.16909748 127.0409834 95.7363948 162.1889592 95 200 C93.27084589 200.01022048 91.54167392 200.01744136 89.8125 200.0234375 C88.36810547 200.02996338 88.36810547 200.02996338 86.89453125 200.03662109 C76.35491359 199.90327573 76.35491359 199.90327573 72 197 C71.69921875 194.34765625 71.69921875 194.34765625 71.6875 191.0625 C71.25471608 183.24642245 68.74493726 177.15890205 63.48046875 171.3125 C54.85575416 163.66631504 45.05186201 162.65362385 34.11523438 162.69726562 C24.96920137 162.46879905 19.28992948 157.53204272 12.625 151.75 C7.84730733 147.48711491 7.84730733 147.48711491 1.875 145.5 C-2.98310701 146.12685252 -4.51861778 147.92831508 -7.71484375 151.46875 C-10.44271055 153.2966539 -12.64135561 153.63206412 -15.91088867 153.48046875 C-19.83793432 152.57729873 -22.34479771 149.97544479 -25.1875 147.25 C-26.36804183 146.17138473 -27.54902331 145.09325043 -28.73046875 144.015625 C-29.56263916 143.2412207 -29.56263916 143.2412207 -30.41162109 142.45117188 C-35.84851874 137.48392324 -39.01970324 135.55242369 -46.3515625 135.66796875 C-58.07626074 137.1378793 -67.96860044 150.83871547 -75.359375 159.203125 C-78.09072374 162.096092 -80.8998162 164.51622701 -84 167 C-83.98428955 166.06933716 -83.98428955 166.06933716 -83.96826172 165.11987305 C-83.92669114 162.30912323 -83.90067067 159.4984381 -83.875 156.6875 C-83.85824219 155.71103516 -83.84148437 154.73457031 -83.82421875 153.72851562 C-83.81777344 152.79072266 -83.81132812 151.85292969 -83.8046875 150.88671875 C-83.79421387 150.02264404 -83.78374023 149.15856934 -83.77294922 148.26831055 C-83.84909832 145.71819279 -83.84909832 145.71819279 -86 143 C-90.01348003 142.59046122 -93.49605629 143.05573875 -97.375 144 C-103.55066983 145.44134032 -108.62823332 146.34250944 -114.3125 143.125 C-124.49862347 133.22182441 -122.8581571 114.59084076 -123.1328125 101.5703125 C-123.48933072 75.50952955 -123.48933072 75.50952955 -117.75 67.1875 C-115.05601566 65.3594392 -113.22006244 65.68511613 -110 66 C-107.38606408 67.26536305 -105.02269729 68.55170364 -102.5625 70.0625 C-97.06251652 73.3002067 -91.5421177 76.31549748 -85.75 79 C-85.13068604 79.29011963 -84.51137207 79.58023926 -83.87329102 79.87915039 C-78.28234524 82.44131253 -74.1748363 83.22869764 -68 83 C-67.34 82.67 -66.68 82.34 -66 82 C-65.56513072 76.89403481 -66.50913469 74.58278314 -69.625 70.5625 C-70.34816406 69.61117187 -71.07132812 68.65984375 -71.81640625 67.6796875 C-73.65767027 65.42010411 -75.56311344 63.30449753 -77.5625 61.1875 C-79.54197986 58.87992955 -79.97241426 58.18521857 -80.4375 55.0625 C-75.20916465 43.92387252 -59.00096498 36.31351055 -48.2734375 31.1640625 C-42.33091261 28.35801599 -42.33091261 28.35801599 -38.78125 23.1171875 C-38.30965259 21.03088155 -37.90217334 18.92883071 -37.56640625 16.81640625 C-36.50865324 11.55682058 -33.38956716 8.92637811 -29 6 C-25.23574106 5.56229547 -22.56133972 6.07550554 -19.125 7.5 C-14.21154477 9.48609014 -9.90073 9.70558297 -4.6875 8.4375 C-1.98653754 6.13668013 -1.22231365 3.30024686 0 0 Z " fill="#4D868D" transform="translate(352,43)"/>
<path d="M0 0 C0.33 0 0.66 0 1 0 C1.23074219 0.89203125 1.46148437 1.7840625 1.69921875 2.703125 C2.02535156 3.87359375 2.35148438 5.0440625 2.6875 6.25 C3.00074219 7.41015625 3.31398437 8.5703125 3.63671875 9.765625 C5.43759459 14.03819004 7.91354218 15.95677109 12 18 C14.69829231 18.09961123 17.36460435 18.14077214 20.0625 18.125 C20.82949219 18.1237915 21.59648437 18.12258301 22.38671875 18.12133789 C27.65859267 18.08503791 32.76816107 17.65397987 38 17 C39 18 39 18 39.1328125 20.2578125 C39.13023437 21.20398438 39.12765625 22.15015625 39.125 23.125 C39.12886719 24.52105469 39.12886719 24.52105469 39.1328125 25.9453125 C39 29 39 29 38.5065918 32.01611328 C37.78791802 36.92788072 37.79910189 41.84089461 37.76171875 46.796875 C37.753647 47.82629211 37.74557526 48.85570923 37.73725891 49.9163208 C37.72347654 52.08807724 37.71272846 54.2598548 37.70483398 56.43164062 C37.69331506 58.63678403 37.67286479 60.84189957 37.64331055 63.046875 C37.60037352 66.25539845 37.58443011 69.46309896 37.57421875 72.671875 C37.55671066 73.64308289 37.53920258 74.61429077 37.52116394 75.6149292 C37.56650423 90.14535922 44.92938881 101.96827148 55 112 C57.57865557 114.23427486 60.21634229 116.37235037 62.88671875 118.49609375 C67.05493133 121.8484454 71.09449412 125.34129541 75.14086914 128.83886719 C77.63475387 130.98972154 80.12727355 133.09951806 82.72265625 135.12890625 C88.83475181 140.15067945 93.36748424 147.26169085 95 155 C96.76527947 173.7168546 93.22730552 190.17510689 85.9375 207.30859375 C80.24224974 220.7884263 75.77990178 235.85875441 80.9375 250.1875 C81.8858142 252.50900036 82.87896336 254.75792673 84 257 C67.07157248 263.25664032 50.25392626 268.60438521 32.375 271.375 C31.32844238 271.54273926 30.28188477 271.71047852 29.20361328 271.88330078 C19.25051902 273.29993189 10.34563873 273 0 273 C0 182.91 0 92.82 0 0 Z " fill="#4D868D" transform="translate(227,172)"/>
<path d="M0 0 C10.23 0 20.46 0 31 0 C39.07438616 9.4665217 39.07438616 9.4665217 40.984375 14.28125 C44.12740656 21.56077484 48.12486891 28.16685312 52.24108887 34.92327881 C53.91488725 37.68440506 55.55685253 40.46381517 57.19854736 43.24411011 C62.83297508 52.78465104 68.64240821 62.21173647 74.50927734 71.61083984 C77.12096582 75.79655609 79.72209043 79.98858384 82.3125 84.1875 C83.0250293 85.33001221 83.0250293 85.33001221 83.75195312 86.49560547 C87 91.77185004 87 91.77185004 87 94 C89.86976458 91.44824817 91.57071417 88.55389813 93.484375 85.2421875 C93.81635895 84.67123856 94.1483429 84.10028961 94.49038696 83.51203918 C95.20624088 82.28003633 95.92004863 81.04684274 96.63201904 79.81259155 C98.54436432 76.49827387 100.47244082 73.19311552 102.3984375 69.88671875 C102.78895294 69.21540421 103.17946838 68.54408966 103.58181763 67.85243225 C107.12643066 61.76535027 110.73879298 55.72029801 114.375 49.6875 C121.21167243 38.33467237 127.98337783 26.9440877 134.74365234 15.5456543 C135.13747101 14.88166122 135.53128967 14.21766815 135.93704224 13.53355408 C136.67359908 12.29151686 137.40999963 11.04938694 138.14620972 9.80714417 C139.09652402 8.2041997 140.04821829 6.6020736 141 5 C141.38718201 4.12096008 141.77436401 3.24192017 142.17327881 2.33624268 C144 0 144 0 147.1862793 -0.56762695 C148.46929932 -0.54144287 149.75231934 -0.51525879 151.07421875 -0.48828125 C151.7580513 -0.48120651 152.44188385 -0.47413177 153.1464386 -0.46684265 C155.32791159 -0.43888004 157.50680494 -0.37615064 159.6875 -0.3125 C161.1672806 -0.28741897 162.64710149 -0.26460544 164.12695312 -0.24414062 C167.75213863 -0.18905135 171.37581753 -0.10277108 175 0 C175.17559195 12.33321754 175.34156558 24.66655027 175.5 37 C175.51187725 37.9241785 175.5237545 38.84835701 175.53599167 39.80054092 C175.89482902 67.93016571 176.09321172 96.05555999 176.0625 124.1875 C176.06164398 124.97741333 176.06078796 125.76732666 176.05990601 126.58117676 C176.04884796 136.05415655 176.02595332 145.5270369 176 155 C164.45 155 152.9 155 141 155 C140.67 125.96 140.34 96.92 140 67 C126.90971451 88.51416652 126.90971451 88.51416652 113.984375 110.125 C112.83747826 112.06341703 111.6884156 114.00053857 110.5390625 115.9375 C110.15712234 116.58273117 109.77518219 117.22796234 109.38166809 117.89274597 C108.63490123 119.15087068 107.88460566 120.40690908 107.13041687 121.66059875 C105.37714992 124.58926122 103.74720353 127.50217909 102.21020508 130.55541992 C98.16696263 138.4111779 98.16696263 138.4111779 94.86621094 140.07666016 C92.44385603 140.51467929 90.38843346 140.50260576 87.9375 140.3125 C86.77250977 140.3444043 86.77250977 140.3444043 85.58398438 140.37695312 C82.03679691 140.25981484 79.84453764 139.87454095 77.33007812 137.27075195 C75.7332669 134.91294403 74.36055724 132.50120036 73 130 C71.97807671 128.3305018 70.94925865 126.66520706 69.9140625 125.00390625 C68.81599365 123.19114172 67.71972022 121.37728872 66.625 119.5625 C65.39640818 117.53480784 64.16721719 115.50747862 62.9375 113.48046875 C62.298125 112.42649902 61.65875 111.3725293 61 110.28662109 C57.56199073 104.6369042 54.09383053 99.00582023 50.625 93.375 C49.66327881 91.8137439 49.66327881 91.8137439 48.68212891 90.22094727 C46.78828497 87.14717554 44.89414242 84.0735878 43 81 C39.04 74.565 39.04 74.565 35 68 C34.67 96.71 34.34 125.42 34 155 C22.78 155 11.56 155 0 155 C0 103.85 0 52.7 0 0 Z " fill="#000000" transform="translate(519,96)"/>
<path d="M0 0 C11.41265719 9.24921435 17.9719611 23.00641132 20.49609375 37.2578125 C21.92639894 58.46578597 20.00145578 76.55869934 6.18359375 93.5703125 C-3.17981998 103.62190586 -16.48342586 110.42684431 -30.22045898 111.46264648 C-33.13027686 111.5608819 -36.03002695 111.57992101 -38.94140625 111.5703125 C-40.40030273 111.59448242 -40.40030273 111.59448242 -41.88867188 111.61914062 C-50.32918686 111.62477891 -58.03360423 110.08183935 -65.37890625 105.7578125 C-66.07757812 105.355625 -66.77625 104.9534375 -67.49609375 104.5390625 C-69.56904812 103.21624337 -71.53665594 101.73325023 -73.50390625 100.2578125 C-73.83390625 117.4178125 -74.16390625 134.5778125 -74.50390625 152.2578125 C-86.05390625 152.2578125 -97.60390625 152.2578125 -109.50390625 152.2578125 C-109.50390625 98.7978125 -109.50390625 45.3378125 -109.50390625 -9.7421875 C-98.61390625 -9.7421875 -87.72390625 -9.7421875 -76.50390625 -9.7421875 C-76.00890625 -4.2971875 -76.00890625 -4.2971875 -75.50390625 1.2578125 C-74.43140625 0.2059375 -73.35890625 -0.8459375 -72.25390625 -1.9296875 C-52.54152179 -19.25269203 -19.77996366 -13.76265802 0 0 Z M-67.50390625 26.2578125 C-72.96037529 33.46217552 -74.886888 40.67659624 -74.81640625 49.6328125 C-74.8107666 50.38232178 -74.80512695 51.13183105 -74.79931641 51.90405273 C-74.59663526 61.1441057 -72.21070527 68.62073073 -65.50390625 75.2578125 C-56.63871984 81.70012806 -49.40389257 83.16091839 -38.50390625 82.2578125 C-30.40392321 80.2245289 -24.40215051 76.36191547 -19.75390625 69.3828125 C-13.85772905 59.27238044 -13.68663001 48.36030433 -16.50390625 37.2578125 C-19.54254709 28.93639698 -24.5429736 23.40326863 -32.3203125 19.23828125 C-44.20706 13.90094024 -58.5577189 17.10357429 -67.50390625 26.2578125 Z " fill="#000000" transform="translate(1349.50390625,141.7421875)"/>
<path d="M0 0 C11.55 0 23.1 0 35 0 C35 54.12 35 108.24 35 164 C24.11 164 13.22 164 2 164 C1.67 160.37 1.34 156.74 1 153 C-0.155 154.0725 -1.31 155.145 -2.5 156.25 C-15.13307145 167.25945487 -30.05295964 166.86726413 -46 166 C-60.06854293 164.37101082 -72.9298627 156.45840313 -81.9296875 145.69140625 C-94.24436076 129.17494533 -96.09032594 109.55378622 -93.71142578 89.57666016 C-91.35383473 75.83934105 -83.58053728 62.40680117 -72.36328125 54.03125 C-56.03389117 43.28163756 -38.51430746 40.34540026 -19.1875 43.65234375 C-11.91748189 45.85796122 -7.44664177 49.48735076 -1 54 C-0.67 36.18 -0.34 18.36 0 0 Z M-51 81 C-57.81995467 90.17559361 -59.92126306 99.84942173 -58.3125 111.125 C-56.7904934 119.03943432 -53.74460702 125.25539298 -48 131 C-39.46102218 136.66204622 -32.21954471 137.85262946 -22 137 C-13.92304945 134.88086005 -7.4825923 129.85005054 -3.1875 122.75 C1.70965712 113.05265916 1.9952241 102.68811894 -0.71875 92.23046875 C-3.44692595 84.57511296 -7.92639689 78.3185391 -15.25 74.5625 C-27.57973919 69.06343632 -41.5265933 71.30628151 -51 81 Z " fill="#000000" transform="translate(1615,87)"/>
<path d="M0 0 C11.55 0 23.1 0 35 0 C35.33 29.7 35.66 59.4 36 90 C39.63 86.37 43.26 82.74 47 79 C51.0625 75.4375 51.0625 75.4375 52.97265625 73.80859375 C56.31743054 70.82471996 59.41335157 67.59380268 62.5625 64.40625 C65.22600027 61.77689717 67.97846509 59.33064336 70.88134766 56.97021484 C73.09606659 55.04381274 73.09606659 55.04381274 74.78271484 52.49267578 C77.80112132 48.56408158 80.43396741 45.58278018 85.33215332 44.47033691 C92.0868358 43.73875655 98.85217089 44.08970359 105.625 44.375 C107.69911133 44.42522454 109.77333966 44.47084068 111.84765625 44.51171875 C116.9013523 44.6212802 121.94937616 44.79345001 127 45 C121.99744121 51.04265914 116.56822676 56.56098043 111.0078125 62.08984375 C110.05209752 63.04368954 109.09660612 63.99775941 108.1413269 64.95204163 C105.64805084 67.44153194 103.15178475 69.92800224 100.65484619 72.41381836 C98.09878491 74.95957994 95.54561495 77.50823777 92.9921875 80.05664062 C87.99758981 85.04057069 82.99982201 90.02131048 78 95 C78.94534378 96.26379017 79.89115492 97.52723076 80.8371582 98.79052734 C81.36380569 99.49414398 81.89045319 100.19776062 82.43305969 100.92269897 C84.64499132 103.8550684 86.91043885 106.74310112 89.1875 109.625 C90.15109018 110.84761802 91.11463044 112.07027538 92.078125 113.29296875 C92.80612305 114.21601807 92.80612305 114.21601807 93.54882812 115.15771484 C94.94677092 116.93242485 96.3413 118.70974863 97.734375 120.48828125 C101.92328975 125.83443008 106.12641613 131.16706029 110.3840332 136.45874023 C115.41145998 142.70947735 120.36512786 149.01207566 125.25 155.375 C125.82347168 156.11919189 126.39694336 156.86338379 126.98779297 157.63012695 C127.51260254 158.31679443 128.03741211 159.00346191 128.578125 159.7109375 C129.04637695 160.32243652 129.51462891 160.93393555 129.99707031 161.56396484 C131 163 131 163 131 164 C124.93573017 164.34863134 118.87738847 164.6011898 112.80541992 164.76904297 C110.74546674 164.83904686 108.68619937 164.93429963 106.62866211 165.05615234 C90.05716463 166.01227753 90.05716463 166.01227753 85.05331421 162.71865845 C81.67908241 159.50782563 79.30659569 155.75806675 77.01803589 151.72839355 C75.64628359 149.39946993 73.98267059 147.40981455 72.21484375 145.37109375 C71.3962085 144.38677368 71.3962085 144.38677368 70.56103516 143.38256836 C70.02526855 142.7406958 69.48950195 142.09882324 68.9375 141.4375 C63.11655672 134.42030696 57.49224755 127.27659526 52 120 C45.27892242 123.05947357 39.11553827 127.11095114 36 134 C34.16262996 143.92096872 34.82371206 153.95158744 35 164 C23.45 164 11.9 164 0 164 C0 109.88 0 55.76 0 0 Z " fill="#000000" transform="translate(959,87)"/>
<path d="M0 0 C0.66230621 0.00054382 1.32461243 0.00108765 2.00698853 0.00164795 C17.84975436 0.06149611 32.96727417 2.42571683 45.0625 13.625 C57.59026905 27.44151084 58.8711002 44.24409944 58.640625 62 C58.63314023 63.7259047 58.62745792 65.45181805 58.62347412 67.17773438 C58.60839331 71.66256271 58.56926928 76.14685095 58.5246582 80.63146973 C58.48332049 85.23080138 58.46538195 89.83022257 58.4453125 94.4296875 C58.4027526 103.41173062 58.33255298 112.39323536 58.25 121.375 C47.36 121.375 36.47 121.375 25.25 121.375 C24.92 117.745 24.59 114.115 24.25 110.375 C23.26 111.4475 22.27 112.52 21.25 113.625 C12.41493527 122.42451115 1.56395179 123.77072952 -10.4375 123.75 C-24.58109747 123.70931133 -36.00876925 121.43848125 -46.71484375 111.5625 C-54.05864291 103.86160279 -56.35057307 95.8600014 -56.22509766 85.35205078 C-55.8419655 76.4257065 -53.29996986 68.63386009 -46.75 62.375 C-36.02556893 53.61450795 -23.47904322 51.19884006 -9.9765625 51.27734375 C-9.0528183 51.2787587 -8.1290741 51.28017365 -7.17733765 51.28163147 C-4.24319138 51.28720391 -1.30912299 51.29975131 1.625 51.3125 C3.62109264 51.31751856 5.61718649 51.32208085 7.61328125 51.32617188 C12.49221725 51.33716431 17.37109545 51.3544099 22.25 51.375 C21.95967205 49.77744215 21.66121934 48.18135951 21.359375 46.5859375 C21.19405273 45.69696777 21.02873047 44.80799805 20.85839844 43.89208984 C19.68045685 39.01866376 17.28518748 36.20314998 13.4375 33.125 C3.10636452 27.45300405 -9.59047175 28.1330948 -20.68359375 31.2421875 C-25.63555622 33.07157491 -30.26358372 35.46466171 -34.9140625 37.94921875 C-37.75 39.375 -37.75 39.375 -39.75 39.375 C-43.71 31.455 -47.67 23.535 -51.75 15.375 C-38.55808113 2.18308113 -17.75614427 -0.02460384 0 0 Z M-19.1875 77.6875 C-21.00430673 80.81240757 -21.67753983 82.75199126 -21.75 86.375 C-20.14119649 91.55892242 -18.32005976 94.43710444 -13.75 97.375 C-6.49811201 100.82057971 2.11512714 100.47412905 9.625 97.875 C15.89817835 95.0142672 20.62490334 89.73752242 23.25 83.375 C23.49073194 80.55414272 23.49073194 80.55414272 23.375 77.625 C23.35695313 76.64015625 23.33890625 75.6553125 23.3203125 74.640625 C23.29710937 73.89296875 23.27390625 73.1453125 23.25 72.375 C18.83922656 72.30028659 14.42879816 72.24613487 10.01757812 72.21020508 C8.52011693 72.19521112 7.02269895 72.17480895 5.52539062 72.14868164 C-7.8197702 71.56146071 -7.8197702 71.56146071 -19.1875 77.6875 Z " fill="#000000" transform="translate(1729.75,129.625)"/>
<path d="M0 0 C0.66230621 0.00054382 1.32461243 0.00108765 2.00698853 0.00164795 C17.84975436 0.06149611 32.96727417 2.42571683 45.0625 13.625 C57.59026905 27.44151084 58.8711002 44.24409944 58.640625 62 C58.63314023 63.7259047 58.62745792 65.45181805 58.62347412 67.17773438 C58.60839331 71.66256271 58.56926928 76.14685095 58.5246582 80.63146973 C58.48332049 85.23080138 58.46538195 89.83022257 58.4453125 94.4296875 C58.4027526 103.41173062 58.33255298 112.39323536 58.25 121.375 C47.36 121.375 36.47 121.375 25.25 121.375 C24.92 117.745 24.59 114.115 24.25 110.375 C23.26 111.4475 22.27 112.52 21.25 113.625 C12.41493527 122.42451115 1.56395179 123.77072952 -10.4375 123.75 C-24.58109747 123.70931133 -36.00876925 121.43848125 -46.71484375 111.5625 C-54.05864291 103.86160279 -56.35057307 95.8600014 -56.22509766 85.35205078 C-55.8419655 76.4257065 -53.29996986 68.63386009 -46.75 62.375 C-36.02556893 53.61450795 -23.47904322 51.19884006 -9.9765625 51.27734375 C-9.0528183 51.2787587 -8.1290741 51.28017365 -7.17733765 51.28163147 C-4.24319138 51.28720391 -1.30912299 51.29975131 1.625 51.3125 C3.62109264 51.31751856 5.61718649 51.32208085 7.61328125 51.32617188 C12.49221725 51.33716431 17.37109545 51.3544099 22.25 51.375 C21.95967205 49.77744215 21.66121934 48.18135951 21.359375 46.5859375 C21.19405273 45.69696777 21.02873047 44.80799805 20.85839844 43.89208984 C19.68045685 39.01866376 17.28518748 36.20314998 13.4375 33.125 C3.10636452 27.45300405 -9.59047175 28.1330948 -20.68359375 31.2421875 C-25.63555622 33.07157491 -30.26358372 35.46466171 -34.9140625 37.94921875 C-37.75 39.375 -37.75 39.375 -39.75 39.375 C-43.71 31.455 -47.67 23.535 -51.75 15.375 C-38.55808113 2.18308113 -17.75614427 -0.02460384 0 0 Z M-19.1875 77.6875 C-21.00430673 80.81240757 -21.67753983 82.75199126 -21.75 86.375 C-20.14119649 91.55892242 -18.32005976 94.43710444 -13.75 97.375 C-6.49811201 100.82057971 2.11512714 100.47412905 9.625 97.875 C15.89817835 95.0142672 20.62490334 89.73752242 23.25 83.375 C23.49073194 80.55414272 23.49073194 80.55414272 23.375 77.625 C23.35695313 76.64015625 23.33890625 75.6553125 23.3203125 74.640625 C23.29710937 73.89296875 23.27390625 73.1453125 23.25 72.375 C18.83922656 72.30028659 14.42879816 72.24613487 10.01757812 72.21020508 C8.52011693 72.19521112 7.02269895 72.17480895 5.52539062 72.14868164 C-7.8197702 71.56146071 -7.8197702 71.56146071 -19.1875 77.6875 Z " fill="#000000" transform="translate(1438.75,129.625)"/>
<path d="M0 0 C0.66230621 0.00054382 1.32461243 0.00108765 2.00698853 0.00164795 C17.84975436 0.06149611 32.96727417 2.42571683 45.0625 13.625 C57.59026905 27.44151084 58.8711002 44.24409944 58.640625 62 C58.63314023 63.7259047 58.62745792 65.45181805 58.62347412 67.17773438 C58.60839331 71.66256271 58.56926928 76.14685095 58.5246582 80.63146973 C58.48332049 85.23080138 58.46538195 89.83022257 58.4453125 94.4296875 C58.4027526 103.41173062 58.33255298 112.39323536 58.25 121.375 C47.36 121.375 36.47 121.375 25.25 121.375 C24.92 117.745 24.59 114.115 24.25 110.375 C23.26 111.4475 22.27 112.52 21.25 113.625 C12.41493527 122.42451115 1.56395179 123.77072952 -10.4375 123.75 C-24.58109747 123.70931133 -36.00876925 121.43848125 -46.71484375 111.5625 C-54.05864291 103.86160279 -56.35057307 95.8600014 -56.22509766 85.35205078 C-55.8419655 76.4257065 -53.29996986 68.63386009 -46.75 62.375 C-36.02556893 53.61450795 -23.47904322 51.19884006 -9.9765625 51.27734375 C-9.0528183 51.2787587 -8.1290741 51.28017365 -7.17733765 51.28163147 C-4.24319138 51.28720391 -1.30912299 51.29975131 1.625 51.3125 C3.62109264 51.31751856 5.61718649 51.32208085 7.61328125 51.32617188 C12.49221725 51.33716431 17.37109545 51.3544099 22.25 51.375 C21.95967205 49.77744215 21.66121934 48.18135951 21.359375 46.5859375 C21.19405273 45.69696777 21.02873047 44.80799805 20.85839844 43.89208984 C19.68045685 39.01866376 17.28518748 36.20314998 13.4375 33.125 C3.10636452 27.45300405 -9.59047175 28.1330948 -20.68359375 31.2421875 C-25.63555622 33.07157491 -30.26358372 35.46466171 -34.9140625 37.94921875 C-37.75 39.375 -37.75 39.375 -39.75 39.375 C-43.71 31.455 -47.67 23.535 -51.75 15.375 C-38.55808113 2.18308113 -17.75614427 -0.02460384 0 0 Z M-19.1875 77.6875 C-21.00430673 80.81240757 -21.67753983 82.75199126 -21.75 86.375 C-20.14119649 91.55892242 -18.32005976 94.43710444 -13.75 97.375 C-6.49811201 100.82057971 2.11512714 100.47412905 9.625 97.875 C15.89817835 95.0142672 20.62490334 89.73752242 23.25 83.375 C23.49073194 80.55414272 23.49073194 80.55414272 23.375 77.625 C23.35695313 76.64015625 23.33890625 75.6553125 23.3203125 74.640625 C23.29710937 73.89296875 23.27390625 73.1453125 23.25 72.375 C18.83922656 72.30028659 14.42879816 72.24613487 10.01757812 72.21020508 C8.52011693 72.19521112 7.02269895 72.17480895 5.52539062 72.14868164 C-7.8197702 71.56146071 -7.8197702 71.56146071 -19.1875 77.6875 Z " fill="#000000" transform="translate(1150.75,129.625)"/>
<path d="M0 0 C0.66230621 0.00054382 1.32461243 0.00108765 2.00698853 0.00164795 C17.84975436 0.06149611 32.96727417 2.42571683 45.0625 13.625 C57.59026905 27.44151084 58.8711002 44.24409944 58.640625 62 C58.63314023 63.7259047 58.62745792 65.45181805 58.62347412 67.17773438 C58.60839331 71.66256271 58.56926928 76.14685095 58.5246582 80.63146973 C58.48332049 85.23080138 58.46538195 89.83022257 58.4453125 94.4296875 C58.4027526 103.41173062 58.33255298 112.39323536 58.25 121.375 C47.36 121.375 36.47 121.375 25.25 121.375 C24.92 117.745 24.59 114.115 24.25 110.375 C23.26 111.4475 22.27 112.52 21.25 113.625 C12.41493527 122.42451115 1.56395179 123.77072952 -10.4375 123.75 C-24.58109747 123.70931133 -36.00876925 121.43848125 -46.71484375 111.5625 C-54.05864291 103.86160279 -56.35057307 95.8600014 -56.22509766 85.35205078 C-55.8419655 76.4257065 -53.29996986 68.63386009 -46.75 62.375 C-36.02556893 53.61450795 -23.47904322 51.19884006 -9.9765625 51.27734375 C-9.0528183 51.2787587 -8.1290741 51.28017365 -7.17733765 51.28163147 C-4.24319138 51.28720391 -1.30912299 51.29975131 1.625 51.3125 C3.62109264 51.31751856 5.61718649 51.32208085 7.61328125 51.32617188 C12.49221725 51.33716431 17.37109545 51.3544099 22.25 51.375 C21.95967205 49.77744215 21.66121934 48.18135951 21.359375 46.5859375 C21.19405273 45.69696777 21.02873047 44.80799805 20.85839844 43.89208984 C19.68045685 39.01866376 17.28518748 36.20314998 13.4375 33.125 C3.10636452 27.45300405 -9.59047175 28.1330948 -20.68359375 31.2421875 C-25.63555622 33.07157491 -30.26358372 35.46466171 -34.9140625 37.94921875 C-37.75 39.375 -37.75 39.375 -39.75 39.375 C-43.71 31.455 -47.67 23.535 -51.75 15.375 C-38.55808113 2.18308113 -17.75614427 -0.02460384 0 0 Z M-19.1875 77.6875 C-21.00430673 80.81240757 -21.67753983 82.75199126 -21.75 86.375 C-20.14119649 91.55892242 -18.32005976 94.43710444 -13.75 97.375 C-6.49811201 100.82057971 2.11512714 100.47412905 9.625 97.875 C15.89817835 95.0142672 20.62490334 89.73752242 23.25 83.375 C23.49073194 80.55414272 23.49073194 80.55414272 23.375 77.625 C23.35695313 76.64015625 23.33890625 75.6553125 23.3203125 74.640625 C23.29710937 73.89296875 23.27390625 73.1453125 23.25 72.375 C18.83922656 72.30028659 14.42879816 72.24613487 10.01757812 72.21020508 C8.52011693 72.19521112 7.02269895 72.17480895 5.52539062 72.14868164 C-7.8197702 71.56146071 -7.8197702 71.56146071 -19.1875 77.6875 Z " fill="#000000" transform="translate(775.75,129.625)"/>
<path d="M0 0 C38.65240824 1.03985377 74.1221428 10.83568036 108.15600586 29.08520508 C108.82422363 29.42970703 109.49244141 29.77420898 110.1809082 30.12915039 C118.62701942 34.50691767 118.62701942 34.50691767 119.87084961 38.21801758 C119.96850586 40.39770508 119.96850586 40.39770508 119.15600586 44.08520508 C116.69603811 46.54517282 115.91982032 46.38196755 112.53100586 46.39770508 C107.44315634 46.31694556 103.83584944 44.98887026 99.15600586 43.08520508 C96.1285823 42.73607092 94.65388129 42.78520322 92.02319336 44.37036133 C86.59542179 49.21278498 83.81712588 53.31682094 82.53100586 60.64770508 C80.03188954 66.89549587 74.02308642 69.06114042 68.35522461 72.17895508 C51.92284845 80.59187779 51.92284845 80.59187779 40.15600586 94.08520508 C40.25819595 99.44288577 42.30163213 101.84853727 45.96850586 105.58520508 C49.49128242 109.20684834 52.69228115 112.64692133 55.15600586 117.08520508 C54.75683594 119.2668457 54.75683594 119.2668457 54.15600586 121.08520508 C46.71758693 120.68455853 41.28701303 118.70355654 34.65600586 115.39770508 C33.77041992 114.97553711 32.88483398 114.55336914 31.97241211 114.1184082 C26.72241796 111.56279431 21.93544717 108.72469921 17.21948242 105.27807617 C13.62986169 103.20295941 10.12642453 103.07525392 6.15600586 104.08520508 C1.82299529 107.03533994 0.48751127 110.07462161 -0.50805664 115.01489258 C-0.61891602 115.6980957 -0.72977539 116.38129883 -0.84399414 117.08520508 C-0.95485352 117.7684082 -1.06571289 118.45161133 -1.17993164 119.15551758 C-1.42556602 120.79529302 -1.63833573 122.43993781 -1.84399414 124.08520508 C-2.17399414 124.08520508 -2.50399414 124.08520508 -2.84399414 124.08520508 C-2.8673233 108.06526971 -2.8849734 92.04533982 -2.89580631 76.02539158 C-2.90096923 68.58755997 -2.90801186 61.14973891 -2.91943359 53.71191406 C-2.92938055 47.23139166 -2.9358476 40.75087688 -2.93808264 34.27034706 C-2.93938972 30.83689965 -2.94247544 27.40347408 -2.9497242 23.97003365 C-2.9577383 20.14326687 -2.95798527 16.31652173 -2.95751953 12.48974609 C-2.96111481 11.34320053 -2.96471008 10.19665497 -2.96841431 9.0153656 C-2.96703964 7.97904999 -2.96566498 6.94273438 -2.96424866 5.87501526 C-2.96517045 4.96889276 -2.96609224 4.06277025 -2.96704197 3.12918949 C-2.8085512 0.49645178 -2.64534645 0.12223301 0 0 Z " fill="#5A7010" transform="translate(228.843994140625,2.914794921875)"/>
<path d="M0 0 C0.99 0.495 0.99 0.495 2 1 C1.47792969 1.71800781 0.95585937 2.43601563 0.41796875 3.17578125 C-13.35052349 22.53847699 -24.09742953 42.90547671 -30 66 C-30.79410959 68.76865235 -31.5901552 71.53674042 -32.38671875 74.3046875 C-34.24250478 82.46068982 -34.18623015 90.67057256 -34.18530273 98.98852539 C-34.1874776 101.16507888 -34.20564935 103.34111466 -34.22460938 105.51757812 C-34.2621129 114.90293625 -33.68474167 124.00274814 -31.47607422 133.17602539 C-31.07421875 134.9921875 -31.07421875 134.9921875 -31 138 C-32.89453125 140.6328125 -32.89453125 140.6328125 -35.8125 143.125 C-36.3502002 143.58527588 -36.88790039 144.04555176 -37.44189453 144.51977539 C-39.26725371 146.05063101 -41.12577455 147.52943944 -43 149 C-43.98250732 149.77851318 -43.98250732 149.77851318 -44.98486328 150.57275391 C-82.62269647 180 -82.62269647 180 -99 180 C-99.90979922 170.49055661 -100.18630539 161.06357488 -100.18530273 151.51733398 C-100.18748744 149.20082142 -100.20572078 146.88478828 -100.22460938 144.56835938 C-100.27902712 130.62483091 -98.98895301 117.14802145 -95.375 103.625 C-94.99021484 102.1704541 -94.99021484 102.1704541 -94.59765625 100.68652344 C-92.00554842 91.32852278 -88.33837784 82.66763186 -84 74 C-83.50757813 72.989375 -83.01515625 71.97875 -82.5078125 70.9375 C-66.0181639 38.88982136 -33.54961571 12.7257163 0 0 Z " fill="#EE6D33" transform="translate(213,231)"/>
<path d="M0 0 C1.51451747 1.32649887 3.01894859 2.66448833 4.52270508 4.00317383 C5.22782227 4.62321289 5.93293945 5.24325195 6.65942383 5.88208008 C20.03549254 18.41688661 29.77336641 34.90001556 38.39770508 50.87817383 C38.77958984 51.58006836 39.16147461 52.28196289 39.55493164 53.00512695 C41.81082416 57.27325123 43.35987946 61.31515056 44.52270508 66.00317383 C43.87946289 65.59067383 43.2362207 65.17817383 42.57348633 64.75317383 C39.56167767 62.82836601 36.5422619 60.91580176 33.52270508 59.00317383 C32.51208008 58.35477539 31.50145508 57.70637695 30.46020508 57.03833008 C-1.87130716 36.62906298 -37.59855793 25.61297748 -75.91479492 29.94067383 C-76.67598633 30.02373779 -77.43717773 30.10680176 -78.22143555 30.19238281 C-81.38218586 30.55689766 -84.38740347 30.98096398 -87.48120117 31.74536133 C-90.1431102 32.35355964 -91.81426276 32.62783569 -94.47729492 32.00317383 C-98.51468474 28.91194599 -101.45316831 25.04592974 -104.47729492 21.00317383 C-105.39615398 19.8205621 -106.31543322 18.63827675 -107.23510742 17.45629883 C-135.47729492 -19.46027483 -135.47729492 -19.46027483 -135.47729492 -34.99682617 C-86.91227554 -41.07362921 -37.74260065 -32.51763878 0 0 Z " fill="#518151" transform="translate(172.477294921875,149.996826171875)"/>
<path d="M0 0 C2.37559623 0.01845553 4.75080369 0.02050733 7.12646484 0.02026367 C14.46798844 0.03778041 21.70080725 0.15967171 28.98193359 1.20581055 C27.67374194 3.82219386 26.50364538 4.05421776 23.85302734 5.23706055 C22.99064453 5.63022461 22.12826172 6.02338867 21.23974609 6.4284668 C20.30904297 6.84999023 19.37833984 7.27151367 18.41943359 7.70581055 C-16.34216838 23.88386954 -44.05925466 49.01793606 -60.76806641 83.76831055 C-61.15913574 84.58130615 -61.55020508 85.39430176 -61.953125 86.23193359 C-64.10870461 90.84976579 -65.60856762 95.22358919 -66.76806641 100.20581055 C-67.63916016 103.01049805 -67.63916016 103.01049805 -69.01806641 105.20581055 C-73.22370615 107.3434139 -77.38012325 107.65548567 -82.01806641 108.20581055 C-83.09757568 108.3754834 -84.17708496 108.54515625 -85.28930664 108.7199707 C-95.11048896 110.23070562 -104.71496836 110.51467352 -114.63525391 110.46655273 C-117.2787132 110.45576711 -119.92150169 110.4665486 -122.56494141 110.47924805 C-131.23558608 110.48534469 -139.54895801 110.32671105 -148.01806641 108.20581055 C-146.57120423 103.47062524 -144.62737373 99.1108342 -142.39306641 94.70581055 C-142.03970215 94.0072998 -141.68633789 93.30878906 -141.32226562 92.58911133 C-121.45793469 53.67968794 -92.11302751 21.66433046 -49.94384766 7.1081543 C-33.41845424 2.01153764 -17.2459885 -0.13841371 0 0 Z " fill="#EFB030" transform="translate(184.01806640625,223.794189453125)"/>
<path d="M0 0 C7.21921739 2.17840442 13.65645253 5.16189721 20.3125 8.6875 C21.83979736 9.4926001 21.83979736 9.4926001 23.39794922 10.31396484 C30.59202158 14.15103368 37.43477939 18.14786174 44 23 C45.04929688 23.76699219 46.09859375 24.53398438 47.1796875 25.32421875 C70.27813995 42.49212564 87.86679821 63.33441566 99 90 C99.40734375 90.97195312 99.8146875 91.94390625 100.234375 92.9453125 C106.90561694 110.13658981 109.36974496 128.18149528 109.20581055 146.51660156 C109.18744805 148.63098215 109.18530282 150.74492242 109.18554688 152.859375 C109.1631915 161.27452602 108.78409459 169.61767699 108 178 C105.82094642 175.82094642 104.98620467 174.06006535 103.71484375 171.265625 C103.27132568 170.30575684 102.82780762 169.34588867 102.37084961 168.35693359 C101.89784424 167.33164551 101.42483887 166.30635742 100.9375 165.25 C82.74003662 126.58896277 52.55156261 96.28786811 12.00390625 81.4921875 C9.34804103 80.59751441 6.69999544 79.74906706 4 79 C3.34752353 75.85550776 2.70427425 72.70919244 2.0625 69.5625 C1.88009766 68.68400391 1.69769531 67.80550781 1.50976562 66.90039062 C1.24389648 65.59038086 1.24389648 65.59038086 0.97265625 64.25390625 C0.72914429 63.06776733 0.72914429 63.06776733 0.48071289 61.85766602 C-0.72022057 54.71854659 -1.15062076 47.70156174 -1.1328125 40.46875 C-1.13376923 39.59279175 -1.13472595 38.7168335 -1.13571167 37.81433105 C-1.13638744 35.97566658 -1.13457559 34.13699964 -1.13037109 32.29833984 C-1.12501426 29.50743171 -1.13033674 26.71668447 -1.13671875 23.92578125 C-1.13605786 22.12760382 -1.13477648 20.32942648 -1.1328125 18.53125 C-1.13483673 17.70911011 -1.13686096 16.88697021 -1.13894653 16.03991699 C-1.11736426 10.62324832 -0.67693804 5.37517041 0 0 Z " fill="#2A9DD1" transform="translate(115,37)"/>
<path d="M0 0 C0 0.33 0 0.66 0 1 C-1.17804199 0.98952637 -2.35608398 0.97905273 -3.56982422 0.96826172 C-8.03170611 0.93146542 -12.49357529 0.90888773 -16.95556641 0.89013672 C-18.86965201 0.88021254 -20.78372302 0.86666886 -22.69775391 0.84912109 C-39.23601274 0.70153558 -55.44317159 1.25002753 -71.5 5.625 C-72.46284912 5.88297363 -73.42569824 6.14094727 -74.41772461 6.40673828 C-83.72672525 9.01544393 -92.40220088 12.60463733 -101 17 C-101.63228516 17.32226562 -102.26457031 17.64453125 -102.91601562 17.9765625 C-113.51359439 23.48237956 -123.25756617 30.34547176 -131.8125 38.6875 C-135 41 -135 41 -138.74609375 40.796875 C-162.72269647 36.92720742 -187.13841526 20.51971689 -206 6 C-201.90040003 1.4978341 -197.35259958 -1.56218535 -192.1875 -4.75 C-191.34292236 -5.27440674 -190.49834473 -5.79881348 -189.62817383 -6.33911133 C-187.09207094 -7.90387989 -184.54760241 -9.45404079 -182 -11 C-181.3090625 -11.42394043 -180.618125 -11.84788086 -179.90625 -12.28466797 C-121.67090386 -47.75715578 -53.57187162 -41.44239126 0 0 Z " fill="#84AF75" transform="translate(213,219)"/>
<path d="M0 0 C0.33 0 0.66 0 1 0 C1 69.96 1 139.92 1 212 C-2.38668132 208.61331868 -5.01380436 205.32741722 -7.625 201.375 C-8.27142456 200.39853516 -8.27142456 200.39853516 -8.9309082 199.40234375 C-33.86208535 161.13988076 -47.07249093 118.14707896 -37.49609375 72.60351562 C-31.41897367 46.02174224 -17.04531688 21.03623352 0 0 Z " fill="#E23332" transform="translate(223,229)"/>
<path d="M0 0 C0 10.56 0 21.12 0 32 C-4.95 32.33 -9.9 32.66 -15 33 C-22.37423475 35.12864508 -28.83668625 37.11315318 -33.17578125 43.81640625 C-38.15369366 53.06627259 -38.32664859 62.27099153 -38.4140625 72.5625 C-38.43280205 73.96355291 -38.45237748 75.36459486 -38.4727478 76.765625 C-38.52378108 80.42825827 -38.56355957 84.09092802 -38.60089111 87.75372314 C-38.64111285 91.50126927 -38.69201861 95.24866977 -38.7421875 98.99609375 C-38.83960304 106.33067196 -38.91935052 113.66514174 -39 121 C-50.55 121 -62.1 121 -74 121 C-74 81.73 -74 42.46 -74 2 C-63.11 2 -52.22 2 -41 2 C-40.505 8.435 -40.505 8.435 -40 15 C-39.05125 13.948125 -38.1025 12.89625 -37.125 11.8125 C-26.920712 1.66968361 -13.87805891 0 0 0 Z " fill="#000000" transform="translate(939,130)"/>
<path d="M0 0 C0.33 0 0.66 0 1 0 C1 43.89 1 87.78 1 133 C-0.8487554 130.2268669 -1.78768091 127.80155676 -2.79931641 124.65795898 C-8.51948477 107.04103629 -17.64205536 89.56328602 -30.72851562 76.24023438 C-34.99909472 71.81203298 -34.99909472 71.81203298 -35.00390625 67.49609375 C-34.67261719 66.34238281 -34.34132812 65.18867187 -34 64 C-33.69964844 62.87722656 -33.39929688 61.75445312 -33.08984375 60.59765625 C-29.92425636 50.88627798 -25.8204876 41.99475041 -21 33 C-20.65453125 32.34386719 -20.3090625 31.68773438 -19.953125 31.01171875 C-14.17328314 20.07746568 -7.50041006 9.83820021 0 0 Z " fill="#156492" transform="translate(223,8)"/>
<path d="M0 0 C0.721875 0.495 1.44375 0.99 2.1875 1.5 C2.5175 0.51 2.8475 -0.48 3.1875 -1.5 C5.4975 -1.5 7.8075 -1.5 10.1875 -1.5 C10.26186251 4.08672194 10.31620254 9.67315339 10.35229492 15.26025391 C10.36734691 17.15939353 10.38779316 19.05849859 10.41381836 20.95751953 C10.45035992 23.69312081 10.46726238 26.428261 10.48046875 29.1640625 C10.49595261 30.00804596 10.51143646 30.85202942 10.52738953 31.72158813 C10.52900689 37.43445921 9.68954869 41.75686849 5.6875 46.14453125 C-1.50549987 51.74533063 -9.0988974 50.97886334 -17.8125 50.5 C-21.76883563 49.738951 -24.76762503 48.74581247 -27.4375 45.5625 C-27.92120229 42.9021374 -27.24947541 41.73529508 -25.8125 39.5 C-23.66685774 40.00196218 -21.60109679 40.57262491 -19.515625 41.2890625 C-12.09075856 43.81919215 -7.42479146 43.40307287 0.1875 41.5 C1.1775 37.87 2.1675 34.24 3.1875 30.5 C2.300625 31.16 1.41375 31.82 0.5 32.5 C-5.46481153 35.89460819 -12.74884338 35.54029609 -19.25390625 33.875 C-23.71883738 31.97719246 -26.63294754 29.1504766 -28.9609375 24.90625 C-30.91458402 19.38585433 -30.91458402 13.61414567 -28.9609375 8.09375 C-26.63248031 3.84867159 -23.71794137 1.02894355 -19.2578125 -0.87890625 C-13.15457889 -2.42908859 -5.76617842 -2.86254463 0 0 Z M-20.75 9.3125 C-22.84120073 13.61791327 -23.07932922 16.46826035 -21.875 21.125 C-19.22833436 25.45590741 -16.68300018 27.17800709 -11.8125 28.5 C-7.62224851 28.80810673 -4.52378337 27.94841778 -0.9375 25.6875 C2.01326702 22.64994572 3.01443888 20.82680191 3.5625 16.625 C3.07154512 12.53370933 1.88218753 10.60925485 -0.8125 7.5 C-7.56246466 3.40399872 -14.90687458 3.84635042 -20.75 9.3125 Z " fill="#000000" transform="translate(1457.8125,341.5)"/>
<path d="M0 0 C2.31 0 4.62 0 7 0 C7.33 0.99 7.66 1.98 8 3 C8.7425 2.505 9.485 2.01 10.25 1.5 C15.16331395 -0.94495861 20.66880533 -0.69378561 26 0 C28.43831267 1.07902342 29.93623824 2.26209536 32 4 C34.30353313 4.1931746 34.30353313 4.1931746 36.8125 2 C42.13430028 -1.13047075 48.03610666 -0.75220276 54 0 C59.15026385 2.30873897 60.85888735 4.88743053 63 10 C63.34057617 13.25146484 63.34057617 13.25146484 63.29296875 16.7109375 C63.2784668 18.57685547 63.2784668 18.57685547 63.26367188 20.48046875 C63.23853516 21.76566406 63.21339844 23.05085938 63.1875 24.375 C63.16719727 26.33759766 63.16719727 26.33759766 63.14648438 28.33984375 C63.1112237 31.56031844 63.06193633 34.77994606 63 38 C60.69 38 58.38 38 56 38 C55.970271 36.9941687 55.970271 36.9941687 55.93994141 35.96801758 C55.84440285 32.91579839 55.73484055 29.86423659 55.625 26.8125 C55.5940625 25.75740234 55.563125 24.70230469 55.53125 23.61523438 C55.47324219 22.08286133 55.47324219 22.08286133 55.4140625 20.51953125 C55.3826416 19.58214111 55.3512207 18.64475098 55.31884766 17.67895508 C54.84123021 13.66601769 53.87002135 10.87002135 51 8 C47.94294 7.42942888 45.06188582 7.47646512 42 8 C38.42140812 10.68394391 36.7996964 12.66571474 36 17 C35.85701869 18.6586512 35.75458775 20.3210869 35.68359375 21.984375 C35.62075195 23.38623047 35.62075195 23.38623047 35.55664062 24.81640625 C35.51732422 25.78449219 35.47800781 26.75257813 35.4375 27.75 C35.37272461 29.22533203 35.37272461 29.22533203 35.30664062 30.73046875 C35.20077948 33.15351275 35.09869829 35.5766554 35 38 C32.69 38 30.38 38 28 38 C27.98018066 37.3294458 27.96036133 36.6588916 27.93994141 35.96801758 C27.84440285 32.91579839 27.73484055 29.86423659 27.625 26.8125 C27.5940625 25.75740234 27.563125 24.70230469 27.53125 23.61523438 C27.49257813 22.59365234 27.45390625 21.57207031 27.4140625 20.51953125 C27.36693115 19.11344604 27.36693115 19.11344604 27.31884766 17.67895508 C26.84123021 13.66601769 25.87002135 10.87002135 23 8 C19.94342305 7.42951904 17.06078806 7.47136648 14 8 C10.71824682 10.52968474 9.30756223 12.07731331 8 16 C7.85222064 17.69867188 7.75252934 19.40177489 7.68359375 21.10546875 C7.64169922 22.08837891 7.59980469 23.07128906 7.55664062 24.08398438 C7.51732422 25.10814453 7.47800781 26.13230469 7.4375 27.1875 C7.37272461 28.74114258 7.37272461 28.74114258 7.30664062 30.32617188 C7.20055634 32.8839819 7.09849854 35.44188845 7 38 C4.69 38 2.38 38 0 38 C0 25.46 0 12.92 0 0 Z " fill="#000000" transform="translate(778,340)"/>
<path d="M0 0 C5.89272519 4.31596083 10.18014585 9.33634188 12 16.46484375 C12.82126245 24.61062127 12.92978151 32.61573397 8 39.46484375 C2.5232142 45.4612487 -2.28572163 48.96722548 -10.515625 49.8359375 C-20.04988307 50.00547975 -26.89762398 49.10077121 -34.09375 42.5625 C-40.54279165 35.67735512 -41.48030986 29.21036434 -41.3046875 19.94140625 C-40.68854673 12.91108204 -38.32233118 8.38567636 -33.1875 3.58984375 C-23.86570913 -3.74171075 -10.88912893 -5.79516142 0 0 Z M-29.25 10.71484375 C-33.0395747 15.46921831 -34.26986523 19.98286824 -33.875 26.02734375 C-32.81463302 33.2061501 -28.58844571 37.30323525 -23 41.46484375 C-17.39614002 43.33279708 -11.29258879 43.20020242 -5.6875 41.40234375 C-0.99412389 38.01874702 2.16215909 34.43194849 4.4375 29.08984375 C5.34981575 23.21047557 5.07603581 18.53720902 2.3125 13.21484375 C-0.95273143 9.33186583 -4.08534185 6.10306313 -9 4.46484375 C-17.40595126 3.77864365 -23.284955 4.34926815 -29.25 10.71484375 Z " fill="#000000" transform="translate(1381,329.53515625)"/>
<path d="M0 0 C11.88 0 23.76 0 36 0 C36 2.31 36 4.62 36 7 C26.43 7 16.86 7 7 7 C7 11.62 7 16.24 7 21 C15.58 21 24.16 21 33 21 C33 22.98 33 24.96 33 27 C24.42 27 15.84 27 7 27 C7 32.28 7 37.56 7 43 C16.9 43 26.8 43 37 43 C37 45.31 37 47.62 37 50 C24.79 50 12.58 50 0 50 C0 33.5 0 17 0 0 Z " fill="#000000" transform="translate(499,328)"/>
<path d="M0 0 C0.78515625 1.96875 0.78515625 1.96875 1 4 C-0.4375 6.25 -0.4375 6.25 -2 8 C-2.804375 7.525625 -3.60875 7.05125 -4.4375 6.5625 C-11.88697837 3.29518493 -18.29964532 3.79729807 -26 6 C-26.85650653 8.80045046 -26.85650653 8.80045046 -27 12 C-23.26740418 17.58247469 -15.79403965 18.46371024 -9.70898438 20.1796875 C-3.67616683 22.01890922 -0.30892296 23.51035234 3 29 C4.03240763 33.32396608 3.98645398 37.84457632 2.11328125 41.9375 C-0.74893387 45.74110813 -4.57097526 47.60698681 -9 49 C-17.85653101 50.00211513 -27.26262729 49.96453743 -35 45 C-35.66 44.01 -36.32 43.02 -37 42 C-36.01 40.35 -35.02 38.7 -34 37 C-29 39 -29 39 -26.75 40.0625 C-19.52147995 42.5267682 -13.26491099 42.07814239 -6 40 C-5.05392193 37.25038489 -5.05392193 37.25038489 -5 34 C-8.80754526 29.05474201 -12.64319899 27.83195819 -18.4375 26.4375 C-25.21272716 24.76292421 -30.91963444 23.12054833 -35 17 C-35.74983492 12.47215066 -36.00067756 7.94959593 -33.8671875 3.79296875 C-26.2585827 -5.66799272 -10.0666449 -5.63732114 0 0 Z " fill="#000000" transform="translate(1092,330)"/>
<path d="M0 0 C4.52876662 2.85282503 7.69964768 5.59989585 9.25 10.87109375 C9.25 13.84109375 9.25 16.81109375 9.25 19.87109375 C-0.65 20.20109375 -10.55 20.53109375 -20.75 20.87109375 C-17.95840755 25.84798068 -17.95840755 25.84798068 -13.75 28.87109375 C-7.06411673 30.51102738 -1.6919372 29.19857858 4.25 25.87109375 C5.24 27.19109375 6.23 28.51109375 7.25 29.87109375 C6.28259368 32.98829188 5.24234055 33.87585963 2.4375 35.62109375 C-3.65873844 37.92950203 -10.95807707 37.94496632 -17.19140625 36.1796875 C-21.92828456 34.03146375 -24.78297134 31.09686185 -27.75 26.87109375 C-29.69926781 21.02329033 -29.53007493 14.34897883 -27.6875 8.49609375 C-21.00015743 -0.56417683 -10.96000809 -4.49920787 0 0 Z M-18.75 8.87109375 C-20.88370287 11.61350331 -20.88370287 11.61350331 -21.75 14.87109375 C-13.83 14.87109375 -5.91 14.87109375 2.25 14.87109375 C0.81213537 9.29110368 0.81213537 9.29110368 -1.3125 7.05859375 C-7.79021076 3.90278594 -13.26224786 3.90598467 -18.75 8.87109375 Z " fill="#000000" transform="translate(1304.75,341.12890625)"/>
<path d="M0 0 C4.52876662 2.85282503 7.69964768 5.59989585 9.25 10.87109375 C9.25 13.84109375 9.25 16.81109375 9.25 19.87109375 C-0.65 20.20109375 -10.55 20.53109375 -20.75 20.87109375 C-17.95840755 25.84798068 -17.95840755 25.84798068 -13.75 28.87109375 C-7.06411673 30.51102738 -1.6919372 29.19857858 4.25 25.87109375 C5.24 27.19109375 6.23 28.51109375 7.25 29.87109375 C6.28259368 32.98829188 5.24234055 33.87585963 2.4375 35.62109375 C-3.65873844 37.92950203 -10.95807707 37.94496632 -17.19140625 36.1796875 C-21.92828456 34.03146375 -24.78297134 31.09686185 -27.75 26.87109375 C-29.69926781 21.02329033 -29.53007493 14.34897883 -27.6875 8.49609375 C-21.00015743 -0.56417683 -10.96000809 -4.49920787 0 0 Z M-18.75 8.87109375 C-20.88370287 11.61350331 -20.88370287 11.61350331 -21.75 14.87109375 C-13.83 14.87109375 -5.91 14.87109375 2.25 14.87109375 C0.81213537 9.29110368 0.81213537 9.29110368 -1.3125 7.05859375 C-7.79021076 3.90278594 -13.26224786 3.90598467 -18.75 8.87109375 Z " fill="#000000" transform="translate(1128.75,341.12890625)"/>
<path d="M0 0 C4.52876662 2.85282503 7.69964768 5.59989585 9.25 10.87109375 C9.25 13.84109375 9.25 16.81109375 9.25 19.87109375 C-0.65 20.20109375 -10.55 20.53109375 -20.75 20.87109375 C-17.95840755 25.84798068 -17.95840755 25.84798068 -13.75 28.87109375 C-7.06411673 30.51102738 -1.6919372 29.19857858 4.25 25.87109375 C5.24 27.19109375 6.23 28.51109375 7.25 29.87109375 C6.28259368 32.98829188 5.24234055 33.87585963 2.4375 35.62109375 C-3.65873844 37.92950203 -10.95807707 37.94496632 -17.19140625 36.1796875 C-21.92828456 34.03146375 -24.78297134 31.09686185 -27.75 26.87109375 C-29.69926781 21.02329033 -29.53007493 14.34897883 -27.6875 8.49609375 C-21.00015743 -0.56417683 -10.96000809 -4.49920787 0 0 Z M-18.75 8.87109375 C-20.88370287 11.61350331 -20.88370287 11.61350331 -21.75 14.87109375 C-13.83 14.87109375 -5.91 14.87109375 2.25 14.87109375 C0.81213537 9.29110368 0.81213537 9.29110368 -1.3125 7.05859375 C-7.79021076 3.90278594 -13.26224786 3.90598467 -18.75 8.87109375 Z " fill="#000000" transform="translate(878.75,341.12890625)"/>
<path d="M0 0 C4.89343765 2.93606259 8.61280555 6.55716664 10.4453125 12.0546875 C11.39130325 24.66183347 11.39130325 24.66183347 7.4453125 30.0546875 C2.25071797 35.24928203 -1.96754212 37.35601777 -9.3046875 37.4921875 C-15.72361596 37.39877274 -19.82143089 36.43026728 -24.5546875 32.0546875 C-29.60754992 26.61314335 -29.85220038 22.18575616 -29.765625 15 C-29.38851885 9.73448077 -27.4804907 6.698526 -23.6171875 3.3046875 C-16.66643749 -1.80198598 -8.31668784 -3.07742883 0 0 Z M-19.9296875 10.3046875 C-21.9489538 13.72190739 -22.48504798 16.0852348 -22.5546875 20.0546875 C-20.90452532 24.73014701 -18.74983638 27.42052425 -14.5546875 30.0546875 C-10.67974167 31.31825679 -8.85153945 31.14681397 -4.9296875 29.9296875 C-1.33740521 27.93397512 0.36378058 26.57727998 2.4453125 23.0546875 C3.54516084 19.02191027 3.71620691 16.82222166 2.3203125 12.8671875 C-0.36759955 8.83531943 -2.79444785 6.62867869 -7.4296875 5.1171875 C-12.63219102 5.01313743 -16.18435562 6.75647835 -19.9296875 10.3046875 Z " fill="#000000" transform="translate(1749.5546875,340.9453125)"/>
<path d="M0 0 C4.89343765 2.93606259 8.61280555 6.55716664 10.4453125 12.0546875 C11.39130325 24.66183347 11.39130325 24.66183347 7.4453125 30.0546875 C2.25071797 35.24928203 -1.96754212 37.35601777 -9.3046875 37.4921875 C-15.72361596 37.39877274 -19.82143089 36.43026728 -24.5546875 32.0546875 C-29.60754992 26.61314335 -29.85220038 22.18575616 -29.765625 15 C-29.38851885 9.73448077 -27.4804907 6.698526 -23.6171875 3.3046875 C-16.66643749 -1.80198598 -8.31668784 -3.07742883 0 0 Z M-19.9296875 10.3046875 C-21.9489538 13.72190739 -22.48504798 16.0852348 -22.5546875 20.0546875 C-20.90452532 24.73014701 -18.74983638 27.42052425 -14.5546875 30.0546875 C-10.67974167 31.31825679 -8.85153945 31.14681397 -4.9296875 29.9296875 C-1.33740521 27.93397512 0.36378058 26.57727998 2.4453125 23.0546875 C3.54516084 19.02191027 3.71620691 16.82222166 2.3203125 12.8671875 C-0.36759955 8.83531943 -2.79444785 6.62867869 -7.4296875 5.1171875 C-12.63219102 5.01313743 -16.18435562 6.75647835 -19.9296875 10.3046875 Z " fill="#000000" transform="translate(708.5546875,340.9453125)"/>
<path d="M0 0 C3.74294489 3.14149607 5.54344267 5.58564624 6.06323242 10.51489258 C6.03966675 12.29802856 6.03966675 12.29802856 6.015625 14.1171875 C6.00112305 16.05561523 6.00112305 16.05561523 5.98632812 18.03320312 C5.9612661 19.38802695 5.93587131 20.74284466 5.91015625 22.09765625 C5.89509638 23.4719907 5.88141026 24.84634093 5.86914062 26.22070312 C5.83382253 29.57592257 5.78449476 32.93033791 5.72265625 36.28515625 C3.41265625 36.28515625 1.10265625 36.28515625 -1.27734375 36.28515625 C-1.60734375 35.29515625 -1.93734375 34.30515625 -2.27734375 33.28515625 C-2.97859375 33.77242188 -3.67984375 34.2596875 -4.40234375 34.76171875 C-7.65057191 36.4829266 -9.62890571 36.68807797 -13.27734375 36.66015625 C-14.28796875 36.66789062 -15.29859375 36.675625 -16.33984375 36.68359375 C-20.4192879 36.13026489 -22.86439381 34.3820516 -26.05859375 31.90234375 C-28.19787407 29.06368333 -27.79826232 26.16432592 -27.703125 22.734375 C-27.0556877 19.01012559 -25.27289895 17.44474256 -22.27734375 15.28515625 C-19.51168993 14.36327164 -17.89450673 14.16730403 -15.046875 14.1875 C-13.84321289 14.19233398 -13.84321289 14.19233398 -12.61523438 14.19726562 C-11.78185547 14.20564453 -10.94847656 14.21402344 -10.08984375 14.22265625 C-8.82237305 14.22942383 -8.82237305 14.22942383 -7.52929688 14.23632812 C-5.4452822 14.24810222 -3.36130398 14.26603735 -1.27734375 14.28515625 C-2.9853622 9.40395193 -2.9853622 9.40395193 -6.40234375 5.78515625 C-12.58579097 4.70977413 -18.47254449 6.05254115 -24.27734375 8.28515625 C-26.27734375 5.28515625 -26.27734375 5.28515625 -26.33984375 3.28515625 C-24.99030917 0.74485586 -23.4366837 -0.16969712 -20.7734375 -1.171875 C-13.98750851 -2.6480004 -6.24173021 -3.26593512 0 0 Z M-19.27734375 21.28515625 C-20.52887634 23.62611156 -20.52887634 23.62611156 -20.27734375 26.28515625 C-19.01371676 28.80222782 -19.01371676 28.80222782 -16.27734375 30.28515625 C-11.76913718 31.11627813 -8.35347639 30.845642 -4.27734375 28.72265625 C-1.72756893 25.61511819 -1.50564595 23.24239443 -1.27734375 19.28515625 C-3.33954855 19.23080825 -5.40217191 19.19220664 -7.46484375 19.16015625 C-8.61339844 19.13695312 -9.76195312 19.11375 -10.9453125 19.08984375 C-14.23000397 19.28238135 -16.38626561 19.74465476 -19.27734375 21.28515625 Z " fill="#000000" transform="translate(1656.27734375,341.71484375)"/>
<path d="M0 0 C3.74294489 3.14149607 5.54344267 5.58564624 6.06323242 10.51489258 C6.03966675 12.29802856 6.03966675 12.29802856 6.015625 14.1171875 C6.00112305 16.05561523 6.00112305 16.05561523 5.98632812 18.03320312 C5.9612661 19.38802695 5.93587131 20.74284466 5.91015625 22.09765625 C5.89509638 23.4719907 5.88141026 24.84634093 5.86914062 26.22070312 C5.83382253 29.57592257 5.78449476 32.93033791 5.72265625 36.28515625 C3.41265625 36.28515625 1.10265625 36.28515625 -1.27734375 36.28515625 C-1.60734375 35.29515625 -1.93734375 34.30515625 -2.27734375 33.28515625 C-2.97859375 33.77242188 -3.67984375 34.2596875 -4.40234375 34.76171875 C-7.65057191 36.4829266 -9.62890571 36.68807797 -13.27734375 36.66015625 C-14.28796875 36.66789062 -15.29859375 36.675625 -16.33984375 36.68359375 C-20.4192879 36.13026489 -22.86439381 34.3820516 -26.05859375 31.90234375 C-28.19787407 29.06368333 -27.79826232 26.16432592 -27.703125 22.734375 C-27.0556877 19.01012559 -25.27289895 17.44474256 -22.27734375 15.28515625 C-19.51168993 14.36327164 -17.89450673 14.16730403 -15.046875 14.1875 C-13.84321289 14.19233398 -13.84321289 14.19233398 -12.61523438 14.19726562 C-11.78185547 14.20564453 -10.94847656 14.21402344 -10.08984375 14.22265625 C-8.82237305 14.22942383 -8.82237305 14.22942383 -7.52929688 14.23632812 C-5.4452822 14.24810222 -3.36130398 14.26603735 -1.27734375 14.28515625 C-2.9853622 9.40395193 -2.9853622 9.40395193 -6.40234375 5.78515625 C-12.58579097 4.70977413 -18.47254449 6.05254115 -24.27734375 8.28515625 C-26.27734375 5.28515625 -26.27734375 5.28515625 -26.33984375 3.28515625 C-24.99030917 0.74485586 -23.4366837 -0.16969712 -20.7734375 -1.171875 C-13.98750851 -2.6480004 -6.24173021 -3.26593512 0 0 Z M-19.27734375 21.28515625 C-20.52887634 23.62611156 -20.52887634 23.62611156 -20.27734375 26.28515625 C-19.01371676 28.80222782 -19.01371676 28.80222782 -16.27734375 30.28515625 C-11.76913718 31.11627813 -8.35347639 30.845642 -4.27734375 28.72265625 C-1.72756893 25.61511819 -1.50564595 23.24239443 -1.27734375 19.28515625 C-3.33954855 19.23080825 -5.40217191 19.19220664 -7.46484375 19.16015625 C-8.61339844 19.13695312 -9.76195312 19.11375 -10.9453125 19.08984375 C-14.23000397 19.28238135 -16.38626561 19.74465476 -19.27734375 21.28515625 Z " fill="#000000" transform="translate(1506.27734375,341.71484375)"/>
<path d="M0 0 C3.74294489 3.14149607 5.54344267 5.58564624 6.06323242 10.51489258 C6.03966675 12.29802856 6.03966675 12.29802856 6.015625 14.1171875 C6.00112305 16.05561523 6.00112305 16.05561523 5.98632812 18.03320312 C5.9612661 19.38802695 5.93587131 20.74284466 5.91015625 22.09765625 C5.89509638 23.4719907 5.88141026 24.84634093 5.86914062 26.22070312 C5.83382253 29.57592257 5.78449476 32.93033791 5.72265625 36.28515625 C3.41265625 36.28515625 1.10265625 36.28515625 -1.27734375 36.28515625 C-1.60734375 35.29515625 -1.93734375 34.30515625 -2.27734375 33.28515625 C-2.97859375 33.77242188 -3.67984375 34.2596875 -4.40234375 34.76171875 C-7.65057191 36.4829266 -9.62890571 36.68807797 -13.27734375 36.66015625 C-14.28796875 36.66789062 -15.29859375 36.675625 -16.33984375 36.68359375 C-20.4192879 36.13026489 -22.86439381 34.3820516 -26.05859375 31.90234375 C-28.19787407 29.06368333 -27.79826232 26.16432592 -27.703125 22.734375 C-27.0556877 19.01012559 -25.27289895 17.44474256 -22.27734375 15.28515625 C-19.51168993 14.36327164 -17.89450673 14.16730403 -15.046875 14.1875 C-13.84321289 14.19233398 -13.84321289 14.19233398 -12.61523438 14.19726562 C-11.78185547 14.20564453 -10.94847656 14.21402344 -10.08984375 14.22265625 C-8.82237305 14.22942383 -8.82237305 14.22942383 -7.52929688 14.23632812 C-5.4452822 14.24810222 -3.36130398 14.26603735 -1.27734375 14.28515625 C-2.9853622 9.40395193 -2.9853622 9.40395193 -6.40234375 5.78515625 C-12.58579097 4.70977413 -18.47254449 6.05254115 -24.27734375 8.28515625 C-26.27734375 5.28515625 -26.27734375 5.28515625 -26.33984375 3.28515625 C-24.99030917 0.74485586 -23.4366837 -0.16969712 -20.7734375 -1.171875 C-13.98750851 -2.6480004 -6.24173021 -3.26593512 0 0 Z M-19.27734375 21.28515625 C-20.52887634 23.62611156 -20.52887634 23.62611156 -20.27734375 26.28515625 C-19.01371676 28.80222782 -19.01371676 28.80222782 -16.27734375 30.28515625 C-11.76913718 31.11627813 -8.35347639 30.845642 -4.27734375 28.72265625 C-1.72756893 25.61511819 -1.50564595 23.24239443 -1.27734375 19.28515625 C-3.33954855 19.23080825 -5.40217191 19.19220664 -7.46484375 19.16015625 C-8.61339844 19.13695312 -9.76195312 19.11375 -10.9453125 19.08984375 C-14.23000397 19.28238135 -16.38626561 19.74465476 -19.27734375 21.28515625 Z " fill="#000000" transform="translate(1001.27734375,341.71484375)"/>
<path d="M0 0 C2.31 0 4.62 0 7 0 C7.33 0.99 7.66 1.98 8 3 C8.7425 2.505 9.485 2.01 10.25 1.5 C15.65040229 -1.18095981 22.544127 -1.07313951 28.2265625 0.69140625 C32.5873001 2.90888771 34.20327823 5.59676636 36 10 C36.34057617 13.25146484 36.34057617 13.25146484 36.29296875 16.7109375 C36.2784668 18.57685547 36.2784668 18.57685547 36.26367188 20.48046875 C36.23853516 21.76566406 36.21339844 23.05085938 36.1875 24.375 C36.16719727 26.33759766 36.16719727 26.33759766 36.14648438 28.33984375 C36.1112237 31.56031844 36.06193633 34.77994606 36 38 C33.69 38 31.38 38 29 38 C28.98541748 37.33468262 28.97083496 36.66936523 28.95581055 35.98388672 C28.88098635 32.94702886 28.78443984 29.91122909 28.6875 26.875 C28.66494141 25.82828125 28.64238281 24.7815625 28.61914062 23.703125 C28.42563568 18.14425567 28.23536509 13.74520213 25 9 C21.52468913 7.26234457 17.7911999 7.40414648 14 8 C10.71824682 10.52968474 9.30756223 12.07731331 8 16 C7.85222064 17.69867188 7.75252934 19.40177489 7.68359375 21.10546875 C7.64169922 22.08837891 7.59980469 23.07128906 7.55664062 24.08398438 C7.51732422 25.10814453 7.47800781 26.13230469 7.4375 27.1875 C7.37272461 28.74114258 7.37272461 28.74114258 7.30664062 30.32617188 C7.20055634 32.8839819 7.09849854 35.44188845 7 38 C4.69 38 2.38 38 0 38 C0 25.46 0 12.92 0 0 Z " fill="#000000" transform="translate(1770,340)"/>
<path d="M0 0 C2.31 0 4.62 0 7 0 C7.33 0.99 7.66 1.98 8 3 C8.7425 2.505 9.485 2.01 10.25 1.5 C15.65040229 -1.18095981 22.544127 -1.07313951 28.2265625 0.69140625 C32.5873001 2.90888771 34.20327823 5.59676636 36 10 C36.34057617 13.25146484 36.34057617 13.25146484 36.29296875 16.7109375 C36.2784668 18.57685547 36.2784668 18.57685547 36.26367188 20.48046875 C36.23853516 21.76566406 36.21339844 23.05085938 36.1875 24.375 C36.16719727 26.33759766 36.16719727 26.33759766 36.14648438 28.33984375 C36.1112237 31.56031844 36.06193633 34.77994606 36 38 C33.69 38 31.38 38 29 38 C28.98541748 37.33468262 28.97083496 36.66936523 28.95581055 35.98388672 C28.88098635 32.94702886 28.78443984 29.91122909 28.6875 26.875 C28.66494141 25.82828125 28.64238281 24.7815625 28.61914062 23.703125 C28.42563568 18.14425567 28.23536509 13.74520213 25 9 C21.52468913 7.26234457 17.7911999 7.40414648 14 8 C10.71824682 10.52968474 9.30756223 12.07731331 8 16 C7.85222064 17.69867188 7.75252934 19.40177489 7.68359375 21.10546875 C7.64169922 22.08837891 7.59980469 23.07128906 7.55664062 24.08398438 C7.51732422 25.10814453 7.47800781 26.13230469 7.4375 27.1875 C7.37272461 28.74114258 7.37272461 28.74114258 7.30664062 30.32617188 C7.20055634 32.8839819 7.09849854 35.44188845 7 38 C4.69 38 2.38 38 0 38 C0 25.46 0 12.92 0 0 Z " fill="#000000" transform="translate(1525,340)"/>
<path d="M0 0 C2.31 0 4.62 0 7 0 C7.33 0.99 7.66 1.98 8 3 C8.7425 2.505 9.485 2.01 10.25 1.5 C15.65040229 -1.18095981 22.544127 -1.07313951 28.2265625 0.69140625 C32.5873001 2.90888771 34.20327823 5.59676636 36 10 C36.34057617 13.25146484 36.34057617 13.25146484 36.29296875 16.7109375 C36.2784668 18.57685547 36.2784668 18.57685547 36.26367188 20.48046875 C36.23853516 21.76566406 36.21339844 23.05085938 36.1875 24.375 C36.16719727 26.33759766 36.16719727 26.33759766 36.14648438 28.33984375 C36.1112237 31.56031844 36.06193633 34.77994606 36 38 C33.69 38 31.38 38 29 38 C28.98541748 37.33468262 28.97083496 36.66936523 28.95581055 35.98388672 C28.88098635 32.94702886 28.78443984 29.91122909 28.6875 26.875 C28.66494141 25.82828125 28.64238281 24.7815625 28.61914062 23.703125 C28.42563568 18.14425567 28.23536509 13.74520213 25 9 C21.52468913 7.26234457 17.7911999 7.40414648 14 8 C10.71824682 10.52968474 9.30756223 12.07731331 8 16 C7.85222064 17.69867188 7.75252934 19.40177489 7.68359375 21.10546875 C7.64169922 22.08837891 7.59980469 23.07128906 7.55664062 24.08398438 C7.51732422 25.10814453 7.47800781 26.13230469 7.4375 27.1875 C7.37272461 28.74114258 7.37272461 28.74114258 7.30664062 30.32617188 C7.20055634 32.8839819 7.09849854 35.44188845 7 38 C4.69 38 2.38 38 0 38 C0 25.46 0 12.92 0 0 Z " fill="#000000" transform="translate(899,340)"/>
<path d="M0 0 C2.31 0 4.62 0 7 0 C7.33 0.99 7.66 1.98 8 3 C8.7425 2.505 9.485 2.01 10.25 1.5 C15.65040229 -1.18095981 22.544127 -1.07313951 28.2265625 0.69140625 C32.5873001 2.90888771 34.20327823 5.59676636 36 10 C36.34057617 13.25146484 36.34057617 13.25146484 36.29296875 16.7109375 C36.2784668 18.57685547 36.2784668 18.57685547 36.26367188 20.48046875 C36.23853516 21.76566406 36.21339844 23.05085938 36.1875 24.375 C36.16719727 26.33759766 36.16719727 26.33759766 36.14648438 28.33984375 C36.1112237 31.56031844 36.06193633 34.77994606 36 38 C33.69 38 31.38 38 29 38 C28.98541748 37.33468262 28.97083496 36.66936523 28.95581055 35.98388672 C28.88098635 32.94702886 28.78443984 29.91122909 28.6875 26.875 C28.66494141 25.82828125 28.64238281 24.7815625 28.61914062 23.703125 C28.42563568 18.14425567 28.23536509 13.74520213 25 9 C21.52468913 7.26234457 17.7911999 7.40414648 14 8 C10.71824682 10.52968474 9.30756223 12.07731331 8 16 C7.85222064 17.69867188 7.75252934 19.40177489 7.68359375 21.10546875 C7.64169922 22.08837891 7.59980469 23.07128906 7.55664062 24.08398438 C7.51732422 25.10814453 7.47800781 26.13230469 7.4375 27.1875 C7.37272461 28.74114258 7.37272461 28.74114258 7.30664062 30.32617188 C7.20055634 32.8839819 7.09849854 35.44188845 7 38 C4.69 38 2.38 38 0 38 C0 25.46 0 12.92 0 0 Z " fill="#000000" transform="translate(729,340)"/>
<path d="M0 0 C2.31 0 4.62 0 7 0 C7.33 0.99 7.66 1.98 8 3 C8.7425 2.505 9.485 2.01 10.25 1.5 C15.65040229 -1.18095981 22.544127 -1.07313951 28.2265625 0.69140625 C32.5873001 2.90888771 34.20327823 5.59676636 36 10 C36.34057617 13.25146484 36.34057617 13.25146484 36.29296875 16.7109375 C36.2784668 18.57685547 36.2784668 18.57685547 36.26367188 20.48046875 C36.23853516 21.76566406 36.21339844 23.05085938 36.1875 24.375 C36.16719727 26.33759766 36.16719727 26.33759766 36.14648438 28.33984375 C36.1112237 31.56031844 36.06193633 34.77994606 36 38 C33.69 38 31.38 38 29 38 C28.98541748 37.33468262 28.97083496 36.66936523 28.95581055 35.98388672 C28.88098635 32.94702886 28.78443984 29.91122909 28.6875 26.875 C28.66494141 25.82828125 28.64238281 24.7815625 28.61914062 23.703125 C28.42563568 18.14425567 28.23536509 13.74520213 25 9 C21.52468913 7.26234457 17.7911999 7.40414648 14 8 C10.71824682 10.52968474 9.30756223 12.07731331 8 16 C7.85222064 17.69867188 7.75252934 19.40177489 7.68359375 21.10546875 C7.64169922 22.08837891 7.59980469 23.07128906 7.55664062 24.08398438 C7.51732422 25.10814453 7.47800781 26.13230469 7.4375 27.1875 C7.37272461 28.74114258 7.37272461 28.74114258 7.30664062 30.32617188 C7.20055634 32.8839819 7.09849854 35.44188845 7 38 C4.69 38 2.38 38 0 38 C0 25.46 0 12.92 0 0 Z " fill="#000000" transform="translate(546,340)"/>
<path d="M0 0 C10.56 0 21.12 0 32 0 C32 5.6238577 32 5.6238577 29.4375 8.63671875 C28.8911792 9.29220703 28.3448584 9.94769531 27.78198242 10.62304688 C27.19392822 11.30431641 26.60587402 11.98558594 26 12.6875 C24.80830717 14.10783252 23.61690077 15.52840541 22.42578125 16.94921875 C21.84135254 17.63806152 21.25692383 18.3269043 20.65478516 19.03662109 C18.44927522 21.65342707 16.31552772 24.31983536 14.1875 27 C12.6096875 28.98 12.6096875 28.98 11 31 C17.93 31.33 24.86 31.66 32 32 C32 33.98 32 35.96 32 38 C21.44 38 10.88 38 0 38 C0 31.60438911 0.91505291 30.17184042 4.9375 25.875 C5.94561366 24.7460773 6.95076452 23.61450273 7.953125 22.48046875 C8.71592773 21.62267822 8.71592773 21.62267822 9.49414062 20.74755859 C13.26109637 16.37598447 16.58524213 11.64630989 20 7 C13.4 6.67 6.8 6.34 0 6 C0 4.02 0 2.04 0 0 Z " fill="#000000" transform="translate(1590,340)"/>
<path d="M0 0 C4.99414066 2.94572725 4.99414066 2.94572725 6.0390625 6.19140625 C6.18794922 7.09632813 6.18794922 7.09632813 6.33984375 8.01953125 C4.35984375 9.00953125 2.37984375 9.99953125 0.33984375 11.01953125 C-0.36140625 10.38015625 -1.06265625 9.74078125 -1.78515625 9.08203125 C-5.02442347 6.75820912 -6.69151333 6.09890411 -10.66015625 6.01953125 C-14.20087588 7.159763 -16.80607126 8.22238526 -19.53515625 10.76953125 C-21.12097845 13.94117564 -21.53790626 16.47428154 -21.66015625 20.01953125 C-20.14860751 24.15640148 -18.56979181 26.89715766 -14.66015625 29.01953125 C-9.43465214 30.64524364 -6.44845233 29.45885189 -1.66015625 27.01953125 C-0.67015625 26.35953125 0.31984375 25.69953125 1.33984375 25.01953125 C2.98984375 26.00953125 4.63984375 26.99953125 6.33984375 28.01953125 C5.75084301 30.67003459 4.99040778 32.47361559 2.8828125 34.2421875 C-3.21659999 37.82478978 -9.77300193 38.01692189 -16.66015625 37.01953125 C-21.87874752 35.00794157 -25.58648514 31.69151134 -28.66015625 27.01953125 C-30.61962571 21.14112286 -30.45346002 14.44351499 -28.53515625 8.58203125 C-21.7024181 -0.75604422 -11.10283472 -4.09223424 0 0 Z " fill="#000000" transform="translate(1264.66015625,340.98046875)"/>
<path d="M0 0 C2.64 0 5.28 0 8 0 C11.96 8.91 15.92 17.82 20 27 C21.87115326 24.19327011 23.20748472 21.52076033 24.6015625 18.45703125 C25.09140625 17.38388672 25.58125 16.31074219 26.0859375 15.20507812 C26.59382813 14.08552734 27.10171875 12.96597656 27.625 11.8125 C28.3984375 10.11577148 28.3984375 10.11577148 29.1875 8.38476562 C30.46065765 5.59089189 31.73139173 2.79594168 33 0 C35.64 0 38.28 0 41 0 C35.8113379 12.72974014 30.44178595 25.37653736 25 38 C22.03 38 19.06 38 16 38 C14.26723134 34.25165446 12.53947563 30.50101766 10.8125 26.75 C10.32974609 25.70585937 9.84699219 24.66171875 9.34960938 23.5859375 C0 3.25524329 0 3.25524329 0 0 Z " fill="#000000" transform="translate(1172,340)"/>
<path d="M0 0 C2.64 0 5.28 0 8 0 C11.96 8.91 15.92 17.82 20 27 C21.87115326 24.19327011 23.20748472 21.52076033 24.6015625 18.45703125 C25.09140625 17.38388672 25.58125 16.31074219 26.0859375 15.20507812 C26.59382812 14.08552734 27.10171875 12.96597656 27.625 11.8125 C28.3984375 10.11577148 28.3984375 10.11577148 29.1875 8.38476562 C30.46065765 5.59089189 31.73139173 2.79594168 33 0 C35.64 0 38.28 0 41 0 C35.8113379 12.72974014 30.44178595 25.37653736 25 38 C22.03 38 19.06 38 16 38 C14.26723134 34.25165446 12.53947563 30.50101766 10.8125 26.75 C10.32974609 25.70585937 9.84699219 24.66171875 9.34960938 23.5859375 C0 3.25524329 0 3.25524329 0 0 Z " fill="#000000" transform="translate(588,340)"/>
<path d="M0 0 C2.31 0 4.62 0 7 0 C7 2.97 7 5.94 7 9 C10.63 9 14.26 9 18 9 C18 10.98 18 12.96 18 15 C14.37 15 10.74 15 7 15 C7.14062311 18.43778631 7.28726929 21.87513171 7.4375 25.3125 C7.47681641 26.28896484 7.51613281 27.26542969 7.55664062 28.27148438 C7.61948242 29.67817383 7.61948242 29.67817383 7.68359375 31.11328125 C7.72025146 31.97735596 7.75690918 32.84143066 7.79467773 33.73168945 C7.92747354 36.1647826 7.92747354 36.1647826 9 39 C12.66305234 39.74926071 15.42355152 40.2380014 19 39 C19.66 40.98 20.32 42.96 21 45 C16.3413446 48.10577027 11.45635205 47.61853384 6 47 C2.92634214 45.19196596 1.56980268 44.13960536 0 41 C-0.08510205 39.0406396 -0.10717656 37.07837206 -0.09765625 35.1171875 C-0.09443359 33.95058594 -0.09121094 32.78398437 -0.08789062 31.58203125 C-0.07951172 30.35871094 -0.07113281 29.13539063 -0.0625 27.875 C-0.05798828 26.64394531 -0.05347656 25.41289062 -0.04882812 24.14453125 C-0.0370133 21.09630608 -0.02054028 18.04817686 0 15 C-2.31 15 -4.62 15 -7 15 C-7 13.02 -7 11.04 -7 9 C-4.69 9 -2.38 9 0 9 C0 6.03 0 3.06 0 0 Z " fill="#000000" transform="translate(1676,331)"/>
<path d="M0 0 C2.31 0 4.62 0 7 0 C7 2.97 7 5.94 7 9 C10.63 9 14.26 9 18 9 C18 10.98 18 12.96 18 15 C14.37 15 10.74 15 7 15 C7.14062311 18.43778631 7.28726929 21.87513171 7.4375 25.3125 C7.47681641 26.28896484 7.51613281 27.26542969 7.55664062 28.27148438 C7.61948242 29.67817383 7.61948242 29.67817383 7.68359375 31.11328125 C7.72025146 31.97735596 7.75690918 32.84143066 7.79467773 33.73168945 C7.92747354 36.1647826 7.92747354 36.1647826 9 39 C12.66305234 39.74926071 15.42355152 40.2380014 19 39 C19.66 40.98 20.32 42.96 21 45 C16.3413446 48.10577027 11.45635205 47.61853384 6 47 C2.92634214 45.19196596 1.56980268 44.13960536 0 41 C-0.08510205 39.0406396 -0.10717656 37.07837206 -0.09765625 35.1171875 C-0.09443359 33.95058594 -0.09121094 32.78398437 -0.08789062 31.58203125 C-0.07951172 30.35871094 -0.07113281 29.13539063 -0.0625 27.875 C-0.05798828 26.64394531 -0.05347656 25.41289062 -0.04882812 24.14453125 C-0.0370133 21.09630608 -0.02054028 18.04817686 0 15 C-2.31 15 -4.62 15 -7 15 C-7 13.02 -7 11.04 -7 9 C-4.69 9 -2.38 9 0 9 C0 6.03 0 3.06 0 0 Z " fill="#000000" transform="translate(949,331)"/>
<path d="M0 0 C2.31 0 4.62 0 7 0 C7.33 1.32 7.66 2.64 8 4 C8.433125 3.525625 8.86625 3.05125 9.3125 2.5625 C12.77068343 -0.63952169 16.53857929 -0.08417775 21 0 C21 2.31 21 4.62 21 7 C19.14375 7.37125 19.14375 7.37125 17.25 7.75 C13.47719939 8.69820829 11.36579703 9.78251605 9 13 C8.04907417 15.99700326 7.81726918 18.85255058 7.68359375 21.984375 C7.64169922 22.91894531 7.59980469 23.85351562 7.55664062 24.81640625 C7.49766602 26.26853516 7.49766602 26.26853516 7.4375 27.75 C7.39431641 28.73355469 7.35113281 29.71710938 7.30664062 30.73046875 C7.20077948 33.15351275 7.09869829 35.5766554 7 38 C4.69 38 2.38 38 0 38 C0 25.46 0 12.92 0 0 Z " fill="#000000" transform="translate(1404,340)"/>
<path d="M0 0 C2.31 0 4.62 0 7 0 C7.33 1.32 7.66 2.64 8 4 C8.433125 3.525625 8.86625 3.05125 9.3125 2.5625 C12.77068343 -0.63952169 16.53857929 -0.08417775 21 0 C21 2.31 21 4.62 21 7 C19.14375 7.37125 19.14375 7.37125 17.25 7.75 C13.47719939 8.69820829 11.36579703 9.78251605 9 13 C8.04907417 15.99700326 7.81726918 18.85255058 7.68359375 21.984375 C7.64169922 22.91894531 7.59980469 23.85351562 7.55664062 24.81640625 C7.49766602 26.26853516 7.49766602 26.26853516 7.4375 27.75 C7.39431641 28.73355469 7.35113281 29.71710938 7.30664062 30.73046875 C7.20077948 33.15351275 7.09869829 35.5766554 7 38 C4.69 38 2.38 38 0 38 C0 25.46 0 12.92 0 0 Z " fill="#000000" transform="translate(1148,340)"/>
<path d="M0 0 C2.31 0 4.62 0 7 0 C7.33 1.32 7.66 2.64 8 4 C8.433125 3.525625 8.86625 3.05125 9.3125 2.5625 C12.77068343 -0.63952169 16.53857929 -0.08417775 21 0 C21 2.31 21 4.62 21 7 C19.14375 7.37125 19.14375 7.37125 17.25 7.75 C13.47719939 8.69820829 11.36579703 9.78251605 9 13 C8.04907417 15.99700326 7.81726918 18.85255058 7.68359375 21.984375 C7.64169922 22.91894531 7.59980469 23.85351562 7.55664062 24.81640625 C7.49766602 26.26853516 7.49766602 26.26853516 7.4375 27.75 C7.39431641 28.73355469 7.35113281 29.71710938 7.30664062 30.73046875 C7.20077948 33.15351275 7.09869829 35.5766554 7 38 C4.69 38 2.38 38 0 38 C0 25.46 0 12.92 0 0 Z " fill="#000000" transform="translate(655,340)"/>
<path d="M0 0 C2.31 0 4.62 0 7 0 C7 17.49 7 34.98 7 53 C4.69 53 2.38 53 0 53 C0 35.51 0 18.02 0 0 Z " fill="#000000" transform="translate(1020,325)"/>
<path d="M0 0 C2.31 0 4.62 0 7 0 C7 12.54 7 25.08 7 38 C4.69 38 2.38 38 0 38 C0 25.46 0 12.92 0 0 Z " fill="#000000" transform="translate(1704,340)"/>
<path d="M0 0 C2.31 0 4.62 0 7 0 C7 12.54 7 25.08 7 38 C4.69 38 2.38 38 0 38 C0 25.46 0 12.92 0 0 Z " fill="#000000" transform="translate(1574,340)"/>
<path d="M0 0 C2.31 0 4.62 0 7 0 C7 12.54 7 25.08 7 38 C4.69 38 2.38 38 0 38 C0 25.46 0 12.92 0 0 Z " fill="#000000" transform="translate(1219,340)"/>
<path d="M0 0 C2.31 0 4.62 0 7 0 C7 12.54 7 25.08 7 38 C4.69 38 2.38 38 0 38 C0 25.46 0 12.92 0 0 Z " fill="#000000" transform="translate(635,340)"/>
<path d="M0 0 C3.5 0.125 3.5 0.125 4.5 1.125 C4.6875 4.0625 4.6875 4.0625 4.5 7.125 C2.5 9.125 2.5 9.125 -0.5 9.4375 C-1.49 9.334375 -2.48 9.23125 -3.5 9.125 C-5.5 6.125 -5.5 6.125 -5.1875 3.5 C-4.11658202 -0.19953484 -4.0962579 0.14629493 0 0 Z " fill="#000000" transform="translate(1707.5,323.875)"/>
<path d="M0 0 C3.5 0.125 3.5 0.125 4.5 1.125 C4.6875 4.0625 4.6875 4.0625 4.5 7.125 C2.5 9.125 2.5 9.125 -0.5 9.4375 C-1.49 9.334375 -2.48 9.23125 -3.5 9.125 C-5.5 6.125 -5.5 6.125 -5.1875 3.5 C-4.11658202 -0.19953484 -4.0962579 0.14629493 0 0 Z " fill="#000000" transform="translate(1577.5,323.875)"/>
<path d="M0 0 C3.5 0.125 3.5 0.125 4.5 1.125 C4.6875 4.0625 4.6875 4.0625 4.5 7.125 C2.5 9.125 2.5 9.125 -0.5 9.4375 C-1.49 9.334375 -2.48 9.23125 -3.5 9.125 C-5.5 6.125 -5.5 6.125 -5.1875 3.5 C-4.11658202 -0.19953484 -4.0962579 0.14629493 0 0 Z " fill="#000000" transform="translate(1222.5,323.875)"/>
<path d="M0 0 C3.5 0.125 3.5 0.125 4.5 1.125 C4.6875 4.0625 4.6875 4.0625 4.5 7.125 C2.5 9.125 2.5 9.125 -0.5 9.4375 C-1.49 9.334375 -2.48 9.23125 -3.5 9.125 C-5.5 6.125 -5.5 6.125 -5.1875 3.5 C-4.11658202 -0.19953484 -4.0962579 0.14629493 0 0 Z " fill="#000000" transform="translate(638.5,323.875)"/>
</svg>
