<?xml version="1.0" encoding="UTF-8"?>
<svg version="1.1" xmlns="http://www.w3.org/2000/svg" width="1212" height="1205">
<path d="M0 0 C1.02174316 0.00676758 2.04348633 0.01353516 3.09619141 0.02050781 C48.05843162 0.59429512 92.75312316 6.71365979 136.4375 17.25 C137.57106934 17.52118652 138.70463867 17.79237305 139.87255859 18.07177734 C184.33277798 28.87362232 226.6132022 45.78850169 267.4375 66.25 C268.39301758 66.72646973 269.34853516 67.20293945 270.33300781 67.69384766 C291.57688636 78.34645294 311.89769279 90.73703737 331.4375 104.25 C332.52732178 105.00192627 332.52732178 105.00192627 333.63916016 105.76904297 C357.65097257 122.39017239 380.47694679 140.78761841 401.80810547 160.73388672 C403.4377108 162.25019614 405.07805497 163.7538853 406.72265625 165.25390625 C416.03907421 173.76002024 425.29041677 182.38127254 433.47265625 192.00390625 C435.62737305 194.4670517 437.85545868 196.8494343 440.09594727 199.234375 C446.16542259 205.69835327 451.89645106 212.32368883 457.4375 219.25 C458.43044221 220.45335139 459.42536509 221.65507015 460.421875 222.85546875 C467.93000594 231.92992954 474.96694277 241.26233267 481.76074219 250.88183594 C483.47782327 253.30695046 485.21077165 255.72016291 486.9453125 258.1328125 C494.5410267 268.76180215 501.49914375 279.63558866 508.07324219 290.92285156 C509.33387162 293.0732309 510.61754513 295.20706223 511.9140625 297.3359375 C519.75607489 310.28170933 526.62473047 323.74120604 533.4375 337.25 C533.93427246 338.23274902 534.43104492 339.21549805 534.94287109 340.22802734 C568.86484221 407.82573336 588.90400005 484.78159462 593.4375 560.25 C593.49945053 561.26713074 593.49945053 561.26713074 593.56265259 562.30480957 C594.35042217 575.53990498 594.64038409 588.74275967 594.625 602 C594.62439575 602.97522614 594.6237915 603.95045227 594.62316895 604.95523071 C594.5429726 653.04321171 588.71556248 700.49039263 577.4375 747.25 C577.16631348 748.38356934 576.89512695 749.51713867 576.61572266 750.68505859 C557.55985889 829.11868596 520.88177268 904.54599206 471.4375 968.25 C470.97682129 968.848125 470.51614258 969.44625 470.04150391 970.0625 C461.29197932 981.41455707 452.13267548 992.37677421 442.48828125 1002.98046875 C440.58521912 1005.08652418 438.72596179 1007.22320469 436.875 1009.375 C433.94238111 1012.74785036 430.83970954 1015.89614251 427.625 1019 C425.72605898 1020.95319648 423.96271773 1022.95220546 422.19140625 1025.01953125 C418.49538373 1029.27207112 414.50801516 1033.1142939 410.375 1036.9375 C409.63620605 1037.62593994 408.89741211 1038.31437988 408.13623047 1039.02368164 C406.62824834 1040.4281621 405.1188208 1041.83109233 403.60791016 1043.23242188 C401.59909399 1045.09978485 399.60029367 1046.9770894 397.60546875 1048.859375 C390.76988579 1055.29357535 383.77222696 1061.38416399 376.4375 1067.25 C375.24591891 1068.23128222 374.05591404 1069.21448045 372.8671875 1070.19921875 C305.36976579 1125.96687953 225.0465651 1165.39014481 -10.5625 1205.25 C-16.67567287 1204.37804183 -21.28689903 1203.24357855 -25.35546875 1198.390625 C-26.51723213 1196.78183636 -27.64745637 1195.14993715 -28.75 1193.5 C-29.68356323 1192.17947632 -29.68356323 1192.17947632 -30.63598633 1190.83227539 C-31.9579203 1188.95413675 -33.26649068 1187.06653094 -34.5625 1185.17041016 C-36.56230642 1182.25028267 -38.60277156 1179.36304887 -40.65625 1176.48046875 C-77.87164593 1124.0049438 -105.90526291 1067.45061735 -125.5625 1006.25 C-126.22894531 1006.93964844 -126.89539063 1007.62929688 -127.58203125 1008.33984375 C-133.0453769 1013.910164 -138.58643932 1019.08147502 -144.69921875 1023.94921875 C-147.2261964 1025.97976423 -149.6933235 1028.0650339 -152.1472168 1030.18286133 C-159.99517712 1036.93820387 -168.18613455 1043.16674149 -176.5625 1049.25 C-177.30322754 1049.78995605 -178.04395508 1050.32991211 -178.80712891 1050.88623047 C-218.56376727 1079.71673786 -262.43710024 1102.15889159 -307.5625 1121.25 C-308.89148315 1121.84047119 -308.89148315 1121.84047119 -310.24731445 1122.44287109 C-313.59826673 1123.61109299 -316.15136604 1123.02233222 -319.5625 1122.25 C-324.39669138 1117.41580862 -323.79622053 1105.82538121 -324.5625 1099.25 C-324.70365234 1098.1038623 -324.84480469 1096.95772461 -324.99023438 1095.77685547 C-327.61631435 1073.53538404 -327.88482827 1051.25571172 -327.93130875 1028.88811493 C-327.93737754 1026.60850106 -327.94861187 1024.32896464 -327.96102905 1022.04937744 C-328.0387489 1005.65792706 -327.64947899 989.40251965 -326.18359375 973.0703125 C-326.09182169 972.04480254 -326.09182169 972.04480254 -325.99819565 970.99857521 C-323.74533838 946.40438194 -319.30450811 922.2528428 -313.5625 898.25 C-314.29960205 898.41081055 -315.0367041 898.57162109 -315.79614258 898.73730469 C-355.48068042 907.33199412 -394.94315554 911.85673558 -435.5343132 911.63631821 C-437.85630524 911.62478237 -440.17825958 911.61873701 -442.50027466 911.61392212 C-464.06446832 911.56114907 -485.51451462 911.16660565 -506.95605469 908.66894531 C-510.61583722 908.24380404 -514.27822083 907.8794563 -517.9453125 907.5234375 C-520.17223119 907.28982921 -522.39882383 907.05308124 -524.625 906.8125 C-525.59687256 906.71477295 -526.56874512 906.6170459 -527.57006836 906.51635742 C-531.38043528 906.04957432 -533.94487339 905.65592151 -537.18359375 903.52734375 C-538.98999401 900.54396882 -538.79099148 898.70789085 -538.5625 895.25 C-537.74316406 892.6706543 -537.74316406 892.6706543 -536.578125 890.07421875 C-536.14387207 889.09453125 -535.70961914 888.11484375 -535.26220703 887.10546875 C-534.78380371 886.06003906 -534.30540039 885.01460937 -533.8125 883.9375 C-533.31733887 882.83664062 -532.82217773 881.73578125 -532.31201172 880.6015625 C-526.93350777 868.71917488 -521.35207808 856.93735543 -515.5625 845.25 C-515.06024902 844.23470215 -514.55799805 843.2194043 -514.04052734 842.17333984 C-492.84076673 799.63162922 -466.07295615 758.55300121 -433.75390625 723.625 C-431.08877996 720.73659218 -428.50819007 717.78095414 -425.9375 714.80859375 C-424.8559584 713.58264177 -423.718504 712.406004 -422.5625 711.25 C-423.61711426 710.89397705 -424.67172852 710.5379541 -425.75830078 710.17114258 C-468.76142875 695.60451698 -509.75371766 677.97409663 -548.5625 654.25 C-549.57812012 653.63237793 -550.59374023 653.01475586 -551.64013672 652.37841797 C-563.87942504 644.91292833 -575.87221438 637.20387347 -587.46777344 628.77099609 C-589.73449117 627.12511597 -592.01101089 625.49343389 -594.2890625 623.86328125 C-598.08970178 621.1408101 -601.87291293 618.39552739 -605.64794922 615.63769531 C-607.30592377 614.43597033 -608.98153241 613.25864571 -610.66015625 612.0859375 C-616.23155874 608.07735314 -616.23155874 608.07735314 -617.8125 604.125 C-617.45225924 599.9822312 -616.01699029 597.51919164 -612.85693359 594.76171875 C-610.64651077 593.06066113 -608.39809402 591.42888192 -606.125 589.8125 C-605.28171143 589.20341797 -604.43842285 588.59433594 -603.56958008 587.96679688 C-600.90789082 586.05071538 -598.23595887 584.1496144 -595.5625 582.25 C-594.73911133 581.65944824 -593.91572266 581.06889648 -593.06738281 580.46044922 C-540.57849013 542.82551313 -482.87692125 511.91327747 -420.5625 494.25 C-424.24055026 489.90749173 -427.99341269 485.6633618 -431.875 481.5 C-437.00819825 475.93375595 -441.86411289 470.18920745 -446.5625 464.25 C-447.33400391 463.27933594 -447.33400391 463.27933594 -448.12109375 462.2890625 C-482.65149758 418.74725998 -510.55864818 370.07546626 -532.375 319 C-532.80200195 318.01821777 -533.22900391 317.03643555 -533.66894531 316.02490234 C-535.81448769 310.87722195 -537.27936957 306.84013446 -536.5625 301.25 C-534.5625 298.25 -534.5625 298.25 -532.52644348 297.55592346 C-531.71052231 297.41444382 -530.89460114 297.27296417 -530.05395508 297.12719727 C-529.15472321 296.97123077 -528.25549133 296.81526428 -527.32901001 296.65457153 C-523.1274206 296.04013549 -518.92879116 295.58544143 -514.69921875 295.21484375 C-513.78654739 295.13126114 -512.87387604 295.04767853 -511.93354797 294.96156311 C-510.0102164 294.78676879 -508.08664092 294.61463943 -506.1628418 294.44506836 C-503.29468888 294.19145162 -500.42763458 293.92746618 -497.56054688 293.66210938 C-478.49015621 291.92822296 -459.46103227 291.03683714 -440.3125 291.0625 C-439.03389603 291.06340637 -439.03389603 291.06340637 -437.72946167 291.06433105 C-402.74909778 291.13069901 -368.22023175 294.1818622 -333.875 300.875 C-333.09506683 301.02697845 -332.31513367 301.17895691 -331.51156616 301.33554077 C-317.85615907 304.0210335 -317.85615907 304.0210335 -311.5625 306.25 C-311.86542969 305.08210938 -312.16835938 303.91421875 -312.48046875 302.7109375 C-318.73049049 277.95007377 -322.41761726 252.68244618 -324.5625 227.25 C-324.65821289 226.14889893 -324.75392578 225.04779785 -324.85253906 223.91333008 C-325.90542325 209.86260947 -325.80556204 195.76991 -325.8125 181.6875 C-325.81360464 180.66082403 -325.81360464 180.66082403 -325.8147316 179.61340714 C-325.83447684 157.05185456 -325.16680879 134.68401827 -322.77142334 112.23571777 C-322.56286838 110.25350124 -322.36857808 108.26980112 -322.17431641 106.28613281 C-321.8235847 102.70912791 -321.45090797 99.1355918 -321.0625 95.5625 C-320.95639404 94.55147217 -320.85028809 93.54044434 -320.7409668 92.4987793 C-320.63051025 91.58781494 -320.52005371 90.67685059 -320.40625 89.73828125 C-320.26993164 88.57099487 -320.26993164 88.57099487 -320.13085938 87.38012695 C-319.42802329 84.74600116 -318.43015315 83.22822702 -316.5625 81.25 C-308.81889169 79.91148766 -302.37343714 83.43756576 -295.4375 86.5625 C-294.80044128 86.84433136 -294.16338257 87.12616272 -293.50701904 87.41653442 C-267.08868757 99.10420432 -241.17989519 112.12163214 -216.5625 127.25 C-215.56089844 127.8579541 -214.55929687 128.4659082 -213.52734375 129.09228516 C-200.84780621 136.7948265 -188.52083899 144.81348598 -176.63867188 153.70019531 C-174.56521625 155.2479724 -172.47947373 156.7777685 -170.390625 158.3046875 C-161.42248406 164.89652683 -152.91769208 171.90125434 -144.5625 179.25 C-143.80453125 179.90742188 -143.0465625 180.56484375 -142.265625 181.2421875 C-137.70184925 185.20354485 -133.22658067 189.25968466 -128.76171875 193.33203125 C-126.51427481 195.37519492 -126.51427481 195.37519492 -123.5625 197.25 C-123.46308105 196.66516846 -123.36366211 196.08033691 -123.26123047 195.4777832 C-121.99303677 188.56239757 -120.01328525 182.06514436 -117.6875 175.4375 C-117.29457764 174.31512939 -116.90165527 173.19275879 -116.49682617 172.03637695 C-105.49009556 141.10863827 -91.75590694 111.29102203 -75.15380859 82.97216797 C-73.57036886 80.26346085 -72.01195397 77.5415639 -70.45703125 74.81640625 C-62.20444734 60.46772486 -53.03200857 46.81942858 -43.5625 33.25 C-43.06089355 32.528125 -42.55928711 31.80625 -42.04248047 31.0625 C-39.68672104 27.6800488 -37.28840936 24.33536377 -34.84179688 21.01757812 C-33.33479908 18.93539033 -31.88181668 16.81855071 -30.421875 14.703125 C-29.30337027 13.13449822 -28.18359136 11.56677917 -27.0625 10 C-26.56459961 9.25943359 -26.06669922 8.51886719 -25.55371094 7.75585938 C-22.71776701 3.87394511 -20.58118442 1.84310682 -15.81640625 0.78125 C-10.55384934 0.09324387 -5.30203183 -0.05304776 0 0 Z " fill="#010201" transform="translate(617.5625,-0.25)"/>
<path d="M0 0 C8.4738751 6.34701081 15.83551531 13.76614006 23.25927734 21.28613281 C34.39415307 32.50991512 47.67610387 44.20163289 64.25 44.375 C74.4825464 44.21464668 82.54548586 41.06610258 90 34 C92.17645478 31.48629277 94.23107751 28.92001733 96.23828125 26.26953125 C99.18797103 22.4695983 99.18797103 22.4695983 101 21 C113.59069623 20.55033228 124.19653834 32.08042003 133 40 C134.15989346 41.15268916 135.30853427 42.31700316 136.4375 43.5 C143.93786867 51.16581798 152.55017302 57.62627968 162.0625 62.5625 C162.6618335 62.88468506 163.26116699 63.20687012 163.87866211 63.53881836 C174.25205016 68.61632606 186.3383336 68.25960796 197.625 68.4375 C222.74612456 69.0852299 246.7917294 72.28122373 266 90 C281.47270342 106.79186819 286.29458075 124.02018255 286.390625 146.31445312 C286.46656552 154.99655221 286.46656552 154.99655221 291 162 C302.3050931 169.53672873 319.39875928 168.33332793 332.5 168.5625 C334.76950214 168.60677707 337.03888259 168.65358047 339.30822754 168.70530701 C341.34534361 168.75113032 343.38263351 168.7890288 345.41992188 168.82641602 C348.69579529 168.9852503 351.78245381 169.3835107 355 170 C354.42601802 179.99701503 353.35101326 189.84872725 351.875 199.75 C351.76707123 200.47721252 351.65914246 201.20442505 351.54794312 201.95367432 C340.96233232 272.61546785 317.65044489 341.98163872 282 404 C281.40493652 405.04188477 280.80987305 406.08376953 280.19677734 407.15722656 C264.31833303 434.84167499 246.52975156 461.52668034 226 486 C224.49894691 487.85331423 222.998966 489.70749732 221.5 491.5625 C217.90051473 495.96465795 214.17242222 500.22135424 210.3359375 504.41796875 C208.43486189 506.5193249 206.56859925 508.64184638 204.7109375 510.78125 C200.98465862 515.04876216 197.13894883 519.19328447 193.25 523.3125 C192.20392578 524.42117432 192.20392578 524.42117432 191.13671875 525.55224609 C183.78516502 533.31842474 176.42765569 541.05552302 168.28125 548 C165.80732751 550.16891835 163.41116879 552.40827129 161.01342773 554.66064453 C154.54997401 560.72915263 147.92550324 566.45959741 141 572 C139.79664861 572.99294221 138.59492985 573.98786509 137.39453125 574.984375 C99.33667469 606.48168637 56.38770447 631.5804863 12 653 C11.12714355 653.42216797 10.25428711 653.84433594 9.35498047 654.27929688 C8.55850098 654.65119141 7.76202148 655.02308594 6.94140625 655.40625 C6.25377197 655.72916016 5.5661377 656.05207031 4.85766602 656.38476562 C3 657 3 657 -0.25 656.5 C-8.11458809 652.21022468 -11.31287248 646.58154883 -13.875 638.10522461 C-15.85530017 629.97838729 -16.47314679 622.34981032 -16.375 614 C-16.36484863 612.73325439 -16.35469727 611.46650879 -16.34423828 610.16137695 C-15.92522659 584.47985799 -10.04764143 559.59073666 0 536 C10.18705565 511.96095472 18.63896973 488.60498657 24 463 C24.32079519 461.54799581 24.64230078 460.0961482 24.96484375 458.64453125 C31.97470783 424.9902087 32.05008282 385.67349256 13.8125 355.4375 C4.37629953 341.32458614 -7.84436698 328.87011577 -21.09765625 318.3359375 C-24.40483968 315.67416672 -27.60663956 312.90701083 -30.8125 310.125 C-35.4462953 306.11876385 -40.15870716 302.25256158 -45 298.5 C-54.96539617 290.76699795 -64.44953045 282.48338141 -73.78125 274 C-75.78517483 272.19364522 -77.82204987 270.43755585 -79.875 268.6875 C-102.61334814 248.79718738 -124.1433641 221.90727414 -128 191 C-128.31793433 185.28292344 -128.3725403 179.57239175 -128.4140625 173.84765625 C-128.4328539 172.18166736 -128.4524326 170.51568719 -128.4727478 168.84971619 C-128.52382848 164.4728444 -128.56348765 160.09594014 -128.60089111 155.71893311 C-128.64042711 151.36266686 -128.69210357 147.00654589 -128.7421875 142.65039062 C-128.85273607 132.76708106 -128.93378803 122.88369802 -129 113 C-129.00523178 112.26024681 -129.01046356 111.52049362 -129.01585388 110.75832367 C-129.04859284 106.06675859 -129.07063569 101.37525523 -129.0859375 96.68359375 C-129.0964061 94.94928856 -129.0964061 94.94928856 -129.10708618 93.1799469 C-129.10832489 92.13370651 -129.1095636 91.08746613 -129.11083984 90.00952148 C-129.11368988 89.1071727 -129.11653992 88.20482391 -129.11947632 87.27513123 C-129 85 -129 85 -128 82 C-126.28515625 81.3671875 -126.28515625 81.3671875 -124.0625 80.875 C-117.64799591 78.86733049 -113.664874 74.64790568 -109 70 C-107.61074225 68.63665234 -106.2214137 67.27337683 -104.83203125 65.91015625 C-98.59453863 59.74968639 -92.4332068 53.59917053 -86.7043457 46.95825195 C-81.33856414 40.79309884 -75.63959983 34.91343498 -70 29 C-69.39671875 28.36658691 -68.7934375 27.73317383 -68.171875 27.08056641 C-51.10576074 9.27347318 -25.57180684 -16.68700388 0 0 Z " fill="#5B710F" transform="translate(846,490)"/>
<path d="M0 0 C5.05361572 1.58968106 8.71341553 4.6458147 12.8125 7.875 C14.33655381 9.06077777 15.86130978 10.24565354 17.38671875 11.4296875 C18.15677246 12.0287793 18.92682617 12.62787109 19.72021484 13.24511719 C22.49992863 15.38482405 25.32055249 17.46456101 28.14672852 19.54223633 C36.82134795 25.93445558 44.97039955 32.81961578 53 40 C53.95003906 40.84949219 54.90007812 41.69898438 55.87890625 42.57421875 C57.44250699 43.98026583 59.00315792 45.38961328 60.55859375 46.8046875 C61.93358961 48.04108378 63.31468446 49.27101404 64.71582031 50.47770691 C69.58882736 54.67931189 74.21221511 59.06544324 78.75390625 63.62109375 C79.45845444 64.32468521 80.16300262 65.02827667 80.88890076 65.75318909 C82.36653367 67.23014648 83.84292457 68.70834742 85.31811523 70.18774414 C87.55666481 72.43165085 89.80050473 74.67016704 92.04492188 76.90820312 C93.48990404 78.35384618 94.93457592 79.79979945 96.37890625 81.24609375 C97.03951553 81.9046788 97.70012482 82.56326385 98.38075256 83.24180603 C102.78461988 87.66755722 106.93477146 92.26266073 111 97 C111.97325348 98.11780159 112.94709294 99.23509366 113.921875 100.3515625 C120.32648039 107.74484323 126.52714535 115.2628593 132.48242188 123.02294922 C133.53508503 124.3943241 134.59132926 125.7629547 135.65039062 127.12939453 C170.42710524 172.0834698 198.33699159 222.09786502 219 275 C219.3913916 275.98468262 219.7827832 276.96936523 220.18603516 277.98388672 C244.59875099 339.48895223 258.24382951 407.54416256 258.1328125 473.734375 C258.13348906 475.18874121 258.13446199 476.64310731 258.13571167 478.09747314 C258.13717022 481.11593728 258.13509307 484.13437144 258.13037109 487.15283203 C258.12465425 490.99077596 258.12797695 494.82865022 258.13394356 498.66659164 C258.13758187 501.6591442 258.13639601 504.65168062 258.13381577 507.6442337 C258.13315658 509.05859638 258.1339389 510.4729606 258.13629532 511.88732147 C258.16315079 532.51054762 258.16315079 532.51054762 256 539 C251.39579355 538.88006464 246.79173178 538.755746 242.18774414 538.62768555 C240.62755394 538.58486812 239.06733265 538.54316653 237.50708008 538.50268555 C202.68763922 537.59610416 202.68763922 537.59610416 196.38745117 532.76293945 C194.52567575 530.39730856 194.60264457 528.86935019 194.55859375 525.87890625 C194.52161377 524.36103516 194.52161377 524.36103516 194.48388672 522.8125 C194.4685791 521.74 194.45327148 520.6675 194.4375 519.5625 C194.37054922 517.36573832 194.29899487 515.16911173 194.22265625 512.97265625 C194.18672363 511.9273877 194.15079102 510.88211914 194.11376953 509.80517578 C193.32400455 490.3322153 183.22170549 471.98922324 169.1171875 458.734375 C157.22847338 448.99528078 142.47981239 442.64528693 127.3125 440.375 C126.47944336 440.24802734 125.64638672 440.12105469 124.78808594 439.99023438 C116.79149909 438.89418264 108.81134785 438.68725257 100.75 438.5 C74.54195751 437.85033493 59.67838459 431.01211234 40.81274414 413.09570312 C24.57718993 397.5858538 24.57718993 397.5858538 3.875 390.375 C-4.33961568 391.69993801 -8.60731838 397.50940617 -13.35546875 403.88671875 C-17.47726061 409.18336815 -22.43409185 412.52578919 -29 414 C-40.63730755 415.43067349 -48.76378562 411.47087205 -57.82055664 404.4152832 C-63.83978493 399.516034 -69.2090554 393.95542701 -74.6328125 388.41796875 C-78.25369273 384.72252344 -81.96221105 381.23807152 -86 378 C-86.92167969 377.25105469 -87.84335937 376.50210937 -88.79296875 375.73046875 C-94.90453059 370.93571998 -100.58880272 367.36258281 -108 365 C-108.99 364.67 -109.98 364.34 -111 364 C-125.57724731 362.49795256 -139.02201228 369.67371285 -150.25390625 378.47265625 C-153.59923677 381.20872088 -156.80754383 384.08829884 -160 387 C-160.62084473 387.56058105 -161.24168945 388.12116211 -161.88134766 388.69873047 C-168.74860409 394.91621896 -175.41487644 401.19786769 -181.5078125 408.1875 C-185.53693706 412.73447443 -189.73790201 417.11922951 -193.91235352 421.5324707 C-197.60915783 425.44584235 -201.27361061 429.38307546 -204.8918457 433.36914062 C-210.24294697 439.25314992 -215.6824424 445.12969165 -222 450 C-222.66 450 -223.32 450 -224 450 C-224.34572937 432.88639635 -224.34572937 432.88639635 -223 425.4375 C-220.79695596 412.91660224 -220.8730164 400.61283533 -226.4375 389 C-228.54032702 386.30838142 -230.61896857 385.2202893 -233.99584961 384.68164062 C-243.12697339 384.57715863 -251.90453138 386.94316528 -260.74047852 389.00927734 C-274.23247855 392.13649168 -290.43995872 395.60711934 -303 388 C-315.63333088 379.65388381 -320.70799019 363.96778181 -323.75 349.8125 C-325.99344253 337.38519768 -326.30335448 324.58431562 -327 312 C-327.08886984 310.58119719 -327.17807532 309.16241537 -327.26757812 307.74365234 C-328.13404182 293.28989318 -328.22103709 278.83084193 -328.24023438 264.35595703 C-328.2446248 261.53876845 -328.25857487 258.72188513 -328.28125 255.90478516 C-328.72209945 199.970584 -328.72209945 199.970584 -317 186 C-312.24723346 181.21933072 -308.93827805 178.32647534 -302.0625 177.5625 C-293.07458143 177.72170629 -285.63130053 183.50198972 -278.5 188.4375 C-256.17987535 203.79341129 -230.00676071 216.45177668 -204 224 C-203.17886719 224.24363281 -202.35773438 224.48726562 -201.51171875 224.73828125 C-194.33021186 226.61338163 -186.49196976 227.22525255 -179.4375 224.75 C-176.12523186 222.3784462 -176.12523186 222.3784462 -174 219 C-172.56470718 207.10757376 -179.57766432 197.86826836 -186.50683594 188.87939453 C-192.66318825 181.13060446 -199.33979121 173.8140396 -206 166.5 C-207.33792358 165.00409283 -208.67180557 163.5045522 -210 162 C-210.55945313 161.37867188 -211.11890625 160.75734375 -211.6953125 160.1171875 C-214.18312952 157.08558534 -214.99055783 155.11519446 -215.3125 151.1875 C-211.83482738 134.6286735 -187.71671887 121.0353869 -174.55371094 112.39404297 C-158.07060088 101.80428073 -140.9982836 92.06864879 -123.85546875 82.59375 C-122.89705078 82.05951416 -121.93863281 81.52527832 -120.95117188 80.97485352 C-119.16799239 79.98292055 -117.37926385 79.00086755 -115.58398438 78.03100586 C-109.61402807 74.70156074 -105.57761577 71.62100383 -102.76953125 65.17578125 C-101.99134009 61.96426138 -101.46259128 58.80002536 -101.01318359 55.52929688 C-98.76464217 39.36137385 -91.05395198 30.04076315 -78.82421875 19.375 C-74.39382145 16.03559989 -70.5434696 15.28114291 -65 16 C-62.26391647 16.85634185 -59.75639766 18.0484694 -57.1875 19.3125 C-55.77300023 19.96048041 -54.35632169 20.60372589 -52.9375 21.2421875 C-51.91849609 21.70189941 -51.91849609 21.70189941 -50.87890625 22.17089844 C-43.39554585 25.47306735 -36.41085502 26.27008896 -28.3125 26.375 C-27.11790161 26.39614868 -27.11790161 26.39614868 -25.89916992 26.41772461 C-17.54677431 26.34912712 -10.95850726 23.95850726 -5 18 C-1.32993703 12.62597922 -0.86852792 6.31470888 0 0 Z " fill="#4D868D" transform="translate(945,113)"/>
<path d="M0 0 C2.69546663 2.69546663 2.7423858 5.44191019 3.3125 9.0625 C5.89975047 24.01485828 9.11274357 41.79459469 22.125 51.125 C36.23561307 60.15300738 57.93991181 60.32148136 73.94921875 57.17578125 C77.69061995 56.29641542 81.34358776 55.18422808 85 54 C88.97544505 52.78171845 92.57987782 51.7096815 96.75 51.6875 C97.48734375 51.67074219 98.2246875 51.65398437 98.984375 51.63671875 C101.62172382 52.11205487 102.43579616 52.83744107 104 55 C107.94092883 69.41220056 104.31352684 86.45039215 102.13623047 100.91699219 C100.09968073 114.64361448 99.74268796 128.0293783 99.94470215 141.89489746 C100.00998796 146.44053032 100.04084508 150.9862473 100.07128906 155.53222656 C100.12619804 163.42979567 100.20030459 171.32700135 100.28757095 179.2242775 C100.33778664 183.78132404 100.38432393 188.33833762 100.421875 192.89550781 C100.45899415 197.39418207 100.50533363 201.89267589 100.55806351 206.39119339 C100.57635375 208.07739781 100.59155116 209.7636392 100.60334396 211.44990158 C100.69724802 224.36410057 101.16577108 236.90771022 106.1875 249 C106.49647217 249.76344727 106.80544434 250.52689453 107.1237793 251.31347656 C114.36120125 268.81845145 124.70042295 283.01207212 137.68701172 296.6015625 C139.4416604 298.47040364 141.09659406 300.41652371 142.75 302.375 C145.53320657 305.58639219 148.53849413 308.34790446 151.77734375 311.09375 C154.34522269 313.29607851 156.82511409 315.58221754 159.3125 317.875 C164.71133955 322.79725234 170.31163683 327.41860523 176 332 C177.83460986 333.49843845 179.66794274 334.99844171 181.5 336.5 C184.22381689 338.7299804 186.94880801 340.95835987 189.6796875 343.1796875 C198.9546543 350.73408075 208.14330325 358.40368393 217.10546875 366.328125 C218.47428672 367.53607158 219.85321038 368.73259948 221.23828125 369.921875 C226.28113054 374.29516951 230.80674361 378.80577273 235 384 C235.73347656 384.9075 236.46695313 385.815 237.22265625 386.75 C253.04672659 407.03862441 257.45408079 429.76910893 257.4375 455 C257.4375705 455.77934906 257.43764099 456.55869812 257.43771362 457.36166382 C257.30362424 496.35000747 245.22074334 534.02644497 229.3125 569.3125 C215.07877748 600.96429761 204.14434349 646.35416178 216.25 680.25 C218.49887962 685.4417755 221.37830396 689.68795134 225 694 C225.99 695.485 225.99 695.485 227 697 C221.64407567 699.78529117 216.35594594 702.09647301 210.65234375 704.05859375 C209.87798477 704.32962418 209.10362579 704.6006546 208.30580139 704.87989807 C205.851413 705.73743911 203.39450018 706.58747538 200.9375 707.4375 C199.31819631 708.00278832 197.69905443 708.56854038 196.08007812 709.13476562 C191.39176586 710.77130774 186.69741659 712.38979629 182 714 C181.29722931 714.24154816 180.59445862 714.48309631 179.87039185 714.73196411 C172.33618626 717.31417399 164.81802172 719.73057683 157.0625 721.5625 C155.33847813 721.98020662 153.61452047 722.3981783 151.890625 722.81640625 C151.05853516 723.01637207 150.22644531 723.21633789 149.36914062 723.42236328 C147.25587164 723.93761415 145.15054976 724.47445487 143.046875 725.02734375 C130.80616828 728.2155613 118.42039209 730.62414424 106 733 C105.07896484 733.18062988 104.15792969 733.36125977 103.20898438 733.54736328 C90.37326177 736.04999959 77.49021382 737.74288558 64.5 739.1875 C63.36224625 739.3146489 63.36224625 739.3146489 62.20150757 739.44436646 C41.40560308 741.74637857 21.03147705 742 0 742 C0 497.14 0 252.28 0 0 Z " fill="#4D868D" transform="translate(610,454)"/>
<path d="M0 0 C11.55910612 0 22.9802676 0.07462166 34.5 0.75 C35.23890472 0.79256927 35.97780945 0.83513855 36.73910522 0.8789978 C53.58127589 1.87192523 70.29211696 3.67705554 87 6 C88.25022949 6.17370117 89.50045898 6.34740234 90.78857422 6.52636719 C145.38929931 14.37309113 198.90852069 31.05604989 249 54 C250.10698242 54.5053125 251.21396484 55.010625 252.35449219 55.53125 C267.69775849 62.58520302 282.42461252 70.48359612 297 79 C299.01559569 80.1667173 301.03122096 81.33338351 303.046875 82.5 C305.01111091 83.64464282 306.97467587 84.79043795 308.9375 85.9375 C309.83106201 86.45691162 310.72462402 86.97632324 311.64526367 87.51147461 C326.38614533 96.20754437 326.38614533 96.20754437 327.7019043 100.04956055 C328.70362667 106.60382758 328.63369188 113.25601971 325 119 C321.6752002 122.77360198 318.28147036 123.85776636 313.33984375 124.40625 C300.70575857 124.91885744 290.12897216 121.87971422 278.8125 116.3046875 C273.05792496 113.63520408 267.27813157 113.01343647 261 114 C256.94068813 115.85364241 253.52250851 118.27757345 250 121 C249.278125 121.54011719 248.55625 122.08023438 247.8125 122.63671875 C235.24267136 132.77605318 229.65509814 145.37377842 227.9296875 160.95507812 C227.01718787 167.19192703 225.5304476 170.54627259 220.47119141 174.39233398 C215.64242682 177.53375018 210.64438273 180.29231107 205.5625 183 C203.14469196 184.31219375 200.73214975 185.63390096 198.3203125 186.95703125 C197.70995651 187.29112503 197.09960052 187.62521881 196.4707489 187.96943665 C147.64177593 212.72144501 147.64177593 212.72144501 114 253 C112.93913059 258.1659728 113.57036625 261.90511496 116.375 266.375 C119.73381828 270.92718666 123.57227303 275.04194167 127.421875 279.1796875 C130.69108331 282.75600325 133.74145224 286.47912052 136.77734375 290.25390625 C138.26651609 292.09377999 139.78002983 293.91420022 141.31640625 295.71484375 C155.65115287 312.62062783 155.65115287 312.62062783 155 322 C147.90775284 326.00239681 139.97465769 324.16062564 132.44189453 322.11767578 C117.3208938 317.5995668 102.8010717 310.23442423 88.83544922 302.95458984 C86.99127492 301.99546221 85.138792 301.05396855 83.28515625 300.11328125 C75.57974647 296.15350066 68.31783768 291.71186901 61.08349609 286.94848633 C50.69965289 280.13041116 41.82408577 274.30962621 29 276 C18.82883895 279.5029829 12.99509309 284.63586283 8.3125 294.125 C3.13036585 306.27218905 1.8902935 319.14036999 1.79467773 332.21337891 C1.78477814 333.07315338 1.77487854 333.93292786 1.76467896 334.8187561 C1.73344215 337.62133157 1.70845847 340.4239239 1.68359375 343.2265625 C1.66299143 345.185256 1.64199417 347.14394538 1.62062073 349.10263062 C1.56573828 354.22842041 1.51618151 359.35424805 1.46777344 364.48010254 C1.41730955 369.72244589 1.36175411 374.96473509 1.30664062 380.20703125 C1.19947356 390.47130777 1.09793861 400.73563156 1 411 C0.67 411 0.34 411 0 411 C0 275.37 0 139.74 0 0 Z " fill="#5B7110" transform="translate(609,8)"/>
<path d="M0 0 C0.66 0.33 1.32 0.66 2 1 C1.50661133 1.60078369 1.01322266 2.20156738 0.50488281 2.82055664 C-4.38322304 8.84111633 -8.91389839 15.01027 -13.25 21.4375 C-13.89622314 22.39197021 -14.54244629 23.34644043 -15.20825195 24.32983398 C-35.63897498 54.65523439 -53.35885979 86.47934072 -68 120 C-68.3604541 120.82467773 -68.7209082 121.64935547 -69.09228516 122.49902344 C-82.79696389 154.28653749 -91.7625342 188.20803396 -96.62988281 222.42089844 C-96.9499908 224.65151902 -97.29132304 226.87663804 -97.6484375 229.1015625 C-100.11947934 244.96636738 -100.20702956 260.91975248 -100.1875 276.9375 C-100.18656342 277.93266632 -100.18562683 278.92783264 -100.18466187 279.95315552 C-100.12582978 308.83449343 -97.59936875 337.07162879 -90.56616211 365.16894531 C-90.0206927 367.8965276 -89.78429739 370.22976648 -90 373 C-91.46875 374.9921875 -91.46875 374.9921875 -93.5 376.875 C-94.23476563 377.56464844 -94.96953125 378.25429688 -95.7265625 378.96484375 C-98.43137773 381.3861646 -101.13612709 383.80315756 -103.890625 386.16796875 C-106.17629546 388.15311587 -108.39701378 390.2003983 -110.625 392.25 C-116.27733837 397.34835728 -122.23456862 402.00842754 -128.25927734 406.65332031 C-129.87420211 407.90267866 -131.47858693 409.16562873 -133.08203125 410.4296875 C-150.8364348 424.3323655 -169.66226878 436.42822756 -189 448 C-189.90766113 448.54350098 -190.81532227 449.08700195 -191.75048828 449.64697266 C-201.4523377 455.42746562 -211.26101654 460.85309068 -221.43261719 465.75976562 C-223.97215779 466.98655017 -226.50701409 468.22272486 -229.04124451 469.46043396 C-267.02134543 488 -267.02134543 488 -271 488 C-276.91613565 442.92648897 -279.19230965 396.24635969 -274 351 C-273.92694641 350.34004028 -273.85389282 349.68008057 -273.77862549 349.00012207 C-269.95951618 314.50423775 -263.24734316 280.86962877 -252 248 C-251.72978027 247.2044873 -251.45956055 246.40897461 -251.18115234 245.58935547 C-249.59969096 240.99900292 -247.85242407 236.48787509 -246 232 C-245.66983887 231.19062988 -245.33967773 230.38125977 -244.99951172 229.54736328 C-222.9234696 175.85552074 -188.50057554 125.73900399 -144 88 C-142.56527344 86.7315625 -142.56527344 86.7315625 -141.1015625 85.4375 C-113.74594995 61.35520861 -82.71039373 41.45691852 -50.59326172 24.38476562 C-48.18941202 23.10114338 -45.79837739 21.79677869 -43.41015625 20.484375 C-33.61811525 15.15200141 -23.58959536 10.41059829 -13.4375 5.8125 C-12.45739456 5.36464645 -12.45739456 5.36464645 -11.45748901 4.90774536 C-9.59933807 4.06121435 -7.7353271 3.22758209 -5.87109375 2.39453125 C-4.78755615 1.90831299 -3.70401855 1.42209473 -2.58764648 0.92114258 C-1.73372314 0.61716553 -0.8797998 0.31318848 0 0 Z " fill="#EF6D33" transform="translate(579,618)"/>
<path d="M0 0 C1.51489251 0.00222303 3.02978509 0.00439952 4.54467773 0.00653076 C25.96009579 0.04827256 47.19380088 0.26136964 68.4375 3.3125 C69.14108643 3.41195923 69.84467285 3.51141846 70.56958008 3.6138916 C144.98930601 14.18881159 215.43761959 40.0682485 273.59228516 88.77587891 C275.25990511 90.16460608 276.9440952 91.52870205 278.63671875 92.88671875 C287.17775512 99.84995141 294.94702724 107.60955334 302.75 115.375 C303.31007751 115.92981049 303.87015503 116.48462097 304.44720459 117.0562439 C311.59623798 124.15327527 318.16427767 131.42158784 324.4375 139.3125 C325.37219458 140.41440022 326.31356468 141.51072515 327.265625 142.59765625 C358.54275135 178.46545759 381.30345082 221.48882662 401.4375 264.3125 C401.94925781 265.37774902 402.46101563 266.44299805 402.98828125 267.54052734 C403.45621094 268.53133301 403.92414063 269.52213867 404.40625 270.54296875 C404.82326172 271.41719482 405.24027344 272.2914209 405.66992188 273.19213867 C405.92322266 273.89185791 406.17652344 274.59157715 406.4375 275.3125 C406.1075 275.9725 405.7775 276.6325 405.4375 277.3125 C404.7775 276.77625 404.1175 276.24 403.4375 275.6875 C375.33110869 253.43660688 343.67031853 234.90704789 311.45214844 219.29101562 C310.0598561 218.61477863 308.67002581 217.93345747 307.28222656 217.24804688 C295.16301232 211.26494328 282.82102863 206.12516429 270.17871094 201.3515625 C267.65703917 200.39571684 265.14425587 199.41982804 262.6328125 198.4375 C234.83987661 187.70173934 205.03055101 180.63700067 175.4375 177.3125 C174.58865234 177.20953613 173.73980469 177.10657227 172.86523438 177.00048828 C140.55355903 173.20440616 106.6166709 173.6792178 74.4375 178.3125 C73.53273926 178.4352832 72.62797852 178.55806641 71.69580078 178.68457031 C62.12013597 179.99107899 52.70473255 181.78075983 43.30786133 184.04272461 C39.60166026 184.92034 36.24028411 185.6942337 32.4375 185.3125 C30.59155273 183.97412109 30.59155273 183.97412109 28.87109375 182.0859375 C28.22696533 181.39113281 27.58283691 180.69632813 26.91918945 179.98046875 C26.24460693 179.22378906 25.57002441 178.46710938 24.875 177.6875 C24.16754639 176.91277344 23.46009277 176.13804687 22.73120117 175.33984375 C20.6165385 173.01182736 18.52398272 170.66577553 16.4375 168.3125 C15.87514648 167.68375977 15.31279297 167.05501953 14.73339844 166.40722656 C6.4478062 157.11132327 -1.11265787 147.28371951 -8.5625 137.3125 C-9.05137695 136.66104004 -9.54025391 136.00958008 -10.04394531 135.33837891 C-16.88140542 126.21011331 -23.3913802 116.90408128 -29.5625 107.3125 C-30.03880859 106.57386719 -30.51511719 105.83523438 -31.00585938 105.07421875 C-48.46636209 77.83312396 -63.68471199 49.06038447 -76.8125 19.5 C-77.29114502 18.42524414 -77.76979004 17.35048828 -78.26293945 16.24316406 C-78.69695068 15.24897461 -79.13096191 14.25478516 -79.578125 13.23046875 C-79.96258789 12.35156982 -80.34705078 11.4726709 -80.74316406 10.56713867 C-81.5625 8.3125 -81.5625 8.3125 -81.5625 5.3125 C-54.44232766 0.95234367 -27.41223955 -0.07123273 0 0 Z " fill="#518151" transform="translate(179.5625,304.6875)"/>
<path d="M0 0 C1.29424896 0.00049347 2.58849792 0.00098694 3.92196655 0.00149536 C27.93236101 0.02938329 51.90261811 0.80331715 75.6875 4.3125 C73.9570535 7.773393 69.70696292 8.48245962 66.25 9.875 C26.15262013 26.61464853 -11.8112708 48.94077961 -46.3125 75.3125 C-47.30842163 76.0703479 -47.30842163 76.0703479 -48.32446289 76.84350586 C-69.45030279 93.009657 -90.03117191 111.04684617 -107.3125 131.3125 C-108.16070312 132.2715625 -109.00890625 133.230625 -109.8828125 134.21875 C-137.73637008 165.86252192 -160.43337403 202.86679709 -175.9375 242.0625 C-176.40663818 243.22934326 -176.87577637 244.39618652 -177.35913086 245.59838867 C-179.69804733 251.56822971 -181.66123624 257.41811602 -183.125 263.6640625 C-187.23248511 280.26893457 -187.23248511 280.26893457 -192.7734375 283.9453125 C-198.97260721 286.50990052 -205.38193258 287.32113816 -212.02001953 287.96630859 C-216.08926485 288.39417378 -220.04446835 289.16317212 -224.05541992 289.95605469 C-228.78782404 290.86901653 -233.54746125 291.59283178 -238.3125 292.3125 C-239.23224609 292.45284668 -240.15199219 292.59319336 -241.09960938 292.73779297 C-273.32169399 297.5237534 -305.81105668 297.76133163 -338.3125 297.3125 C-339.47894043 297.29848145 -340.64538086 297.28446289 -341.84716797 297.27001953 C-362.40085482 296.94809032 -382.88330606 294.434152 -403.3125 292.3125 C-402.69886258 288.61031786 -401.6527655 285.52440293 -400.08203125 282.12109375 C-399.61619629 281.10837402 -399.15036133 280.0956543 -398.67041016 279.05224609 C-398.1604248 277.96250488 -397.65043945 276.87276367 -397.125 275.75 C-396.59181152 274.60611816 -396.05862305 273.46223633 -395.50927734 272.28369141 C-385.39299943 250.71734639 -374.61901009 229.7177522 -362.3125 209.3125 C-361.35618007 207.70477834 -360.40041931 206.09672389 -359.4453125 204.48828125 C-338.97641995 170.25100943 -314.02306022 138.83322532 -285.83300781 110.64770508 C-284.30763287 109.12012584 -282.79049328 107.58466418 -281.2734375 106.04882812 C-274.94524386 99.68501733 -268.34779554 93.90003398 -261.3125 88.3125 C-260.28485492 87.44922487 -259.26143773 86.58083507 -258.24609375 85.703125 C-221.45055649 54.14764078 -176.52005823 31.41146543 -130.3125 17.3125 C-129.68698242 17.11881836 -129.06146484 16.92513672 -128.41699219 16.72558594 C-86.76262964 3.973415 -43.36645648 -0.11466614 0 0 Z " fill="#F0B130" transform="translate(499.3125,600.6875)"/>
<path d="M0 0 C4.09756136 0.55596934 7.47136903 1.45744716 11.21875 3.1953125 C12.21793457 3.65599121 13.21711914 4.11666992 14.24658203 4.59130859 C15.32020996 5.09742676 16.39383789 5.60354492 17.5 6.125 C18.63421387 6.65561035 19.76842773 7.1862207 20.93701172 7.73291016 C24.6322776 9.47313135 28.31874501 11.23039006 32 13 C32.62072388 13.2983374 33.24144775 13.5966748 33.88098145 13.90405273 C51.72715947 22.50124495 69.07376675 31.68346083 86 42 C87.01320313 42.61375488 88.02640625 43.22750977 89.0703125 43.85986328 C102.48239151 52.00921392 115.46815699 60.55083953 128 70 C128.60908203 70.45745605 129.21816406 70.91491211 129.84570312 71.38623047 C137.38618265 77.06664154 144.74775801 82.95666091 152 89 C153.51835449 90.26082397 153.51835449 90.26082397 155.06738281 91.54711914 C163.57376644 98.68368894 171.55538598 106.24302144 179.37915039 114.1184082 C181.32150484 116.07155488 183.27442958 118.0136762 185.22851562 119.95507812 C192.28049574 126.99963716 198.8347105 134.1583987 205 142 C205.87425457 143.03999711 206.75438664 144.07513294 207.64453125 145.1015625 C222.53681648 162.43564585 235.07120717 182.06453876 245.96777344 202.11621094 C246.93004659 203.87233668 247.92098813 205.61266902 248.9140625 207.3515625 C273.47504124 251.31874666 286.15127351 302.1829901 291 352 C291.08732895 352.84156143 291.1746579 353.68312286 291.26463318 354.55018616 C292.11968692 363.54719005 292.18204347 372.51920955 292.203125 381.546875 C292.20595238 382.37853432 292.20877975 383.21019363 292.21169281 384.06705475 C292.22661074 388.48708906 292.23588121 392.90709149 292.24023438 397.32714844 C292.2445773 400.9066816 292.25831531 404.48596804 292.28125 408.06542969 C292.39552631 426.27473635 292.3045837 444.37191081 290.609375 462.515625 C290.54662636 463.20713402 290.48387772 463.89864304 290.4192276 464.61110687 C289.6448392 472.89992389 289.6448392 472.89992389 289 476 C288.34 476.33 287.68 476.66 287 477 C286.61368408 476.13125244 286.22736816 475.26250488 285.8293457 474.36743164 C266.7999609 431.66281685 244.79495434 391.00485948 216 354 C215.29488281 353.0925 214.58976563 352.185 213.86328125 351.25 C201.85118817 336.04605257 188.91685114 321.84734299 175.25 308.125 C174.45787109 307.32819824 173.66574219 306.53139648 172.84960938 305.71044922 C168.0611939 300.93505663 163.15526786 296.37596816 158 292 C157.35853027 291.45182617 156.71706055 290.90365234 156.05615234 290.33886719 C145.77608521 281.60939607 135.17395632 273.54764199 124 266 C123.34128906 265.55092285 122.68257813 265.1018457 122.00390625 264.63916016 C93.78043269 245.49051139 61.85587724 228.38320962 28.9609375 218.91015625 C27.81657227 218.57580566 26.67220703 218.24145508 25.49316406 217.89697266 C23.29902181 217.27193793 21.09511016 216.67995001 18.88183594 216.12646484 C11.78297488 214.11654635 11.78297488 214.11654635 9.75073242 211.21850586 C8.89247867 208.81797862 8.43000484 206.51315461 8 204 C7.51243842 201.92040406 7.02410187 199.84098972 6.53515625 197.76171875 C6.03565205 195.40545647 5.54520368 193.04726133 5.0625 190.6875 C4.67336426 188.78955688 4.67336426 188.78955688 4.27636719 186.85327148 C-2.53237735 153.08319186 -5.21979637 118.84301295 -5.375 84.4375 C-5.38055908 83.39047913 -5.38611816 82.34345825 -5.3918457 81.26470947 C-5.46336979 54.04008822 -2.81026025 27.05575799 0 0 Z " fill="#2A9ED2" transform="translate(310,98)"/>
<path d="M0 0 C0.91394531 0.10715332 1.82789063 0.21430664 2.76953125 0.32470703 C52.08216397 6.24739561 98.69448155 21.75864391 143 44 C143.99306152 44.49790039 144.98612305 44.99580078 146.00927734 45.50878906 C175.25749529 60.26507979 203.16993426 77.82644177 229 98 C225.00301177 99.46383205 221.17402649 98.69425469 217.0625 98.1875 C146.6643104 90.41988651 73.30329395 95.10545658 6 118 C5.16339844 118.28166016 4.32679688 118.56332031 3.46484375 118.85351562 C-16.0408142 125.49812593 -35.03027388 133.92435882 -53 144 C-54.77077135 144.93761706 -56.5416019 145.87512236 -58.3125 146.8125 C-83.70994568 160.77168866 -108.56120384 177.85411528 -129.3046875 198.20703125 C-129.83312256 198.7182251 -130.36155762 199.22941895 -130.90600586 199.75610352 C-132.34643173 201.16116742 -133.76578991 202.58773721 -135.18359375 204.015625 C-138.81231812 206.57234065 -140.60707865 206.30495428 -145 206 C-147.62522749 205.33991201 -150.09325037 204.62973514 -152.64453125 203.76171875 C-153.36309296 203.52544266 -154.08165466 203.28916656 -154.82199097 203.04573059 C-157.15664245 202.27237827 -159.48483031 201.48160095 -161.8125 200.6875 C-162.61378326 200.41711914 -163.41506653 200.14673828 -164.2406311 199.86816406 C-187.6127718 191.96526391 -209.92652577 182.00535653 -232 171 C-232.90024902 170.55188965 -233.80049805 170.1037793 -234.72802734 169.64208984 C-267.46232566 153.22323254 -299.49799147 133.0614542 -328 110 C-310.81374362 92.10833758 -286.25840833 78.37765654 -264.85888672 66.07519531 C-262.75116351 64.85607093 -260.65950149 63.61125131 -258.56640625 62.3671875 C-235.36087127 48.70363862 -211.09934288 36.75592833 -186 27 C-184.98437988 26.60200195 -183.96875977 26.20400391 -182.92236328 25.79394531 C-149.12344563 12.61105229 -114.01778883 4.3070784 -78 0 C-76.65687744 -0.16097168 -76.65687744 -0.16097168 -75.28662109 -0.32519531 C-50.33832233 -3.18759346 -24.92391773 -2.97079353 0 0 Z " fill="#84B075" transform="translate(347,493)"/>
<path d="M0 0 C0.66 0 1.32 0 2 0 C2 188.43 2 376.86 2 571 C-1.62029322 567.37970678 -4.71656792 563.96966151 -7.6875 559.875 C-8.14390869 559.24811279 -8.60031738 558.62122559 -9.07055664 557.9753418 C-21.09628137 541.25228135 -32.32822968 523.94731587 -42.72119141 506.16796875 C-43.9422693 504.09787105 -45.18868555 502.04626046 -46.44921875 500 C-51.34930156 492.0351866 -55.73029884 483.90691381 -59.79248047 475.484375 C-61.17691809 472.63600516 -62.59075643 469.80298125 -64.00390625 466.96875 C-71.9206731 450.9681109 -78.81426828 434.74347753 -85 418 C-85.40734375 416.90300781 -85.8146875 415.80601562 -86.234375 414.67578125 C-119.90259904 323.18128929 -117.59068865 223.0381844 -72.35400391 116.41162109 C-61.51082218 92.98432707 -49.08831897 70.63468371 -35 49 C-34.30519531 47.92878906 -33.61039063 46.85757813 -32.89453125 45.75390625 C-23.59018589 31.61513814 -13.62170624 17.98586747 -3.22998047 4.63134766 C-2.09688392 3.12849907 -1.044025 1.5660375 0 0 Z " fill="#E43332" transform="translate(600,614)"/>
<path d="M0 0 C0.33 0 0.66 0 1 0 C1 120.12 1 240.24 1 364 C0.67 364 0.34 364 0 364 C-0.23074219 363.02264893 -0.46148438 362.04529785 -0.69921875 361.03833008 C-3.01190666 351.41702686 -5.75808465 342.03794401 -9 332.6875 C-9.23477051 332.00634125 -9.46954102 331.3251825 -9.71142578 330.62338257 C-27.81920581 278.35685011 -57.79368738 229.20631262 -97 190 C-96.76299112 182.38836861 -94.0526622 175.33915479 -91.625 168.1875 C-91.4044696 167.53238434 -91.18393921 166.87726868 -90.95672607 166.20230103 C-83.2602384 143.40668385 -73.77830288 121.50228989 -63 100 C-62.23067139 98.45747559 -62.23067139 98.45747559 -61.44580078 96.88378906 C-44.72981191 63.53515686 -24.55454367 28.3841514 0 0 Z " fill="#156694" transform="translate(601,20)"/>
</svg>
