<?xml version="1.0" encoding="UTF-8"?>
<svg version="1.1" xmlns="http://www.w3.org/2000/svg" width="338" height="221">
<path d="M0 0 C14.81518796 13.89480554 24.51527196 33.25948014 25.36181641 53.63500977 C25.58499112 72.72957538 18.70738413 90.08369206 5.88671875 104.265625 C5.26023437 104.97332031 4.63375 105.68101563 3.98828125 106.41015625 C-1.55454506 112.32627494 -8.3527713 117.67878835 -16.11328125 120.265625 C-15.94828125 119.255 -15.78328125 118.244375 -15.61328125 117.203125 C-14.35496628 106.62952306 -13.95094631 96.816844 -19.11328125 87.265625 C-19.67015625 86.193125 -20.22703125 85.120625 -20.80078125 84.015625 C-26.39890721 77.35839413 -34.07038248 74.12009847 -42.11328125 71.265625 C-41.96890625 71.82507813 -41.82453125 72.38453125 -41.67578125 72.9609375 C-38.88022708 85.03617845 -38.55193579 97.14827071 -45.17578125 107.953125 C-51.1501353 115.61665654 -60.78058035 118.9800609 -70.11328125 120.265625 C-80.73037786 120.63870014 -89.23134224 116.01074589 -97.11328125 109.265625 C-98.2115625 108.32783203 -98.2115625 108.32783203 -99.33203125 107.37109375 C-112.56089079 95.16158126 -119.82324324 77.01900525 -121.11328125 59.265625 C-121.16742188 58.60304688 -121.2215625 57.94046875 -121.27734375 57.2578125 C-122.07569812 38.16988518 -113.98725367 20.1293299 -101.67578125 5.953125 C-91.16317027 -5.29375694 -91.16317027 -5.29375694 -84.11328125 -5.734375 C-83.49453125 -4.868125 -82.87578125 -4.001875 -82.23828125 -3.109375 C-76.22053735 4.04411211 -68.18574154 7.14604479 -59.11328125 8.265625 C-59.46261719 7.59015625 -59.81195313 6.9146875 -60.171875 6.21875 C-60.62691406 5.32671875 -61.08195312 4.4346875 -61.55078125 3.515625 C-62.00324219 2.63390625 -62.45570313 1.7521875 -62.921875 0.84375 C-64.70755129 -3.0203364 -65.25230879 -6.17854388 -65.23828125 -10.421875 C-65.24085938 -11.20949219 -65.2434375 -11.99710938 -65.24609375 -12.80859375 C-65.11328125 -14.734375 -65.11328125 -14.734375 -64.11328125 -15.734375 C-41.47455792 -19.89250786 -17.89474733 -14.68626213 0 0 Z " fill="#00914D" transform="translate(219.11328125,21.734375)"/>
<path d="M0 0 C0.33 0 0.66 0 1 0 C1.33 5.94 1.66 11.88 2 18 C4.041875 18.433125 4.041875 18.433125 6.125 18.875 C11.50661953 20.63808908 12.92771523 23.58474214 15.46484375 28.42578125 C18.29075329 33.16439293 22.63458167 36.49957867 27.25390625 39.4296875 C29 41 29 41 29.14453125 42.98046875 C29.03496094 43.70878906 28.92539063 44.43710938 28.8125 45.1875 C28.64647931 48.27649102 28.74470602 49.61401176 30.47265625 52.2265625 C31.7037855 53.5765071 32.96951701 54.89600744 34.2734375 56.17578125 C38.1678478 60.29046362 38.44137656 64.04984785 38.3125 69.53515625 C37.67015778 74.60163053 34.6112001 77.58770589 30.9375 80.8125 C26.46003869 84.1467797 22.44650946 84.63588689 17 84 C7.15132011 81.54953606 1.12973873 75.61549372 -4.25 67.25 C-12.32358204 52.99473797 -14.91389216 34.1956435 -11.09375 18.20703125 C-8.54581734 11.89436477 -4.86504958 4.86504958 0 0 Z " fill="#A4CB4B" transform="translate(124,42)"/>
<path d="M0 0 C12.47768376 8.5749721 21.90075054 17.73863639 25.1171875 32.99609375 C25.43912362 35.28398647 25.57214793 37.5187866 25.66015625 39.828125 C25.72332031 40.9625 25.78648437 42.096875 25.8515625 43.265625 C26.12576041 51.8984365 26.07650854 62.81098015 20.0234375 69.6875 C19.57355469 70.06390625 19.12367188 70.4403125 18.66015625 70.828125 C18.45519531 69.70792969 18.25023437 68.58773437 18.0390625 67.43359375 C17.76703936 65.96091676 17.49489776 64.48826164 17.22265625 63.015625 C17.08794922 62.27763672 16.95324219 61.53964844 16.81445312 60.77929688 C16.24595888 57.71497424 15.64705974 54.78883547 14.66015625 51.828125 C12.68015625 52.488125 10.70015625 53.148125 8.66015625 53.828125 C8.05429688 53.10367188 7.4484375 52.37921875 6.82421875 51.6328125 C0.57455944 44.42166714 -5.32786652 39.17727806 -14.37890625 35.640625 C-17.21352739 34.52728543 -19.79568942 33.50558939 -22.33984375 31.828125 C-23.02734375 27.953125 -23.02734375 27.953125 -22.9765625 25.890625 C-23.62868602 22.18824631 -26.67565628 20.46312609 -29.52734375 18.2734375 C-31.75844669 16.49432524 -32.25844367 15.47467419 -32.61328125 12.65625 C-32.92149523 4.8323566 -32.92149523 4.8323566 -30.27734375 1.390625 C-21.11820721 -6.59926007 -10.1175678 -6.23067485 0 0 Z " fill="#A5CB4B" transform="translate(196.33984375,45.171875)"/>
<path d="M0 0 C-0.33 11.88 -0.66 23.76 -1 36 C8.5 37 8.5 37 13 33 C13.99 33.495 13.99 33.495 15 34 C12.25 39.75 12.25 39.75 10 42 C6.7 42 3.4 42 0 42 C0 48.93 0 55.86 0 63 C1.65 63.33 3.3 63.66 5 64 C5 64.99 5 65.98 5 67 C-1.435 67.99 -1.435 67.99 -8 69 C-8.33 67.68 -8.66 66.36 -9 65 C-9.928125 65.66 -10.85625 66.32 -11.8125 67 C-16.69067579 69.7761976 -21.53237558 69.80940664 -27 69 C-31.92006067 66.67415314 -34.31231435 63.67856392 -37 59 C-39.18599425 52.44201726 -38.97505638 44.19250955 -36.1796875 37.81640625 C-32.99974771 32.92014134 -27.75602654 28.32831382 -22 27 C-16.31669279 26.47376785 -13.03865719 27.7211801 -8 30 C-8.13931138 26.9163358 -8.28759281 23.83316583 -8.4375 20.75 C-8.47681641 19.87730469 -8.51613281 19.00460938 -8.55664062 18.10546875 C-8.59853516 17.26113281 -8.64042969 16.41679687 -8.68359375 15.546875 C-8.72025146 14.77182617 -8.75690918 13.99677734 -8.79467773 13.19824219 C-8.99603015 11.0425024 -9.41729297 9.08198525 -10 7 C-12.475 6.505 -12.475 6.505 -15 6 C-15 5.01 -15 4.02 -15 3 C-13.4447088 2.29634398 -11.88035173 1.61270622 -10.3125 0.9375 C-9.44238281 0.55464844 -8.57226562 0.17179688 -7.67578125 -0.22265625 C-5 -1 -5 -1 0 0 Z M-29 35 C-31.98025265 40.0328002 -32.45355228 44.80048448 -31.640625 50.53515625 C-30.29374039 55.71737691 -27.69588094 59.57188974 -23.625 63 C-20.11452341 64.33732441 -17.72770841 64.53252977 -14 64 C-10.84045695 61.45862841 -9.28459114 59.85377341 -8 56 C-7.85145612 53.19480593 -7.76895796 50.43077873 -7.75 47.625 C-7.729375 46.86960937 -7.70875 46.11421875 -7.6875 45.3359375 C-7.65513106 40.70717843 -8.04490419 37.78109849 -11 34 C-14.5305419 31.07469385 -17.60716907 30.44984318 -22.07421875 30.66015625 C-25.3642455 31.24074921 -26.8208139 32.5095016 -29 35 Z " fill="#008E4B" transform="translate(323,148)"/>
<path d="M0 0 C0 1.65 0 3.3 0 5 C0.61746094 4.62746094 1.23492187 4.25492188 1.87109375 3.87109375 C7.06698921 0.96866813 10.98826214 -0.83074197 16.95703125 0.2890625 C21.21971525 1.77244393 24.12600056 4.21235038 26.14086914 8.33349609 C27.05302668 11.16458011 27.26875751 13.44639264 27.30859375 16.4140625 C27.33373047 17.42210937 27.35886719 18.43015625 27.38476562 19.46875 C27.42005134 21.5806656 27.45127193 23.69265285 27.47851562 25.8046875 C27.50494141 26.81015625 27.53136719 27.815625 27.55859375 28.8515625 C27.57204834 29.76760254 27.58550293 30.68364258 27.59936523 31.62744141 C28.07530806 34.44597423 28.73489715 35.30691974 31 37 C31.99 37.33 32.98 37.66 34 38 C34 38.99 34 39.98 34 41 C28.06 41 22.12 41 16 41 C17 37 17 37 19 34 C19.42701807 30.93154307 19.32424139 27.84503134 19.3125 24.75 C19.32861328 23.91597656 19.34472656 23.08195312 19.36132812 22.22265625 C19.36564906 16.71778746 18.59114228 12.87594261 16 8 C13.9781185 6.202772 12.73736162 6.00895581 10.0703125 5.9765625 C5.76063092 6.1933523 5.76063092 6.1933523 2.39941406 8.68994141 C0.66234178 11.55738348 0.65381517 13.30575096 0.70703125 16.640625 C0.7215332 18.24550781 0.7215332 18.24550781 0.73632812 19.8828125 C0.7740332 21.54957031 0.7740332 21.54957031 0.8125 23.25 C0.82603516 24.37664062 0.83957031 25.50328125 0.85351562 26.6640625 C0.88884355 29.44319264 0.9381748 32.22135363 1 35 C3.31 35.99 5.62 36.98 8 38 C8 38.99 8 39.98 8 41 C1.4 41 -5.2 41 -12 41 C-11.67 39.68 -11.34 38.36 -11 37 C-10.34 37 -9.68 37 -9 37 C-9 27.43 -9 17.86 -9 8 C-11.475 7.01 -11.475 7.01 -14 6 C-13 3 -13 3 -10.8203125 1.796875 C-9.93085938 1.45140625 -9.04140625 1.1059375 -8.125 0.75 C-7.24070312 0.39421875 -6.35640625 0.0384375 -5.4453125 -0.328125 C-3 -1 -3 -1 0 0 Z " fill="#008F4B" transform="translate(18,175)"/>
<path d="M0 0 C-0.01571045 1.18758911 -0.01571045 1.18758911 -0.03173828 2.39916992 C-0.07337846 5.99524751 -0.09935193 9.59127428 -0.125 13.1875 C-0.14175781 14.43337891 -0.15851562 15.67925781 -0.17578125 16.96289062 C-0.18544922 18.7659668 -0.18544922 18.7659668 -0.1953125 20.60546875 C-0.21102295 22.26292114 -0.21102295 22.26292114 -0.22705078 23.95385742 C0.08913546 28.19585277 0.97997452 30.97997452 4 34 C9.47237609 34.74000063 9.47237609 34.74000063 14.10498047 32.33740234 C16.4970021 29.38697525 16.46730896 27.89813914 16.390625 24.140625 C16.37773438 23.02558594 16.36484375 21.91054687 16.3515625 20.76171875 C16.30128906 19.02341797 16.30128906 19.02341797 16.25 17.25 C16.23195313 16.07566406 16.21390625 14.90132812 16.1953125 13.69140625 C16.1481912 10.7934466 16.08241305 7.89713582 16 5 C14.68 4.34 13.36 3.68 12 3 C12.33 2.01 12.66 1.02 13 0 C18.94 -0.495 18.94 -0.495 25 -1 C25.33 10.55 25.66 22.1 26 34 C27.65 34.66 29.3 35.32 31 36 C30.505 36.99 30.505 36.99 30 38 C27.22330178 38.92556607 25.32303105 39.19295491 22.4375 39.25 C21.65246094 39.27578125 20.86742187 39.3015625 20.05859375 39.328125 C19.37925781 39.21984375 18.69992188 39.1115625 18 39 C17.34 38.01 16.68 37.02 16 36 C15.43925781 36.47695312 14.87851563 36.95390625 14.30078125 37.4453125 C10.06746345 40.30585661 4.86673197 40.50087882 -0.1015625 39.6328125 C-3.42522468 38.48720979 -4.88556851 37.19550972 -6.6484375 34.18359375 C-8.81486954 28.72041729 -8.57216664 22.85882516 -8.6875 17.0625 C-8.72166016 15.90169922 -8.75582031 14.74089844 -8.79101562 13.54492188 C-8.87306285 10.69671118 -8.94235536 7.84879161 -9 5 C-10.32 4.34 -11.64 3.68 -13 3 C-12.67 2.01 -12.34 1.02 -12 0 C-4.265625 -1.16015625 -4.265625 -1.16015625 0 0 Z " fill="#008F4B" transform="translate(62,177)"/>
<path d="M0 0 C0.79921875 0.01804688 1.5984375 0.03609375 2.421875 0.0546875 C3.02515625 0.07789063 3.6284375 0.10109375 4.25 0.125 C4.25 2.765 4.25 5.405 4.25 8.125 C2.93 8.125 1.61 8.125 0.25 8.125 C-0.41 7.465 -1.07 6.805 -1.75 6.125 C-4.72676515 5.81349868 -4.72676515 5.81349868 -7.75 7.125 C-12.61286113 13.82786264 -12.52324276 21.05244227 -12.75 29.125 C-9.45 28.795 -6.15 28.465 -2.75 28.125 C-3.625 33 -3.625 33 -4.75 34.125 C-7.42058851 34.26615161 -10.07432238 34.16747107 -12.75 34.125 C-12.73058881 38.20096929 -12.67890674 42.27512802 -12.59741211 46.3503418 C-12.57422922 47.73628963 -12.55983559 49.1224137 -12.55444336 50.50854492 C-12.54515803 52.5020332 -12.50154022 54.49526828 -12.45703125 56.48828125 C-12.4413208 57.68751221 -12.42561035 58.88674316 -12.40942383 60.12231445 C-12.04554828 63.33524399 -12.04554828 63.33524399 -9.20581055 65.03979492 C-8.39539307 65.3979126 -7.58497559 65.75603027 -6.75 66.125 C-7.08 67.115 -7.41 68.105 -7.75 69.125 C-13.36 69.125 -18.97 69.125 -24.75 69.125 C-24.75 67.805 -24.75 66.485 -24.75 65.125 C-24.2655542 64.67987061 -23.7811084 64.23474121 -23.28198242 63.77612305 C-20.95585781 61.26909823 -21.31432815 59.06830418 -21.23828125 55.70703125 C-21.20283203 54.45341797 -21.16738281 53.19980469 -21.13085938 51.90820312 C-21.09702148 49.94270508 -21.09702148 49.94270508 -21.0625 47.9375 C-21.02932334 46.60217987 -20.99483334 45.26689168 -20.95898438 43.93164062 C-20.87637943 40.66284496 -20.80726771 37.39432188 -20.75 34.125 C-22.73 34.125 -24.71 34.125 -26.75 34.125 C-26.42 32.475 -26.09 30.825 -25.75 29.125 C-24.1 29.125 -22.45 29.125 -20.75 29.125 C-20.72421875 28.50753906 -20.6984375 27.89007813 -20.671875 27.25390625 C-19.98182287 16.95017332 -16.44339204 9.16040456 -8.75 2.125 C-5.74160436 0.22335154 -3.53258245 -0.10389948 0 0 Z " fill="#008F4B" transform="translate(200.75,146.875)"/>
<path d="M0 0 C4.30098433 5.51408247 5.24429289 11.05231031 5 18 C3.90720058 24.17963565 1.46421931 28.63959975 -3 33 C-9.09824379 36.60916469 -14.97756248 38.21264176 -22.0546875 36.50390625 C-28.72777694 34.27534619 -32.78294302 30.27326112 -36 24 C-38.29123216 17.95947884 -37.35168336 11.60166759 -34.90625 5.81640625 C-32.1880391 0.36826802 -28.45641939 -2.59486777 -23 -5 C-14.61906244 -7.36852583 -6.559837 -5.69904391 0 0 Z M-24 0 C-28.96845691 5.37130477 -29.3498941 9.76405931 -29.28125 16.8515625 C-28.75264785 22.76896992 -26.69975729 27.16242455 -22.6875 31.5 C-19.25273338 33.41707905 -16.94785234 34 -13 34 C-8.73819581 32.66709005 -6.47936301 30.74223949 -4.0625 27 C-1.60895618 19.79367948 -2.01164638 12.2740243 -5.25 5.4375 C-7.03944693 2.07400253 -8.77642634 0.05079491 -12 -2 C-17.00284464 -3.52260489 -19.64846175 -2.83795973 -24 0 Z " fill="#008F4C" transform="translate(279,180)"/>
<path d="M0 0 C5.5010136 5.79836569 6.47091899 11.21403083 6.30859375 18.99609375 C5.67383862 25.17491265 3.13900973 29.21130144 -1.375 33.375 C-6.75367277 37.57744497 -12.2205703 38.79008391 -19 38 C-24.73503978 36.8141835 -28.09520439 34.41424714 -31.7734375 29.9140625 C-35.62574361 23.90250202 -35.71400808 17.95028114 -35 11 C-33.28784522 4.83829329 -29.38658523 0.35287448 -24 -3 C-15.66160203 -6.6927191 -7.25687894 -5.12250278 0 0 Z M-23 1 C-27.48855784 6.70168158 -28.46287604 10.82542144 -28 18 C-26.88935856 23.93910803 -25.32208644 28.88583063 -20.671875 32.9375 C-17.74860366 34.79527991 -15.42156088 35.0610993 -12 35 C-8.18752778 33.72917593 -6.3427763 32.38909742 -3.6875 29.375 C-0.49464956 22.98929913 -0.48863886 16.92288547 -2.26953125 10.07421875 C-3.92845531 5.36358411 -6.61490024 1.45049692 -11 -1 C-15.98927331 -2.51847449 -18.69050835 -1.90422263 -23 1 Z " fill="#008F4C" transform="translate(233,179)"/>
<path d="M0 0 C0.66 1.65 1.32 3.3 2 5 C2.680625 4.319375 3.36125 3.63875 4.0625 2.9375 C7 1 7 1 10.6875 1.125 C14 2 14 2 16 4 C15.625 6.625 15.625 6.625 15 9 C12.1245407 9.73940382 10.29591672 10.07045636 7.375 9.375 C6.59125 9.25125 5.8075 9.1275 5 9 C2.9820846 10.51343655 2.12530066 11.74939867 1 14 C0.8748313 16.94874168 0.81482017 19.86356546 0.8125 22.8125 C0.80025391 23.62009766 0.78800781 24.42769531 0.77539062 25.25976562 C0.7648321 29.55708716 0.78318326 33.18092958 3 37 C6.01696409 38.84274976 6.01696409 38.84274976 9 40 C8.67 40.66 8.34 41.32 8 42 C1.4 42 -5.2 42 -12 42 C-10 38 -10 38 -8 35 C-7.72351446 32.18845285 -7.72351446 32.18845285 -7.8046875 29.01953125 C-7.81113281 27.85615234 -7.81757812 26.69277344 -7.82421875 25.49414062 C-7.84097656 24.27919922 -7.85773438 23.06425781 -7.875 21.8125 C-7.88402344 20.58595703 -7.89304687 19.35941406 -7.90234375 18.09570312 C-7.92593983 15.06360705 -7.95886159 12.03190062 -8 9 C-9.98 8.34 -11.96 7.68 -14 7 C-14 6.34 -14 5.68 -14 5 C-12.04350603 4.16235732 -10.08474444 3.33000941 -8.125 2.5 C-6.48917969 1.80390625 -6.48917969 1.80390625 -4.8203125 1.09375 C-2 0 -2 0 0 0 Z " fill="#008F4B" transform="translate(134,174)"/>
<path d="M0 0 C0.99 0 1.98 0 3 0 C3 2.97 3 5.94 3 9 C7.62 8.67 12.24 8.34 17 8 C16 13 16 13 15 14 C12.98035801 14.07244053 10.95832876 14.08377188 8.9375 14.0625 C7.83277344 14.05347656 6.72804688 14.04445312 5.58984375 14.03515625 C4.73519531 14.02355469 3.88054687 14.01195312 3 14 C3.10964677 18.43801996 3.24033154 22.87517436 3.375 27.3125 C3.4059375 28.57513672 3.436875 29.83777344 3.46875 31.13867188 C3.50742188 32.34716797 3.54609375 33.55566406 3.5859375 34.80078125 C3.6173584 35.91622314 3.6487793 37.03166504 3.68115234 38.1809082 C3.805249 41.20368786 3.805249 41.20368786 6 44 C11.94 43.505 11.94 43.505 18 43 C17.67 44.32 17.34 45.64 17 47 C11.80957571 49.68789829 7.85412681 50.31114764 2.078125 49.8125 C-1.05263545 48.58844328 -2.17097335 46.78997273 -4 44 C-4.45410156 40.6784668 -4.45410156 40.6784668 -4.390625 36.94921875 C-4.38496521 36.29041214 -4.37930542 35.63160553 -4.37347412 34.95283508 C-4.35121239 32.86362784 -4.3010433 30.77618227 -4.25 28.6875 C-4.22992144 27.26499886 -4.21167304 25.84247063 -4.1953125 24.41992188 C-4.15138359 20.9460492 -4.08243096 17.47319675 -4 14 C-5.65 13.67 -7.3 13.34 -9 13 C-7.6512925 10.04196519 -6.10431451 7.79203633 -3.9375 5.375 C-2.33621517 3.5818742 -1.07671842 2.15343684 0 0 Z " fill="#008F4B" transform="translate(101,167)"/>
<path d="M0 0 C5.78202181 -0.30813282 10.90902164 -0.35899408 15.87890625 2.87109375 C24.52495297 11.12113833 30.23817753 22.0008641 31.375 33.9375 C31.26097248 38.42843 29.68232214 42.4026382 27 46 C25.515 46.495 25.515 46.495 24 47 C23.91363281 46.12859375 23.82726562 45.2571875 23.73828125 44.359375 C22.11595602 30.60681985 18.01893049 18.31283845 6.8828125 9.4453125 C3.97813017 7.2163767 1.00720716 5.0887498 -2 3 C-1.34 2.01 -0.68 1.02 0 0 Z " fill="#50AC50" transform="translate(198,43)"/>
<path d="M0 0 C-0.01571045 1.41478638 -0.01571045 1.41478638 -0.03173828 2.8581543 C-0.06590641 6.37120018 -0.0909408 9.8840684 -0.10986328 13.3972168 C-0.11989545 14.91514886 -0.13352438 16.43306173 -0.15087891 17.95092773 C-0.17525035 20.1379064 -0.18651095 22.32462864 -0.1953125 24.51171875 C-0.20578613 25.82615967 -0.21625977 27.14060059 -0.22705078 28.49487305 C-0.01008448 31.84431952 0.3817018 34.07382323 2 37 C4.54775306 37.89386164 4.54775306 37.89386164 7 38 C6.67 39.32 6.34 40.64 6 42 C0.06 42 -5.88 42 -12 42 C-12 38 -12 38 -10.52050781 36.09814453 C-8.55661855 33.38817917 -8.63995393 31.74892823 -8.671875 28.4296875 C-8.67960938 26.83833984 -8.67960938 26.83833984 -8.6875 25.21484375 C-8.708125 24.11269531 -8.72875 23.01054687 -8.75 21.875 C-8.75773438 20.21017578 -8.75773438 20.21017578 -8.765625 18.51171875 C-8.57369097 13.08489107 -8.57369097 13.08489107 -10 8 C-11.64363134 7.27840576 -13.31050386 6.60648579 -15 6 C-11.19780445 1.3031702 -5.82792067 -0.2102858 0 0 Z " fill="#008F4B" transform="translate(166,174)"/>
<path d="M0 0 C3.2986651 0.09723956 6.00261154 0.5877689 9 2 C11.07694112 4.58752248 12.61425249 7.27933058 14.2421875 10.16796875 C17.2308016 14.98295813 21.46270606 18.43013183 26.25390625 21.39453125 C28 23 28 23 28.171875 25.26171875 C28.03265625 26.06222656 27.8934375 26.86273438 27.75 27.6875 C27.62109375 28.49574219 27.4921875 29.30398437 27.359375 30.13671875 C27.24078125 30.75160156 27.1221875 31.36648437 27 32 C15.83223215 26.39558709 7.35728848 20.63095526 2 9 C1.06987644 5.97709843 0.50545994 3.13385163 0 0 Z " fill="#69B34F" transform="translate(125,60)"/>
<path d="M0 0 C30.00621422 12.44429498 30.00621422 12.44429498 36.0625 24.5 C36.371875 25.325 36.68125 26.15 37 27 C35.68 27.99 34.36 28.98 33 30 C29.71286869 28.60243441 28.00511388 27.04355249 25.8125 24.25 C18.85707595 16.10347796 9.66868466 12.21417168 0 8 C0 5.36 0 2.72 0 0 Z " fill="#69B34F" transform="translate(174,69)"/>
<path d="M0 0 C0.33 0 0.66 0 1 0 C1.03738281 1.29292969 1.07476562 2.58585937 1.11328125 3.91796875 C1.46925359 13.9870392 2.19836676 23.28004795 5 33 C5.31710938 34.16015625 5.31710938 34.16015625 5.640625 35.34375 C6.07337169 36.90163807 6.53209333 38.45230872 7 40 C5.68 39.67 4.36 39.34 3 39 C3 38.34 3 37.68 3 37 C2.34 37 1.68 37 1 37 C1 36.34 1 35.68 1 35 C0.01 35 -0.98 35 -2 35 C-2.483059 33.60550891 -2.96125517 32.20933293 -3.4375 30.8125 C-3.83775391 29.64654297 -3.83775391 29.64654297 -4.24609375 28.45703125 C-5.73506041 23.60438861 -6.11381782 19.26796398 -6.0625 14.1875 C-6.05347656 13.02605469 -6.04445313 11.86460938 -6.03515625 10.66796875 C-6.02355469 9.78753906 -6.01195313 8.90710938 -6 8 C-5.34 8 -4.68 8 -4 8 C-3.71125 7.236875 -3.4225 6.47375 -3.125 5.6875 C-2 3 -2 3 0 0 Z " fill="#15A052" transform="translate(111,66)"/>
<path d="M0 0 C0.33 0 0.66 0 1 0 C1.04487549 0.54825439 1.08975098 1.09650879 1.13598633 1.66137695 C2.34478905 16.55264891 2.34478905 16.55264891 6 31 C1.15771231 28.79896014 1.15771231 28.79896014 -1 27 C-1.875 23.3125 -1.875 23.3125 -2 20 C-2.33 19.67 -2.66 19.34 -3 19 C-3.57613026 11.97564265 -3.39703898 6.22790479 0 0 Z " fill="#2DA451" transform="translate(111,72)"/>
<path d="M0 0 C0.33 0 0.66 0 1 0 C2.22690583 15.94977578 2.22690583 15.94977578 -0.78125 20.9765625 C-2.76138445 22.89394621 -4.6791234 24.51836895 -7 26 C-8.47062289 21.58813132 -7.98248138 17.51491445 -7 13 C-5.125 10.9375 -5.125 10.9375 -3 9 C-1.77591065 6.0632142 -0.8631595 3.06029276 0 0 Z " fill="#29A351" transform="translate(229,77)"/>
<path d="M0 0 C1.20254067 0.61737579 2.38977739 1.26520644 3.5625 1.9375 C4.2225 2.30101562 4.8825 2.66453125 5.5625 3.0390625 C7.2429938 3.98095217 8.90464072 4.95631798 10.5625 5.9375 C10.5625 6.2675 10.5625 6.5975 10.5625 6.9375 C9.74265625 6.92589844 8.9228125 6.91429687 8.078125 6.90234375 C7.00046875 6.89332031 5.9228125 6.88429688 4.8125 6.875 C3.74515625 6.86339844 2.6778125 6.85179687 1.578125 6.83984375 C-1.32404033 6.80755633 -1.32404033 6.80755633 -3.5625 7.5625 C-6.16631463 8.08326293 -7.39493301 7.26091185 -9.6875 6 C-10.39390625 5.61972656 -11.1003125 5.23945312 -11.828125 4.84765625 C-12.35921875 4.54730469 -12.8903125 4.24695312 -13.4375 3.9375 C-12.83550781 3.64488281 -12.23351562 3.35226563 -11.61328125 3.05078125 C-9.28345634 1.90414272 -9.28345634 1.90414272 -6.625 0.125 C-3.4375 -1.0625 -3.4375 -1.0625 0 0 Z " fill="#13A051" transform="translate(199.4375,37.0625)"/>
<path d="M0 0 C2.63765454 1.39957179 4.93774674 2.82403854 7 5 C7.63902812 7.90516143 7.35678866 9.99278126 7 13 C4.03 12.01 1.06 11.02 -2 10 C-1.125 2.25 -1.125 2.25 0 0 Z " fill="#18A151" transform="translate(167,64)"/>
<path d="M0 0 C3.875 1.875 3.875 1.875 5 3 C4.71269945 5.33944736 4.38063221 7.6739143 4 10 C1.625 10.625 1.625 10.625 -1 11 C-3 9 -3 9 -3.3125 6.0625 C-3 3 -3 3 -1.5 1.125 C-1.005 0.75375 -0.51 0.3825 0 0 Z " fill="#008F4C" transform="translate(161,161)"/>
<path d="M0 0 C2.31 1.65 4.62 3.3 7 5 C6.67 7.97 6.34 10.94 6 14 C2.535 12.02 2.535 12.02 -1 10 C-0.67 6.7 -0.34 3.4 0 0 Z " fill="#3CA751" transform="translate(146,78)"/>
<path d="M0 0 C4.875 1.875 4.875 1.875 6 3 C6.07205511 4.68608966 6.08386068 6.37500659 6.0625 8.0625 C6.05347656 8.98160156 6.04445312 9.90070313 6.03515625 10.84765625 C6.02355469 11.55792969 6.01195312 12.26820312 6 13 C2.31993178 9.61831569 0.0214155 6.57478244 -2 2 C-1.34 1.34 -0.68 0.68 0 0 Z " fill="#6DB54F" transform="translate(130,68)"/>
<path d="M0 0 C0.99 0.33 1.98 0.66 3 1 C3.73046875 2.84765625 3.73046875 2.84765625 4.1875 5.0625 C4.34605469 5.79597656 4.50460938 6.52945313 4.66796875 7.28515625 C4.83232422 8.13400391 4.83232422 8.13400391 5 9 C2.525 10.485 2.525 10.485 0 12 C-0.99 9.03 -1.98 6.06 -3 3 C-2.01 2.01 -1.02 1.02 0 0 Z " fill="#1BA152" transform="translate(209,96)"/>
<path d="M0 0 C0.33 0 0.66 0 1 0 C1.05534912 0.57443848 1.11069824 1.14887695 1.16772461 1.74072266 C1.4221876 4.36902619 1.67981811 6.99701018 1.9375 9.625 C2.02451172 10.52863281 2.11152344 11.43226562 2.20117188 12.36328125 C2.65251386 16.94356654 3.1647042 21.4698372 4 26 C0.56694526 22.78843266 -0.91366754 20.90185323 -1.1328125 16.07421875 C-1.13023438 14.95660156 -1.12765625 13.83898437 -1.125 12.6875 C-1.12757812 11.57761719 -1.13015625 10.46773437 -1.1328125 9.32421875 C-1.00527335 6.13198875 -0.59757773 3.13491173 0 0 Z " fill="#49AA51" transform="translate(111,72)"/>
<path d="M0 0 C0.33 0 0.66 0 1 0 C1.46431694 2.78590165 1.68373353 4.31031295 1 7 C-1.38030546 10.00148167 -4.09914316 12.50707616 -7 15 C-7.33 14.01 -7.66 13.02 -8 12 C-6.14151741 8.28303482 -3.60767504 5.21613255 -1 2 C-0.67 1.34 -0.34 0.68 0 0 Z " fill="#11A052" transform="translate(229,88)"/>
<path d="M0 0 C3.12190974 0.37960328 6.05583195 0.87244628 9 2 C11.0625 5.125 11.0625 5.125 12 8 C8.7 7.34 5.4 6.68 2 6 C1.34 4.02 0.68 2.04 0 0 Z " fill="#44A851" transform="translate(125,60)"/>
<path d="M0 0 C1.56427734 -0.03867187 1.56427734 -0.03867187 3.16015625 -0.078125 C5.9375 0.25 5.9375 0.25 7.80859375 1.765625 C8.36740234 2.50039063 8.36740234 2.50039063 8.9375 3.25 C8.11765625 3.23839844 7.2978125 3.22679687 6.453125 3.21484375 C5.37546875 3.20582031 4.2978125 3.19679687 3.1875 3.1875 C2.12015625 3.17589844 1.0528125 3.16429687 -0.046875 3.15234375 C-2.96851549 3.13605258 -2.96851549 3.13605258 -5.34375 3.84375 C-5.9109375 3.9778125 -6.478125 4.111875 -7.0625 4.25 C-8.8125 2.8125 -8.8125 2.8125 -10.0625 1.25 C-6.68202582 0.23993061 -3.52102944 0.05235732 0 0 Z " fill="#2CA451" transform="translate(201.0625,40.75)"/>
<path d="M0 0 C2.5 1 2.5 1 5 3 C5.46837899 5.79374292 5.23424505 8.14221036 5 11 C3.68 10.67 2.36 10.34 1 10 C0.67 6.7 0.34 3.4 0 0 Z " fill="#35A551" transform="translate(169,66)"/>
<path d="M0 0 C1.32 0.66 2.64 1.32 4 2 C3.34 4.97 2.68 7.94 2 11 C1.01 10.34 0.02 9.68 -1 9 C-0.67 6.03 -0.34 3.06 0 0 Z " fill="#1AA151" transform="translate(153,83)"/>
<path d="M0 0 C1.485 0.99 1.485 0.99 3 2 C3.29296875 4.3828125 3.29296875 4.3828125 3.1875 7.125 C3.16042969 8.03507812 3.13335937 8.94515625 3.10546875 9.8828125 C3.07066406 10.58148438 3.03585938 11.28015625 3 12 C1.68 11.34 0.36 10.68 -1 10 C-0.67 6.7 -0.34 3.4 0 0 Z " fill="#53AC50" transform="translate(146,78)"/>
<path d="M0 0 C2.64 0 5.28 0 8 0 C8.33 1.32 8.66 2.64 9 4 C6.36 3.67 3.72 3.34 1 3 C0.67 2.01 0.34 1.02 0 0 Z " fill="#17A151" transform="translate(125,58)"/>
<path d="M0 0 C0.99 0.33 1.98 0.66 3 1 C3.6875 3.0625 3.6875 3.0625 4 5 C0.98968256 5.93423645 0.13349732 6.04449911 -3 5 C-1.125 1.125 -1.125 1.125 0 0 Z " fill="#3EA751" transform="translate(209,96)"/>
<path d="M0 0 C1.65 0 3.3 0 5 0 C5.33 2.64 5.66 5.28 6 8 C1.125 3.375 1.125 3.375 0 0 Z " fill="#7DBA4E" transform="translate(129,72)"/>
<path d="M0 0 C1.48117801 0.28127421 2.95993249 0.57533732 4.4375 0.875 C5.67306641 1.11863281 5.67306641 1.11863281 6.93359375 1.3671875 C7.61550781 1.57601562 8.29742187 1.78484375 9 2 C9.33 2.66 9.66 3.32 10 4 C7.03 4 4.06 4 1 4 C0.67 2.68 0.34 1.36 0 0 Z " fill="#35A651" transform="translate(125,60)"/>
</svg>
