<?xml version="1.0" encoding="UTF-8"?>
<svg version="1.1" xmlns="http://www.w3.org/2000/svg" width="225" height="225">
<path d="M0 0 C74.25 0 148.5 0 225 0 C225 74.25 225 148.5 225 225 C150.75 225 76.5 225 0 225 C0 150.75 0 76.5 0 0 Z " fill="#FEFEFE" transform="translate(0,0)"/>
<path d="M0 0 C0.9075 0.391875 1.815 0.78375 2.75 1.1875 C3.4925 1.455625 4.235 1.72375 5 2 C6.34524187 1.35770214 7.67769813 0.68828773 9 0 C17.27958372 -1.37993062 25.63253962 -1.0924014 34 -1 C34.495 -0.01 34.495 -0.01 35 1 C35.99 0.34 36.98 -0.32 38 -1 C40.26171875 -1.1953125 40.26171875 -1.1953125 42.6875 -1.125 C43.89986328 -1.09792969 43.89986328 -1.09792969 45.13671875 -1.0703125 C46.05904297 -1.03550781 46.05904297 -1.03550781 47 -1 C47.27714844 -0.09636719 47.55429688 0.80726562 47.83984375 1.73828125 C48.38318359 3.50751953 48.38318359 3.50751953 48.9375 5.3125 C49.47697266 7.07013672 49.47697266 7.07013672 50.02734375 8.86328125 C50.66372279 10.91553977 51.32053379 12.96160137 52 15 C52.33 9.72 52.66 4.44 53 -1 C58 -1 58 -1 60.01953125 0.96875 C60.61121094 1.8040625 61.20289063 2.639375 61.8125 3.5 C62.41707031 4.3353125 63.02164063 5.170625 63.64453125 6.03125 C64.09183594 6.6809375 64.53914063 7.330625 65 8 C65.33 5.03 65.66 2.06 66 -1 C67.65 -1 69.3 -1 71 -1 C71.495 9.395 71.495 9.395 72 20 C69.69 20.33 67.38 20.66 65 21 C65 21.99 65 22.98 65 24 C66.98 24 68.96 24 71 24 C70.34 24.66 69.68 25.32 69 26 C70.485 26.495 70.485 26.495 72 27 C71.67 32.94 71.34 38.88 71 45 C58.25 47 58.25 47 56 47 C55.67 46.34 55.34 45.68 55 45 C54.67 45.33 54.34 45.66 54 46 C51.8125 46.5 51.8125 46.5 49 46 C46.72914225 43.8677392 44.85411379 41.49763782 43 39 C42.67 41.31 42.34 43.62 42 46 C40.35 46 38.7 46 37 46 C36.67 45.34 36.34 44.68 36 44 C35.566875 44.680625 35.13375 45.36125 34.6875 46.0625 C30.39779773 49.15507606 26.0239515 47.79690265 21 47 C21 46.34 21 45.68 21 45 C20.01 45.99 19.02 46.98 18 48 C17.18789062 47.47792969 17.18789062 47.47792969 16.359375 46.9453125 C13.28046958 45.71171132 11.46666674 46.18571427 8.25 46.875 C7.26515625 47.07867187 6.2803125 47.28234375 5.265625 47.4921875 C4.14414063 47.74355469 4.14414063 47.74355469 3 48 C2.67 47.34 2.34 46.68 2 46 C1.01 46 0.02 46 -1 46 C-1.66 46 -2.32 46 -3 46 C-3.495 46.495 -3.495 46.495 -4 47 C-6.5 47.125 -6.5 47.125 -9 47 C-10.5171684 45.4828316 -10.18722552 43.98676983 -10.3125 41.875 C-10.77855945 37.0046787 -12.40684831 34.09885268 -15 30 C-15 29.34 -15 28.68 -15 28 C-12.69 28 -10.38 28 -8 28 C-8 26.35 -8 24.7 -8 23 C-6.02 22.67 -4.04 22.34 -2 22 C-3.98 21.34 -5.96 20.68 -8 20 C-8 19.34 -8 18.68 -8 18 C-8.78375 17.54625 -9.5675 17.0925 -10.375 16.625 C-13.21555487 14.86656127 -14.01482025 14.13466284 -15 11 C-15.4375 8.0625 -15.4375 8.0625 -15 5 C-10.12726764 -0.77034095 -7.24117133 -1.42312038 0 0 Z " fill="#F7FAF9" transform="translate(136,80)"/>
<path d="M0 0 C3.33303003 -0.1174875 6.66551837 -0.18767324 10 -0.25 C10.93457031 -0.28351563 11.86914062 -0.31703125 12.83203125 -0.3515625 C19.36713489 -0.44296255 23.38303343 0.63511908 29 4 C29.95103171 32.47811623 25.21559114 54.24435598 5.5546875 75.6640625 C-1.75858602 83.25244349 -9.93136789 91.05751572 -20.75 92.5 C-32.19478692 92.07375095 -42.94539508 78.38560796 -50.32421875 70.49609375 C-59.71372196 60.14002403 -67.49462135 47.52624802 -67 33 C-62.01053546 32.68430857 -58.08532834 33.75977886 -53.5 35.5625 C-52.80076416 35.8291748 -52.10152832 36.09584961 -51.38110352 36.37060547 C-46.73139104 38.18925786 -42.35344527 40.29896739 -37.9375 42.625 C-28.46345715 47.51377955 -16.83317915 51.99815153 -6.12109375 49.265625 C0.12516122 46.90168571 5.4543343 44.5456657 10.25 39.75 C10.8275 39.1725 11.405 38.595 12 38 C12.66 38 13.32 38 14 38 C14.28875 37.278125 14.5775 36.55625 14.875 35.8125 C16 33 16 33 17.125 30.8125 C19.02097216 24.71830377 18.88137363 18.99334408 16 13.25 C12.27663533 7.2735766 6.7316731 3.10364784 0 1 C0 0.67 0 0.34 0 0 Z " fill="#3298EE" transform="translate(85,74)"/>
<path d="M0 0 C1.76875488 0.00845947 1.76875488 0.00845947 3.57324219 0.01708984 C18.20036653 0.21996537 31.51069583 2.75151152 44.6875 9.3125 C45.1825 10.3025 45.1825 10.3025 45.6875 11.3125 C45.12466309 11.32708252 44.56182617 11.34166504 43.98193359 11.35668945 C21.89470494 11.13761971 21.89470494 11.13761971 2.6875 20.3125 C-0.11643205 24.80251743 0.01613312 29.18133888 0.6875 34.3125 C2.95869134 42.31798022 5.65051503 50.41623364 13.1875 54.75 C16.03420964 55.39050967 17.90219279 55.10830206 20.6875 54.3125 C20.6875 51.6725 20.6875 49.0325 20.6875 46.3125 C17.73085481 44.8341774 14.94520263 45.25217217 11.6875 45.3125 C11.3575 44.3225 11.0275 43.3325 10.6875 42.3125 C10.0275 42.3125 9.3675 42.3125 8.6875 42.3125 C8.1925 40.3325 8.1925 40.3325 7.6875 38.3125 C14.20472911 38.64959806 17.01289218 39.75475737 21.6875 44.3125 C21.78546875 43.51585937 21.8834375 42.71921875 21.984375 41.8984375 C22.85871988 35.70264878 23.53807809 31.09062219 27.6875 26.3125 C28.6775 25.6525 29.6675 24.9925 30.6875 24.3125 C33.02888361 30.64878672 34.83757098 36.6581664 32.6875 43.3125 C31.3828125 45.06640625 31.3828125 45.06640625 29.6875 46.3125 C28.3675 46.3125 27.0475 46.3125 25.6875 46.3125 C25.54464286 38.88392857 25.54464286 38.88392857 26.6875 35.3125 C24.0725999 40.69794901 24.44518782 45.9357477 24.421875 51.81640625 C23.6875 55.3125 23.6875 55.3125 20.890625 57.71484375 C13.70767191 61.2975606 5.49635779 61.47217213 -2.29296875 59.59375 C-19.17895097 53.68722872 -35.82787413 41.31602197 -44.3125 25.3125 C-44.3125 24.6525 -44.3125 23.9925 -44.3125 23.3125 C-44.9725 23.3125 -45.6325 23.3125 -46.3125 23.3125 C-49.74107143 14.88392857 -49.74107143 14.88392857 -49.3125 10.3125 C-33.82031804 2.60739363 -17.17407443 -0.08678784 0 0 Z " fill="#1EC2EF" transform="translate(66.3125,58.6875)"/>
<path d="M0 0 C14.87917982 -0.70554593 27.97423889 0.79971005 41.953125 6.125 C46.08862686 7.3126313 50.09201488 7.46105799 54.375 7.625 C55.62216797 7.68300781 55.62216797 7.68300781 56.89453125 7.7421875 C58.92935156 7.83574246 60.96464416 7.91892713 63 8 C63.495 11.465 63.495 11.465 64 15 C66.97 14.505 66.97 14.505 70 14 C70 17.70803638 68.75851393 18.62720854 66.24047852 21.17626953 C65.44081665 21.95526611 65.44081665 21.95526611 64.625 22.75 C63.81276978 23.55026611 63.81276978 23.55026611 62.98413086 24.36669922 C56.17674406 30.93790528 48.8901437 37.21464751 39.25 38.5 C27.76270818 38.0721679 16.90927354 24.26359406 9.53515625 16.3203125 C8.43482219 15.09325773 7.33960576 13.86159118 6.25 12.625 C5.73655029 12.05458984 5.22310059 11.48417969 4.6940918 10.89648438 C1.65450467 7.34311299 0.31098718 4.67894344 0 0 Z " fill="#39B0EF" transform="translate(25,128)"/>
<path d="M0 0 C-0.30921884 1.45903258 -0.62248799 2.91720722 -0.9375 4.375 C-1.19853516 5.59316406 -1.19853516 5.59316406 -1.46484375 6.8359375 C-2 9 -2 9 -3 11 C-3.07181821 13.71760108 -3.09299506 16.40859388 -3.0625 19.125 C-3.05798828 19.87910156 -3.05347656 20.63320312 -3.04882812 21.41015625 C-3.03703499 23.27347127 -3.01909942 25.13674555 -3 27 C-2.34 27 -1.68 27 -1 27 C-0.86464844 27.60585937 -0.72929688 28.21171875 -0.58984375 28.8359375 C1.0093982 35.0605319 3.45595935 39.5329044 7.2890625 44.66796875 C8.79971935 46.72701473 10.08253095 48.76663514 11.3125 51 C12.82546277 54.00521606 12.82546277 54.00521606 15 56 C0.55289346 54.18089142 -11.65079292 42.40910027 -21 32 C-27 24.15109344 -27 24.15109344 -27 21 C-27.66 21 -28.32 21 -29 21 C-32.42857143 12.57142857 -32.42857143 12.57142857 -32 8 C-21.96172302 3.0074178 -11.30789088 -0.77985454 0 0 Z " fill="#34D9FB" transform="translate(49,61)"/>
<path d="M0 0 C1.87056791 0.2275015 3.74685958 0.40962811 5.625 0.5625 C6.62789062 0.64628906 7.63078125 0.73007813 8.6640625 0.81640625 C9.43492188 0.87699219 10.20578125 0.93757813 11 1 C11 1.33 11 1.66 11 2 C2.585 2.495 2.585 2.495 -6 3 C-4.80375 3.515625 -3.6075 4.03125 -2.375 4.5625 C4.0086772 7.75998787 8.62222431 13.26296887 11 20 C12.22609213 27.83336639 9.97919525 33.32063655 6 40 C4.9375 38.125 4.9375 38.125 4 36 C4.33 35.34 4.66 34.68 5 34 C2.69 34 0.38 34 -2 34 C-3.64451156 27.5589964 -2.05498079 23.78217394 1 18 C2.24703266 21.74109799 1.45460854 22.44429023 0 26 C-0.3813074 28.32597511 -0.72460254 30.65912158 -1 33 C1.97 32.505 1.97 32.505 5 32 C6.15890535 24.52994747 6.04702594 18.97200851 3 12 C-2.41592376 18.13804692 -3.33348556 24.10706584 -4 32 C-4.99 31.21625 -5.98 30.4325 -7 29.625 C-10.87745088 26.82594037 -14.33323603 25.90060357 -19 25 C-18.67 26.32 -18.34 27.64 -18 29 C-17.34 29 -16.68 29 -16 29 C-15.67 29.66 -15.34 30.32 -15 31 C-13.081875 30.938125 -13.081875 30.938125 -11.125 30.875 C-8.9453125 30.8046875 -8.9453125 30.8046875 -7 31 C-5 33 -5 33 -4.734375 34.875 C-4.73953125 35.57625 -4.7446875 36.2775 -4.75 37 C-4.74484375 37.70125 -4.7396875 38.4025 -4.734375 39.125 C-5 41 -5 41 -7 43 C-11.41396574 42.70573562 -14.54683427 41.76253259 -18 39 C-24.21555017 31.39620513 -27.74587051 23.19054994 -27.33203125 13.2890625 C-26.78454857 9.51465246 -25.6659307 7.72940524 -23 5 C-16.68454994 1.08079996 -7.37693798 -3.68846899 0 0 Z " fill="#F7FCF9" transform="translate(93,72)"/>
<path d="M0 0 C0.9075 0.391875 1.815 0.78375 2.75 1.1875 C3.4925 1.455625 4.235 1.72375 5 2 C6.33999343 1.34682328 7.67255267 0.678311 9 0 C11.1484375 -0.4140625 11.1484375 -0.4140625 13.375 -0.625 C14.46941406 -0.73714844 14.46941406 -0.73714844 15.5859375 -0.8515625 C18.38577352 -1.0237207 21.19487609 -1 24 -1 C23.67 5.27 23.34 11.54 23 18 C20.69 18.33 18.38 18.66 16 19 C16 19.66 16 20.32 16 21 C16.99 21.33 17.98 21.66 19 22 C19 22.99 19 23.98 19 25 C17.35 25.33 15.7 25.66 14 26 C13.67 26.99 13.34 27.98 13 29 C12.13117188 28.9278125 11.26234375 28.855625 10.3671875 28.78125 C9.21476562 28.6884375 8.06234375 28.595625 6.875 28.5 C5.73804688 28.4071875 4.60109375 28.314375 3.4296875 28.21875 C0.27402851 28.0174779 -2.83921165 27.96157096 -6 28 C-6 26.68 -6 25.36 -6 24 C-4.68 23.34 -3.36 22.68 -2 22 C-3.98 21.34 -5.96 20.68 -8 20 C-8 19.34 -8 18.68 -8 18 C-8.78375 17.54625 -9.5675 17.0925 -10.375 16.625 C-13.21555487 14.86656127 -14.01482025 14.13466284 -15 11 C-15.4375 8.0625 -15.4375 8.0625 -15 5 C-10.12726764 -0.77034095 -7.24117133 -1.42312038 0 0 Z " fill="#F9FBFA" transform="translate(136,80)"/>
<path d="M0 0 C3.33303003 -0.1174875 6.66551837 -0.18767324 10 -0.25 C10.93457031 -0.28351563 11.86914062 -0.31703125 12.83203125 -0.3515625 C19.36713489 -0.44296255 23.38303343 0.63511908 29 4 C30.27048387 42.04393352 30.27048387 42.04393352 21 55 C17.8125 55.8125 17.8125 55.8125 15 56 C14.67 55.34 14.34 54.68 14 54 C14.66 54 15.32 54 16 54 C16 50.7 16 47.4 16 44 C15.34 44 14.68 44 14 44 C14 43.34 14 42.68 14 42 C13.01 41.67 12.02 41.34 11 41 C11.99 40.505 11.99 40.505 13 40 C13.72455635 38.35767228 14.37774395 36.68375165 15 35 C15.53625 33.948125 16.0725 32.89625 16.625 31.8125 C18.86836165 26.48162515 19.05601692 21.0409376 17.15625 15.5703125 C13.78754129 8.81013353 8.79739622 4.74047327 2 1.625 C1.34 1.41875 0.68 1.2125 0 1 C0 0.67 0 0.34 0 0 Z " fill="#156082" transform="translate(85,74)"/>
<path d="M0 0 C1.4540625 0.0309375 1.4540625 0.0309375 2.9375 0.0625 C2.9375 2.0425 2.9375 4.0225 2.9375 6.0625 C5.5775 6.0625 8.2175 6.0625 10.9375 6.0625 C11.06125 7.3 11.185 8.5375 11.3125 9.8125 C11.69496305 12.9387197 12.24299523 15.35129237 13.9375 18.0625 C14.5975 17.4025 15.2575 16.7425 15.9375 16.0625 C16.5975 16.0625 17.2575 16.0625 17.9375 16.0625 C18.2675 15.4025 18.5975 14.7425 18.9375 14.0625 C24.72648419 13.85575056 29.36682723 14.47087921 34.9375 16.0625 C35.4325 19.0325 35.4325 19.0325 35.9375 22.0625 C37.2575 22.3925 38.5775 22.7225 39.9375 23.0625 C39.6075 23.7225 39.2775 24.3825 38.9375 25.0625 C41.2475 25.0625 43.5575 25.0625 45.9375 25.0625 C45.9375 25.7225 45.9375 26.3825 45.9375 27.0625 C46.5975 27.0625 47.2575 27.0625 47.9375 27.0625 C47.9375 27.7225 47.9375 28.3825 47.9375 29.0625 C46.9475 29.0625 45.9575 29.0625 44.9375 29.0625 C44.8446875 30.238125 44.8446875 30.238125 44.75 31.4375 C43.9375 34.0625 43.9375 34.0625 41.875 35.375 C37.18785108 36.4719923 33.33608448 37.13662891 28.87890625 35.140625 C18.67016518 28.7718691 9.99522435 19.55956085 2.1875 10.5 C1.67405029 9.90445313 1.16060059 9.30890625 0.6315918 8.6953125 C-1.49328591 6.16768494 -3.00862374 4.22412879 -4.0625 1.0625 C-3.0625 0.0625 -3.0625 0.0625 0 0 Z " fill="#3FD4F6" transform="translate(29.0625,129.9375)"/>
<path d="M0 0 C0.928125 0.845625 1.85625 1.69125 2.8125 2.5625 C14.48895506 12.5607601 27.29100535 19.48061757 42.82421875 19.265625 C47.01259924 18.91530535 51.89320243 18.10679757 55 15 C55.23427778 12.98405418 55.41336124 10.961526 55.5625 8.9375 C55.68818359 7.28041016 55.68818359 7.28041016 55.81640625 5.58984375 C55.87699219 4.73519531 55.93757813 3.88054687 56 3 C56.495 4.98 56.495 4.98 57 7 C61.64586892 6.51515724 61.64586892 6.51515724 66 5 C63.39371348 13.1911862 60.42645988 18.10406097 52.6796875 22.23828125 C41.34261376 27.38299293 31.5795131 26.13885048 20 22 C16.47243532 20.38482903 13.05950599 18.62341955 9.62890625 16.8125 C5.69701095 14.78509949 1.63909427 13.17686228 -2.5 11.625 C-3.15863037 11.37443848 -3.81726074 11.12387695 -4.49584961 10.86572266 C-8.30770448 9.46568804 -11.97588179 8.53406507 -16 8 C-16.33 8.66 -16.66 9.32 -17 10 C-17 8.68 -17 7.36 -17 6 C-8.585 5.505 -8.585 5.505 0 5 C0 3.35 0 1.7 0 0 Z " fill="#ECF8F8" transform="translate(34,99)"/>
<path d="M0 0 C2.31 0.33 4.62 0.66 7 1 C6.360625 1.28875 5.72125 1.5775 5.0625 1.875 C2.84793921 2.82823451 2.84793921 2.82823451 2 5 C2.845625 4.88140625 3.69125 4.7628125 4.5625 4.640625 C11.01872589 3.90696297 15.78308487 3.50935063 21.51171875 6.796875 C24.30091155 9.05165553 24.98361146 10.87357413 25.4375 14.375 C25 18 25 18 23.0625 20.8125 C19.1815733 23.5845905 15.65872956 24.31996758 11 25 C10.67 24.34 10.34 23.68 10 23 C9.01 23 8.02 23 7 23 C6.34 23 5.68 23 5 23 C4.67 23.33 4.34 23.66 4 24 C1.5 24.125 1.5 24.125 -1 24 C-2.5171684 22.4828316 -2.18722552 20.98676983 -2.3125 18.875 C-2.77855945 14.0046787 -4.40684831 11.09885268 -7 7 C-7 6.34 -7 5.68 -7 5 C-4.69 5 -2.38 5 0 5 C0 3.35 0 1.7 0 0 Z " fill="#E4F3F4" transform="translate(128,103)"/>
<path d="M0 0 C5.8917955 0.80948147 9.04126064 3.73547075 13 8 C16.53804753 12.76995823 17.68354294 17.48579757 17.47265625 23.390625 C16.62977515 28.04388593 14.40010559 31.97125132 12 36 C10.9375 34.125 10.9375 34.125 10 32 C10.33 31.34 10.66 30.68 11 30 C8.69 30 6.38 30 4 30 C2.35548844 23.5589964 3.94501921 19.78217394 7 14 C8.24703266 17.74109799 7.45460854 18.44429023 6 22 C5.6186926 24.32597511 5.27539746 26.65912158 5 29 C6.98 28.67 8.96 28.34 11 28 C12.15890535 20.52994747 12.04702594 14.97200851 9 8 C3.58407624 14.13804692 2.66651444 20.10706584 2 28 C1.29423828 27.49339844 1.29423828 27.49339844 0.57421875 26.9765625 C-0.04839844 26.53054687 -0.67101562 26.08453125 -1.3125 25.625 C-1.92738281 25.18414062 -2.54226562 24.74328125 -3.17578125 24.2890625 C-4.7652392 23.16589093 -6.38062171 22.07958553 -8 21 C-8 20.34 -8 19.68 -8 19 C-8.99 18.34 -9.98 17.68 -11 17 C-11.6875 13.875 -11.6875 13.875 -12 11 C-12.99 10.67 -13.98 10.34 -15 10 C-14.34 10 -13.68 10 -13 10 C-13 9.01 -13 8.02 -13 7 C-13.66 6.67 -14.32 6.34 -15 6 C-14.34 5.34 -13.68 4.68 -13 4 C-13 4.66 -13 5.32 -13 6 C-12.01 5.34 -11.02 4.68 -10 4 C-8.28555111 3.56261304 -6.55332216 3.19151312 -4.8125 2.875 C-3.46091797 2.62363281 -3.46091797 2.62363281 -2.08203125 2.3671875 C-1.39496094 2.24601562 -0.70789063 2.12484375 0 2 C0 1.34 0 0.68 0 0 Z " fill="#EEF5E8" transform="translate(87,76)"/>
<path d="M0 0 C5 0 5 0 7.01953125 1.96875 C7.61121094 2.8040625 8.20289063 3.639375 8.8125 4.5 C9.41707031 5.3353125 10.02164063 6.170625 10.64453125 7.03125 C11.09183594 7.6809375 11.53914063 8.330625 12 9 C12.33 6.03 12.66 3.06 13 0 C14.65 0 16.3 0 18 0 C18.33 6.93 18.66 13.86 19 21 C16.69 21.33 14.38 21.66 12 22 C12 22.99 12 23.98 12 25 C13.98 25 15.96 25 18 25 C18 25.33 18 25.66 18 26 C15.69 26 13.38 26 11 26 C11 26.66 11 27.32 11 28 C8.69 28.33 6.38 28.66 4 29 C4.66 28.01 5.32 27.02 6 26 C5.67 25.67 5.34 25.34 5 25 C4.34 24.34 3.68 23.68 3 23 C0.34462628 22.43479997 -2.29144713 22.26211802 -5 22 C-5 21.34 -5 20.68 -5 20 C-5.99 20 -6.98 20 -8 20 C-8.33 19.01 -8.66 18.02 -9 17 C-9.99 16.34 -10.98 15.68 -12 15 C-10.02 15 -8.04 15 -6 15 C-6 15.99 -6 16.98 -6 18 C-4.35 17.67 -2.7 17.34 -1 17 C-0.67 11.39 -0.34 5.78 0 0 Z " fill="#E2EEEF" transform="translate(189,79)"/>
<path d="M0 0 C2 3.75 2 3.75 2 6 C2.66 6 3.32 6 4 6 C3.98839844 6.71027344 3.97679687 7.42054687 3.96484375 8.15234375 C3.95582031 9.07144531 3.94679687 9.99054688 3.9375 10.9375 C3.92589844 11.85402344 3.91429687 12.77054688 3.90234375 13.71484375 C3.74050951 15.96593327 3.74050951 15.96593327 5 17 C6.32594105 17.36162029 7.65938457 17.69728039 9 18 C7.68 19.32 6.36 20.64 5 22 C5 21.01 5 20.02 5 19 C3.68 19 2.36 19 1 19 C0.505 20.485 0.505 20.485 0 22 C-3.6583108 23.58466433 -7.83147995 23.11064817 -11.75 23.0625 C-12.44738281 23.05798828 -13.14476563 23.05347656 -13.86328125 23.04882812 C-15.57555803 23.0371002 -17.28779033 23.01916653 -19 23 C-18.34 22.67 -17.68 22.34 -17 22 C-17 21.34 -17 20.68 -17 20 C-19.64 20 -22.28 20 -25 20 C-25.33 18.35 -25.66 16.7 -26 15 C-28.31 14.34 -30.62 13.68 -33 13 C-33 12.67 -33 12.34 -33 12 C-31.89205078 12.06960937 -31.89205078 12.06960937 -30.76171875 12.140625 C-20.6133687 12.50168447 -12.1145801 10.33333081 -4 4 C-2.63113049 2.70317626 -1.2830709 1.38176866 0 0 Z " fill="#257FBD" transform="translate(97,112)"/>
<path d="M0 0 C6 2 12 4 18 6 C18 6.66 18 7.32 18 8 C19.11375 8.103125 20.2275 8.20625 21.375 8.3125 C23.169375 8.6528125 23.169375 8.6528125 25 9 C25.99 10.485 25.99 10.485 27 12 C26.67 12.99 26.34 13.98 26 15 C26.94875 14.814375 27.8975 14.62875 28.875 14.4375 C32 14 32 14 34 15 C34 15.66 34 16.32 34 17 C36.08326131 17.02709444 38.16662441 17.04643873 40.25 17.0625 C41.99023438 17.07990234 41.99023438 17.07990234 43.765625 17.09765625 C46.41887145 17.01754615 48.53028234 16.93496454 51 16 C51.33 15.34 51.66 14.68 52 14 C53.32 14 54.64 14 56 14 C56.49652945 16.73091196 56.30100154 18.47783246 54.91015625 20.890625 C53.38697284 22.87843996 51.98852067 24.47302317 50 26 C46.125 26.4375 46.125 26.4375 43 26 C42.505 22.535 42.505 22.535 42 19 C40.29457031 19.06960937 40.29457031 19.06960937 38.5546875 19.140625 C28.13652254 19.43420619 19.91835262 18.36235769 10 15 C7.87920212 14.40156943 5.75443118 13.8169441 3.625 13.25 C2.73039062 13.00765625 1.83578125 12.7653125 0.9140625 12.515625 C0.28242187 12.34546875 -0.34921875 12.1753125 -1 12 C-0.01 11.67 0.98 11.34 2 11 C2 8.36 2 5.72 2 3 C1.34 2.67 0.68 2.34 0 2 C0 1.34 0 0.68 0 0 Z " fill="#298BD4" transform="translate(46,117)"/>
<path d="M0 0 C2.96975757 2.59853787 3.86883492 4.10058229 4.4375 8 C3.93471596 11.44766196 3.18481571 13.28781498 1 16 C-1.93187013 17.74327413 -3.64905716 18.0143242 -7.0625 17.875 C-10.43183675 16.87136778 -11.79520819 15.69474555 -14 13 C-15.44430855 10.11138291 -15.37688506 8.20352299 -15 5 C-10.37144217 -0.48118691 -7.02186809 -2.0121954 0 0 Z " fill="#2072A6" transform="translate(136,80)"/>
<path d="M0 0 C1.216875 -0.020625 2.43375 -0.04125 3.6875 -0.0625 C4.71423828 -0.07990234 4.71423828 -0.07990234 5.76171875 -0.09765625 C8 0 8 0 10.15625 0.5 C14.371806 1.24119666 18.54196394 1.10389968 22.8125 1.0625 C24.13797852 1.05573242 24.13797852 1.05573242 25.49023438 1.04882812 C27.66018559 1.03709866 29.83010172 1.01916495 32 1 C33.109375 4.7109375 33.109375 4.7109375 32.125 7.3125 C28.32498354 12.11840317 23.20566518 16.92567072 17 18 C17.33 17.01 17.66 16.02 18 15 C18.99 15 19.98 15 21 15 C21 14.34 21 13.68 21 13 C20.34 13 19.68 13 19 13 C19 12.34 19 11.68 19 11 C18.01 11.33 17.02 11.66 16 12 C13.8125 11.5625 13.8125 11.5625 12 11 C12 10.34 12 9.68 12 9 C11.01 8.67 10.02 8.34 9 8 C8.67 8.66 8.34 9.32 8 10 C8 7.36 8 4.72 8 2 C5.36 1.67 2.72 1.34 0 1 C0 0.67 0 0.34 0 0 Z " fill="#3BB8EA" transform="translate(56,144)"/>
<path d="M0 0 C3.5060303 0.86943897 4.94966563 2.56083702 6.9375 5.48046875 C7.7253128 9.89222045 7.46725133 11.70239649 4.9375 15.41796875 C1.61929675 17.69923348 -0.17330129 18.29319973 -4.125 18.03125 C-7.80935029 16.98388429 -9.18558191 14.64776802 -11.0625 11.48046875 C-11.6875 8.41796875 -11.6875 8.41796875 -11.0625 5.48046875 C-7.96739703 1.03125823 -5.27006603 -0.36930387 0 0 Z " fill="#1D6FA2" transform="translate(146.0625,108.51953125)"/>
<path d="M0 0 C3.35978538 3.35978538 3.99291725 7.8043461 4.0078125 12.421875 C3.52890753 18.28367178 3.52890753 18.28367178 1.69921875 20.76171875 C0 22 0 22 -4 22 C-4.14285714 14.57142857 -4.14285714 14.57142857 -3 11 C-5.01512227 15.21865028 -5.41354068 19.20885432 -5.625 23.8125 C-5.66367188 24.50537109 -5.70234375 25.19824219 -5.7421875 25.91210938 C-5.83573568 27.60767015 -5.91892364 29.30379712 -6 31 C-7.32 31.33 -8.64 31.66 -10 32 C-9.67 31.34 -9.34 30.68 -9 30 C-8.9310528 28.62657169 -8.91532292 27.24997898 -8.9375 25.875 C-8.958125 24.59625 -8.97875 23.3175 -9 22 C-11.95664519 20.5216774 -14.74229737 20.93967217 -18 21 C-18.33 20.01 -18.66 19.02 -19 18 C-19.66 18 -20.32 18 -21 18 C-21.33 16.68 -21.66 15.36 -22 14 C-15.48277089 14.33709806 -12.67460782 15.44225737 -8 20 C-7.90203125 19.20335938 -7.8040625 18.40671875 -7.703125 17.5859375 C-6.63362684 10.00725223 -5.46345909 5.46345909 0 0 Z " fill="#237B16" transform="translate(96,83)"/>
<path d="M0 0 C5 0 5 0 6.80078125 1.75 C7.29964844 2.4925 7.79851562 3.235 8.3125 4 C8.82425781 4.7425 9.33601562 5.485 9.86328125 6.25 C10.23839844 6.8275 10.61351562 7.405 11 8 C11.33 5.36 11.66 2.72 12 0 C13.32 0 14.64 0 16 0 C16 5.61 16 11.22 16 17 C9.87232474 15.77446495 9.51818479 14.72441958 6 10 C5.67 12.31 5.34 14.62 5 17 C3.35 17 1.7 17 0 17 C0 11.39 0 5.78 0 0 Z " fill="#1B71A8" transform="translate(173,109)"/>
<path d="M0 0 C0 4.29 0 8.58 0 13 C0.66 13 1.32 13 2 13 C1.814375 14.2375 1.62875 15.475 1.4375 16.75 C1.10905428 19.2418082 0.92984586 20.75446049 1.625 23.1875 C2 25 2 25 0.9375 27.6875 C-1 30 -1 30 -4.1875 30.8125 C-5.115625 30.874375 -6.04375 30.93625 -7 31 C-7.33 30.34 -7.66 29.68 -8 29 C-7.34 29 -6.68 29 -6 29 C-6 25.7 -6 22.4 -6 19 C-6.66 19 -7.32 19 -8 19 C-8 18.34 -8 17.68 -8 17 C-8.99 16.67 -9.98 16.34 -11 16 C-10.34 15.67 -9.68 15.34 -9 15 C-8.27544365 13.35767228 -7.62225605 11.68375165 -7 10 C-3.03448276 0 -3.03448276 0 0 0 Z " fill="#1B6890" transform="translate(107,99)"/>
<path d="M0 0 C5 0 5 0 6.80078125 1.75 C7.29964844 2.4925 7.79851562 3.235 8.3125 4 C8.82425781 4.7425 9.33601562 5.485 9.86328125 6.25 C10.23839844 6.8275 10.61351562 7.405 11 8 C11.33 5.36 11.66 2.72 12 0 C13.32 0 14.64 0 16 0 C16 5.61 16 11.22 16 17 C10.375 15.875 10.375 15.875 7.6875 12.4375 C7.17574219 11.79683594 6.66398438 11.15617187 6.13671875 10.49609375 C5.76160156 10.00238281 5.38648438 9.50867188 5 9 C4.67 11.64 4.34 14.28 4 17 C2.68 17 1.36 17 0 17 C0 11.39 0 5.78 0 0 Z " fill="#1E72A7" transform="translate(190,80)"/>
<path d="M0 0 C8.08573751 -0.60341325 8.08573751 -0.60341325 12.125 2.0625 C14 5 14 5 14 8.625 C13.01382604 11.95333711 12.69520353 13.00997167 10 15 C7.51953125 15.29296875 7.51953125 15.29296875 4.8125 15.1875 C3.224375 15.125625 1.63625 15.06375 0 15 C0 10.05 0 5.1 0 0 Z " fill="#32779C" transform="translate(183,137)"/>
<path d="M0 0 C1.65 0 3.3 0 5 0 C5.33 3.96 5.66 7.92 6 12 C6.99 12 7.98 12 9 12 C9.33 8.04 9.66 4.08 10 0 C11.65 0 13.3 0 15 0 C15.08126087 2.08268593 15.13930839 4.16628658 15.1875 6.25 C15.22230469 7.41015625 15.25710937 8.5703125 15.29296875 9.765625 C14.97612593 13.26356972 14.55691956 14.62736293 12 17 C5.20078585 17.86339227 5.20078585 17.86339227 1.76171875 15.390625 C-0.59176479 12.19698436 -0.40687158 10.17178942 -0.25 6.25 C-0.21390625 5.07953125 -0.1778125 3.9090625 -0.140625 2.703125 C-0.09421875 1.81109375 -0.0478125 0.9190625 0 0 Z " fill="#2E79A8" transform="translate(155,109)"/>
<path d="M0 0 C1.87056791 0.2275015 3.74685958 0.40962811 5.625 0.5625 C6.62789062 0.64628906 7.63078125 0.73007813 8.6640625 0.81640625 C9.43492188 0.87699219 10.20578125 0.93757813 11 1 C11 1.33 11 1.66 11 2 C2.585 2.495 2.585 2.495 -6 3 C-6 3.99 -6 4.98 -6 6 C-5.34 6.33 -4.68 6.66 -4 7 C-5.12148437 7.19916016 -5.12148437 7.19916016 -6.265625 7.40234375 C-7.74289063 7.66724609 -7.74289063 7.66724609 -9.25 7.9375 C-10.22453125 8.11152344 -11.1990625 8.28554687 -12.203125 8.46484375 C-16.75680264 9.33614799 -19.30281712 10.16549313 -23 13 C-23.66 13 -24.32 13 -25 13 C-25.33 15.64 -25.66 18.28 -26 21 C-26.33 21 -26.66 21 -27 21 C-27.34254624 16.18532229 -27.49678177 12.19679244 -25.625 7.6875 C-19.8777516 1.80341236 -8.17217762 -4.08608881 0 0 Z " fill="#FBFBFA" transform="translate(93,72)"/>
<path d="M0 0 C1.46373047 0.02707031 1.46373047 0.02707031 2.95703125 0.0546875 C3.69308594 0.07789063 4.42914063 0.10109375 5.1875 0.125 C5.1875 0.785 5.1875 1.445 5.1875 2.125 C5.8475 2.125 6.5075 2.125 7.1875 2.125 C7.1875 2.785 7.1875 3.445 7.1875 4.125 C6.1975 4.125 5.2075 4.125 4.1875 4.125 C4.0946875 5.300625 4.0946875 5.300625 4 6.5 C3.1875 9.125 3.1875 9.125 1.125 10.4375 C-3.25783488 11.46326986 -7.51440261 12.24246807 -11.66015625 10.2265625 C-13.3125 9.125 -13.3125 9.125 -15.8125 7.125 C-15.173125 6.856875 -14.53375 6.58875 -13.875 6.3125 C-11.48118314 5.23832248 -11.48118314 5.23832248 -10.8125 2.125 C-7.15935161 0.16540708 -4.09856494 -0.0987606 0 0 Z " fill="#53D7E9" transform="translate(69.8125,154.875)"/>
<path d="M0 0 C0.33 1.32 0.66 2.64 1 4 C-1.92824652 4.97608217 -3.95613276 5.08226668 -7 5 C-7.67958603 7.39719432 -7.67958603 7.39719432 -8 10 C-5.8614515 12.1385485 -4.86724686 12.42655063 -2 13 C-2 12.01 -2 11.02 -2 10 C-2.66 10 -3.32 10 -4 10 C-4 9.01 -4 8.02 -4 7 C-2.02 7 -0.04 7 2 7 C2 9.97 2 12.94 2 16 C-1.63782632 17.21260877 -4.17735999 17.39544552 -8 17 C-10.93052231 15.00475077 -12.64521503 13.57163515 -13.4453125 10.02734375 C-13.63099028 6.71609006 -13.21285614 4.37018459 -11.5625 1.5 C-7.78106272 -0.71352426 -4.2792407 -0.32917236 0 0 Z " fill="#1C6FA6" transform="translate(205,109)"/>
<path d="M0 0 C1.65 0 3.3 0 5 0 C5.81832722 1.89332534 6.62942268 3.78977733 7.4375 5.6875 C8.11619141 7.27111328 8.11619141 7.27111328 8.80859375 8.88671875 C9.85447455 11.61972529 10.53520748 14.12042337 11 17 C9.35 17 7.7 17 6 17 C6 16.01 6 15.02 6 14 C3.02934491 14.34227572 3.02934491 14.34227572 0 15 C-0.33 15.66 -0.66 16.32 -1 17 C-2.65 17 -4.3 17 -6 17 C-5.37942344 14.91534475 -4.7533655 12.83232072 -4.125 10.75 C-3.77695313 9.58984375 -3.42890625 8.4296875 -3.0703125 7.234375 C-2.21467611 4.64872928 -1.3062454 2.37713126 0 0 Z " fill="#1C72A6" transform="translate(177,80)"/>
<path d="M0 0 C0.33 0.66 0.66 1.32 1 2 C-0.1875 3.5 -0.1875 3.5 -2 5 C-4.6875 5.1875 -4.6875 5.1875 -7 5 C-7 6.65 -7 8.3 -7 10 C-6.01 10 -5.02 10 -4 10 C-4.33 8.68 -4.66 7.36 -5 6 C-2.69 6 -0.38 6 2 6 C2.09765625 12.15234375 2.09765625 12.15234375 2 14 C0.34905878 15.65094122 -1.54485937 15.28867693 -3.8125 15.375 C-7.55621773 15.32672857 -8.63375577 15.28107115 -11.6875 12.9375 C-13.42344629 9.05228687 -13.25178768 7.04990133 -12 3 C-8.24526879 -1.41733083 -5.46299055 -1.47080515 0 0 Z " fill="#2E7BA8" transform="translate(134,137)"/>
<path d="M0 0 C1.22589844 0.15275391 1.22589844 0.15275391 2.4765625 0.30859375 C3.41628906 0.43427734 3.41628906 0.43427734 4.375 0.5625 C4.045 2.2125 3.715 3.8625 3.375 5.5625 C2.240625 5.541875 1.10625 5.52125 -0.0625 5.5 C-3.44075674 5.14672523 -3.44075674 5.14672523 -4.625 6.5625 C-4.79166667 9.0625 -4.79166667 9.0625 -4.625 11.5625 C-3.44075674 12.97827477 -3.44075674 12.97827477 -0.0625 12.625 C1.6390625 12.5940625 1.6390625 12.5940625 3.375 12.5625 C4.035 13.8825 4.695 15.2025 5.375 16.5625 C1.95942978 18.66438936 -0.64673 19.0496351 -4.625 18.5625 C-7.32490662 16.76256226 -9.1668865 15.478727 -10.625 12.5625 C-11.01947548 8.38105989 -11.07535186 6.25303952 -8.75 2.6875 C-5.60947659 -0.45302341 -4.26801865 -0.54874526 0 0 Z " fill="#2273A6" transform="translate(152.625,79.4375)"/>
<path d="M0 0 C1.258125 -0.04125 2.51625 -0.0825 3.8125 -0.125 C4.52019531 -0.14820313 5.22789062 -0.17140625 5.95703125 -0.1953125 C8 0 8 0 11 2 C11.22265625 4.0234375 11.22265625 4.0234375 11.0625 6.375 C10.83190111 9.91084969 11.19613701 11.9257121 13 15 C10.6875 15.25 10.6875 15.25 8 15 C6.1875 13 6.1875 13 5 11 C4.67 12.32 4.34 13.64 4 15 C2.68 15 1.36 15 0 15 C0 10.05 0 5.1 0 0 Z " fill="#176DA3" transform="translate(168,137)"/>
<path d="M0 0 C3.3 0 6.6 0 10 0 C10 1.65 10 3.3 10 5 C8.02 5 6.04 5 4 5 C4 5.66 4 6.32 4 7 C5.65 7 7.3 7 9 7 C9 8.32 9 9.64 9 11 C7.35 11 5.7 11 4 11 C4 11.99 4 12.98 4 14 C5.98 14 7.96 14 10 14 C10 15.32 10 16.64 10 18 C6.7 18 3.4 18 0 18 C0 12.06 0 6.12 0 0 Z " fill="#136BA4" transform="translate(160,79)"/>
<path d="M0 0 C0.60328125 0.04640625 1.2065625 0.0928125 1.828125 0.140625 C1.498125 1.130625 1.168125 2.120625 0.828125 3.140625 C0.828125 2.480625 0.828125 1.820625 0.828125 1.140625 C-0.821875 1.140625 -2.471875 1.140625 -4.171875 1.140625 C-4.36523438 1.79289062 -4.55859375 2.44515625 -4.7578125 3.1171875 C-6.15827948 7.8177648 -7.58396226 12.49903391 -9.171875 17.140625 C-7.851875 17.800625 -6.531875 18.460625 -5.171875 19.140625 C-10.781875 19.140625 -16.391875 19.140625 -22.171875 19.140625 C-22.171875 13.200625 -22.171875 7.260625 -22.171875 1.140625 C-21.841875 1.140625 -21.511875 1.140625 -21.171875 1.140625 C-21.171875 6.750625 -21.171875 12.360625 -21.171875 18.140625 C-17.871875 18.140625 -14.571875 18.140625 -11.171875 18.140625 C-11.171875 16.820625 -11.171875 15.500625 -11.171875 14.140625 C-13.151875 14.140625 -15.131875 14.140625 -17.171875 14.140625 C-17.171875 13.150625 -17.171875 12.160625 -17.171875 11.140625 C-15.521875 11.140625 -13.871875 11.140625 -12.171875 11.140625 C-12.171875 9.820625 -12.171875 8.500625 -12.171875 7.140625 C-13.821875 7.140625 -15.471875 7.140625 -17.171875 7.140625 C-17.171875 6.480625 -17.171875 5.820625 -17.171875 5.140625 C-16.264375 5.058125 -15.356875 4.975625 -14.421875 4.890625 C-11.09293108 4.45529879 -11.09293108 4.45529879 -9.359375 2.078125 C-6.30474421 -0.62740513 -3.94728348 -0.17826442 0 0 Z " fill="#E9F4F7" transform="translate(181.171875,78.859375)"/>
<path d="M0 0 C1.32 0 2.64 0 4 0 C4 3.63 4 7.26 4 11 C5.65 11 7.3 11 9 11 C9 7.37 9 3.74 9 0 C10.32 0 11.64 0 13 0 C13.10841951 1.91541138 13.18578079 3.83259773 13.25 5.75 C13.29640625 6.81734375 13.3428125 7.8846875 13.390625 8.984375 C13 12 13 12 11.17578125 14.36328125 C9 16 9 16 5.9375 16.4375 C3 16 3 16 1.328125 14.890625 C-0.65852608 12.06256876 -0.28862207 9.71694307 -0.1875 6.3125 C-0.16042969 5.13300781 -0.13335937 3.95351562 -0.10546875 2.73828125 C-0.07066406 1.83464844 -0.03585938 0.93101562 0 0 Z " fill="#1A6C9F" transform="translate(138,137)"/>
<path d="M0 0 C-0.99 0.495 -0.99 0.495 -2 1 C-1.67 2.32 -1.34 3.64 -1 5 C-2.32 5.33 -3.64 5.66 -5 6 C-6.00217064 9.58327753 -6.00217064 9.58327753 -5 13 C-2.67843403 13.40729228 -0.3431213 13.74438677 2 14 C2 15.32 2 16.64 2 18 C-4.20081967 19.33743169 -4.20081967 19.33743169 -7.8125 17.8125 C-11.09357015 15.09389902 -11.81445137 13.24582654 -12.4375 9.0625 C-11.85131947 4.9592363 -10.12521724 3.6043477 -7 1 C-4.53721199 -0.231394 -2.7204945 -0.07159196 0 0 Z " fill="#2472A2" transform="translate(133,79)"/>
<path d="M0 0 C1.98 0 3.96 0 6 0 C6 1.98 6 3.96 6 6 C8.64 6 11.28 6 14 6 C14.12375 7.2375 14.2475 8.475 14.375 9.75 C14.75746305 12.8762197 15.30549523 15.28879237 17 18 C17.66 17.34 18.32 16.68 19 16 C19 17.65 19 19.3 19 21 C15 21 15 21 12.6328125 18.875 C11.80523437 17.92625 10.97765625 16.9775 10.125 16 C9.68881348 15.50395264 9.25262695 15.00790527 8.80322266 14.49682617 C5.31892743 10.49072516 2.05815607 6.33860353 -1 2 C-0.67 1.34 -0.34 0.68 0 0 Z " fill="#49C6ED" transform="translate(26,130)"/>
<path d="M0 0 C1.32 0 2.64 0 4 0 C4.49652945 2.73091196 4.30100154 4.47783246 2.91015625 6.890625 C1.38697284 8.87843996 -0.01147933 10.47302317 -2 12 C-5.875 12.4375 -5.875 12.4375 -9 12 C-9.33 9.69 -9.66 7.38 -10 5 C-11.22976562 5.02320313 -12.45953125 5.04640625 -13.7265625 5.0703125 C-15.3593689 5.08908039 -16.9921819 5.10727949 -18.625 5.125 C-19.43324219 5.14175781 -20.24148437 5.15851563 -21.07421875 5.17578125 C-25.80093815 5.21420986 -29.55387702 4.82737094 -34 3 C-34 2.67 -34 2.34 -34 2 C-32.90171875 2.16242188 -31.8034375 2.32484375 -30.671875 2.4921875 C-25.52806102 3.13346475 -20.42726799 3.14684501 -15.25 3.125 C-14.31800781 3.12886719 -13.38601562 3.13273438 -12.42578125 3.13671875 C-11.52730469 3.13542969 -10.62882812 3.13414062 -9.703125 3.1328125 C-8.89520508 3.13168457 -8.08728516 3.13055664 -7.25488281 3.12939453 C-5.01410449 3.00080937 -3.119968 2.73923788 -1 2 C-0.67 1.34 -0.34 0.68 0 0 Z " fill="#3087E3" transform="translate(98,131)"/>
<path d="M0 0 C2.35546875 0.1640625 2.35546875 0.1640625 5 1 C6.36328125 3.3984375 6.36328125 3.3984375 7.3125 6.375 C7.63863281 7.35210937 7.96476563 8.32921875 8.30078125 9.3359375 C9 12 9 12 9 15 C7.68 15 6.36 15 5 15 C4.67 14.34 4.34 13.68 4 13 C1.47266765 12.34444881 1.47266765 12.34444881 -1 12 C-1 12.99 -1 13.98 -1 15 C-2.32 15 -3.64 15 -5 15 C-4.43174347 9.45949887 -2.37113483 4.96284034 0 0 Z " fill="#1A6FA2" transform="translate(157,137)"/>
<path d="M0 0 C1.98 0 3.96 0 6 0 C6.33 0.99 6.66 1.98 7 3 C7.66 3.33 8.32 3.66 9 4 C9.33 2.68 9.66 1.36 10 0 C11.65 0 13.3 0 15 0 C13.94124926 3.40312738 12.99097846 6.01353231 11 9 C10.54860541 11.0492094 10.54860541 11.0492094 10.375 13.1875 C10.25125 14.445625 10.1275 15.70375 10 17 C8.35 17 6.7 17 5 17 C4.97421875 16.443125 4.9484375 15.88625 4.921875 15.3125 C4.47626831 9.31706452 2.94927498 5.23258464 0 0 Z " fill="#1B6EA1" transform="translate(121,109)"/>
<path d="M0 0 C2.39614126 -0.05425226 4.79103853 -0.09379027 7.1875 -0.125 C8.19780273 -0.15013672 8.19780273 -0.15013672 9.22851562 -0.17578125 C13.59136972 -0.21834568 15.79006362 0.31602545 20 2 C20 6.29 20 10.58 20 15 C19.01 15.33 18.02 15.66 17 16 C16.72027344 15.48050781 16.44054687 14.96101563 16.15234375 14.42578125 C12.20718425 7.56297967 7.57964284 3.52654761 0 1 C0 0.67 0 0.34 0 0 Z " fill="#3078A7" transform="translate(85,74)"/>
<path d="M0 0 C0.33 1.32 0.66 2.64 1 4 C-0.98 4.99 -0.98 4.99 -3 6 C-2.175 6.391875 -1.35 6.78375 -0.5 7.1875 C2 9 2 9 2.5625 11.5 C2 14 2 14 0.3125 15.875 C-2.61922354 17.30124388 -3.95326554 17.04230389 -7 16 C-7.66 15.34 -8.32 14.68 -9 14 C-8.01 13.01 -7.02 12.02 -6 11 C-5.01 11.66 -4.02 12.32 -3 13 C-4.2375 11.9171875 -4.2375 11.9171875 -5.5 10.8125 C-8 8 -8 8 -8.5 5.375 C-7.431301 0.29867977 -4.88082299 -0.3957424 0 0 Z " fill="#2A77A8" transform="translate(206,136)"/>
<path d="M0 0 C4.50289035 1.25662056 7.5433334 2.83961911 11 6 C12.4783226 8.95664519 12.06032783 11.74229737 12 15 C7.125 11.125 7.125 11.125 6 10 C6.99 11.65 7.98 13.3 9 15 C5.08774328 13.73115998 2.9050331 12.71481455 1 9 C0.46793566 6.00907524 0.18779129 3.03056291 0 0 Z " fill="#7FB72A" transform="translate(76,83)"/>
<path d="M0 0 C0.66 0.33 1.32 0.66 2 1 C1.40380045 5.86896303 0.43023178 10.32790951 -1 15 C-1.33 14.34 -1.66 13.68 -2 13 C-3.11375 13.20625 -4.2275 13.4125 -5.375 13.625 C-6.57125 13.74875 -7.7675 13.8725 -9 14 C-11 12 -11 12 -11.25 9.5 C-11 7 -11 7 -9 5 C-5.375 5.375 -5.375 5.375 -2 6 C-1.34 4.02 -0.68 2.04 0 0 Z " fill="#E1F3F6" transform="translate(158,79)"/>
<path d="M0 0 C0.66 0.99 1.32 1.98 2 3 C1.125 6.1875 1.125 6.1875 0 9 C0.66 9 1.32 9 2 9 C2.04898438 9.78246094 2.09796875 10.56492187 2.1484375 11.37109375 C2.22320312 12.38300781 2.29796875 13.39492187 2.375 14.4375 C2.44460937 15.44683594 2.51421875 16.45617187 2.5859375 17.49609375 C2.72257812 18.32238281 2.85921875 19.14867188 3 20 C3.66 20.33 4.32 20.66 5 21 C4.67 21.99 4.34 22.98 4 24 C2.02 24.33 0.04 24.66 -2 25 C-2.33 24.34 -2.66 23.68 -3 23 C-2.34 23 -1.68 23 -1 23 C-1 19.7 -1 16.4 -1 13 C-1.66 13 -2.32 13 -3 13 C-3 12.34 -3 11.68 -3 11 C-3.99 10.67 -4.98 10.34 -6 10 C-5.34 9.67 -4.68 9.34 -4 9 C-3.28752268 7.3523962 -2.62599617 5.68236471 -2 4 C-1.34786461 2.65949948 -0.68620031 1.32338632 0 0 Z " fill="#1E6EA0" transform="translate(102,105)"/>
<path d="M0 0 C1.98 0 3.96 0 6 0 C6 0.33 6 0.66 6 1 C4.35 1 2.7 1 1 1 C1.33 2.32 1.66 3.64 2 5 C2.66 5 3.32 5 4 5 C4.33 5.66 4.66 6.32 5 7 C7.64 7 10.28 7 13 7 C13.66 8.32 14.32 9.64 15 11 C14.278125 10.814375 13.55625 10.62875 12.8125 10.4375 C9.86017948 9.97825014 7.88699336 10.37578522 5 11 C4.34 10.67 3.68 10.34 3 10 C3.33 11.32 3.66 12.64 4 14 C2.25 13.9375 2.25 13.9375 0 13 C-2.44727466 9.7838181 -4 7.07605096 -4 3 C-2.68 2.67 -1.36 2.34 0 2 C0 1.34 0 0.68 0 0 Z " fill="#ECF9EE" transform="translate(73,96)"/>
<path d="M0 0 C1.24703266 3.74109799 0.45460854 4.44429023 -1 8 C-1.3813074 10.32597511 -1.72460254 12.65912158 -2 15 C-0.02 14.67 1.96 14.34 4 14 C4.103125 13.236875 4.20625 12.47375 4.3125 11.6875 C5.0690983 8.72988846 5.81772825 8.00769001 8 6 C8.69317518 4.68025366 9.36326877 3.34788559 10 2 C10.76258253 9.96475086 9.07063514 15.16714816 5 22 C3.9375 20.125 3.9375 20.125 3 18 C3.33 17.34 3.66 16.68 4 16 C1.69 16 -0.62 16 -3 16 C-4.64451156 9.5589964 -3.05498079 5.78217394 0 0 Z " fill="#CBE1CC" transform="translate(94,90)"/>
<path d="M0 0 C0.33 0.66 0.66 1.32 1 2 C1.66 2 2.32 2 3 2 C3 1.34 3 0.68 3 0 C6.3 0 9.6 0 13 0 C13 0.33 13 0.66 13 1 C10.69 1 8.38 1 6 1 C6 5.95 6 10.9 6 16 C7.32 16.33 8.64 16.66 10 17 C6.7 17 3.4 17 0 17 C1.32 16.67 2.64 16.34 4 16 C2.35 11.05 0.7 6.1 -1 1 C-0.67 0.67 -0.34 0.34 0 0 Z " fill="#D7E5E9" transform="translate(162,136)"/>
<path d="M0 0 C6.30455334 0.11258131 9.87366788 1.53268408 14.5 5.87890625 C17.01375693 9.43351565 16.67917137 12.84007537 16 17 C14.68 17.33 13.36 17.66 12 18 C12.33 17.34 12.66 16.68 13 16 C13.0689472 14.62657169 13.08467708 13.24997898 13.0625 11.875 C13.041875 10.59625 13.02125 9.3175 13 8 C10.04335481 6.5216774 7.25770263 6.93967217 4 7 C3.67 6.01 3.34 5.02 3 4 C2.34 4 1.68 4 1 4 C0.67 2.68 0.34 1.36 0 0 Z " fill="#98D240" transform="translate(74,97)"/>
<path d="M0 0 C-1 2 -2 4 -3 6 C-2.34 6.33 -1.68 6.66 -1 7 C-2.98 7.99 -2.98 7.99 -5 9 C0.445 8.505 0.445 8.505 6 8 C5 10 5 10 3.4375 10.625 C-1.79810541 11.43047776 -6.00621015 12.01360788 -10.5 9 C-11.325 8.34 -12.15 7.68 -13 7 C-12.360625 6.731875 -11.72125 6.46375 -11.0625 6.1875 C-8.66868314 5.11332248 -8.66868314 5.11332248 -8 2 C-5.10441559 0.5522078 -3.25811062 0 0 0 Z " fill="#5FE4F2" transform="translate(67,155)"/>
<path d="M0 0 C2.31 0.33 4.62 0.66 7 1 C7 5.95 7 10.9 7 16 C8.98 16 10.96 16 13 16 C13 16.33 13 16.66 13 17 C8.71 17 4.42 17 0 17 C1.32 16.34 2.64 15.68 4 15 C3.34 14.01 2.68 13.02 2 12 C1.8046875 9.73828125 1.8046875 9.73828125 1.875 7.3125 C1.89304688 6.50425781 1.91109375 5.69601563 1.9296875 4.86328125 C1.95289063 4.24839844 1.97609375 3.63351563 2 3 C1.34 2.67 0.68 2.34 0 2 C0 1.34 0 0.68 0 0 Z " fill="#DBE8EB" transform="translate(176,136)"/>
<path d="M0 0 C-0.33 2.97 -0.66 5.94 -1 9 C-2.98 9 -4.96 9 -7 9 C-7 9.99 -7 10.98 -7 12 C-6.34 12 -5.68 12 -5 12 C-5 12.99 -5 13.98 -5 15 C-9.75 14.25 -9.75 14.25 -12 12 C-11.44444444 7.44444444 -11.44444444 7.44444444 -10 6 C-7.66702567 5.95907063 -5.33294775 5.95758277 -3 6 C-3 5.01 -3 4.02 -3 3 C-5.31 2.67 -7.62 2.34 -10 2 C-6.3558226 -0.4294516 -4.28758728 -0.16179575 0 0 Z " fill="#D6EBEF" transform="translate(208,107)"/>
<path d="M0 0 C1.32 0 2.64 0 4 0 C4.06058594 0.91523438 4.12117187 1.83046875 4.18359375 2.7734375 C4.26738281 3.96195313 4.35117188 5.15046875 4.4375 6.375 C4.51871094 7.55835938 4.59992188 8.74171875 4.68359375 9.9609375 C4.81084936 12.91518901 4.81084936 12.91518901 6 15 C4.35 15 2.7 15 1 15 C1.33 12.03 1.66 9.06 2 6 C-0.31 6 -2.62 6 -5 6 C-4.34 7.65 -3.68 9.3 -3 11 C-4.65 10.67 -6.3 10.34 -8 10 C-8.042721 8.33388095 -8.04063832 6.66617115 -8 5 C-7 4 -7 4 -3.9375 3.9375 C-2.4834375 3.9684375 -2.4834375 3.9684375 -1 4 C-0.67 2.68 -0.34 1.36 0 0 Z " fill="#EBF7F7" transform="translate(134,137)"/>
<path d="M0 0 C0.70125 0.53625 1.4025 1.0725 2.125 1.625 C1.875 4.5 1.875 4.5 1.125 7.625 C-1.73411239 9.79398181 -3.15943578 9.625 -6.875 9.625 C-6.875 6.985 -6.875 4.345 -6.875 1.625 C-7.535 1.295 -8.195 0.965 -8.875 0.625 C-3.58269231 -1.71346154 -3.58269231 -1.71346154 0 0 Z " fill="#2577AD" transform="translate(193.875,138.375)"/>
<path d="M0 0 C3.63 0.66 7.26 1.32 11 2 C10.01 3.32 9.02 4.64 8 6 C8.66 6.33 9.32 6.66 10 7 C8.35 7.33 6.7 7.66 5 8 C5 8.66 5 9.32 5 10 C2.36 9.34 -0.28 8.68 -3 8 C-2.01 7.67 -1.02 7.34 0 7 C0 4.69 0 2.38 0 0 Z " fill="#2E92E1" transform="translate(48,121)"/>
<path d="M0 0 C0.33 1.32 0.66 2.64 1 4 C5.64586892 3.51515724 5.64586892 3.51515724 10 2 C7.03846154 11.30769231 7.03846154 11.30769231 3 14 C2.01 13.67 1.02 13.34 0 13 C0 8.71 0 4.42 0 0 Z " fill="#F5FBF2" transform="translate(90,102)"/>
<path d="M0 0 C1.32 0 2.64 0 4 0 C4 5.28 4 10.56 4 16 C2.68 15.67 1.36 15.34 0 15 C0 14.34 0 13.68 0 13 C-0.66 13 -1.32 13 -2 13 C-2.33 12.01 -2.66 11.02 -3 10 C-2.34 10 -1.68 10 -1 10 C-0.67 6.7 -0.34 3.4 0 0 Z " fill="#116CA2" transform="translate(185,109)"/>
<path d="M0 0 C3.2936734 4.9405101 1.79701173 10.30073361 1 16 C0.16262065 19.72413447 -0.84133803 23.36369607 -2 27 C-4.58334616 23.12498076 -3.64961611 21.46611074 -3 17 C-3.66 16.34 -4.32 15.68 -5 15 C-4.625 12.375 -4.625 12.375 -4 10 C-2.02 10.495 -2.02 10.495 0 11 C0 7.37 0 3.74 0 0 Z " fill="#1F637E" transform="translate(111,96)"/>
<path d="M0 0 C2.5625 0.1875 2.5625 0.1875 4.5625 2.1875 C3.99431818 7.75568182 3.99431818 7.75568182 2.5625 9.1875 C0.125 9.4375 0.125 9.4375 -2.4375 9.1875 C-4.4375 6.1875 -4.4375 6.1875 -4.125 3.5625 C-3.16420807 0.24340062 -3.16420807 0.24340062 0 0 Z " fill="#E1EEF1" transform="translate(130.4375,83.8125)"/>
<path d="M0 0 C0.33 0 0.66 0 1 0 C1 5.28 1 10.56 1 16 C1.99 16 2.98 16 4 16 C4 13.36 4 10.72 4 8 C5.32 7.67 6.64 7.34 8 7 C8 6.01 8 5.02 8 4 C9.32 5.65 10.64 7.3 12 9 C11.33333333 10.33333333 10.66666667 11.66666667 10 13 C10.66 13 11.32 13 12 13 C12 13.66 12 14.32 12 15 C13.32 15.66 14.64 16.32 16 17 C13.29068581 16.84518205 11.53415961 16.51827919 9.5546875 14.59765625 C8.32320358 13.10228292 7.1570163 11.5537076 6 10 C5.67 12.31 5.34 14.62 5 17 C3.35 17 1.7 17 0 17 C0 11.39 0 5.78 0 0 Z " fill="#35769C" transform="translate(173,109)"/>
<path d="M0 0 C2.31 0.33 4.62 0.66 7 1 C6.360625 1.28875 5.72125 1.5775 5.0625 1.875 C2.84793921 2.82823451 2.84793921 2.82823451 2 5 C2.90363281 4.90460938 3.80726563 4.80921875 4.73828125 4.7109375 C6.50751953 4.54464844 6.50751953 4.54464844 8.3125 4.375 C9.48425781 4.25898437 10.65601563 4.14296875 11.86328125 4.0234375 C15 4 15 4 18 6 C12.38963576 7.62077189 8.53754923 8.55579195 3 6 C2.67 7.32 2.34 8.64 2 10 C1.01 9.67 0.02 9.34 -1 9 C-1 8.01 -1 7.02 -1 6 C-2.98 6 -4.96 6 -7 6 C-7 5.67 -7 5.34 -7 5 C-4.69 5 -2.38 5 0 5 C0 3.35 0 1.7 0 0 Z " fill="#E2F0F6" transform="translate(128,103)"/>
<path d="M0 0 C2.875 -0.125 2.875 -0.125 6 0 C6.66 0.66 7.32 1.32 8 2 C7.01 3.485 7.01 3.485 6 5 C5.83300768 8.12521833 5.83300768 8.12521833 6 11 C4.02 11.99 4.02 11.99 2 13 C-0.28571429 4.57142857 -0.28571429 4.57142857 0 0 Z " fill="#43A2ED" transform="translate(18,107)"/>
<path d="M0 0 C0.33 0 0.66 0 1 0 C1 5.61 1 11.22 1 17 C4.3 17 7.6 17 11 17 C10.731875 16.113125 10.46375 15.22625 10.1875 14.3125 C10 11 10 11 12.4375 8.125 C13.283125 7.42375 14.12875 6.7225 15 6 C16 8 16 8 15.44140625 9.9453125 C15.00634766 11.02425781 15.00634766 11.02425781 14.5625 12.125 C14.27503906 12.84945312 13.98757812 13.57390625 13.69140625 14.3203125 C13.46324219 14.87460938 13.23507813 15.42890625 13 16 C14.32 16.66 15.64 17.32 17 18 C11.39 18 5.78 18 0 18 C0 12.06 0 6.12 0 0 Z " fill="#B7D0D8" transform="translate(159,80)"/>
<path d="M0 0 C4.55555556 0.55555556 4.55555556 0.55555556 6 2 C6.1875 4.4375 6.1875 4.4375 6 7 C5.34 7.66 4.68 8.32 4 9 C-0.55555556 8.44444444 -0.55555556 8.44444444 -2 7 C-2.1875 4.5625 -2.1875 4.5625 -2 2 C-1.34 1.34 -0.68 0.68 0 0 Z " fill="#F7FAF3" transform="translate(142,113)"/>
<path d="M0 0 C1.65 0 3.3 0 5 0 C3.68 0.33 2.36 0.66 1 1 C1 6.61 1 12.22 1 18 C2.32 18.33 3.64 18.66 5 19 C0.23947038 20.97387813 -2.96488101 21.0070238 -8 20 C-8.33 19.01 -8.66 18.02 -9 17 C-9.99 16.34 -10.98 15.68 -12 15 C-10.02 15 -8.04 15 -6 15 C-6 15.99 -6 16.98 -6 18 C-4.35 17.67 -2.7 17.34 -1 17 C-0.67 11.39 -0.34 5.78 0 0 Z " fill="#B8D1DE" transform="translate(189,79)"/>
<path d="M0 0 C1.32 0 2.64 0 4 0 C4 5.61 4 11.22 4 17 C2.68 16.67 1.36 16.34 0 16 C0.33 15.34 0.66 14.68 1 14 C0.67 13.67 0.34 13.34 0 13 C0.33 12.34 0.66 11.68 1 11 C1.66 11 2.32 11 3 11 C3 10.34 3 9.68 3 9 C2.01 9.33 1.02 9.66 0 10 C0 6.7 0 3.4 0 0 Z " fill="#0C6BA1" transform="translate(202,80)"/>
<path d="M0 0 C-1.65 4.95 -3.3 9.9 -5 15 C-4.01 15.33 -3.02 15.66 -2 16 C-3.32 16 -4.64 16 -6 16 C-7.16306443 12.45049966 -6.92365049 9.44176052 -6.5625 5.75 C-6.46066406 4.67234375 -6.35882813 3.5946875 -6.25390625 2.484375 C-6.17011719 1.66453125 -6.08632812 0.8446875 -6 0 C-3 -1 -3 -1 0 0 Z " fill="#E2EEF0" transform="translate(157,137)"/>
<path d="M0 0 C1.98 0 3.96 0 6 0 C6 2.97 6 5.94 6 9 C1.545 9.495 1.545 9.495 -3 10 C-2.01 9.34 -1.02 8.68 0 8 C-0.99 7.34 -1.98 6.68 -3 6 C-1.35 6 0.3 6 2 6 C2 5.01 2 4.02 2 3 C1.34 3 0.68 3 0 3 C0 2.01 0 1.02 0 0 Z " fill="#14679A" transform="translate(201,116)"/>
<path d="M0 0 C0.66 0 1.32 0 2 0 C1.67 0.680625 1.34 1.36125 1 2.0625 C-0.45990674 6.35097604 -0.73856373 10.19975091 1 14.4375 C1.33 14.953125 1.66 15.46875 2 16 C0.02 16 -1.96 16 -4 16 C-4.33 15.01 -4.66 14.02 -5 13 C-4.67 12.34 -4.34 11.68 -4 11 C-3.85624578 7.62177584 -3.92463652 5.22609045 -5 2 C-4.360625 1.855625 -3.72125 1.71125 -3.0625 1.5625 C-1.02454854 1.18992819 -1.02454854 1.18992819 0 0 Z " fill="#E5F1F4" transform="translate(143,80)"/>
<path d="M0 0 C1.32 0.33 2.64 0.66 4 1 C3.01 2.485 3.01 2.485 2 4 C2 4.99 2 5.98 2 7 C2.66 6.67 3.32 6.34 4 6 C4 9.63 4 13.26 4 17 C2.68 17 1.36 17 0 17 C0 11.39 0 5.78 0 0 Z " fill="#0D6AA1" transform="translate(190,80)"/>
<path d="M0 0 C2.31 0 4.62 0 7 0 C7.33 0.66 7.66 1.32 8 2 C7.44570312 2.31453125 6.89140625 2.6290625 6.3203125 2.953125 C5.23363281 3.59507813 5.23363281 3.59507813 4.125 4.25 C3.40570313 4.66765625 2.68640625 5.0853125 1.9453125 5.515625 C-0.351055 7.26787329 -1.09795207 8.25627088 -2 11 C-2.24172707 14.50869414 -2.24172707 14.50869414 -2.125 18.25 C-2.10695313 19.51328125 -2.08890625 20.7765625 -2.0703125 22.078125 C-2.04710938 23.04234375 -2.02390625 24.0065625 -2 25 C-4.30055997 21.54916005 -4.27010256 20.12824272 -4.25 16.0625 C-4.25515625 15.02222656 -4.2603125 13.98195313 -4.265625 12.91015625 C-4.00629936 10.06901505 -3.46519702 8.41292366 -2 6 C-2.99 6.33 -3.98 6.66 -5 7 C-5 6.34 -5 5.68 -5 5 C-3.02 4.67 -1.04 4.34 1 4 C0.67 2.68 0.34 1.36 0 0 Z " fill="#36BFE2" transform="translate(69,72)"/>
<path d="M0 0 C1.87056791 0.2275015 3.74685958 0.40962811 5.625 0.5625 C6.62789062 0.64628906 7.63078125 0.73007813 8.6640625 0.81640625 C9.43492188 0.87699219 10.20578125 0.93757813 11 1 C11 1.33 11 1.66 11 2 C2.585 2.495 2.585 2.495 -6 3 C-6 3.33 -6 3.66 -6 4 C-7.65 4 -9.3 4 -11 4 C-11 3.34 -11 2.68 -11 2 C-12.65 2 -14.3 2 -16 2 C-11.46885114 -1.02076591 -5.11865846 -2.55932923 0 0 Z " fill="#C7E1E9" transform="translate(93,72)"/>
<path d="M0 0 C2.45468305 3.68202457 3.11683662 7.13672255 4.12109375 11.40625 C5.02280507 14.06730031 5.86069797 15.23611866 8 17 C6.35 17.33 4.7 17.66 3 18 C2.67 17.34 2.34 16.68 2 16 C1.34 16.33 0.68 16.66 0 17 C0 11.39 0 5.78 0 0 Z " fill="#CCE2EA" transform="translate(189,109)"/>
<path d="M0 0 C0 5.61 0 11.22 0 17 C-2 16 -2 16 -3.0703125 13.27734375 C-3.41835937 12.17519531 -3.76640625 11.07304688 -4.125 9.9375 C-4.47820312 8.83277344 -4.83140625 7.72804688 -5.1953125 6.58984375 C-5.46085938 5.73519531 -5.72640625 4.88054687 -6 4 C-1.125 0 -1.125 0 0 0 Z " fill="#F3FAF9" transform="translate(189,79)"/>
<path d="M0 0 C2.64 0 5.28 0 8 0 C7.0409375 0.7425 7.0409375 0.7425 6.0625 1.5 C3.18484731 4.98806387 3.29769264 7.53461041 3 12 C3.66 12.33 4.32 12.66 5 13 C3.68 13.33 2.36 13.66 1 14 C2.98 14 4.96 14 7 14 C7 14.33 7 14.66 7 15 C4.69 15 2.38 15 0 15 C0 10.05 0 5.1 0 0 Z " fill="#0E679E" transform="translate(183,137)"/>
<path d="M0 0 C2.33333333 2.33333333 4.66666667 4.66666667 7 7 C8.31747324 7.69748583 9.64914193 8.36959957 11 9 C5.47032059 9.71033431 0.50016964 10.30267176 -5 9 C-5 8.67 -5 8.34 -5 8 C-3.35 8 -1.7 8 0 8 C0 5.36 0 2.72 0 0 Z " fill="#EDF6F7" transform="translate(178,118)"/>
<path d="M0 0 C1.32 0 2.64 0 4 0 C4 3.96 4 7.92 4 12 C2.68 12.33 1.36 12.66 0 13 C-1.36421031 10.27157939 -0.87807211 8.39046682 -0.5625 5.375 C-0.40974609 3.87066406 -0.40974609 3.87066406 -0.25390625 2.3359375 C-0.17011719 1.56507812 -0.08632812 0.79421875 0 0 Z " fill="#EDF7F5" transform="translate(161,109)"/>
<path d="M0 0 C3.3 0 6.6 0 10 0 C10 1.65 10 3.3 10 5 C8.6078125 4.9071875 8.6078125 4.9071875 7.1875 4.8125 C4.01604897 4.69105736 4.01604897 4.69105736 2.125 6.5 C1.75375 6.995 1.3825 7.49 1 8 C0.67 5.36 0.34 2.72 0 0 Z " fill="#2576A8" transform="translate(160,79)"/>
<path d="M0 0 C1.32 0 2.64 0 4 0 C4 4.29 4 8.58 4 13 C2.68 13 1.36 13 0 13 C0 8.71 0 4.42 0 0 Z " fill="#106DA3" transform="translate(138,137)"/>
<path d="M0 0 C-0.33 2.31 -0.66 4.62 -1 7 C-0.34 7.45375 0.32 7.9075 1 8.375 C1.66 8.91125 2.32 9.4475 3 10 C3 10.66 3 11.32 3 12 C1.68 11.67 0.36 11.34 -1 11 C-1 11.99 -1 12.98 -1 14 C-1.99 14.33 -2.98 14.66 -4 15 C-5 12 -5 12 -4.3125 8.625 C-3.61574283 4.92189259 -3.61574283 4.92189259 -5.9375 2.0625 C-6.618125 1.381875 -7.29875 0.70125 -8 0 C-4.71303767 -0.79953138 -3.28976808 -1.09658936 0 0 Z " fill="#E4F2F3" transform="translate(200,137)"/>
<path d="M0 0 C0.598125 0.763125 1.19625 1.52625 1.8125 2.3125 C3.46959332 4.3483575 5.10297674 6.1978279 7 8 C7.33 6.68 7.66 5.36 8 4 C8.66 4 9.32 4 10 4 C9.67 7.63 9.34 11.26 9 15 C7.27473958 13.76302083 5.54947917 12.52604167 3.82421875 11.2890625 C2.2347608 10.16589093 0.61937829 9.07958553 -1 8 C0.65 8 2.3 8 4 8 C3.01 6.8553125 3.01 6.8553125 2 5.6875 C0 3 0 3 0 0 Z " fill="#C8E8A8" transform="translate(80,89)"/>
<path d="M0 0 C5.94 1.485 5.94 1.485 12 3 C6.7641958 6.92685315 3.89199635 7.150785 -2.5625 7.1875 C-3.69816406 7.20167969 -4.83382812 7.21585937 -6.00390625 7.23046875 C-9 7 -9 7 -12 5 C-7.38 5 -2.76 5 2 5 C2.33 4.01 2.66 3.02 3 2 C2.01 2 1.02 2 0 2 C0 1.34 0 0.68 0 0 Z " fill="#37BFDC" transform="translate(76,112)"/>
<path d="M0 0 C0.86625 0.556875 0.86625 0.556875 1.75 1.125 C1.42 3.765 1.09 6.405 0.75 9.125 C0.09 9.125 -0.57 9.125 -1.25 9.125 C-2.25 6.125 -2.25 6.125 -2.25 5.125 C-3.57 5.125 -4.89 5.125 -6.25 5.125 C-6.25 3.805 -6.25 2.485 -6.25 1.125 C-2.80384615 -1.09038462 -2.80384615 -1.09038462 0 0 Z " fill="#4388B3" transform="translate(177.25,137.875)"/>
<path d="M0 0 C1.98 0 3.96 0 6 0 C6.33 0.99 6.66 1.98 7 3 C7.66 3.66 8.32 4.32 9 5 C8.01 5 7.02 5 6 5 C6 8.96 6 12.92 6 17 C5.67 17 5.34 17 5 17 C4.97421875 16.443125 4.9484375 15.88625 4.921875 15.3125 C4.47626831 9.31706452 2.94927498 5.23258464 0 0 Z " fill="#337BA6" transform="translate(121,109)"/>
<path d="M0 0 C0.598125 0.20625 1.19625 0.4125 1.8125 0.625 C1.1525 0.625 0.4925 0.625 -0.1875 0.625 C0.1425 1.615 0.4725 2.605 0.8125 3.625 C0.4825 4.615 0.1525 5.605 -0.1875 6.625 C-0.52977417 7.95606622 -0.86501743 9.28900079 -1.1875 10.625 C-1.8475 10.625 -2.5075 10.625 -3.1875 10.625 C-5.02582664 7.52282379 -5.66196226 5.23091321 -5.1875 1.625 C-2.1875 -0.375 -2.1875 -0.375 0 0 Z " fill="#37DBF5" transform="translate(22.1875,67.375)"/>
<path d="M0 0 C10.55808656 -0.3690205 10.55808656 -0.3690205 15 2 C15 2.66 15 3.32 15 4 C4.27475338 4.56229448 4.27475338 4.56229448 0 1 C0 0.67 0 0.34 0 0 Z " fill="#1E78B1" transform="translate(90,74)"/>
<path d="M0 0 C1.32 0.66 2.64 1.32 4 2 C3.01 3.98 2.02 5.96 1 8 C0.01 8 -0.98 8 -2 8 C-2.33 10.64 -2.66 13.28 -3 16 C-3.33 16 -3.66 16 -4 16 C-4.47617251 9.30713088 -4.39973696 5.22468764 0 0 Z " fill="#E6F8FA" transform="translate(70,77)"/>
<path d="M0 0 C1.65 0.33 3.3 0.66 5 1 C3.60064115 4.40364888 2.12995268 5.90806188 -1 7.8125 C-1.70125 8.25207031 -2.4025 8.69164062 -3.125 9.14453125 C-3.74375 9.42683594 -4.3625 9.70914063 -5 10 C-5.66 9.67 -6.32 9.34 -7 9 C-6.67 8.34 -6.34 7.68 -6 7 C-5.01 7 -4.02 7 -3 7 C-3 6.34 -3 5.68 -3 5 C-3.66 4.67 -4.32 4.34 -5 4 C-4.360625 3.896875 -3.72125 3.79375 -3.0625 3.6875 C-2.381875 3.460625 -1.70125 3.23375 -1 3 C-0.67 2.01 -0.34 1.02 0 0 Z " fill="#3FB8CE" transform="translate(80,152)"/>
<path d="M0 0 C0.33 0.66 0.66 1.32 1 2 C1.66 2 2.32 2 3 2 C3 2.99 3 3.98 3 5 C2.34 5 1.68 5 1 5 C1 5.66 1 6.32 1 7 C0.34 7 -0.32 7 -1 7 C-0.67 9.31 -0.34 11.62 0 14 C-1.65 14 -3.3 14 -5 14 C-4.35799564 11.85301798 -3.71129254 9.70744047 -3.0625 7.5625 C-2.70285156 6.36753906 -2.34320313 5.17257813 -1.97265625 3.94140625 C-1 1 -1 1 0 0 Z " fill="#196FA2" transform="translate(176,83)"/>
<path d="M0 0 C4.95 0 9.9 0 15 0 C15.33 0.99 15.66 1.98 16 3 C13.70839681 3.02692484 11.41670454 3.04636124 9.125 3.0625 C7.84882812 3.07410156 6.57265625 3.08570312 5.2578125 3.09765625 C2 3 2 3 0 2 C0 1.34 0 0.68 0 0 Z " fill="#E2F7F8" transform="translate(91,70)"/>
<path d="M0 0 C1.11375 0.15339844 2.2275 0.30679688 3.375 0.46484375 C8.24074836 1.07306229 13.10392803 1.33311414 18 1.5625 C18.87011719 1.60568359 19.74023438 1.64886719 20.63671875 1.69335938 C22.75768219 1.79824218 24.87882433 1.89950075 27 2 C27.125 4.875 27.125 4.875 27 8 C26.34 8.66 25.68 9.32 25 10 C24.67 7.69 24.34 5.38 24 3 C22.77023438 3.02320313 21.54046875 3.04640625 20.2734375 3.0703125 C18.6406311 3.08908039 17.0078181 3.10727949 15.375 3.125 C14.56675781 3.14175781 13.75851563 3.15851563 12.92578125 3.17578125 C8.19906185 3.21420986 4.44612298 2.82737094 0 1 C0 0.67 0 0.34 0 0 Z " fill="#3395E1" transform="translate(64,133)"/>
<path d="M0 0 C4.41309542 3.15221101 7.00793014 6.55463907 10 11 C5.60618791 10.49785005 3.16580205 9.07786311 0 6 C-0.875 3.875 -0.875 3.875 -1 2 C-0.67 1.34 -0.34 0.68 0 0 Z " fill="#E9F8F8" transform="translate(32,141)"/>
<path d="M0 0 C2.375 -0.125 2.375 -0.125 5 0 C5.66 0.66 6.32 1.32 7 2 C9.06874034 2.6425235 9.06874034 2.6425235 11 3 C11 2.01 11 1.02 11 0 C11.99 0 12.98 0 14 0 C14 0.66 14 1.32 14 2 C14.66 2.33 15.32 2.66 16 3 C14.68 3 13.36 3 12 3 C12 3.99 12 4.98 12 6 C10.37433394 5.52309796 8.74948689 5.04340334 7.125 4.5625 C6.22007813 4.29566406 5.31515625 4.02882813 4.3828125 3.75390625 C2 3 2 3 0 2 C0 1.34 0 0.68 0 0 Z " fill="#E3F2F7" transform="translate(50,117)"/>
<path d="M0 0 C1.65 0.33 3.3 0.66 5 1 C5 1.66 5 2.32 5 3 C4.34 3 3.68 3 3 3 C3.33 4.65 3.66 6.3 4 8 C2.35 8.33 0.7 8.66 -1 9 C-1.125 2.25 -1.125 2.25 0 0 Z " fill="#167C05" transform="translate(93,96)"/>
<path d="M0 0 C0.99 0 1.98 0 3 0 C3 4.62 3 9.24 3 14 C2.34 14 1.68 14 1 14 C-0.04976964 10.85069107 -0.10131595 8.61185544 -0.0625 5.3125 C-0.05347656 4.31863281 -0.04445312 3.32476562 -0.03515625 2.30078125 C-0.02355469 1.54152344 -0.01195312 0.78226562 0 0 Z " fill="#126DA8" transform="translate(156,109)"/>
<path d="M0 0 C-1.32 0.33 -2.64 0.66 -4 1 C-4 3.97 -4 6.94 -4 10 C-8.875 5.375 -8.875 5.375 -10 2 C-6.3558226 -0.4294516 -4.28758728 -0.16179575 0 0 Z " fill="#DBF0F5" transform="translate(189,108)"/>
<path d="M0 0 C1.65 0 3.3 0 5 0 C5 0.66 5 1.32 5 2 C5.99 2.33 6.98 2.66 8 3 C4.5647952 5.29013653 3.014669 5.17842973 -1 5 C-1.66 3.68 -2.32 2.36 -3 1 C-2.01 1.33 -1.02 1.66 0 2 C0 1.34 0 0.68 0 0 Z " fill="#3C80A8" transform="translate(142,148)"/>
<path d="M0 0 C0.33 0.66 0.66 1.32 1 2 C0.67 2.66 0.34 3.32 0 4 C1.32 3.67 2.64 3.34 4 3 C3.34 5.31 2.68 7.62 2 10 C0.33333333 10 -1.33333333 10 -3 10 C-3.36923077 4.58461538 -3.36923077 4.58461538 -1.5 1.625 C-1.005 1.08875 -0.51 0.5525 0 0 Z " fill="#1D6A9B" transform="translate(145,81)"/>
<path d="M0 0 C2.31 0 4.62 0 7 0 C7.125 5.75 7.125 5.75 6 8 C2.66462511 6.88820837 1.36292656 5.52588702 -1 3 C-0.67 2.01 -0.34 1.02 0 0 Z " fill="#3EC9F9" transform="translate(33,136)"/>
<path d="M0 0 C1.32 0 2.64 0 4 0 C4.125 2.375 4.125 2.375 4 5 C3.34 5.66 2.68 6.32 2 7 C-0.125 6.625 -0.125 6.625 -2 6 C-2 5.34 -2 4.68 -2 4 C-2.99 3.67 -3.98 3.34 -5 3 C-4.360625 2.87625 -3.72125 2.7525 -3.0625 2.625 C-2.0415625 2.315625 -2.0415625 2.315625 -1 2 C-0.67 1.34 -0.34 0.68 0 0 Z " fill="#2E76D7" transform="translate(98,131)"/>
<path d="M0 0 C-1 2 -1 2 -2 3 C-2.07244053 5.01964199 -2.08377188 7.04167124 -2.0625 9.0625 C-2.05347656 10.16722656 -2.04445313 11.27195312 -2.03515625 12.41015625 C-2.02355469 13.26480469 -2.01195313 14.11945313 -2 15 C-2.33 15 -2.66 15 -3 15 C-3.33 11.7 -3.66 8.4 -4 5 C-6.31 4.01 -8.62 3.02 -11 2 C-10.13375 1.814375 -10.13375 1.814375 -9.25 1.625 C-6.96439949 1.08156967 -6.96439949 1.08156967 -4.9375 -0.125 C-3 -1 -3 -1 0 0 Z " fill="#DFF0F2" transform="translate(117,73)"/>
<path d="M0 0 C1.65 0.33 3.3 0.66 5 1 C5.33 2.32 5.66 3.64 6 5 C5.01 5 4.02 5 3 5 C3 6.32 3 7.64 3 9 C2.34 9 1.68 9 1 9 C1.33 7.02 1.66 5.04 2 3 C1.34 3 0.68 3 0 3 C0 3.66 0 4.32 0 5 C-0.66 4.67 -1.32 4.34 -2 4 C-1.34 2.68 -0.68 1.36 0 0 Z " fill="#3B84AF" transform="translate(157,137)"/>
<path d="M0 0 C6 2 12 4 18 6 C18 6.33 18 6.66 18 7 C11.07 6.505 11.07 6.505 4 6 C4 5.34 4 4.68 4 4 C2.68 3.34 1.36 2.68 0 2 C0 1.34 0 0.68 0 0 Z " fill="#3B90CD" transform="translate(46,117)"/>
<path d="M0 0 C-0.33 0.66 -0.66 1.32 -1 2 C-1.556875 1.814375 -2.11375 1.62875 -2.6875 1.4375 C-5.39820835 0.92466328 -7.32383562 1.43659697 -10 2 C-10.66 1.67 -11.32 1.34 -12 1 C-11.67 2.32 -11.34 3.64 -11 5 C-11.66 5 -12.32 5 -13 5 C-13.33 3.02 -13.66 1.04 -14 -1 C-12.23086176 -1.22226864 -10.45955629 -1.42733873 -8.6875 -1.625 C-7.70136719 -1.74101563 -6.71523437 -1.85703125 -5.69921875 -1.9765625 C-3 -2 -3 -2 0 0 Z " fill="#F2F6E2" transform="translate(88,105)"/>
<path d="M0 0 C2.3431213 0.25561323 4.67843403 0.59270772 7 1 C7.33 1.66 7.66 2.32 8 3 C13.445 2.505 13.445 2.505 19 2 C18 4 18 4 16.4375 4.625 C11.24141855 5.42439715 6.99498379 6.00234722 2.5 3.0625 C1.675 2.381875 0.85 1.70125 0 1 C0 0.67 0 0.34 0 0 Z " fill="#75DEE4" transform="translate(54,161)"/>
<path d="M0 0 C3.45925163 1.2491742 6.14693203 2.67527795 9 5 C9.33 4.34 9.66 3.68 10 3 C13.0625 2.375 13.0625 2.375 16 2 C13.8125 4.5625 13.8125 4.5625 11 7 C7.3716382 7.18606984 5.41264108 5.68778932 2.6875 3.5 C1.800625 2.675 0.91375 1.85 0 1 C0 0.67 0 0.34 0 0 Z " fill="#50D6EB" transform="translate(45,154)"/>
<path d="M0 0 C2.475 0.495 2.475 0.495 5 1 C5 2.65 5 4.3 5 6 C3.35 6.33 1.7 6.66 0 7 C0 4.69 0 2.38 0 0 Z " fill="#EAF6F7" transform="translate(187,141)"/>
<path d="M0 0 C2.31 0 4.62 0 7 0 C5.02 0.99 5.02 0.99 3 2 C3.04125 2.721875 3.0825 3.44375 3.125 4.1875 C2.99078695 7.20729369 2.24829381 9.26935729 1 12 C0.67 12 0.34 12 0 12 C0 8.04 0 4.08 0 0 Z " fill="#0A6AA5" transform="translate(168,137)"/>
<path d="M0 0 C2.04371546 1.677033 2.92353251 2.53872837 3.36328125 5.19140625 C3.34652344 5.97386719 3.32976562 6.75632812 3.3125 7.5625 C3.30863281 8.34753906 3.30476563 9.13257812 3.30078125 9.94140625 C3 12 3 12 1 14 C0 13 0 13 -0.09765625 10.05859375 C-0.08605469 8.86363281 -0.07445313 7.66867188 -0.0625 6.4375 C-0.05347656 5.23996094 -0.04445313 4.04242188 -0.03515625 2.80859375 C-0.02355469 1.88175781 -0.01195313 0.95492187 0 0 Z " fill="#EEF8F5" transform="translate(123,114)"/>
<path d="M0 0 C0.66 0 1.32 0 2 0 C2 0.66 2 1.32 2 2 C4.64 2 7.28 2 10 2 C10 2.33 10 2.66 10 3 C8.35 3 6.7 3 5 3 C5 3.99 5 4.98 5 6 C4.34 6 3.68 6 3 6 C2.67 6.66 2.34 7.32 2 8 C0.68 6.35 -0.64 4.7 -2 3 C-1.34 2.01 -0.68 1.02 0 0 Z " fill="#E1EFF4" transform="translate(150,106)"/>
<path d="M0 0 C0.66 0.33 1.32 0.66 2 1 C1.40380045 5.86896303 0.43023178 10.32790951 -1 15 C-3.1385485 12.8614515 -3.42655063 11.86724686 -4 9 C-3.34 9 -2.68 9 -2 9 C-1.7834375 7.0509375 -1.7834375 7.0509375 -1.5625 5.0625 C-1.125 1.125 -1.125 1.125 0 0 Z " fill="#E3F2F2" transform="translate(158,79)"/>
<path d="M0 0 C-0.99 1.485 -0.99 1.485 -2 3 C-4.31 2.34 -6.62 1.68 -9 1 C-9.33 1.66 -9.66 2.32 -10 3 C-11.65 2.67 -13.3 2.34 -15 2 C-15 1.67 -15 1.34 -15 1 C-13.25559202 0.44058641 -11.50414743 -0.09691897 -9.75 -0.625 C-8.77546875 -0.92664063 -7.8009375 -1.22828125 -6.796875 -1.5390625 C-3.68321539 -2.05220752 -2.58430745 -1.71056541 0 0 Z " fill="#DEECEF" transform="translate(180,107)"/>
<path d="M0 0 C0.33 0.66 0.66 1.32 1 2 C3.02463255 2.65213292 3.02463255 2.65213292 5 3 C5 3.66 5 4.32 5 5 C5.66 5.66 6.32 6.32 7 7 C5.35 7.33 3.7 7.66 2 8 C0.68 6.35 -0.64 4.7 -2 3 C-1.34 2.01 -0.68 1.02 0 0 Z " fill="#1F76A8" transform="translate(144,89)"/>
<path d="M0 0 C1.98 0 3.96 0 6 0 C5.67 2.31 5.34 4.62 5 7 C3 6 1 5 -1 4 C-0.67 2.68 -0.34 1.36 0 0 Z " fill="#F7FBF9" transform="translate(150,85)"/>
<path d="M0 0 C1.32 0.33 2.64 0.66 4 1 C3.04578192 2.14926266 2.08647955 3.29430541 1.125 4.4375 C0.59132813 5.07558594 0.05765625 5.71367187 -0.4921875 6.37109375 C-2 8 -2 8 -4 9 C-4 6.69 -4 4.38 -4 2 C-2.68 2 -1.36 2 0 2 C0 1.34 0 0.68 0 0 Z " fill="#48A4D4" transform="translate(92,142)"/>
<path d="M0 0 C1.4540625 0.0309375 1.4540625 0.0309375 2.9375 0.0625 C2.6075 2.0425 2.2775 4.0225 1.9375 6.0625 C0.0625 5.8125 0.0625 5.8125 -2.0625 5.0625 C-3.3125 3 -3.3125 3 -4.0625 1.0625 C-3.0625 0.0625 -3.0625 0.0625 0 0 Z " fill="#45CDF4" transform="translate(29.0625,129.9375)"/>
<path d="M0 0 C2 3 2 3 2 7 C2.66 7 3.32 7 4 7 C4 6.34 4 5.68 4 5 C4.66 5.33 5.32 5.66 6 6 C6.625 9.0625 6.625 9.0625 7 12 C2.4137931 10.55172414 2.4137931 10.55172414 0.6875 8.25 C-0.17450101 5.42890579 -0.13329111 2.93240449 0 0 Z " fill="#2B77A2" transform="translate(121,85)"/>
<path d="M0 0 C3.36591866 1.44253657 5.51047079 3.33264727 8 6 C5.25 6.75 5.25 6.75 2 7 C-0.375 5.0625 -0.375 5.0625 -2 3 C-1.34 3 -0.68 3 0 3 C0 2.01 0 1.02 0 0 Z " fill="#2376AB" transform="translate(195,119)"/>
<path d="M0 0 C2.46800047 1.15173355 4.04783565 2.04783565 6 4 C6.1953125 6.1640625 6.1953125 6.1640625 6.125 8.625 C6.10695313 9.44226563 6.08890625 10.25953125 6.0703125 11.1015625 C6.03550781 12.04128906 6.03550781 12.04128906 6 13 C4.68 13.33 3.36 13.66 2 14 C2.33 13.34 2.66 12.68 3 12 C3.48445696 6.4604157 3.48445696 6.4604157 1.5 1.5 C1.005 1.005 0.51 0.51 0 0 Z " fill="#98CB4F" transform="translate(84,101)"/>
<path d="M0 0 C3 1 3 1 4 3 C4.39296854 8.30507531 4.32393895 9.56808139 1 14 C0.67 9.38 0.34 4.76 0 0 Z " fill="#F7FBFA" transform="translate(99,87)"/>
<path d="M0 0 C5.78898419 -0.20674944 10.42932723 0.40837921 16 2 C13.45516609 3.66392986 12.20088697 4.01746843 9.125 3.75 C6.00639568 3.00153496 3.01940244 2.07835802 0 1 C0 0.67 0 0.34 0 0 Z " fill="#27BFE3" transform="translate(80,60)"/>
<path d="M0 0 C0.99 0.33 1.98 0.66 3 1 C2.34 1 1.68 1 1 1 C1 3.64 1 6.28 1 9 C-0.32 9 -1.64 9 -3 9 C-2.4140625 2.84765625 -2.4140625 2.84765625 -2 1 C-1.34 0.67 -0.68 0.34 0 0 Z " fill="#2272A1" transform="translate(171,143)"/>
<path d="M0 0 C1.65 0 3.3 0 5 0 C5.33 1.32 5.66 2.64 6 4 C2.71023192 5.09658936 1.28696233 4.79953138 -2 4 C-1.34 2.68 -0.68 1.36 0 0 Z " fill="#2F7AA6" transform="translate(201,136)"/>
<path d="M0 0 C2 2 2 2 2 5 C1.34 5 0.68 5 0 5 C-0.66 6.32 -1.32 7.64 -2 9 C-2.66 9 -3.32 9 -4 9 C-4 7.35 -4 5.7 -4 4 C-3.34 4 -2.68 4 -2 4 C-2 3.34 -2 2.68 -2 2 C-1.34 2 -0.68 2 0 2 C0 1.34 0 0.68 0 0 Z " fill="#478EB8" transform="translate(179,86)"/>
<path d="M0 0 C1.98 0 3.96 0 6 0 C6 0.66 6 1.32 6 2 C6.99 2.33 7.98 2.66 9 3 C2.73 3 -3.54 3 -10 3 C-10 2.67 -10 2.34 -10 2 C-6.7 1.67 -3.4 1.34 0 1 C0 0.67 0 0.34 0 0 Z " fill="#17C5F8" transform="translate(98,66)"/>
<path d="M0 0 C1.65 0 3.3 0 5 0 C5.33 3.3 5.66 6.6 6 10 C5.01 10.33 4.02 10.66 3 11 C3.0928125 9.88625 3.0928125 9.88625 3.1875 8.75 C2.96709928 5.51745608 2.02264742 4.4440323 0 2 C0 1.34 0 0.68 0 0 Z " fill="#1C709E" transform="translate(99,79)"/>
<path d="M0 0 C0.33 1.32 0.66 2.64 1 4 C2.0725 3.67 3.145 3.34 4.25 3 C8 2 8 2 12 2 C11.0625 4.0625 11.0625 4.0625 9 6 C5.92889402 6.05989746 3.00988272 5.58052245 0 5 C0 3.35 0 1.7 0 0 Z " fill="#1F78B1" transform="translate(184,146)"/>
<path d="M0 0 C4.62 0 9.24 0 14 0 C13.67 0.99 13.34 1.98 13 3 C8.02398374 4.71050559 4.57383705 3.00885647 0 1 C0 0.67 0 0.34 0 0 Z " fill="#2D86C3" transform="translate(64,124)"/>
<path d="M0 0 C2.375 -0.125 2.375 -0.125 5 0 C5.66 0.66 6.32 1.32 7 2 C6.625 5.125 6.625 5.125 6 8 C5.01 8.33 4.02 8.66 3 9 C3.33 6.36 3.66 3.72 4 1 C2.68 0.67 1.36 0.34 0 0 Z " fill="#D7ECEF" transform="translate(128,84)"/>
<path d="M0 0 C4.875 3.625 4.875 3.625 6 7 C5.67 7.33 5.34 7.66 5 8 C4.95936168 9.66617115 4.957279 11.33388095 5 13 C3.47700477 10.06279492 2.19899698 7.0831351 1 4 C0.01 4.495 0.01 4.495 -1 5 C-0.67 3.35 -0.34 1.7 0 0 Z " fill="#D8ECDF" transform="translate(95,80)"/>
<path d="M0 0 C0.66 0 1.32 0 2 0 C2 0.66 2 1.32 2 2 C2.66 2 3.32 2 4 2 C4 2.66 4 3.32 4 4 C3.01 4 2.02 4 1 4 C1 5.32 1 6.64 1 8 C-0.32 8 -1.64 8 -3 8 C-3 7.34 -3 6.68 -3 6 C-2.34 6 -1.68 6 -1 6 C-1.0309375 4.7934375 -1.0309375 4.7934375 -1.0625 3.5625 C-1 1 -1 1 0 0 Z " fill="#48CEDE" transform="translate(73,155)"/>
<path d="M0 0 C1.0625 1.875 1.0625 1.875 2 4 C1.67 4.66 1.34 5.32 1 6 C0.34 6 -0.32 6 -1 6 C-1 6.66 -1 7.32 -1 8 C-2.32 7.34 -3.64 6.68 -5 6 C-3.35 4.02 -1.7 2.04 0 0 Z " fill="#EAF4F5" transform="translate(101,136)"/>
<path d="M0 0 C2.3431213 0.25561323 4.67843403 0.59270772 7 1 C7.33 1.66 7.66 2.32 8 3 C7.01 3.99 6.02 4.98 5 6 C3.0625 5.25 3.0625 5.25 1 4 C0.25 1.875 0.25 1.875 0 0 Z " fill="#4287AE" transform="translate(127,136)"/>
<path d="M0 0 C2.18975773 3.28463659 2.99806563 6.20696275 4 10 C3.34 10 2.68 10 2 10 C0.375 8 0.375 8 -1 6 C-1.99 6.495 -1.99 6.495 -3 7 C-1.125 2.25 -1.125 2.25 0 0 Z " fill="#ECF3F4" transform="translate(20,120)"/>
<path d="M0 0 C2.1875 0.3125 2.1875 0.3125 4 1 C4.625 2.8125 4.625 2.8125 5 5 C4.01 6.485 4.01 6.485 3 8 C2.34 8 1.68 8 1 8 C1.33 6.68 1.66 5.36 2 4 C0.35 3.67 -1.3 3.34 -3 3 C-1.75 1.4375 -1.75 1.4375 0 0 Z " fill="#2C7BAE" transform="translate(148,111)"/>
<path d="M0 0 C1.793259 2.6898885 3.46745549 5.41291463 5.125 8.1875 C5.66382812 9.08855469 6.20265625 9.98960938 6.7578125 10.91796875 C7.16773437 11.60503906 7.57765625 12.29210937 8 13 C5.125 12.4375 5.125 12.4375 2 11 C0.40835609 7.09323769 0 4.22147671 0 0 Z " fill="#3AC5DF" transform="translate(68,99)"/>
<path d="M0 0 C1.21236328 0.02707031 1.21236328 0.02707031 2.44921875 0.0546875 C3.37154297 0.08949219 3.37154297 0.08949219 4.3125 0.125 C3.9825 1.115 3.6525 2.105 3.3125 3.125 C3.3125 2.465 3.3125 1.805 3.3125 1.125 C1.6625 1.125 0.0125 1.125 -1.6875 1.125 C-1.6875 1.785 -1.6875 2.445 -1.6875 3.125 C-3.6675 3.785 -5.6475 4.445 -7.6875 5.125 C-7.6875 4.135 -7.6875 3.145 -7.6875 2.125 C-4.48369983 -0.01086678 -3.66810033 -0.10632175 0 0 Z " fill="#D3E3E7" transform="translate(178.6875,78.875)"/>
<path d="M0 0 C0.99 0 1.98 0 3 0 C3.33 2.64 3.66 5.28 4 8 C2.02 7.34 0.04 6.68 -2 6 C-1.34 4.02 -0.68 2.04 0 0 Z " fill="#49DDF9" transform="translate(45,147)"/>
<path d="M0 0 C3.3 0.33 6.6 0.66 10 1 C8.515 3.475 8.515 3.475 7 6 C6.67 5.01 6.34 4.02 6 3 C4.02 3.33 2.04 3.66 0 4 C0 2.68 0 1.36 0 0 Z " fill="#2B72B9" transform="translate(96,128)"/>
<path d="M0 0 C0.66 0.99 1.32 1.98 2 3 C1.125 6.6875 1.125 6.6875 0 10 C-0.66 10 -1.32 10 -2 10 C-3.06351675 6.61608307 -3.21442982 5.4195366 -1.5625 2.1875 C-1.046875 1.465625 -0.53125 0.74375 0 0 Z " fill="#2D7BAA" transform="translate(102,105)"/>
<path d="M0 0 C-5.61036424 1.62077189 -9.46245077 2.55579195 -15 0 C-15 -0.33 -15 -0.66 -15 -1 C-9.60900529 -2.30690781 -4.75492505 -3.16995003 0 0 Z " fill="#C2DEEA" transform="translate(146,109)"/>
<path d="M0 0 C1.32 0.33 2.64 0.66 4 1 C3.67 3.31 3.34 5.62 3 8 C2.34 8 1.68 8 1 8 C0.67 5.36 0.34 2.72 0 0 Z " fill="#106DA8" transform="translate(122,84)"/>
<path d="M0 0 C1.65 0 3.3 0 5 0 C5.66 1.65 6.32 3.3 7 5 C6.01 4.67 5.02 4.34 4 4 C3.67 4.66 3.34 5.32 3 6 C2.01 6 1.02 6 0 6 C0.185625 5.38125 0.37125 4.7625 0.5625 4.125 C1.23686176 1.95839822 1.23686176 1.95839822 0 0 Z " fill="#FCFDF7" transform="translate(87,80)"/>
<path d="M0 0 C0.66 0.99 1.32 1.98 2 3 C1.34 4.32 0.68 5.64 0 7 C-1.65 6.67 -3.3 6.34 -5 6 C-3.35 4.02 -1.7 2.04 0 0 Z " fill="#3A87B9" transform="translate(97,112)"/>
<path d="M0 0 C1.32 0.33 2.64 0.66 4 1 C4 2.98 4 4.96 4 7 C2.02 7.99 2.02 7.99 0 9 C0 6.03 0 3.06 0 0 Z " fill="#3AA0FD" transform="translate(20,111)"/>
<path d="M0 0 C3.3 0 6.6 0 10 0 C9.67 1.32 9.34 2.64 9 4 C4.545 3.01 4.545 3.01 0 2 C0 1.34 0 0.68 0 0 Z " fill="#3D81A9" transform="translate(160,79)"/>
<path d="M0 0 C1.2077558 3.62326739 0.54311128 4.64146369 -1 8 C-1.99 7.67 -2.98 7.34 -4 7 C-3.43628586 3.73045798 -2.50037734 2.17424117 0 0 Z " fill="#F2F9F7" transform="translate(87,152)"/>
<path d="M0 0 C0.33 0 0.66 0 1 0 C1 3.63 1 7.26 1 11 C-0.65 11 -2.3 11 -4 11 C-3.67 10.01 -3.34 9.02 -3 8 C-2.01 8 -1.02 8 0 8 C0 5.36 0 2.72 0 0 Z " fill="#D4EAEF" transform="translate(146,137)"/>
<path d="M0 0 C1.32 0.66 2.64 1.32 4 2 C2.25 5.875 2.25 5.875 0 7 C-0.66 6.34 -1.32 5.68 -2 5 C-1.34 3.35 -0.68 1.7 0 0 Z " fill="#3A8DDB" transform="translate(95,136)"/>
<path d="M0 0 C0.66 0.66 1.32 1.32 2 2 C2.33 2 2.66 2 3 2 C3 3.98 3 5.96 3 8 C0.5 6.1875 0.5 6.1875 -2 4 C-2 3.01 -2 2.02 -2 1 C-1.34 0.67 -0.68 0.34 0 0 Z " fill="#76B417" transform="translate(85,90)"/>
<path d="M0 0 C1.65 0 3.3 0 5 0 C5 1.32 5 2.64 5 4 C3.35 4 1.7 4 0 4 C0 2.68 0 1.36 0 0 Z " fill="#1D71A3" transform="translate(164,86)"/>
<path d="M0 0 C2.97 0.33 5.94 0.66 9 1 C8.67 2.65 8.34 4.3 8 6 C6.68 5.34 5.36 4.68 4 4 C4.66 4 5.32 4 6 4 C5.67 3.34 5.34 2.68 5 2 C2.47266765 1.34444881 2.47266765 1.34444881 0 1 C0 0.67 0 0.34 0 0 Z " fill="#327397" transform="translate(148,79)"/>
<path d="M0 0 C1.2684375 0.12375 1.2684375 0.12375 2.5625 0.25 C3.2225 1.24 3.8825 2.23 4.5625 3.25 C1.9225 3.58 -0.7175 3.91 -3.4375 4.25 C-3.4375 0.3525641 -3.4375 0.3525641 0 0 Z " fill="#16699C" transform="translate(127.4375,136.75)"/>
<path d="M0 0 C0.33 0 0.66 0 1 0 C1 2.97 1 5.94 1 9 C1.66 9 2.32 9 3 9 C3 10.32 3 11.64 3 13 C2.01 13 1.02 13 0 13 C0 8.71 0 4.42 0 0 Z " fill="#1171B0" transform="translate(174,112)"/>
<path d="M0 0 C-0.33 1.65 -0.66 3.3 -1 5 C-1.66 4.34 -2.32 3.68 -3 3 C-5.32275177 2.59952556 -7.65739357 2.2602896 -10 2 C-6.3558226 -0.4294516 -4.28758728 -0.16179575 0 0 Z " fill="#C5DEE2" transform="translate(208,107)"/>
<path d="M0 0 C0.99 0.33 1.98 0.66 3 1 C3.33 3.31 3.66 5.62 4 8 C3.01 8 2.02 8 1 8 C1 6.35 1 4.7 1 3 C0.34 3 -0.32 3 -1 3 C-0.67 2.01 -0.34 1.02 0 0 Z " fill="#148202" transform="translate(94,87)"/>
<path d="M0 0 C0.66 0.33 1.32 0.66 2 1 C2 2.65 2 4.3 2 6 C0.68 6.33 -0.64 6.66 -2 7 C-2.66 5.35 -3.32 3.7 -4 2 C-3.34 2 -2.68 2 -2 2 C-2 2.66 -2 3.32 -2 4 C-1.34 4 -0.68 4 0 4 C0 2.68 0 1.36 0 0 Z " fill="#4082AD" transform="translate(206,144)"/>
<path d="M0 0 C0.66 0.33 1.32 0.66 2 1 C1.67 3.31 1.34 5.62 1 8 C0.01 7.67 -0.98 7.34 -2 7 C-2.125 4.625 -2.125 4.625 -2 2 C-1.34 1.34 -0.68 0.68 0 0 Z " fill="#DDF0F5" transform="translate(142,113)"/>
<path d="M0 0 C0.66 0.33 1.32 0.66 2 1 C1.67 1.99 1.34 2.98 1 4 C-1.64 4 -4.28 4 -7 4 C-4.61426621 2.10786631 -2.92824652 0.97608217 0 0 Z " fill="#EBF3F2" transform="translate(135,96)"/>
<path d="M0 0 C0.33 0.99 0.66 1.98 1 3 C-0.4375 5.1875 -0.4375 5.1875 -2 7 C-2 6.34 -2 5.68 -2 5 C-3.65 5.33 -5.3 5.66 -7 6 C-4.83312509 3.72478134 -2.54379491 1.84205838 0 0 Z " fill="#DCF2F5" transform="translate(81,157)"/>
<path d="M0 0 C0 0.66 0 1.32 0 2 C-7.42857143 2.28571429 -7.42857143 2.28571429 -11 0 C-7.18243176 -1.37432457 -3.92744671 -0.67975039 0 0 Z " fill="#42BFE7" transform="translate(79,154)"/>
<path d="M0 0 C0.33 0 0.66 0 1 0 C1.28875 1.093125 1.5775 2.18625 1.875 3.3125 C2.81893204 7.04013845 2.81893204 7.04013845 5 10 C3.35 9.67 1.7 9.34 0 9 C0 6.03 0 3.06 0 0 Z " fill="#DDEFF6" transform="translate(120,142)"/>
<path d="M0 0 C1.04059132 3.12177395 1.32284898 4.07083439 0 7 C-2.5625 8.25 -2.5625 8.25 -5 9 C-3.35 6.03 -1.7 3.06 0 0 Z " fill="#E2EDF2" transform="translate(107,126)"/>
<path d="M0 0 C2.31 0 4.62 0 7 0 C7.33 0.66 7.66 1.32 8 2 C3.545 2.495 3.545 2.495 -1 3 C-0.67 2.01 -0.34 1.02 0 0 Z " fill="#3F9AE4" transform="translate(33,113)"/>
<path d="M0 0 C3.68754757 0.49831724 5.60490662 1.10067643 8 4 C6.02 4 4.04 4 2 4 C1.34 2.68 0.68 1.36 0 0 Z " fill="#7EC816" transform="translate(76,100)"/>
<path d="M0 0 C1.32 1.32 2.64 2.64 4 4 C3.67 4.66 3.34 5.32 3 6 C1.68 6 0.36 6 -1 6 C-0.67 4.02 -0.34 2.04 0 0 Z " fill="#EDFAF6" transform="translate(26,90)"/>
<path d="M0 0 C2 2 2 2 2 6 C2.66 6 3.32 6 4 6 C4 6.66 4 7.32 4 8 C2.68 8 1.36 8 0 8 C-1.125 2.25 -1.125 2.25 0 0 Z " fill="#DDF6F9" transform="translate(18,76)"/>
<path d="M0 0 C1.65 0 3.3 0 5 0 C5 0.66 5 1.32 5 2 C5.99 2.33 6.98 2.66 8 3 C4.37673261 4.2077558 3.35853631 3.54311128 0 2 C0 1.34 0 0.68 0 0 Z " fill="#2D78A3" transform="translate(142,148)"/>
<path d="M0 0 C1.65 0.33 3.3 0.66 5 1 C4 3 4 3 0.9375 4.125 C-0.031875 4.41375 -1.00125 4.7025 -2 5 C-1.34 3.35 -0.68 1.7 0 0 Z " fill="#38BEF1" transform="translate(43,144)"/>
<path d="M0 0 C0.99 0 1.98 0 3 0 C3 2.31 3 4.62 3 7 C2.34 7 1.68 7 1 7 C0.67 4.69 0.34 2.38 0 0 Z " fill="#77B417" transform="translate(76,85)"/>
<path d="M0 0 C0.125 2.375 0.125 2.375 0 5 C-0.66 5.66 -1.32 6.32 -2 7 C-2.99 6.67 -3.98 6.34 -5 6 C-4.23844604 3.71533812 -2.984409 0 0 0 Z " fill="#D9EBF4" transform="translate(148,115)"/>
<path d="M0 0 C0.66 0 1.32 0 2 0 C2.33 2.64 2.66 5.28 3 8 C2.34 8 1.68 8 1 8 C0.67 5.36 0.34 2.72 0 0 Z " fill="#E4F3F0" transform="translate(17,112)"/>
<path d="M0 0 C0.66 0 1.32 0 2 0 C1.67 2.64 1.34 5.28 1 8 C-1 6 -1 6 -1.1875 3.4375 C-1 1 -1 1 0 0 Z " fill="#F5FCFC" transform="translate(130,85)"/>
<path d="M0 0 C2.625 0.9375 2.625 0.9375 5 2 C4.67 2.66 4.34 3.32 4 4 C1.5625 3.625 1.5625 3.625 -1 3 C-1.33 2.34 -1.66 1.68 -2 1 C-1.34 0.67 -0.68 0.34 0 0 Z " fill="#E8F6F5" transform="translate(75,74)"/>
<path d="M0 0 C0.598125 0.20625 1.19625 0.4125 1.8125 0.625 C1.1525 0.625 0.4925 0.625 -0.1875 0.625 C-0.1875 1.285 -0.1875 1.945 -0.1875 2.625 C-1.5075 2.625 -2.8275 2.625 -4.1875 2.625 C-4.5175 3.945 -4.8475 5.265 -5.1875 6.625 C-5.375 4.25 -5.375 4.25 -5.1875 1.625 C-2.1875 -0.375 -2.1875 -0.375 0 0 Z " fill="#68DEEF" transform="translate(22.1875,67.375)"/>
<path d="M0 0 C2.64 0.66 5.28 1.32 8 2 C8 2.33 8 2.66 8 3 C5.36 3.33 2.72 3.66 0 4 C0 2.68 0 1.36 0 0 Z " fill="#2BC0E2" transform="translate(96,63)"/>
</svg>
